<svg xmlns="http://www.w3.org/2000/svg" width="1067" height="1600" viewBox="0 0 1067 1600"><title>grand-tour-vtracer — orbits</title><path fill="#4a3b40" d="M762 423h29c-1.4 4.2-2.4 7.1-4.5 10.7-.3.5-.3.5-1.6 2.7-.5 1-1.1 1.9-1.7 2.9-1.1 2.1-2.3 4.1-3.4 6.1-.7 1.1-1.3 2.2-1.9 3.3-3.2 5.7-6.4 11.4-9.7 17.1l-1.8 3.3c-4.3 7.6-4.3 7.6-5.4 9.9.6.6 1.2 1.1 1.8 1.7 2.2 2.3 2.2 2.3 3.8 4.9 1.4 2.4 1.4 2.4 4.4 4.4 1 1.6 2 3.3 3 5 1.5 2.1 3.1 4.2 4.7 6.3.4.6.8 1.1 1.2 1.7 1.1 1.3 2.1 2.7 3.1 4q3.15-4.05 5.7-8.4c12.1-19.9 25.1-39 41-56.1 2-2.2 4-4.4 5.9-6.6.2-.3.2-.3 1.6-1.8 1.2-1.4 2.4-2.9 3.6-4.4 3.1-3.7 5.6-6.3 10.4-7.5 3.9-.3 7.7-.3 11.6-.2h4.4c4 0 8 0 12 .1 4.2 0 8.4 0 12.5.1 7.9 0 15.9.1 23.8.2 9 .1 18 .1 27 .1 18.5.1 37 .3 55.5.5v170.4c0 17.9 0 35.9.1 53.9v356.3c0 6.3 0 6.3-1.1 7.4-2.9.1-5.8.1-8.7.1h-37.9c-6-.1-12.1-.1-18.1-.1h-41.8c-10.7 0-21.5-.1-32.2-.1h-11.6c-21.6 0-43.2-.1-64.8-.1h-22.3c-25.9-.1-51.7-.1-77.5-.2-29 0-58 0-87-.1h-11.6c-12.2 0-24.5-.1-36.7-.1h-37c-6.7-.1-13.3-.1-20-.1h-36.6c-6-.1-6-.1-8.2-2.3v-4h2v-2c77.4-.2 77.4-.2 469-1-5.3-3.3-10.6-6.6-16-10-1.4-1.2-2.9-2.4-4.3-3.6-6.7-4.4-15.7-3.2-23.4-3.1-1.9 0-3.8-.1-5.7-.1-5.1 0-10.2 0-15.4.1-5.3 0-10.7 0-16.1-.1h-30.5c-18.2.1-36.4 0-54.7 0h-44.2c-.7 0-1.4.1-2.2.1-3.6-.1-6.5-.1-9.5-2.3-1-2.9-1-2.9-1-6 1.6-2.2 1.6-2.2 4-4 3.2-.5 3.2-.5 7.2-.5h2.2q3.6-.15 7.2 0c1.7-.1 3.5-.1 5.2-.1h14.1c5 0 9.9 0 14.8-.1h28c10.6 0 21.2-.1 31.8-.1 21.8-.1 43.7-.2 65.5-.2-1.6-1.4-3.2-2.9-4.7-4.3l-2.7-2.4c-2.2-2-4.5-3.9-6.7-5.9-5.1-4.4-9.8-9.3-14.6-14.2-2.3-2.2-2.3-2.2-4.7-4-2.9-2.5-4.9-5.2-7.1-8.3-2-2.5-4.2-4.7-6.5-6.9q-3.6-4.2-6.9-8.4c-1.3-1.6-2.5-3.1-3.8-4.6-7-8.5-15.2-18.4-19.4-28.6-1.9-2.4-1.9-2.4-5.6-3h-7.2c-2.8 0-5.6.1-8.4.1h-5.9c-5.1.1-10.2.1-15.3.2-5.3 0-10.5 0-15.7.1-10.3 0-20.5.1-30.8.2-.3.6-.6 1.2-.9 1.9-1.1 2.1-1.1 2.1-3.1 4.1h61c-1.7 3.4-2.6 4.8-5.2 7.2-2.5 2.5-4.9 5-7.2 7.7C741 914.2 741 914.2 735 917c-2.5 2.3-4.8 4.8-7.1 7.2-1.9 1.8-1.9 1.8-4.9 2.8-.7 1-1.3 2-2 3h-3c-.3 1-.7 2-1 3h-3v2c-1 .3-2 .7-3 1-.3.7-.7 1.3-1 2-1.7 1-3.3 2-5 2.9-1.9 1-3.6 2.1-5.4 3.3C659.8 970 614.1 985.7 567 991c-.4 0-.4 0-2.3.3-44 4.8-88.9-1.4-130.7-15.3 1.3-2.7 2.7-5.1 4.6-7.5.4-.5.9-1.1 1.3-1.6.3-.4.3-.4 1.7-2.1 1.8-2.3 3.6-4.5 5.4-6.8-6.3-.3-12.5-.7-19-1 1.9-4.8 4.1-7.7 7.4-11.4 4.2-4.8 8.2-9.5 12-14.5 3.9-5 7.9-10 12-14.9 5-6.2 10-12.5 14.8-18.9q5.25-7.05 10.8-13.8c5.9-7.3 11.6-14.7 17.2-22.2 1.9-2.4 3.8-4.9 5.7-7.4 7.1-9.3 14.2-18.6 21.1-28.1 3.6-5 7.3-9.9 11.1-14.9 7-9.3 13.8-18.8 20.6-28.3 1.7-2.4 3.5-4.8 5.2-7.2l1.5-2.1c1-1.4 2-2.7 3-4 1.6-2.3 1.6-2.3 2.9-4.6 2.4-3.9 4.2-6.3 8.7-7.5 3.9-.3 7.7-.4 11.6-.3h4.5c4.2 0 8.3 0 12.4.1H647c11.1.1 22.2.1 33.4.2 18.1 0 36.1 0 54.2.1 17.6.1 35.1.2 52.7.2h19.6c45 .1 90.1.3 135.1.5.3-.6.6-1.2.9-1.9 1.6-3.2 3.7-5.5 6.1-8.1h2v-2H608c1.6-4 2.9-6.6 5.3-10 .7-.9 1.3-1.8 2-2.8l2.1-3c1.5-2.1 2.9-4.1 4.4-6.2.7-1 1.4-2 2.2-3.1 3.2-4.6 6.4-9.3 9.5-13.9 1.2-1.7 2.3-3.4 3.5-5 .5-.9 1-1.8 1.6-2.7 3.1-3 4.8-2.9 9-2.9.9 0 1.8 0 2.7.1h2.9c3.2 0 6.4 0 9.6.1h6.9c4.9 0 9.9.1 14.8.1 7.8.1 15.7.2 23.5.2 11 .1 22 .1 32.9.2h2.1c7.8.1 15.6.2 23.3.2h2.1c1.4.1 2.9.1 4.3.1h4.2c11.5.1 23.1.2 34.7.2 7.8.1 15.6.1 23.3.2 4.9.1 9.7.1 14.6.1 2.2 0 4.5.1 6.7.1 12.4.2 21.1-.1 31-8 4.4-3.2 8.4-3 13.7-2.6.9.1 1.8.1 2.7.2 2.1.1 4.3.2 6.4.4-3.3-2.3-6.6-4.6-10-7 2.4-4.9 2.4-4.9 5-7h2v-2H658c1.2-1.8 1.2-1.8 7-11 1-2.4 2-4.9 2.8-7.4 3.5-8.6 7.5-17.3 16.2-21.6 18.1-4.6 39.7-1.7 58 0 .3-2 .7-4 1-6h-73c5-9 5-9 6-10 2.1-.1 4.3-.1 6.4-.1h25.7c4.1 0 8.3 0 12.4.1H745c.3-2.3.7-4.6 1-7h-65c1.6-4 3.1-6.9 5.5-10.4.7-1.1 1.3-2.1 2.1-3.2.3-.6.7-1.1 1.1-1.7 1.9-2.9 3.8-5.8 5.8-8.7.3-.6.7-1.2 1.1-1.8 5.2-7.9 10.1-15.9 15-24 1.3-2.1 2.6-4.2 3.9-6.2.4-.6.8-1.3 1.1-1.9 1-1.5 2-3.1 2.9-4.6 1.3-2.1 2.4-4.3 3.5-6.5h-21c1.6-4.8 2.7-7.1 5.6-10.9 1.5-2.3 2.7-4.6 3.9-7.1 2.9-6 6.1-11.6 9.4-17.4 8-13.9 15.1-28.2 22.1-42.6h2l.3-2.1c.9-3.6 2.5-6.8 4.3-10.1 4.5-8.8 8.4-17.7 12.4-26.8"/><path fill="#4a3b40" d="M911 152c6.6 7 7.2 14.9 7.1 24.2-.4 10.3-.4 10.3-2.1 13.8h81v3h-82c-.3 3-.7 5.9-1 9-.3 1.5-.7 3.1-1.1 4.6-.2.7-.4 1.5-.7 2.3-.1.4-.1.4-.7 2.5-.3.9-.5 1.8-.8 2.7-2.2 7.4-4.5 14.6-7 21.8-.3 1-.7 2-1 3-3.8 10.9-8.3 21.4-12.7 32.1 35.3.3 70.6.7 107 1v20h-8.2c-26-.1-52.1-.1-78.1 0h-50.3c-15.9-.1-31.9-.1-47.9 0h-26.3q-11.25-.15-22.5 0H752c-3.6-.1-7.1 0-10.7 0-1.9 0-3.8 0-5.8-.1-5.8.1-9.6.5-13.9 4.7-1.2 1.4-2.4 2.9-3.6 4.4-2.3 2.6-4.6 5.3-7 8 53.1.3 106.3.7 161 1-1.3 3-2.6 5.9-4 9h130v104c-10.7-.1-21.3-.2-32.3-.3h-20.3c-10.8 0-21.5-.1-32.3-.2-7.8-.1-15.6-.1-23.4-.1-4.2 0-8.3 0-12.4-.1-28.6-.5-28.6-.5-36.4 6.5-2.1 2.4-4 4.8-5.7 7.4-1.8 2.8-4 5.2-6.1 7.7-.7.8-1.3 1.6-1.9 2.4-1.8 2.2-3.6 4.3-5.5 6.5-3.7 4.2-7.1 8.6-10.5 13.1-.6.9-1.2 1.7-1.8 2.5-9.2 12.7-17.4 26.1-25.4 39.6-3.1-3-6-6.1-8.7-9.6-.6-.7-1.2-1.5-1.7-2.2-1.6-2.2-1.6-2.2-2.6-4.3-1.4-2.7-3.7-4.1-6-5.9-.3-1-.7-2-1-3-1.3-1.4-2.6-2.7-4-4 4.9-9.4 10.1-18.6 15.3-27.8 5.4-9.4 10.5-18.8 15.7-28.2h-29c-.3 1.6-.7 3.3-1 5-.7 1.8-1.5 3.6-2.3 5.4-.5 1-1 2-1.5 3.1-.4 1-.9 2.1-1.4 3.2-.5 1-1 2.1-1.5 3.1q-4.5 9.75-9.3 19.2c-5.9-2.9-10.4-6.4-15-11-2.5-2.1-5-4.1-7.6-6.1-2-1.6-3.9-3.2-5.8-4.8-2.6-2.1-2.6-2.1-5.6-3.1v-2h-3v-2c-.5-.1-1.1-.2-1.7-.2-3.1-1-5.1-2.8-7.7-4.8-6.8-4.6-11.9-5.1-19.9-4.9-1.3 0-2.6-.1-3.9-.1-3.6 0-7.1.1-10.7.1-3.8.1-7.6.1-11.5.1h-19.9c-9.6.1-19.2.2-28.8.2-15.6 0-31.2.1-46.8.2-15.1 0-30.2.1-45.3.2h-2.9c-10.1 0-20.3.1-30.5.1h-13.5c-10.4.1-20.9.1-31.3.2-6.6 0-13.2.1-19.7.1h-11.4c-4.1.1-8.2.1-12.3.1h-3.6c-15.4 0-29.1-5.1-40.3-15.9-11.8-12.6-14.8-25.4-14.6-42.1.5-13.5 7.4-25.3 17.1-34.5 9.5-7.9 21.5-12.9 33.9-12.9h316.5c4.2-1.3 6.2-4.4 8.8-7.9h-3.1c-45.3 0-90.6-.1-135.9-.2h-46.8c-7.3 0-14.6-.1-21.9-.1h-72.9c-24.2-.1-48.4-.1-72.7-.1-3.4-.1-6.8-.1-10.2-.1h-67.3c-5.9-.1-11.8-.1-17.7-.1h-32.3c-6.4-.1-11-1.5-16-5.7-4.3-5.2-5.8-9.4-5.5-16.2.6-4.9 2.3-8.7 6-12.1 5.5-4.1 10.1-4.5 16.8-4.5h18.2c4.7 0 9.4.1 14.1.1h33.1c4.9 0 9.8 0 14.7.1h104.7c10.2 0 20.4.1 30.6.1h2.4c25.4 0 50.7 0 76.1.1 26.1.1 52.1.1 78.2.1h13.3c11.6-.1 23.3 0 35 0 11.7.1 23.4.1 35.1.1 6.4-.1 12.8-.1 19.1 0h23.8c16.5.3 16.5.3 21.7-4.1 2.8-2.8 5.1-6.1 7.4-9.4 1.7-1.9 3.6-3.7 5.4-5.6 1-.9 1.9-1.8 2.8-2.7 1-1 1.9-2 2.9-2.9 1-1 2-2 3-3.1 2.1-2.1 4.3-4.2 6.4-6.3 2.7-2.7 5.3-5.4 8-8.1l6.3-6.3c1-.9 2-1.9 3-2.9 5-5.1 10.1-10 15.5-14.7 3.6-3 7-6.2 10.4-9.4 2.3-2 2.3-2 4.3-3-67-.3-134-.7-203-1v-3h3.2c25.8.1 51.6.2 77.4.2 12.5 0 25 0 37.5.1H789c5.4.1 10.9.1 16.3.1 2-.1 4 0 5.9 0 12.3.2 20-1.2 29.1-9.7l2.7-2.7c1.3-1.1 2.7-2.1 4-3.1.6-.4 1.1-.8 1.6-1.2C894 140.3 894 140.3 911 152M653.65 696.5h4c3 0 5.9.1 8.9.1 4.8.1 9.7.1 14.6.1 5.3.1 10.7.1 16.1.2 14.6.1 29.2.1 43.8.2h17.3c15.5 0 31 .1 46.5.1 12.3.1 24.5.1 36.8.1 11 .1 22 .1 32.9.1 5.7.1 11.5.1 17.2.1 5.3 0 10.7 0 16 .1h5.8c28.9-.1 56.1 4.9 81.5 19.4 2.5 2.5 2.2 3.5 2.4 7.1 0 1 0 2.1.1 3.2 0 1.1 0 2.3.1 3.5 0 1.2 0 2.4.1 3.6.4 13.8.4 27.6.3 41.4V870h-73.7q-24 .15-48 0h-26.3c-7.8.1-15.6.1-23.5 0h-12.2c-3.8.1-7.6 0-11.4 0h-4.2c-10.5.2-10.5.2-13.7-2.7-1.3-2.1-2.2-4-3-6.3-.3-.5-.3-.5-1.7-3-.4-1-.9-1.9-1.4-2.9s-1-2-1.5-3.1c-.3-.5-.3-.5-1.6-3.2-1-2.1-2.1-4.2-3.1-6.3-.5-1-.9-1.9-1.4-2.9-1.3-2.6-1.3-2.6-3-5-1.3-2.6-1.3-2.6-2.3-9.6h32c.3 1.3.6 2.6 1 4h3.7c4.7.1 9.3.1 14 .2 2 0 4 .1 6 .1 20.1.1 20.1.1 28.9 3.8 12 4.8 26.6 2.2 38.4-2.1.6-.3 1.3-.7 2-1 11-1.2 22.1-1.3 33.1-1.4.7 0 .7 0 3.8-.1 1.1 0 2.2-.1 3.4-.1.4-.1.4-.1 2.7-.4.6-1 1.3-2 2-3-1.1 0-2.2 0-3.3-.1-3.9 0-7.9-.1-11.8-.2-1.7-.1-3.4-.1-5.1-.1-2.5-.1-4.9-.1-7.4-.2h-2.3c-6.9-.2-11.6-1.6-16.9-6.1-4.3-3.6-8.7-6.8-13.4-9.9-.6-.4-1.2-.9-1.8-1.4v-2c2.4-1.2 4.9-2.3 7.3-3.5.7-.3 1.4-.7 2.1-1 5.3-2.5 5.3-2.5 7.6-2.5v-2c-12-3.1-23-5-35.4-3.3-4.3.5-6.9-.2-10.6-2.7v-1h150v-10c-81.2-.3-162.4-.7-246-1-3-9-3-9-5-20h197c.6-1.3 1.3-2.6 2-4 1.5-2.2 3.2-4 5-6h2v-2h-343c1.5-4 2.9-6.6 5.3-10 .6-.9 1.3-1.8 2-2.8l2.1-3c1.4-2.1 2.9-4.1 4.3-6.2.4-.5.4-.5 2.2-3.1 3.2-4.6 6.4-9.3 9.6-13.9 1.1-1.7 2.3-3.4 3.5-5 .4-.9.8-1.8 1.3-2.7 4.5-3.9 9.6-2.9 15.3-2.8"/><path fill="#873657" d="M857.813 218.188c4.7 3.9 7.3 7.8 8.2 13.8.6 7.2-.2 14.1-1.3 21.1-.1.8-.3 1.5-.4 2.2-1 5.8-2.6 11-4.3 16.7h29c-2 6-2 6-4 10h-28c.6-3.3 1.3-6.6 2-10h-91c4.5-5.6 4.5-5.6 7.4-8 .7-.6 1.4-1.2 2.1-1.9.4-.3.4-.3 2.5-2.1 1-.9 2-1.8 3-2.6 54.6-47.7 54.6-47.7 74.8-39.2M794 880c13.4 0 26.7-.1 40.1-.1h3.1c37.2 0 74.5.2 111.7.6h3.7c15.1.2 30.3.3 45.4.5v6h-64c.3 1 .7 2 1 3-4.1.2-4.1.2-25 1 2.1 1.4 4.3 2.7 6.5 4.1 11.3 7.3 11.3 7.3 15.5 10.9v1c-15.4.6-30.8 1.1-46.2 1.4-7.2.2-14.3.4-21.5.7-6.2.2-12.5.4-18.7.5l-9.9.3c-20 1-20 1-26.2-3.8-5-5.4-8.4-11.5-11.5-18.1-.8-1.6-1.6-3.1-2.3-4.6-.6-1.2-1.1-2.3-1.7-3.4"/><path fill="#906150" d="M605 672c3.6-.7 3.6-.7 7.3-.4 1.3 0 2.5.1 3.8.2 1 0 1.9.1 2.9.2-1.6 2.5-3.2 5.1-4.8 7.6-1.6 2.4-3 4.9-4.4 7.5-4.6 8.2-4.6 8.2-7.8 10.9-4.9 1.2-9.1 1-14 0 .8-1.3.8-1.3 5-8H405c-1-4-.8-6.1 0-10h8c-1.6 1.7-2.9 2.9-5 4 7.6.3 15.2.7 23 1v-5h65.8q15.3-.15 30.6 0c8.9 0 17.8 0 26.7-.1h32.2c12.4.1 12.4.1 15.7-2.5 1.3-1.9 1.3-1.9 3-5.4m178 192c.5.6 1.1 1.3 1.6 2 3 2.5 4.5 2.5 8.3 2.5 1.3 0 2.5 0 3.7.1 1.4-.1 2.7-.1 4.1-.1s2.8 0 4.3.1h24c7.9.1 15.8.1 23.7.1 9.6 0 19.1 0 28.7.1H907c30.3.1 60.7.5 91 1.2v6c-48.4.9-96.8 1.1-145.1 1.1h-16.4c-43.2.1-86.3-.3-129.5-1.1-.3-.6-.6-1.2-.9-1.9-1.1-2.1-1.1-2.1-3.1-4.1 7.2-1.2 14.3-1.2 21.5-1.2h6.9c6.4-.1 12.9-.1 19.3-.1 4 0 8-.1 11.9-.1h4.5c2.2 0 4.3 0 6.4-.1h3.6c2.9-.5 2.9-.5 4.8-2.5.4-.7.7-1.3 1.1-2"/><path fill="#873757" d="M233.313 273.188c5.5 3.7 8.8 7.4 10.7 13.8.3 6.7-1.1 11.6-5 17-4.3 4.1-7.9 5.8-13.9 6.3-5.5-.1-9.6-2-13.9-5.6-4.3-5.2-5.8-9.4-5.6-16.2.7-4.9 2.4-8.7 6.1-12.1 6.6-4.8 13.8-6 21.6-3.2"/><path fill="#4a3b40" d="M622.858 697.886h5c.9 0 1.8 0 2.7.1h9.4c-3.4 6.3-7.4 12.1-11.5 18-1.5 2-2.9 4-4.3 6.1l-2.1 3c-2.9 4.1-5.7 8.1-8.5 12.2-.4.7-.9 1.3-1.4 2-3 4.5-3 4.5-4.2 6.7h-20c4.5-7.9 4.5-7.9 7-11.3.6-.8 1.1-1.6 1.7-2.4.5-.8 1.1-1.6 1.7-2.5 1.3-1.7 2.5-3.5 3.7-5.3.7-.9 1.3-1.8 2-2.7 2-2.8 4-5.7 5.9-8.5.7-.9 1.3-1.8 2-2.8 1.2-1.8 2.5-3.5 3.7-5.3.5-.8 1.1-1.6 1.7-2.4.5-.7 1-1.4 1.5-2.2 1.9-2.6 1.9-2.6 4-2.7"/><path fill="#873658" d="M907 778c9.1 0 18.2 0 27.3-.1h29.6c10.7 0 21.4.4 32.1 1.1v10h-89l8-8c-2.6-.7-5.3-1.3-8-2zm-157 0h78c-.7.3-1.3.7-2 1v2c-1 .2-1.9.4-2.9.6-3.3.9-5.4 2.3-8 4.4-5.9 4.1-11.5 3.8-18.4 3.6h-3.8c-3.3-.1-6.6-.1-9.9-.2-3.4 0-6.8-.1-10.2-.1L753 789c-.5-1.5-1-2.9-1.5-4.4-.3-.8-.6-1.6-.8-2.4-.7-2.2-.7-2.2-.7-4.2"/><path fill="#906150" d="M348.43 444.64h8.6c3.4 0 6.8 0 10.1.1h7c6.1 0 12.2 0 18.4.1h18.7c12.3 0 24.5.1 36.8.2v1c-.7.1-1.4.2-2 .3l-9.3 1.5c-1 .1-2.1.3-3.1.5-1.1.1-2.1.3-3.2.5-1 .1-1.9.3-2.9.5-3.5.7-3.5.7-6 1.4-9.2 2.7-18 2.6-27.5 2.6-1.8-.1-3.5-.1-5.2-.1h-13.3c-4.6-.1-9.2-.1-13.7-.1-9 0-17.9-.1-26.8-.1 8.1-8.4 8.1-8.4 13.4-8.4"/><path fill="#8f6050" d="M997 466h1v251h-1c-.8-3.4-1.6-6.7-2.4-10.1-.3-.9-.5-1.8-.7-2.8-1.2-5-2.3-10-2.9-15.1h5v-8c-2.6.3-5.3.7-8 1-3-7.3-5.9-14.5-9-22 1.3-.7 1.3-.7 7.9-4 .4-.2.4-.2 2.5-1.3.6-.3 1.2-.6 1.9-.9.7-.4 1.3-.7 2-1.1 1.7-.7 1.7-.7 3.7-.7z"/><path fill="#8e6150" d="M890 672h17v2c-2 1.7-4 3.4-6 5-.3.7-.7 1.3-1 2 .7.2 1.4.5 2.1.7 3.6 1.6 6 3.6 8.9 6.3v1h-20v-3c.3 0 .3 0 1.9-.2 2.1-.8 2.1-.8 3.3-2.9.3-.6.5-1.2.8-1.9h2c-1.2-3.5-1.9-3.8-5.1-5.6L890 673z"/><path fill="#8b4954" d="M998 335v65h-14v-1h13v-57h-21c3.7-2.5 7.4-3.7 11.6-5.2.7-.3 1.5-.6 2.3-.9 5.9-2 5.9-2 8.1-.9"/><path fill="#873658" d="M841 698h33c-6.4 5.1-6.4 5.1-12.9 5.1h-7.2c-1.3 0-2.5 0-3.8-.1H841zm101-95h18c-2 4-4 7.9-6 12-4.7-1.2-5.4-2.3-8.2-6-.8-.9-1.5-1.8-2.2-2.8-1.6-2.2-1.6-2.2-1.6-3.2"/></svg>