<svg xmlns="http://www.w3.org/2000/svg" width="1067" height="1600" viewBox="0 0 1067 1600"><title>grand-tour-vtracer — stripes</title><path fill="#c73b42" d="M382.675 318.877h133.1c15.7.1 31.4.1 47.1.1h138.1c-2.7 4.2-5.5 7.9-8.9 11.5-2.6 2.8-5 5.4-7.1 8.7-1.7 1.9-2.6 2.7-5.1 3.4-2.7.2-5.4.2-8.1.1-.5 0-.5 0-3.2.1-3.5 0-7-.1-10.5-.1h-23.6c-7.8-.1-15.6-.1-23.4-.1-12.7 0-25.3-.1-38-.1-12.3-.1-24.5-.1-36.8-.1-.8 0-1.5-.1-2.3-.1h-11.4c-31.5 0-63.1-.1-94.6-.3.4.6.7 1.1 1.1 1.6.2.4.2.4 1.3 2.2.5.7.9 1.3 1.4 2.1 5.9 10.2 6.1 24.7 3.4 36.1-1.6 5.4-3.6 10-6.2 15h568v-57h-141c9-19 9-19 11-23h131v104c-10.6-.1-21.3-.2-32.3-.3h-20.3c-10.8 0-21.5 0-32.2-.2-7.9 0-15.7-.1-23.5-.1h-12.4c-28.6-.5-28.6-.5-36.4 6.5-2.1 2.3-4 4.7-5.7 7.4-1.8 2.7-4 5.1-6.1 7.6-.6.8-1.3 1.6-1.9 2.4-1.8 2.2-3.6 4.4-5.5 6.5-3.7 4.2-7.1 8.6-10.4 13.2-.6.8-1.2 1.6-1.9 2.5-9.2 12.7-17.4 26-25.4 39.5-3.1-3-6-6.1-8.7-9.5-.5-.8-1.1-1.5-1.7-2.3-1.6-2.2-1.6-2.2-2.6-4.3-1.4-2.7-3.6-4-6-5.9-.3-1-.6-2-1-3-1.3-1.3-2.6-2.7-4-4 4.9-9.4 10.1-18.6 15.4-27.8 5.3-9.3 10.5-18.8 15.6-28.2h-29c-.3 1.7-.6 3.3-1 5-.7 1.8-1.5 3.6-2.3 5.4-.5 1-.9 2.1-1.4 3.1-.5 1.1-1 2.1-1.5 3.2-.5 1-1 2.1-1.5 3.2-3 6.4-6.1 12.8-9.3 19.1-5.9-2.9-10.3-6.3-15-11l-7.5-6c-2-1.6-4-3.2-5.9-4.9-2.6-2.1-2.6-2.1-5.6-3.1v-2h-3v-2c-.2 0-.2 0-1.6-.2-3.1-1-5.2-2.8-7.8-4.8-6.7-4.5-11.9-5.1-19.9-4.9h-14.5c-3.9.1-7.7.1-11.5.1-6.7 0-13.3 0-19.9.1-9.6 0-19.3.1-28.9.1-15.6 0-31.2.1-46.8.2-15.1.1-30.2.1-45.3.2h-2.8c-10.2.1-20.4.1-30.6.1h-2.7c-3.6.1-7.1.1-10.7.1-10.5 0-21 0-31.4.1-6.6.1-13.1.1-19.7.1-3.8 0-7.6 0-11.4.1h-12.3c-1.2 0-2.3.1-3.6.1-15.4 0-29.1-5.2-40.3-16-11.8-12.6-14.8-25.3-14.5-42.1.4-13.5 7.3-25.3 17.1-34.5 9.5-7.8 21.4-12.9 33.8-12.9"/><path fill="#8b3656" d="M547 1051c1.6 1.9 3.2 3.7 4.7 5.6 4.4 4.8 8.1 6.4 14.5 6.8 3.3.1 6.5 0 9.8 0h20.4c5.4-.1 10.7 0 16.1 0 9.3 0 18.7 0 28-.1h105.9c21.2-.1 42.4-.1 63.6-.1h23.7c54.4 0 108.9-.1 163.3-.2v9c-122.4.3-244.9.7-371 1 .7 1.7 1.3 3.3 2 5-.7 1-1.3 2-2 3 122.4.3 244.9.7 371 1 1.1 9 1.1 9 1.1 13.4v19.6c0 2.3 0 4.6-.1 7v17c-18.1.2-36.2.4-54.2.5-8.4 0-16.8.1-25.2.2-7.4.1-14.7.1-22 .1-3.9.1-7.7.1-11.6.2h-11c-1.9 0-3.9.1-5.9.1-8-.1-12-1.7-17.7-7.3-2.4-2.8-2.4-2.8-4.7-6-4.3-5.6-8.1-8.9-15.2-9.9-7.1-.6-14.2-.5-21.3-.4h-25.8c-8.4.1-16.9.1-25.4.1-13.7 0-27.5 0-41.3.1-13.3 0-26.7.1-40 .1h-14.9c-34.3 0-68.5.1-102.8.2-.1.4-.1.4-.9 2.4-3.7 8.8-13.6 14.3-22.1 17.9-12.9 4.5-26.4 4.2-39-1.3-13.2-6.9-22.3-16.9-26.9-31.2-3.4-14.3-1.3-27.2 5.9-39.8-99.7-.3-199.3-.7-302-1v12c-1.9 5.8-5.7 9.1-10.9 12.1-4.9 2.1-9.9 1.3-14.8-.2-4.9-2.8-8.2-5.7-10.7-10.8-1.3-6.7-1.1-11.4 2.2-17.3 2.6-3.8 6.1-6 10.2-7.8 6.7-1 11.8-.3 17.3 3.6 1.7 1.4 1.7 1.4 3 3 2.3 1.9 3.8 1.8 6.9 1.8h72.4c14.2 0 28.4 0 42.6-.1H306c14.9-.1 29.7 0 44.6 0 15.2 0 30.5 0 45.7-.1H422c7.3.1 14.6 0 21.9 0H455c4.1 0 8.1 0 12.1-.1.6.1.6.1 3.6.1 7.9-.2 11.7-2.3 17.2-8.1 14.9-15.3 43.1-12.5 59.1-1.1"/><path fill="#c73a42" d="M911 152c6.6 7 7.2 14.9 7.1 24.2-.4 10.3-.4 10.3-2.1 13.8h81v3h-82c-.3 3-.7 5.9-1 9-.3 1.5-.7 3.1-1.1 4.6-.2.7-.4 1.5-.7 2.3-.1.4-.1.4-.7 2.5-.3.9-.5 1.8-.8 2.7-2.2 7.4-4.5 14.6-7 21.8-.3 1-.7 2-1 3-3.8 10.9-8.3 21.4-12.7 32.1 35.3.3 70.6.7 107 1v20h-8.2c-46.6-.1-93.2-.2-139.7.2-1.4 0-2.8 0-4.1.1h-10.5c-1.5.1-2.9.1-4.3.1-75.2.6-150.4.7-225.7.7H417.8c-58-.1-115.9-.1-173.8-.1-.2.5-.4 1.1-.6 1.6-.1.4-.1.4-.8 2.2-.2.7-.5 1.4-.7 2.1-2 4.7-4.8 7.5-9.2 10-5.7 1.7-9.7 1.7-15.4-.1-5.6-3-9.1-6.8-11.3-12.8-.8-5.9-.3-11 2.7-16.2 2.9-3.9 6.7-6.3 11.3-7.8 2.9-.1 5.7-.1 8.5-.1h18.2c4.7 0 9.4.1 14.1.1h33.1c4.9 0 9.8 0 14.7.1h104.7c10.2 0 20.4.1 30.6.1h2.4c25.4 0 50.7 0 76.1.1 26.1.1 52.1.1 78.2.1h13.3c11.6-.1 23.3 0 35 0 11.7.1 23.4.1 35.1.1 6.4-.1 12.8-.1 19.1 0h23.8c16.5.3 16.5.3 21.7-4.1 2.8-2.8 5.1-6.1 7.4-9.4 1.7-1.9 3.6-3.7 5.4-5.6 1-.9 1.9-1.8 2.8-2.7 1-1 1.9-2 2.9-2.9 1-1 2-2 3-3.1 2.1-2.1 4.3-4.2 6.4-6.3 2.7-2.7 5.3-5.4 8-8.1l6.3-6.3c1-.9 2-1.9 3-2.9 5-5.1 10.1-10 15.5-14.7 3.6-3 7-6.2 10.4-9.4 2.3-2 2.3-2 4.3-3-67-.3-134-.7-203-1v-3h3.2c25.8.1 51.6.2 77.4.2 12.5 0 25 0 37.5.1H789c5.4.1 10.9.1 16.3.1 2-.1 4 0 5.9 0 12.3.2 20-1.2 29.1-9.7l2.7-2.7c1.3-1.1 2.7-2.1 4-3.1.6-.4 1.1-.8 1.6-1.2C894 140.3 894 140.3 911 152"/><path fill="#4a3b40" d="M794 880c13.4 0 26.7-.1 40.1-.1h3.1c37.2 0 74.5.2 111.7.6h3.7c15.1.2 30.3.3 45.4.5 0 16.8 0 33.6.1 50.4v76.5c-.1 2.1-.1 2.1-1.1 3.1-2.9.1-5.8.1-8.7.1h-37.9c-6-.1-12.1-.1-18.1-.1h-41.8c-10.7 0-21.5-.1-32.2-.1h-11.6c-21.6 0-43.2-.1-64.8-.1h-22.3c-25.9-.1-51.7-.1-77.5-.2-29 0-58 0-87-.1h-11.6c-12.2 0-24.5-.1-36.7-.1h-37c-6.7-.1-13.3-.1-20-.1h-36.6c-6-.1-6-.1-8.2-2.3v-4h2v-2c77.4-.2 77.4-.2 469-1-5.3-3.3-10.6-6.6-16-10-1.4-1.2-2.9-2.4-4.3-3.6-6.7-4.4-15.7-3.2-23.4-3.1-1.9 0-3.8-.1-5.7-.1-5.1 0-10.2 0-15.4.1-5.3 0-10.7 0-16.1-.1h-30.5c-18.2.1-36.4 0-54.7 0h-44.2c-.7 0-1.4.1-2.2.1-3.6-.1-6.5-.1-9.5-2.3-1-2.9-1-2.9-1-6 1.6-2.2 1.6-2.2 4-4 3.2-.5 3.2-.5 7.2-.5h2.2q3.6-.15 7.2 0c1.7-.1 3.5-.1 5.2-.1h14.1c5 0 9.9 0 14.8-.1h28c10.6 0 21.2-.1 31.8-.1 21.8-.1 43.7-.2 65.5-.2-1.6-1.4-3.2-2.9-4.7-4.3l-2.7-2.4c-2.2-2-4.5-3.9-6.7-5.9-5.1-4.4-9.8-9.3-14.6-14.2-2.3-2.2-2.3-2.2-4.7-4-2.9-2.5-4.9-5.2-7.1-8.3-2-2.5-4.2-4.7-6.5-6.9q-3.6-4.2-6.9-8.4c-1.3-1.6-2.5-3.1-3.8-4.6-4.6-5.5-8.6-11.3-12.6-17.2-.5-.8-1-1.6-1.6-2.4-.5-.7-1-1.5-1.5-2.2-.4-.7-.8-1.3-1.3-2-1.6-2.7-2.9-5.4-4.3-8.2"/><path fill="#477d68" d="M404.629 421.606h11.5c7.5-.1 15 0 22.5 0h26.3c15.6 0 31.2.1 46.8.1 15.1.1 30.2.1 45.3.1h75.7c7.5 0 14.9 0 22.3.1h11.3c4.1 0 8.2 0 12.4.1 1.1-.1 2.3-.1 3.5-.1 8.1.2 12.8 2.4 19.2 7.2 2.2 1.6 4.1 2.8 6.6 3.9v2h3v2c.5.1 1.1.2 1.7.3 2.9.9 4.6 2.3 6.9 4.3.9.7 1.7 1.4 2.6 2.1.9.8 1.8 1.5 2.8 2.3 2.6 2 5.2 4.1 7.7 6.1 2.3 1.9 4.2 3.8 6.3 5.9 1.3 1 2.6 2 4 3-.7 4.1-2 7.3-3.8 11-.6 1.1-1.2 2.3-1.8 3.5s-1.2 2.4-1.9 3.7c-.6 1.3-1.2 2.5-1.9 3.8-4.9 9.8-10.2 19.5-15.6 29-1.1 1.8-2.1 3.7-3.2 5.6l-4.8 8.4c-7.7.3-15.3.5-22.9.7-2.6 0-5.2.1-7.8.2-22.8.9-22.8.9-28.3-3.4-2.9-2.9-4.9-6.1-7-9.5-1.9-1.9-1.9-1.9-3.5-3.3-5.3-4.6-5.3-4.6-7.5-6.7v-1c11.7-.2 11.7-.2 71-1 1-5 1-5-.2-6.8-.5-.6-1.1-1.2-1.7-1.7l-1.9-1.9c-.7-.6-1.4-1.2-2-1.9-.4-.3-.4-.3-2-1.9-4.5-4.3-6.5-5.9-12.9-6-1.2 0-2.3-.1-3.6-.1h-3.8c-.7 0-.7 0-4-.1-3.5 0-6.9-.1-10.4-.1-3.6-.1-7.1-.1-10.7-.2l-20.8-.3c1.8-4 4.5-7 7.5-10.2.3-.3.3-.3 1.6-1.7 4-4.2 8.1-8.4 12.2-12.4 1.7-1.7 1.7-1.7 2.7-3.7-30.8 0-61.6 0-92.4.1h-10.9c-.4 0-.4 0-2.2.1h-35.2c-12 0-24 0-36.1.1h-46.3c-13.5 0-25.2 1-37.9 5.7-.6.2-.6.2-3.4 1.2-2.8 1.1-5.6 2.2-8.3 3.4-1 .4-2 .8-3.1 1.2-6.2 2.6-11.8 5.7-17.6 9.1-8.9 5.4-14.8 7.7-25.3 7.1-7.3-.4-11.5.6-17.2 5.5-5.1 4.8-9.7 10.1-14.1 15.5 3.9.3 7.9.7 12 1-2.9 3.5-5.5 6.6-9 9.4-3 2.6-5.5 5.3-8.1 8.3-1.3 1.6-2.7 3.1-4.1 4.6-8.7 9.1-15.9 19.3-22.8 29.7-4.6-.3-9.3-.7-14-1 7.8-23.4 24.6-46.2 40.5-64.8.5-.5 1-1.1 1.5-1.6 3-3.5 6.1-6.8 9.4-10 1.7-1.7 3.2-3.5 4.7-5.3 4.3-5 9.2-9.3 14.1-13.8 1.6-1.4 3.2-3 4.8-4.5h-3.4l-81.4-.3c-13.1 0-26.2-.1-39.4-.1-11.4-.1-22.8-.1-34.3-.1-6-.1-12.1-.1-18.1-.1-5.7 0-11.4 0-17.1-.1h-17.4c-5.7-.1-5.7-.1-7.9-2.3.5-4.6.5-4.6 2-6 2.9-.1 5.8-.1 8.7-.1h12.3c2.3.1 4.5.1 6.7.1h72c11.1 0 22.2.1 33.2.1 11.4.1 22.7.1 34.1.1h19.1c6 .1 12.1 0 18.1 0h6.6c18.6.3 18.6.3 25.4-5.6 1.5-1.4 2.9-2.7 4.2-4.1 14.2-13.7 29.5-14.1 48.2-13.9"/><path fill="#906150" d="M429 343h251c-2.7 4.1-4.9 7.2-8.2 10.6-5 5.5-9.4 11.4-13.8 17.4h15c-3.9 5.4-8 10.3-12.6 15.2-3.3 3.8-6.3 7.8-9.4 11.8 25.4.2 25.4.2 154 1 .7-2 1.3-4 2-6 3.6-7.3 7.3-14.5 11-22h96c-3.6 3.6-6.9 5.9-11.2 8.4-9.7 5.9-19.7 12.5-27.8 20.6-2.4.2-4.8.3-7.2.2-.8 0-1.5.1-2.3.1-2.6 0-5.1-.1-7.7-.1h-5.5c-5.1.1-10.2 0-15.3 0H683.9c-21.7-.1-43.4-.1-65-.1h-24.2c-55.5 0-111.1-.1-166.7-.1.3-.8.7-1.6 1-2.5.5-1.1 1-2.1 1.4-3.2.5-1.1.9-2.2 1.4-3.3 2.8-6.9 3.6-13.4 3.6-20.8v-2.6c-.1-7.1-1.5-13.1-4.4-19.6-.7-1.6-1.3-3.3-2-5"/><path fill="#e75d3b" d="M382.675 318.877h133.1c15.7.1 31.4.1 47.1.1h138.1c-2.7 4.2-5.5 7.9-8.9 11.5-2.6 2.8-5 5.4-7.1 8.7-1.7 1.9-2.6 2.7-5.1 3.4-2.7.2-5.4.2-8.1.1-.5 0-.5 0-3.2.1-3.5 0-7-.1-10.5-.1h-23.6c-7.8-.1-15.6-.1-23.4-.1-12.7 0-25.3-.1-38-.1-12.3-.1-24.5-.1-36.8-.1-.8 0-1.5-.1-2.3-.1h-11.4c-31.5 0-63.1-.1-94.6-.3.4.6.7 1.1 1.1 1.6.2.4.2.4 1.3 2.2.5.7.9 1.3 1.4 2.1 6.1 10.4 5.7 24.4 3.5 36-1 3.2-2 6.1-3.3 9.1-.2.7-.5 1.5-.8 2.2-4.9 11.6-15.9 20.2-27.1 25.1-13.9 5.2-27.3 5.1-41.1-.5-14-6.4-23.8-17.1-29.2-31.6-4-12-3.5-27.9 2.2-39.2 7.7-14.3 18.2-22.9 33.5-28.2 4.4-1.4 8.5-1.9 13.2-1.9"/><path fill="#f7973e" d="M524 1042h474v48h-1v-8H625c.3-1 .3-1 2-6-.3-.7-.3-.7-2-4h372v-9h-2.8c-54.8.3-109.6.4-164.4.6h-23.7c-21.2.1-42.5.1-63.7.2-21.7.2-43.5.2-65.3.2-13.4.1-26.8.1-40.3.2-9.2 0-18.4.1-27.6 0-5.3 0-10.6.1-15.9.1-4.9.1-9.8.1-14.6 0-1.8 0-3.5 0-5.3.1-14.5.2-14.5.2-20.4-5.3-2.1-2.3-4-4.7-6-7.1-6.6-5-14.9-7.7-23-9z"/><path fill="#8f6050" d="M646.377 777.75h140c16.1.1 32.2.1 48.3.1h116.4c31 0 31 0 44.9 1.1v10c-48.8.4-97.7.7-148 1 4 2 4.5 2.3 8.6 1.7 12.2-1.5 24-.6 35.4 4.3v2c-2.4 1.2-4.9 2.4-7.4 3.5-.7.4-1.3.7-2.1 1.1-5.3 2.4-5.3 2.4-7.5 2.4 2.9 3.1 6 5.6 9.4 8 3.1 2.2 6.1 4.4 9 7 4.8 3.7 10.3 3.2 16.2 3.4h2.5c2.6.1 5.1.2 7.7.2 1.8.1 3.6.1 5.3.1 4.3.1 8.6.3 12.9.3-1.1 2.5-1.1 2.5-3 5-2.8.7-2.8.7-6.1.7-1.3 0-2.5.1-3.8.1h-3.9c-2.5 0-5 .1-7.6.1-1.2 0-2.5 0-3.8.1-9.3.2-17.7.5-26.4 4.1-11 4.3-25.4 2.7-36.4-1.1-.7-.3-1.4-.6-2.1-1-3.8-1.3-7.5-1.3-11.5-1.3-.8 0-1.7-.1-2.5-.1-2.6 0-5.3-.1-7.9-.1-2.6-.1-5.2-.1-7.9-.2h-4.8c-3.9-.1-7.5-.3-11.3-1.3-.3-1.3-.6-2.6-1-4-5.1.2-5.1.2-31 1 .4 1 .7 2 1 3-1 1-1 1-3.1 1.2h-24.2c-3.7-.1-7.3-.1-11-.1h-44.2c-16.2 0-32.3 0-48.5-.1v8c-1.6-.4-3.2-.9-4.8-1.4-.9-.3-1.8-.5-2.7-.8-1.8-.6-3.7-1.1-5.5-1.8-.3 5.3-.6 10.6-1 16-7.8.2-11.3-2.2-16.8-7.5-1.9-2.1-3.2-4-4.6-6.5-.5-.9-1-1.9-1.6-3-1.3-.3-2.6-.6-4-1v18c-7.2 0-10.6-1.7-15.7-6.6-3.2-3.5-5.2-7.1-7.3-11.4-1.1 0-2.2 0-3.4-.1-10.6-.5-19.9-1.3-29.6-5.9v-2c11-5.1 22-6.4 34-6 .2-.8.4-1.6.5-2.4 2.5-6 6.5-10.9 12.2-14 6.2-2.6 6.2-2.6 9.3-2.6v19c4-1 4-1 5.3-2.6.3-.6.7-1.3 1-2 4.3-7.2 8.7-11.6 16.8-14 1.9-.4 1.9-.4 3.9.6v18c2-.8 3.9-1.6 5.9-2.5 5.9-2.5 5.9-2.5 8.1-2.5v11h127c-1.8-5.2-1.8-5.2-11-32v-3c-.3.1-.3.1-1.7.1-13.6 0-27.2.1-40.8.2-6.5 0-13.1 0-19.7.1h-19c-2.4 0-4.9.1-7.3.1h-18.4c-2.1-.5-2.1-.5-3.9-2.3-1.2-2.2-1.2-2.2-1-4.8 1.1-3.1 1.8-4.2 5.2-4.6"/><path fill="#9bbd5b" d="M228.553 271.877h215.6c25.3.1 50.7.1 76.1.1h223.7l-1.2 1.5c-.5.6-1.1 1.2-1.6 1.8-.3.3-.3.3-1.6 1.9s-2.6 3.2-3.8 4.8c-.3.3-.3.3-1.8 2h-2c-.1.6-.2 1.3-.3 1.9-.7 2.1-.7 2.1-2.7 4.1 49.9.4 99.7.7 151 1v1c-91.7.8-183.5 1.1-275.3 1.1h-186.8c-58 0-115.9-.1-173.9-.1-.1.6-.3 1.1-.5 1.7-.2.3-.2.3-.8 2.1-.1.4-.1.4-.8 2.1-1.9 4.7-4.7 7.5-9.2 10-5.7 1.7-9.7 1.8-15.3-.1-5.6-3-9.2-6.8-11.4-12.8-.8-5.9-.3-11 2.7-16.2 5.3-6.9 11.7-7.9 19.9-7.9"/><path fill="#1a7752" d="M628.9 756.276c4.1.1 8.2.1 12.3.1 7.7.1 15.4.2 23.1.4 8.8.2 17.6.3 26.4.4 18.1.1 36.2.4 54.3.8.6 2.4 1.3 4.8 1.9 7.2.1.3.1.3.6 2.1.9 3.5 1.8 7.1 2.5 10.7h-1.7l-39.7.3c-6.4 0-12.8 0-19.2.1-6.1 0-12.3 0-18.5.1h-7.1c-3.3 0-6.5.1-9.8.1h-8.1c-1.9.4-1.9.4-3.9 3.4.5 4.6.5 4.6 2 6 1.4.1 2.8.2 4.3.2h5.8c.6 0 .6 0 3.2.1h10.6c2.5.1 4.9.1 7.4.1 6.4.1 12.9.1 19.3.2 6.6 0 13.1.1 19.7.1l38.7.3c1.6 4.7 3.1 9.3 4.7 14 .5 1.6 1.1 3.2 1.6 4.8.8 2.3 1.5 4.5 2.3 6.8.2.7.5 1.4.7 2.2 1.7 5 1.7 5 1.7 7.2H637v-11c-.4.2-.4.2-2.6 1.1-1.1.5-2.1.9-3.3 1.4-1.1.5-2.2 1-3.3 1.4-2.8 1.1-2.8 1.1-4.8 1.1-.2-2.9-.2-2.9-1-18-9.8 2.5-14 5.6-19.3 14-.4.7-.8 1.5-1.3 2.3-.4.6-.9 1.1-1.4 1.7h-4v-19c-11.6 4.2-16.5 8.1-22 19-3.1.2-3.1.2-19 1 4.5-7.8 4.5-7.8 7-11.2.5-.7 1.1-1.5 1.7-2.2.6-.8 1.1-1.6 1.7-2.4 1.3-1.7 2.6-3.4 3.8-5.1.6-.8 1.3-1.7 1.9-2.5 2.9-3.9 5.7-7.8 8.5-11.7.3-.3.3-.3 1.4-1.9.5-.7 1-1.4 1.5-2 .5-.7 1-1.4 1.6-2.1 1.6-2.4 2.6-4.4 3.7-7 8.3-17.4 24.3-15.1 41.1-14.6"/><path fill="#e95e3b" d="M244 292h481c-3.6 7.2-9.3 15.8-17.1 18.8-5.9 1.3-11.8 1-17.7.9h-6c-5.5.1-10.9 0-16.4-.1h-17.7c-10.2 0-20.4 0-30.6-.1-10.6-.1-21.3-.2-32-.2h-12.2c-23.9 0-47.9-.1-71.8-.2-23.2-.2-46.5-.3-69.7-.3h-2.2c-7.2-.1-14.4-.1-21.6-.1-14.6 0-29.3-.1-44-.1h-2c-45-.1-90-.4-135-.6 1.9-1.3 3.9-2.5 5.9-3.7 5.1-3.8 6.7-8.4 9.1-14.3"/><path fill="#f1e4cf" d="M909.131 247.886h36c5.8.1 11.6.1 17.5.1h34.4c2 20.6 1 41.3 1 62h-288c7-8.2 7-8.2 9.7-11.2.5-.7 1.1-1.3 1.7-2 .5-.6 1-1.2 1.6-1.8.4-.5.8-1 1.2-1.6 2.5-1.9 4.1-1.8 7.2-1.8h11.3c3.7-.1 7.4-.1 11.1-.1 3.9 0 7.9 0 11.8-.1h22.9c6.2-.1 12.3-.1 18.5-.1h2.6c1.8 0 3.6-.1 5.3-.1 60.4-.3 120.7-.3 181.1-.2.3-6.3.6-12.5 1-19h-108c9.4-24.1 9.4-24.1 20.1-24.1"/><path fill="#e95b3a" d="M558 1063h439v9c-122.4.3-244.9.7-371 1 .3.8.3.8 2 5-.7 1-1.3 2-2 3 122.4.3 244.9.7 371 1v7H567c-1.3-5-2.6-9.9-4-15-1.6-3.6-3.3-7.3-5-11"/><path fill="#9db9b1" d="M561.07 1116.518c2.9-.2 5.8-.3 8.7-.2 1.1-.1 2.2-.1 3.4-.1 3.7-.1 7.5-.1 11.3-.1 2.7 0 5.4 0 8.1-.1 8.1-.1 16.2-.1 24.3-.2h11.5c12.8-.1 25.5-.2 38.2-.2h12.5c13.2-.1 26.5-.2 39.8-.4 13.6-.1 27.3-.2 40.9-.2 7.7 0 15.4-.1 23-.2 6.5-.1 13.1-.1 19.6-.1 3.3.1 6.6 0 10 0 12.9-.4 22.4-.1 32.1 9.1 3.2 3.3 6.1 6.7 8.9 10.2 2.2 2.6 3.8 3.9 7.2 4.2 1 0 2 .1 3.1.1h11.5c3.8.1 7.5.1 11.2.1 3.9 0 7.8 0 11.7.1 7.3 0 14.7 0 22.1.1 8.3 0 16.7.1 25.1.1l51.7.3v1h-471v-1c.9-.2 1.7-.5 2.5-.7 10.9-3.1 20.2-7.4 27.5-16.3.3-.9.6-1.7 1-2.6 2-2.4 2-2.4 4.1-2.9"/><path fill="#477e69" d="M429 343h251c-2.7 4.1-4.9 7.2-8.2 10.7-4.2 4.6-8.1 9.3-12 14.1-1.8 2.2-1.8 2.2-2.8 3.2-2.8.1-5.6.1-8.5.1H519.1c-27.4-.1-54.7-.1-82.1-.1-.1-.6-.1-.6-.7-3.7-.4-1.6-.7-3.2-1.1-4.8-.1-.8-.3-1.6-.4-2.4-1.2-5.6-3.1-10.1-5.8-15.1z"/><path fill="#f7ab50" d="M388 319h313c-2.9 4.3-5.4 7.8-8.9 11.5-2.7 2.8-5 5.4-7.1 8.6-1.7 2-2.6 2.8-5.1 3.5-2.7.2-5.4.2-8.1.2-1.1 0-2.1 0-3.2.1h-10.5c-2.5 0-5 0-7.5.1-6.1 0-12.2.1-18.3.1h-17c-1.4.1-2.9.1-4.3.1-13.4.1-26.9.1-40.3.1-12.3.1-24.6.1-36.9.2-12.6.1-25.2.2-37.8.2-7.1 0-14.2.1-21.3.1-6.7.1-13.3.1-20 .1-2.4 0-4.9 0-7.3.1h-13c-6.4-.1-6.4-.1-9.3-2.8-1.5-2-2.8-4-4.1-6.2-9.2-9.2-20.3-13.3-33-15z"/><path fill="#873657" d="M841 940c15.9-.2 31.8-.4 47.7-.5 7.4-.1 14.8-.1 22.2-.3 6.5-.1 12.9-.1 19.4-.1 3.4-.1 6.8-.1 10.2-.2h11.4c1.1-.1 2.3-.1 3.4-.1 7.5.1 7.5.1 10.9 3.4 1.8 2.5 3.3 5 4.8 7.8.9 1.4 1.7 2.8 2.6 4.3.7 1.3 1.5 2.6 2.2 3.9.2.4.2.4 1.2 2.1 2.2 3.9 3.5 7.3 5 11.7H877c3.2 3.2 5.8 5.7 9.3 8.2 1.3.9 2.5 1.9 3.7 2.8v1c-25 0-49.9.1-74.9.1-11.6 0-23.2 0-34.8.1h-74.5c-.4 0-.4 0-2.3.1-3.6-.1-6.5-.1-9.5-2.3-1-2.9-1-2.9-1-6 1.6-2.2 1.6-2.2 4-4 3.2-.5 3.2-.5 7.2-.5h2.2q3.6-.15 7.2 0c1.7-.1 3.5-.1 5.2-.1h14.1c5 0 9.9 0 14.8-.1h28c10.6 0 21.2-.1 31.8-.1 21.8-.1 43.7-.2 65.5-.2-1.6-1.4-3.2-2.9-4.7-4.3l-2.7-2.4c-2.2-2-4.5-3.9-6.7-5.9-4.2-3.6-8-7.5-11.9-11.4-1-1-2-1.9-2.9-2.9-2.1-2.1-2.1-2.1-3.1-4.1"/><path fill="#f0e4cf" d="M448.489 398.949h6.3c5.8-.1 11.5-.1 17.3-.1 4.8.1 9.6 0 14.4 0 11.4 0 22.7 0 34.1.1 11.7 0 23.3 0 35-.1h48.1c5.7-.1 11.3-.1 17 0h6.2c14-.2 24.4 2.4 36.9 9 2.9 1.5 5.9 3 8.9 4.4 6.2 3.1 12.3 6.3 18.3 9.8v1h-295c2.9-2 5.4-3 8.6-4.2 6.4-2.6 14-6.5 17.5-12.8 5.7-9.3 16.8-7.2 26.4-7.1"/><path fill="#873857" d="M724.985 308.865h4.8c4.4 0 8.7.1 13 .1 4.6.1 9.1.1 13.7.1 8.6 0 17.2.1 25.8.2 9.8.1 19.5.2 29.3.2 20.2.1 40.3.3 60.4.5-1.4 3-2.7 5.9-4.1 8.8l-1.2 2.4c-3.1 6.7-6.4 13.2-9.7 19.8 19.3.2 19.3.2 117 1v1c-15.1.2-30.2.3-45.3.5-7.1 0-14.1.1-21.1.2-6.8.1-13.6.1-20.4.2-2.6 0-5.1 0-7.7.1-12.9.1-25.7.1-38.6-.6-12.5-.6-25-.5-37.4-.5h-93.9c-6.5 0-12.9.3-19.4.6-11.8.7-23.6.7-35.5.6h-133.6c-31 0-62.1 0-93.1-.1v-2h4c30.8.1 61.7.2 92.6.2h50.5c12.6.1 25.2.1 37.7 0 7.8 0 15.6 0 23.3.1h25.2c19.4.2 19.4.2 24.1-3.5 2.3-2.5 4-4.8 5.6-7.8.9-1 1.7-2 2.5-3 .7-.8 1.3-1.6 2-2.5 1.5-1.8 3-3.6 4.5-5.5.6-.8 1.1-1.6 1.7-2.4 6.5-8.8 13.1-9 23.3-8.7"/><path fill="#4c3c40" d="M400 1210c43.8 0 43.8 0 50.4 4.7.6.7 1.1 1.3 1.6 1.9s1.1 1.2 1.6 1.9c3.9 7.1 3.7 15.1 3.7 23 0 1 0 2 .1 3 0 6.6-.2 14-4.9 19.2-1.7 1.4-1.7 1.4-4.5 3.3.8.6 1.5 1.2 2.3 1.8 3.7 3.1 5.7 5.5 6.7 10.2.1 2.8.1 5.6.1 8.5v10.3c0 1.7 0 3.5-.1 5.2v13h-26c-.2-6.1-.2-6.1-1-37-1.3-.3-2.6-.7-4-1v38h-26zm499.91-.168h7.5c2.6 0 5.2 0 7.8-.1h7.3c7.7 0 14.4 1.3 20.5 6.3 5.6 7.3 5.2 13.6 5.3 22.6v4.2c.2 8.1.3 14.3-4.3 21.2-2.8 2-2.8 2-5 3 .9.5 1.8 1.1 2.8 1.7 3.4 2.4 4.5 3.5 6.2 7.3.4 3.1.3 6.1.3 9.2v2.7c0 2.8-.1 5.6-.1 8.4 0 1.9-.1 3.8-.1 5.7 0 4.7-.1 9.3-.1 14h-25c-.3-11.9-.7-23.8-1-36-1.3-.4-2.7-.7-4-1-.3 12.2-.7 24.4-1 37h-26c0-13.7-.1-27.4-.1-41.1v-62.2c.3-4.5 5.6-2.9 9-2.9"/><path fill="#4b3c40" d="M823 1210h25c.3 28.4.7 56.8 1 86 .7-.2.7-.2 4-1 .3-28 .7-56.1 1-85h25c1.8 1.8 1.1 4.1 1.1 6.5v2.4c0 .8.1 1.6.1 2.5v58.8c.1 2.6 0 5.3 0 7.9 0 .8.1 1.5.1 2.3-.1 7.9-1 15.5-6.3 21.6-7.3 5.3-14.1 5.2-22.8 5.2-.5.1-.5.1-3.2.1-7.7.1-13.6-.6-19.8-5.5-4.9-6.2-5.6-11.5-5.5-19V1275c0-5.4.1-10.7.1-16.1 0-5.5 0-11 .1-16.5 0-10.8 0-21.6.1-32.4m-442.187 3.063c4.8 3.9 6.9 9 7.5 15.1.1 3.5 0 6.9-.1 10.4v3.6c-.1 3-.1 5.9-.2 8.8-4.2.1-8.3.1-12.4.1h-7c-.6 0-.6 0-3.2.1-2.4-.2-2.4-.2-3.4-1.2-.1-1.4-.1-2.8-.1-4.2v-8.1c.1-2.2.1-4.4.1-6.7-.8.2-.8.2-5 1v64c.8-.1.8-.1 5-1 .3-5.9.6-11.8 1-18h-4c0-3.3-.1-6.6-.1-9.9v-8.1c.1-2 .1-2 1.1-3 2.1-.1 4.1-.1 6.2-.1h3.8c1.4.1 2.7.1 4 .1h14c.1 6.4.2 12.8.2 19.3 0 2.1.1 4.3.1 6.5 0 3.1.1 6.3.1 9.4v2.9c0 6.8-1.1 12.3-5.8 17.5-6.8 6.1-14.3 5.8-23 5.7-.5.1-.5.1-3.3.1-7.8 0-13.9-.6-20.1-5.6-4.4-5.6-5.7-10.6-5.6-17.6v-2.3c-.1-2.4-.1-4.9 0-7.3-.1-1.7-.1-3.5-.1-5.2v-10.8c.1-4.6 0-9.2 0-13.8v-15.7c-.1-16.4-.1-16.4 4.5-23.1 10.3-9.8 33.6-10.3 45.8-2.9"/><path fill="#f9b04b" d="M524 1042h259c3.3 6.7 6.7 13.3 10 20-29.9.2-59.8.4-89.7.5h-10.6c-.3.1-.3.1-2.1.1-11.4 0-22.8.1-34.1.2-11.7.1-23.4.1-35.1.1-6.5.1-13.1.1-19.6.2h-18.6c-2.2 0-4.5.1-6.7.1-18.1.3-18.1.3-23-3.4-2.5-2.5-4.4-5-6.5-7.8-6.6-5-14.9-7.7-23-9z"/><path fill="#f1e2cb" d="M173 1063c100.3.3 200.6.7 304 1-1.6 3.3-3.3 6.6-5 10-.5 2.6-.5 2.6-3 16-43.6-.3-87.1-.7-132-1 4.5-6.7 4.5-6.7 7.6-9.6 2.5-2.4 4.3-4.6 6.4-7.4H193c-2.6 5.9-5.3 11.9-8 18h-31v-1l1.8-.3c6.1-1.2 10.7-2.9 15-7.8 3.7-6 2.2-9.7 2.2-17.9"/><path fill="#db7f57" d="M716 672h191v2c-2 1.7-4 3.4-6 5-.3.7-.7 1.3-1 2 .7.2 1.4.5 2.1.7 3.6 1.6 6 3.6 8.9 6.3v1c-.6 0-1.1-.1-1.7-.1-2.7-.2-5.4-.3-8.1-.4-.9-.1-1.8-.1-2.7-.2-6.1-.2-9.1.9-13.8 4.7-7.5 5.1-14.3 5.1-22.9 4.9H857c-4.3 0-8.6 0-12.9-.1-4.5 0-9 0-13.6-.1-8.5 0-17 0-25.5-.1-9.7-.1-19.4-.2-29.1-.2-20-.1-39.9-.2-59.9-.4z"/><path fill="#477e69" d="M997 931h1c0 10.3 0 20.6.1 30.8v43.1c0 5 0 5-1.1 6.1-2.9.1-5.8.1-8.7.1h-37.9c-6-.1-12.1-.1-18.1-.1h-41.8c-10.7 0-21.5-.1-32.2-.1h-11.6c-21.6 0-43.2-.1-64.8-.1h-22.3c-25.9-.1-51.7-.1-77.5-.2-29 0-58 0-87-.1h-11.6c-12.2 0-24.5-.1-36.7-.1h-37c-6.7-.1-13.3-.1-20-.1h-36.6c-6-.1-6-.1-8.2-2.3v-4h2v-2h550z"/><path fill="#4a3b40" d="M773.087 271.751h5.3c3 0 6 0 8.9.1h22.5c5.5 0 11.1 0 16.6.1h32.6c-.6 3.3-1.3 6.6-2 10h28c.7-1.9 1.3-3.9 2-6 .7-1.3 1.3-2.6 2-4h108v20c-16.3.1-32.7.1-49 .1h-3.8c-49.2 0-98.3-.2-147.5-.6h-2.6c-22-.1-44.1-.3-66.1-.5 3.6-6.7 3.6-6.7 7-9 2.2-.2 2.2-.2 4.8-.1h8.8c6.7-.1 10.1-1.4 14.9-6.2.5-.5 1-1.1 1.5-1.7 2.6-2.6 4.5-2.2 8.1-2.2"/><path fill="#9eb9b3" d="M376.446 247.877h163.3c19.3.1 38.5.1 57.7.1h169.6c-1 1.1-1.9 2.2-2.9 3.3-.5.7-1 1.3-1.5 1.9-.6.6-1.1 1.2-1.6 1.8s-.9 1.1-1.3 1.7c-2.7 2-4.9 1.7-8.2 1.7h-379.8c-.5-.1-.5-.1-2.7-.4-2-3-2-3-1.8-6.1.1-.5.1-.5.8-2.9 2.8-1.4 5.2-1.1 8.4-1.1"/><path fill="#f7ab50" d="M996 1042h2v48h-1v-8H625c.7-2 1.3-4 2-6-.7-1.3-1.3-2.6-2-4h372c-.3-9.9-.7-19.8-1-30"/><path fill="#c73a42" d="M589.452 746.876h152.7c17.6.1 35.2.1 52.8.1h155c-.9 1.3-1.9 2.6-2.8 3.9-.6.7-1.1 1.4-1.6 2.2-1.6 1.9-1.6 1.9-3.6 3.9-2.5.3-2.5.3-5.9.3h-24.9c-4.4-.1-8.9 0-13.3 0-7.7 0-15.4-.1-23.1-.1h-87.6c-17.5 0-35.1-.1-52.6-.1h-19.5c-45 0-90 0-135.1-.1 1-1.5 2-2.9 3-4.4.5-.8 1.1-1.7 1.6-2.5 2.1-3.1 2.1-3.1 4.9-3.2"/><path fill="#477e69" d="M402 342c9.3 6.4 14 14 16 25 1.3 11-2.5 19.4-9 28-5.6 6-13.4 9.4-21.5 10.5-10.2.3-18.5-2.2-26.5-8.5-7.4-7.3-10.9-15-11.2-25.3.3-11.2 4.3-18 11.7-26.4 10.5-10 28.3-9.9 40.5-3.3m242 57v1H428c3-4.1 3.5-4.5 8-5.9 1-.3 2-.7 3-1 1.1-.3 2.2-.6 3.4-1 1.1-.3 2.3-.7 3.5-1 64-18.6 136.1-17.8 198.1 7.9"/><path fill="#8f6050" d="M673 371c-3.9 5.4-8 10.4-12.6 15.2-3.3 3.8-6.3 7.8-9.4 11.8 50.8.3 101.6.7 154 1 .7-2 1.3-4 2-6 3.6-7.3 7.3-14.5 11-22h96c-3.6 3.6-6.9 5.9-11.2 8.4-9.7 5.9-19.7 12.5-27.8 20.6-3 .2-5.9.3-9 .3H741c-11.4.1-22.8.1-34.3.1h-55.8c-5.4-.1-9.1-.9-13.9-3.4 1.7-5.7 5.5-9.4 9.4-13.7 2.9-3.3 5.3-6.3 7.4-10.2 3.9-5.7 13.2-3 19.2-2.1"/><path fill="#e95b3a" d="M118.253 444.876h139.7c16.1.1 32.2.1 48.3.1h141.7v1c-.3.1-.3.1-2 .3-3 .5-6.1 1-9.2 1.5-.5.1-.5.1-3.2.5-.5.1-.5.1-3.1.6-1 .1-1.9.3-2.9.4-3.6.7-3.6.7-6 1.4-8.1 2.3-15.7 2.8-24 2.8-1.5.1-2.9.1-4.3.1-4 .1-8 .1-11.9.1-2.6 0-5.1.1-7.6.1-47.7.5-95.3.2-143 0-10-.1-20-.1-30-.2-9.8 0-19.6 0-29.4-.1h-17.4c-5.3-.1-10.7-.1-16.1-.1h-5.9c-2.7-.1-5.3-.1-8-.1h-2.4c-5.3 0-5.3 0-7.6-2.3.8-5.9.8-5.9 4.3-6.1"/><path fill="#c73c42" d="M911 152c6.6 7 7.2 14.9 7.1 24.2-.4 10.3-.4 10.3-2.1 13.8h-87c14.9-14.9 59.2-53.7 82-38"/><path fill="#e9aa59" d="M161 1052c3.6 1.5 6.8 3.5 9.3 6.6 2.3 1.9 3.8 1.8 6.9 1.8h10.6c3.5 0 7 0 10.5-.1h59.2c15.3 0 30.6 0 45.9-.1h61.2c38.1-.1 76.3-.1 114.4-.2-.7 1.3-1.3 2.6-2 4H174v12c-1.9 5.8-5.7 9.1-10.9 12.1-4.9 2.1-9.9 1.3-14.8-.2-4.9-2.8-8.2-5.7-10.7-10.8-1.3-6.7-1.1-11.4 2.2-17.3 5.1-7.5 12.7-9 21.2-7.8"/><path fill="#e95b3a" d="M704.203 971.458h2.2c2.4-.1 4.9-.1 7.3-.1h5.2c4.8 0 9.5-.1 14.3-.1h8.9c10.4 0 20.7-.1 31.1-.1 9.6 0 19.3 0 28.9-.1 8.3 0 16.6-.1 24.9-.1h14.8c4.7-.1 9.3-.1 14 0 1.7 0 3.4-.1 5.1-.1 9.9-.1 16.5.7 24 7.9.7.8 1.4 1.5 2.1 2.2l3 3c-25 .1-49.9.1-74.9.1-11.6.1-23.2.1-34.8.1h-30.3c-5.3 0-10.7 0-16 .1h-30.5c-3.6 0-6.5-.1-9.5-2.3-1-2.8-1-2.8-1-6 3.2-4.4 5.9-4.5 11.2-4.5"/><path fill="#906150" d="M658 672c2.4-.4 2.4-.4 5.6-.3h11.2c3.4 0 6.8.1 10.2.1 3.5 0 7 0 10.5.1 6.8 0 13.7 0 20.5.1v25h160v1c-19.7 0-39.5 0-59.2.1h-27.5c-49.1 0-98.2-.3-147.3-1.1 1.6-4.2 3.6-8 6-11.8.4-.6.7-1.2 1.1-1.8.9-1.5 1.9-3 2.9-4.4h2l.9-1.8c1.1-2.2 1.1-2.2 3.1-5.2"/><path fill="#9cbf5c" d="M404 689c31.2.2 31.2.2 189 1-2 5-2 5-4 7-2.9.3-2.9.3-6.7.3h-14c-4.6.1-9.1.1-13.6.1-4.8 0-9.5 0-14.2.1-9 0-17.9.1-26.9.1-10.2 0-20.4.1-30.6.1l-63 .3c-.3 11.9-.7 23.8-1 36h-1v-18h-36v-15h36v-3h-14z"/><path fill="#4a3b40" d="M214 1072h109c-6.8 8-6.8 8-9.6 10.8-.6.5-1.1 1.1-1.7 1.6-.3.3-.3.3-1.7 1.6-.3.3-.3.3-1.5 1.6-3.9 2.2-7.6 1.8-12 1.7h-18.9c-5.8 0-11.5-.1-17.3-.1-5.9 0-11.8 0-17.7-.1-11.5 0-23.1 0-34.6-.1.8-2.5 1.6-4.9 2.4-7.4.3-.7.5-1.4.7-2.1 1.8-5.3 1.8-5.3 2.9-7.5"/><path fill="#9cbf5c" d="M410.338 671.87h51.7c10.5 0 21.1 0 31.7.1h110.3c0 3 0 3-1.6 5.7-3.2 3.1-4.9 2.9-9.3 2.9h-2.1c-2.4.1-4.7 0-7 0h-5c-4.5 0-9 0-13.6-.1h-14.1c-9 0-17.9-.1-26.9-.1-10.2-.1-20.4-.1-30.6-.1l-62.8-.3v5h-25c4-3 4-3 6-4-2.3-.3-4.7-.6-7-1v6h-1c-.1-2.1-.1-4.3-.1-6.4v-3.6c.1-5 1.9-4.1 6.4-4.1"/><path fill="#8f6050" d="M502 445c28.8-.2 57.5-.3 86.3-.4 13.4-.1 26.7-.1 40.1-.2 11.6-.1 23.3-.1 34.9-.2h18.5c5.8-.1 11.6-.1 17.4-.1 2.2 0 4.3 0 6.4-.1 18.1-.2 18.1-.2 24.7 5 2.3 2.2 2.3 2.2 3.7 4v1c-25.2 0-50.3-.1-75.5-.1-11.7-.1-23.3-.1-35-.1-10.2 0-20.4 0-30.6-.1h-16.2c-42 .1-42 .1-59.6-5.1-5-1.4-10-2-15.1-2.6z"/><path fill="#477e69" d="M703 870c2.4 1.9 2.4 1.9 4 4v2h291v5H707c-.7 1.3-1.3 2.6-2 4-2.8 2.3-4.4 3-8 3.1-4.2-1.5-5.7-3.3-8-7.1-.1-4.1.3-6.2 2.9-9.4 4-3.1 6.2-2.7 11.1-1.6"/><path fill="#f4aa4e" d="M845 457h153v9H845c.3-2.3.7-4.6 1-7-.3-.7-.7-1.3-1-2"/><path fill="#8e5a51" d="M865.48 920.88h56.1c8.4.1 16.7.1 25 .1h51.4v10c-18.1.1-36.1.2-54.2.2-8.4 0-16.8.1-25.2.1-7.3.1-14.6.1-21.9.1h-11.6c-3.7.1-7.3.1-11 .1h-12.5c-2.6-.5-2.6-.5-4.5-2.3-1.1-2.2-1.1-2.2-.4-4.9 2.2-3.9 4.6-3.4 8.8-3.4"/><path fill="#906150" d="M794 880c13.4 0 26.7-.1 40.1-.1h3.1c37.2 0 74.5.2 111.7.6h3.7c15.1.2 30.3.3 45.4.5v6c-33 .2-33 .2-200 1-1.3-2.6-2.6-5.3-4-8"/><path fill="#873957" d="M673 371c-3.9 5.4-8 10.4-12.6 15.2-3.3 3.8-6.3 7.8-9.4 11.8 50.8.3 101.6.7 154 1 .7-2 1.3-4 2-6 .8-1.8 1.7-3.6 2.6-5.4.5-1 1-1.9 1.5-2.9s1-2 1.5-3.1c.5-1 1.1-2 1.6-3.1 1.3-2.5 2.5-5 3.8-7.5h23c-1.5 4.4-2.8 7.7-5 11.6-.6 1-1.2 2.1-1.8 3.1s-1.2 2.1-1.8 3.2c-.6 1-1.2 2.1-1.9 3.2-1.5 2.6-3 5.3-4.5 7.9-23.6.1-47.2.1-70.8.2h-32.9c-9.6.1-19.1.1-28.7.1h-29.4c-1.8 0-3.5 0-5.3.1h-9.2c-5-.1-8.3-1.3-12.7-3.4 1.7-5.7 5.5-9.4 9.4-13.7 2.9-3.3 5.3-6.3 7.4-10.2 3.9-5.7 13.2-3 19.2-2.1"/><path fill="#477d68" d="M621 190h376v3c-9.1.1-18.3.3-27.4.4-4.3 0-8.5.1-12.8.2-76.4 1.1-152.8.4-229.1 0-11.7-.1-23.4-.2-35.1-.2-23.9-.1-47.7-.3-71.6-.4z"/><path fill="#4a3a40" d="M739.4 310.432h3.5c3.8 0 7.6 0 11.4.1h7.9c6.2 0 12.5.1 18.7.1 7.1.1 14.2.1 21.3.1l43.8.3q-1.5 4.35-3 9H721c4.6-9.2 8.8-9.8 18.4-9.6"/><path fill="#883657" d="M722 1156h276v3c-35 .2-70 .3-105 .4-4.1 0-8.3.1-12.4.1h-2.5c-13.3 0-26.6.1-39.9.2-13.7 0-27.4.1-41 .1-8.5.1-16.9.1-25.3.1-5.8.1-11.6.1-17.4.1h-10c-3.6.1-7.2.1-10.8.1H725c-2-.1-2-.1-4-1.1.3-1 .7-2 1-3"/><path fill="#b24847" d="M702.858 318.886h5c.9 0 1.8 0 2.7.1h9.4c-3.2 5.2-7 9.2-11.5 13.5-2.2 2.3-3.7 4.4-5.4 7.1-2.5 2.8-3.9 3.4-7.7 4-1.5 0-3 .1-4.5.1-.9.1-1.7.1-2.6.1-11.1.4-22.3.3-33.5.3h-133.7c-31 0-62-.1-93.1-.1v-2h4c30.9.1 61.8.2 92.7.1h13.7c12.2 0 24.5.1 36.7.1 12.6 0 25.2.1 37.8 0 7.7 0 15.5 0 23.2.1h17.9c2.4-.1 4.9 0 7.3 0 19.4.2 19.4.2 24.1-3.5 2.3-2.5 4-4.8 5.6-7.8 1-1.1 1.9-2.2 2.9-3.3.3-.5.3-.5 2.1-2.7 4.8-6 4.8-6 6.9-6.1"/><path fill="#9cbd70" d="M648.898 689.76h12.6c1.6 0 3.1.1 4.7.1h25c8.3.1 16.5.1 24.8.1v7h160v1c-19.7.1-39.5.1-59.2.1h-27.5c-49.1.1-98.2-.2-147.3-1.1 2.5-6.8 2.5-6.8 6.9-7.2"/><path fill="#593946" d="M835.859 189.519h14c4.5 0 9 0 13.5.1h14.1c8.9 0 17.8.1 26.7.1 10.1 0 20.2.1 30.3.1 20.9 0 41.7.1 62.5.2v3c-11.8.2-23.5.3-35.3.5h-2.8c-31.3.4-62.6.6-94 .5h-39.9c3.4-4.2 5.6-4.5 10.9-4.5"/><path fill="#dc8058" d="M631.163 1070.88h71.5c10.6.1 21.2.1 31.8.1h65.5v1c-57.4.4-114.8.7-174 1 .7 1.7 1.4 3.3 2 5-.3.5-.3.5-2 3 29.9.2 29.9.2 181 1v1c-23.7.1-47.5.1-71.3.1-11 0-22.1 0-33.1.1h-58.5c-1.8 0-3.5.1-5.3.1h-9.3c-3.9 0-7-.4-10.5-2.3-1.5-2.4-1.5-2.4-2-5 1.2-2.4 2.1-3.7 4.7-4.6 3.2-.5 6.3-.5 9.5-.5"/><path fill="#9cbe5c" d="M218 481c3.4 3 4.7 5.1 6 9.5 0 4.1-.8 6.1-3 9.5-3.8 3.4-6.7 3.5-11.6 3.3-3.6-.5-5.1-1.4-7.4-4.3-1.8-4.4-2.4-7.7-1-12.3 4.6-6.2 9.6-8.2 17-5.7"/><path fill="#873658" d="M812.41 822.872c3.5-.1 7-.2 10.5-.2.9-.1 1.9-.1 2.9-.2 4.6 0 6.5 0 10.2 2.9.3.5.3.5 2 2.6.3.4.3.4 2 2-5 .1-10.1.1-15.1.1h-14.9c-3.8 0-7.3-.1-11-1.1-.2-.6-.2-.6-1-4h-33v-1c11.6-.3 23.1-.6 34.7-.8 4.3-.1 8.5-.2 12.7-.3"/><path fill="#477e69" d="M916 190h81v3h-82c.3-1 .7-2 1-3"/><path fill="#873757" d="M749.324 271.707h3.1c.6 0 .6 0 3.3.1h3.2c2.7.1 5.4.1 8.1.2-.9 1.1-1.9 2.2-2.8 3.3-.5.6-1 1.2-1.5 1.9-2.6 2.7-4.4 4.6-8.2 5.1h-5.7c-.5-.1-.5-.1-3.1-.1-1 0-2 0-3.1-.1-2.5 0-5.1 0-7.6-.1.9-1.1 1.8-2.2 2.8-3.3.5-.6 1-1.2 1.6-1.9.5-.6 1-1.2 1.6-1.8.4-.6.9-1.1 1.3-1.7 2.4-1.9 4.1-1.6 7-1.6"/><path fill="#477e69" d="M997 931h1v79h-6c-1.4-2.7-1.1-5-1-8h6z"/></svg>