<svg xmlns="http://www.w3.org/2000/svg" width="1067" height="1600" viewBox="0 0 1067 1600"><title>grand-tour-vtracer — residual</title><path fill="#873657" d="M237 606c.3.7.7 1.3 1 2 1.2.4 2.4.7 3.6 1.1 21.1 6.8 36.8 20.3 47.8 39.6 2.9 5.9 4.8 12 6.6 18.3.1.3.1.3.6 1.9.6 3.4.4 6.7.4 10.1h-3.7l-13.8.3h-5.9c-29 .4-29 .4-37.6 4.7v2c1.5.5 3 1 4.5 1.4.8.3 1.7.6 2.5.8 7.1 1.8 14.2 2 21.4 2.1 1 0 1.9.1 2.9.1 3.1 0 6.1.1 9.2.2 2.1 0 4.2 0 6.3.1 5 .1 10.1.2 15.2.3-2.4 19-8.3 34.5-21 49l-1.8 2.1c-9.1 9.8-21.6 16.5-34.2 20.9h-3c-.3 1-.7 2-1 3-1.5-7.6-2.9-15.2-4.4-22.7-.5-2.7-1-5.3-1.5-8-6.7-34.1-5.8-70.3.9-104.3.2-1.1.4-2.1.6-3.2 1.5-7.3 2.9-14.5 4.4-21.8"/><path fill="#873658" d="M143 618c4 1.6 6.1 4.2 8.8 7.5q1.05 1.5 2.4 3c1.8 2.5 1.8 2.5 1.8 4.5h2c13.7 25.6 19.3 52.1 11.1 80.7-4.7 15-13.6 28.7-25.1 39.3-.7.3-1.3.7-2 1-3-5.8-3-5.8-3-8h-2c-16.5-37.9-19.9-71.9-4.6-111 .5-1.3 1.1-2.7 1.6-4-.5.8-.9 1.6-1.4 2.5-.5.8-1 1.6-1.6 2.5h-2c.6-4.8 2.6-8 5-12 1.3.3 2.6.7 4 1 1.7-2.3 3.3-4.6 5-7"/><path fill="#477e69" d="M402 342c9.3 6.4 14 14 16 25 1.3 11-2.5 19.4-9 28-5.6 6-13.4 9.4-21.5 10.5-10.2.3-18.5-2.2-26.5-8.5-7.4-7.3-10.9-15-11.2-25.3.3-11.2 4.3-18 11.7-26.4 10.5-10 28.3-9.9 40.5-3.3"/><path fill="#c73c42" d="M911 152c6.6 7 7.2 14.9 7.1 24.2-.4 10.3-.4 10.3-2.1 13.8h-87c14.9-14.9 59.2-53.7 82-38"/><path fill="#4a3a40" d="M143 618c4.4 1.5 6.6 5 9.2 8.6.5.6 1 1.2 1.4 1.9 1.2 1.5 2.3 3 3.4 4.5-2.2 4-4.5 7.8-6.9 11.7-11.3 18.8-14.4 40.9-9.1 62.1 3.2 11.3 9.1 21.8 16 31.2-4.6 6-9.1 11.3-15 16-3-5.8-3-5.8-3-8h-2c-16.5-37.9-19.9-71.9-4.6-111 .5-1.3 1.1-2.7 1.6-4-.5.8-.9 1.6-1.4 2.5-.5.8-1 1.6-1.6 2.5h-2c.6-4.8 2.6-8 5-12 1.3.3 2.6.7 4 1 1.7-2.3 3.3-4.6 5-7"/><path fill="#467d68" d="M743.408 543.978c1 0 2.1.1 3.2.1 1.1.1 2.2.1 3.4.2.6 0 .6 0 3.6.2 1.1 0 2.3.1 3.6.1 2.9.1 5.8.3 8.8.4-.2.6-.2.6-1.3 3.8l-4.8 13.5c-.5 1.7-1.1 3.4-1.7 5-4.4 12.4-7.6 24.9-10.6 37.6-.6 2.1-.6 2.1-1.6 4.1h-46c4.5-9 4.5-9 7.2-13.1.6-.9 1.2-1.9 1.9-2.8.6-1 1.2-1.9 1.9-2.9 1.3-2 2.7-4.1 4-6.1.7-1 1.4-2.1 2.1-3.1 2.8-4.3 5.5-8.7 8.3-13 .9-1.6 1.9-3.1 2.9-4.6.4-.8.9-1.5 1.3-2.2 2.2-3.5 4.4-6.9 6.6-10.3.2-.3.2-.3 1.1-1.8 3.3-5.1 3.3-5.1 6.1-5.1"/><path fill="#4a3b40" d="M214 1072h109c-6.8 8-6.8 8-9.6 10.8-.6.5-1.1 1.1-1.7 1.6-.3.3-.3.3-1.7 1.6-.3.3-.3.3-1.5 1.6-3.9 2.2-7.6 1.8-12 1.7h-18.9c-5.8 0-11.5-.1-17.3-.1-5.9 0-11.8 0-17.7-.1-11.5 0-23.1 0-34.6-.1.8-2.5 1.6-4.9 2.4-7.4.3-.7.5-1.4.7-2.1 1.8-5.3 1.8-5.3 2.9-7.5"/><path fill="#906250" d="M615 526h95c-1.2 2-1.2 2-7 12-1.3 2.3-2.6 4.6-4 7h-84v-5h-14v-2h14z"/><path fill="#8e5a51" d="M865.48 920.88h56.1c8.4.1 16.7.1 25 .1h51.4v10c-18.1.1-36.1.2-54.2.2-8.4 0-16.8.1-25.2.1-7.3.1-14.6.1-21.9.1h-11.6c-3.7.1-7.3.1-11 .1h-12.5c-2.6-.5-2.6-.5-4.5-2.3-1.1-2.2-1.1-2.2-.4-4.9 2.2-3.9 4.6-3.4 8.8-3.4"/><path fill="#4a3b40" d="M740 545c-3.8 7.2-7.9 14.2-12.4 21.1-.6.9-1.2 1.9-1.8 2.8-1.2 2-2.5 4-3.8 6l-6.3 9.9c-8.1 12.6-8.1 12.6-10.1 15.7-1.6 2.5-1.6 2.5-2.6 4.5-.9 1.7-.9 1.7-3 4-3.3.7-6.4.6-9.8.4-.8-.1-1.7-.1-2.6-.1l-6.6-.3c1.4-3.8 3.2-7 5.5-10.4.3-.6.3-.6 2.1-3.2.3-.6.7-1.1 1.1-1.7 1.9-2.9 3.8-5.8 5.8-8.7.3-.6.7-1.2 1.1-1.8 3.6-5.5 7-11 10.5-16.6.5-.8 1-1.7 1.6-2.6 2.3-3.6 4.4-7.1 6.2-11 5.6-10.9 14.2-9.2 25.1-8m113.226-115.568h3.8c3.3 0 6.7 0 10.1.1h10.7c6.7 0 13.4.1 20.1.1 7.6.1 15.3.1 22.9.1l47.2.3c-1.3 3.4-2.4 6.4-5 9-2.4.5-2.4.5-5.2.4-1.1.1-2.2.1-3.3.1-.6 0-.6 0-3.6-.1h-14.1c-3.6-.1-7.1-.1-10.7-.1h-20.4c-7.7-.1-15.4-.1-23.1-.1-15.9-.1-31.8-.1-47.6-.2 2.1-10.1 9.5-9.7 18.2-9.6"/><path fill="#873757" d="M233.313 273.188c5.5 3.7 8.8 7.4 10.7 13.8.3 6.7-1.1 11.6-5 17-4.3 4.1-7.9 5.8-13.9 6.3-5.5-.1-9.6-2-13.9-5.6-4.3-5.2-5.8-9.4-5.6-16.2.7-4.9 2.4-8.7 6.1-12.1 6.6-4.8 13.8-6 21.6-3.2"/><path fill="#477e69" d="M272 816c1.4 2 2.7 3.9 3.9 6 3.4 5.6 7.2 10.9 11.3 16 .6.7 1.1 1.3 1.7 2 2.8 3.4 5.8 6.7 8.9 9.9.3.4.3.4 1.8 2l3.5 3.5c3.9 3.9 3.9 3.9 4 7-1.5 3.4-3.2 6.7-5 9.8-.4.7-.8 1.3-1.1 2-2.7 4.7-2.7 4.7-5 5.8-38-49.7-38-49.7-38-63 1.8-.2 3.5-.3 5.3-.5l3-.3c2.7-.2 2.7-.2 5.7-.2m-108.645 236.945c5 3 8.8 6.4 10.6 12.1.6 6.2.8 11.7-3 17-4.1 4.1-8.3 7.2-14.3 7.3-6-.2-10.5-2.1-15-6.2-4-4.4-5.1-9.1-5-15.1.8-5 3.2-8.9 6.8-12.4 6.2-4 12.7-5.6 19.9-2.7"/><path fill="#4a3a40" d="M739.4 310.432h3.5c3.8 0 7.6 0 11.4.1h7.9c6.2 0 12.5.1 18.7.1 7.1.1 14.2.1 21.3.1l43.8.3q-1.5 4.35-3 9H721c4.6-9.2 8.8-9.8 18.4-9.6m94.054 134.087h10.9c3.5 0 7 0 10.5.1h11c6.9 0 13.8.1 20.8.1 7.9 0 15.8.1 23.7.1 16.2 0 32.4.1 48.6.2-1.6 3.2-3.3 5.6-6 8-4.2 1.2-8.3 1-12.7.9h-3.8c-3.5 0-7-.1-10.5-.1-3.7-.1-7.3-.1-11-.1-6.9 0-13.8-.1-20.7-.1-7.9-.1-15.8-.2-23.7-.2-16.2-.1-32.4-.2-48.6-.4 2.5-5.7 5.2-8.5 11.5-8.5"/><path fill="#4a3b40" d="M622.858 697.886h5c.9 0 1.8 0 2.7.1h9.4c-3.4 6.3-7.4 12.1-11.5 18-1.5 2-2.9 4-4.3 6.1l-2.1 3c-2.9 4.1-5.7 8.1-8.5 12.2-.4.7-.9 1.3-1.4 2-3 4.5-3 4.5-4.2 6.7h-20c4.5-7.9 4.5-7.9 7-11.3.6-.8 1.1-1.6 1.7-2.4.5-.8 1.1-1.6 1.7-2.5 1.3-1.7 2.5-3.5 3.7-5.3.7-.9 1.3-1.8 2-2.7 2-2.8 4-5.7 5.9-8.5.7-.9 1.3-1.8 2-2.8 1.2-1.8 2.5-3.5 3.7-5.3.5-.8 1.1-1.6 1.7-2.4.5-.7 1-1.4 1.5-2.2 1.9-2.6 1.9-2.6 4-2.7"/><path fill="#873658" d="M907 778c9.1 0 18.2 0 27.3-.1h29.6c10.7 0 21.4.4 32.1 1.1v10h-89l8-8c-2.6-.7-5.3-1.3-8-2z"/><path fill="#8f6150" d="M140 612c1.7 2 3.4 4 5 6-.3.3-.3.3-1.8 1.7-2.2 2.3-4.2 4.7-6.2 7.3v-3h-3c-.3.7-.7 1.3-1 2-20.5-.3-40.9-.7-62-1v-12c8.7-.1 17.4-.3 26.1-.4 4-.1 8.1-.1 12.1-.2 3.9 0 7.8-.1 11.7-.1 1.5-.1 3-.1 4.5-.1 2.1 0 4.1-.1 6.2-.1.6 0 .6 0 3.6-.1z"/><path fill="#873757" d="M140.004 907.648c3.8 1.9 6.4 4.3 8.3 8.2 1.8 5.7 1.6 11.2-.9 16.6-4.5 4.8-7.7 6.8-14.3 7.1-4.9-.2-8.1-.9-11.8-4.1-4.1-4.6-4.9-9-4.7-15 .8-4.9 3.4-7.6 7-10.8 4.8-3.3 10.8-3.8 16.4-2"/><path fill="#906150" d="M134 747c2 2.6 3.5 5.1 5 8l2 2c-5.5 5.3-9.9 5.5-17.4 5.4-1.4 0-2.7-.1-4.1-.1-1.4-.1-2.8-.1-4.2-.1-3.6-.1-7.3-.2-11-.3l-11.2-.3L71 761v-12h63z"/><path fill="#873658" d="M750 778h78c-.7.3-1.3.7-2 1v2c-1 .2-1.9.4-2.9.6-3.3.9-5.4 2.3-8 4.4-5.9 4.1-11.5 3.8-18.4 3.6h-3.8c-3.3-.1-6.6-.1-9.9-.2-3.4 0-6.8-.1-10.2-.1L753 789c-.5-1.5-1-2.9-1.5-4.4-.3-.8-.6-1.6-.8-2.4-.7-2.2-.7-2.2-.7-4.2"/><path fill="#906150" d="M348.43 444.64h8.6c3.4 0 6.8 0 10.1.1h7c6.1 0 12.2 0 18.4.1h18.7c12.3 0 24.5.1 36.8.2v1c-.7.1-1.4.2-2 .3l-9.3 1.5c-1 .1-2.1.3-3.1.5-1.1.1-2.1.3-3.2.5-1 .1-1.9.3-2.9.5-3.5.7-3.5.7-6 1.4-9.2 2.7-18 2.6-27.5 2.6-1.8-.1-3.5-.1-5.2-.1h-13.3c-4.6-.1-9.2-.1-13.7-.1-9 0-17.9-.1-26.8-.1 8.1-8.4 8.1-8.4 13.4-8.4"/><path fill="#8f6050" d="M997 466h1v251h-1c-.8-3.4-1.6-6.7-2.4-10.1-.3-.9-.5-1.8-.7-2.8-1.2-5-2.3-10-2.9-15.1h5v-8c-2.6.3-5.3.7-8 1-3-7.3-5.9-14.5-9-22 1.3-.7 1.3-.7 7.9-4 .4-.2.4-.2 2.5-1.3.6-.3 1.2-.6 1.9-.9.7-.4 1.3-.7 2-1.1 1.7-.7 1.7-.7 3.7-.7z"/><path fill="#906150" d="M125 726c2 3 2 3 5 13-9.7-.2-9.7-.2-59-1v-11l23-.6c2.6-.1 5.2-.1 7.8-.2l11.2-.3c1.2 0 2.3 0 3.5-.1h3.3c1-.1 1.9-.1 2.9-.1.8.1 1.5.2 2.3.3m-54-22h49c2 7 2 7 2 11-8.4.2-8.4.2-51 1z"/><path fill="#477e69" d="M771 494c4.1 1.8 6.2 4.5 8.8 8.1.4.6.8 1.2 1.2 1.7l3 4.2-9 18h-23c5.8-11 12.4-21.5 19-32"/><path fill="#9dba97" d="M418 698h1v36h-1v-18h-36v-15h36z"/><path fill="#906150" d="M71 590c18.9-.6 34.9 2.3 52 11v1H71z"/><path fill="#803854" d="M134 630c1 2 1 2 .4 3.8-.3.7-.6 1.4-.9 2.2-13.2 31.6-14.1 64-1.5 96 1.3 3 2.7 6 4.1 8.9.9 2.1.9 2.1.9 5.1h2l2.1 3.9c.3.7.7 1.4 1.1 2.2.3.6.5 1.2.8 1.9-.3.7-.7 1.3-1 2-1.8-.1-1.8-.1-4-1-3-5-3-5-3-8h-2c-13.9-31.9-21-67.6-8.5-101.5 3.8-9.2 3.8-9.2 7.5-12.5.7-1 1.3-2 2-3"/><path fill="#906150" d="M751 526h23c-1.4 4.2-2.9 8.2-4.6 12.3-.4 1.1-.8 2.1-1.3 3.2-1.1 2.5-1.1 2.5-2.1 3.5-1.8.1-3.6.1-5.3.1h-6.8c-1.1 0-2.2 0-3.4-.1H742c0-4.6 1.5-6.9 3.9-10.6.8-1.2 1.5-2.3 2.3-3.5.6-1 1.2-1.9 1.8-2.9.3-.7.7-1.3 1-2"/><path fill="#f7ac4c" d="M892.75 523.688c3.6 0 5 .2 8.2 2.1 2.4 2.7 3.9 4.7 4.2 8.4-.4 4.3-.8 6.3-3.6 9.8-4.1 3.2-7.4 3.5-12.6 3-3.4-1.4-4.7-2.6-6.8-5.7-1.4-4.1-1.6-7.2-.2-11.3 2.6-2.9 2.6-2.9 5-5 1.7-1.6 3.5-1.2 5.8-1.3"/><path fill="#9cbe5c" d="M218 481c3.4 3 4.7 5.1 6 9.5 0 4.1-.8 6.1-3 9.5-3.8 3.4-6.7 3.5-11.6 3.3-3.6-.5-5.1-1.4-7.4-4.3-1.8-4.4-2.4-7.7-1-12.3 4.6-6.2 9.6-8.2 17-5.7"/><path fill="#a0bab3" d="M779 481c2.2-.3 2.2-.3 4.8-.3h2.8c.5 0 .5 0 3 .1 1 0 2 0 3 .1 2.5 0 4.9 0 7.4.1-5.1 9.1-10.5 18.1-16 27-3.2-3.1-6.1-6.3-8.8-9.8l-1.8-2.4c-.5-.6-.9-1.2-1.4-1.8l2.4-4.8c.4-.9.9-1.8 1.3-2.7 1.3-2.5 1.3-2.5 3.3-5.5"/><path fill="#c73a42" d="M486 1088h63v6h-63z"/><path fill="#1a7752" d="M531 758h26c-1.5 3.7-2.4 5.8-4.6 8.7-.6.7-1.1 1.4-1.6 2.1s-1.1 1.4-1.6 2.1c-1.1 1.3-2.1 2.7-3.2 4.1-.5.7-1 1.3-1.5 2-1.5 2-2.9 4-4.3 6-.7 1-1.5 2-2.2 3h-1l-3-12.9c-.3-1.2-.6-2.4-.9-3.7-.2-1.1-.5-2.3-.8-3.5-.2-1.1-.5-2.2-.7-3.3-.6-2.6-.6-2.6-.6-4.6"/><path fill="#8f5e50" d="M862 844c8.1 1.2 15.8 4.1 23 8 .2.5.2.5 1 3-12.8 1.6-25.4 1.7-38.1-.3-.8-.1-1.5-.2-2.3-.4-5.4-.9-10.5-2.4-15.6-4.3v-1c.6-.1 1.2-.1 1.9-.2 2.8-.2 5.7-.4 8.5-.7 1-.1 2-.1 3-.2 16.1-1.4 16.1-1.4 18.6-3.9"/><path fill="#4b3a40" d="M760 480c4 2.3 5.7 4 8 8 1 .7 2 1.3 3 2 1.1 2.5 1 3.9.5 6.6-1.5 3.3-2.6 5.1-5.5 7.4-6.2 1.3-12.7.6-19 0 1.5-5.8 4.5-10.4 7.6-15.4.5-.8 1.1-1.6 1.6-2.5 1.3-2 2.5-4.1 3.8-6.1"/><path fill="#873658" d="M284 1025h38c-3 3-6 4.7-9.8 6.6q-.75.45-1.8.9c-7.1 3.5-12.7 5.3-20.4 3.5-4.5-3.1-4.4-5.2-6-11"/><path fill="#906150" d="M119 772c-15.5 7-31.1 9.2-48 9v-9c6.5-.2 13-.3 19.5-.5 2.3 0 4.5-.1 6.7-.1 3.2-.1 6.4-.2 9.5-.3.5 0 .5 0 3.1-.1h2.8c.4 0 .4 0 2.4-.1 2 .1 2 .1 4 1.1"/><path fill="#873658" d="M812.41 822.872c3.5-.1 7-.2 10.5-.2.9-.1 1.9-.1 2.9-.2 4.6 0 6.5 0 10.2 2.9.3.5.3.5 2 2.6.3.4.3.4 2 2-5 .1-10.1.1-15.1.1h-14.9c-3.8 0-7.3-.1-11-1.1-.2-.6-.2-.6-1-4h-33v-1c11.6-.3 23.1-.6 34.7-.8 4.3-.1 8.5-.2 12.7-.3"/><path fill="#8f6050" d="M560 609h100c-1.3 2.3-2.6 4.6-4 7h-96v-1h82c.3-1.3.7-2.6 1-4-13.7-.2-13.7-.2-83-1z"/><path fill="#c23e43" d="M703 870c2.7 2 3.8 3.3 4.9 6.4.2 3.8-1 6.3-3.1 9.4-2.6 1.8-4.6 2.1-7.8 2.2-3.6-1.6-6.2-3.4-8-7 .1-4 .4-6.2 2.9-9.4 4-3.1 6.2-2.7 11.1-1.6"/><path fill="#893e56" d="M964 1024c4.7 0 9.4 0 14-.1h13.9c1.7 0 3.4 0 5.1.1 1 1 1 1 1.1 4.8v4.8c0 .8 0 1.6-.1 2.4v6h-2c-.1-.8-.1-1.6-.2-2.4-.8-2.6-.8-2.6-3.1-3.9-1-.4-2-.7-3.1-1.1-1.1-.3-2.2-.7-3.3-1.1s-2.3-.7-3.5-1.1c-2.3-.8-4.5-1.5-6.8-2.3-1-.3-2-.7-3-1-3.2-1.2-6.1-2.6-9-4.1z"/><path fill="#477e69" d="M916 190h81v3h-82c.3-1 .7-2 1-3"/><path fill="#873757" d="M749.324 271.707h3.1c.6 0 .6 0 3.3.1h3.2c2.7.1 5.4.1 8.1.2-.9 1.1-1.9 2.2-2.8 3.3-.5.6-1 1.2-1.5 1.9-2.6 2.7-4.4 4.6-8.2 5.1h-5.7c-.5-.1-.5-.1-3.1-.1-1 0-2 0-3.1-.1-2.5 0-5.1 0-7.6-.1.9-1.1 1.8-2.2 2.8-3.3.5-.6 1-1.2 1.6-1.9.5-.6 1-1.2 1.6-1.8.4-.6.9-1.1 1.3-1.7 2.4-1.9 4.1-1.6 7-1.6"/><path fill="#4a3b40" d="M783 509c4.6 1.5 6.4 5.2 8.8 9.1.4.6.8 1.3 1.2 1.9 3 4.8 3 4.8 3 6h-21c1.5-4.5 2.9-7.9 5.1-11.9.3-.5.3-.5 1.7-2.9.4-.7.8-1.5 1.2-2.2"/><path fill="#873658" d="M901 824h37c-3 5-3 5-4.9 5.6-.3 0-.3 0-2.1.1h-5c-.5 0-.5 0-2.7.1h-8.5c-1.9 0-3.8.1-5.7.1-4.7.1-9.4.1-14.1.1 1.4-1.5 1.4-1.5 3-3h2c.3-1 .7-2 1-3"/><path fill="#d98157" d="M533 773h2c3.4 12.1 3.4 12.1.9 17.2-1.9 1.8-1.9 1.8-5.3 2.2-1.2-.1-2.5-.1-3.8-.2-1.3 0-2.5 0-3.8-.1-1 0-2-.1-3-.1 1.6-4.9 4.4-8.4 7.5-12.3.2-.3.2-.3 1.5-2 1.3-1.6 2.6-3.1 4-4.7"/><path fill="#8e6150" d="M890 672h17v2c-2 1.7-4 3.4-6 5-.3.7-.7 1.3-1 2 .7.2 1.4.5 2.1.7 3.6 1.6 6 3.6 8.9 6.3v1h-20v-3c.3 0 .3 0 1.9-.2 2.1-.8 2.1-.8 3.3-2.9.3-.6.5-1.2.8-1.9h2c-1.2-3.5-1.9-3.8-5.1-5.6L890 673z"/><path fill="#8b4954" d="M998 335v65h-14v-1h13v-57h-21c3.7-2.5 7.4-3.7 11.6-5.2.7-.3 1.5-.6 2.3-.9 5.9-2 5.9-2 8.1-.9"/><path fill="#9dba9c" d="M506 764h20v9h-20z"/><path fill="#c73a42" d="M709 527h42c-.7 1.3-1.3 2.6-2 4-2.4.1-4.9.1-7.3.1-.4 0-.4 0-2.1.1-3.8 0-5.4-.1-8.6-2.2-.3.7-.7 1.3-1 2h-23c.7-1.3 1.3-2.6 2-4"/><path fill="#4a3b40" d="M946 877h51v3h-50c-.3-1-.7-2-1-3"/><path fill="#f6a74d" d="M730 439h25c-.7 2-1.3 4-2 6h-25c.7-2 1.3-4 2-6"/><path fill="#873658" d="M841 698h33c-6.4 5.1-6.4 5.1-12.9 5.1h-7.2c-1.3 0-2.5 0-3.8-.1H841z"/><path fill="#e7a858" d="M711 935c1 .3 2 .7 3 1l-2 2c42.2.3 84.5.7 128 1v1H706c.3-.7.7-1.3 1-2h3c.3-1 .7-2 1-3"/><path fill="#c73a42" d="M553 746c4.3.3 8.6.7 13 1-1.9 3.4-3.8 6.7-6 10-2.6.2-5 .3-7.6.2-.7 0-1.4 0-2.2-.1-1.7 0-3.5 0-5.2-.1.7-.3 1.3-.7 2-1 .6-2.1.6-2.1 1-4h2c.3-.6.6-1.2.9-1.9.7-1.3 1.4-2.7 2.1-4.1"/><path fill="#477e69" d="M997 931h1v79h-6c-1.4-2.7-1.1-5-1-8h6z"/><path fill="#873658" d="M942 603h18c-2 4-4 7.9-6 12-4.7-1.2-5.4-2.3-8.2-6-.8-.9-1.5-1.8-2.2-2.8-1.6-2.2-1.6-2.2-1.6-3.2"/><path fill="#dcceba" d="M615 524v5h-43v-1c5.6-.6 11.3-1.1 16.9-1.7 1.9-.2 3.9-.4 5.8-.6 2.7-.3 5.5-.5 8.3-.8.8-.1 1.7-.2 2.6-.3.8-.1 1.6-.2 2.4-.2.7-.1 1.4-.2 2.1-.2 1.6-.2 3.3-.2 4.9-.2"/><path fill="#f2a64f" d="M127 603h20c-1.8 3.6-3.8 6.7-6 10-2.6-1.3-5.3-2.6-8-4v-2h-3v-2h-3z"/><path fill="#c73a42" d="M825 782c4.7.6 8.2 1.9 12.4 4.1 1 .5 2.1 1.1 3.2 1.6.8.4 1.6.9 2.4 1.3v1h-19c-1-2-1-2-.1-5.1.2-.5.2-.5 1.1-2.9"/></svg>