<svg xmlns="http://www.w3.org/2000/svg" width="1067" height="1600" viewBox="0 0 1067 1600"><title>grand-tour-vtracer — footer</title><path fill="#cb4445" d="M562 1348h1v5h151v42H563c-.3 1.3-.7 2.6-1 4l-5.1-11.1c-.4-1-.9-2-1.4-3.1-3.1-7-4.3-11-1.6-18.3 1.2-2.8 2.4-5.6 3.7-8.4l1.2-3c1.1-2.4 2.1-4.7 3.2-7.1"/><path fill="#4c3d40" d="M610.438 1209.832h7.1c2.4 0 4.9 0 7.3-.1 20.9 0 20.9 0 28.3 6.3 7.3 7.6 6.5 18.4 6.4 28.2v41c.1 9.9-.2 18.2-7.3 25.6-6.8 4.5-12.6 5.6-20.6 5.5-.4 0-.4 0-2.5-.1h-8.1c-1.9-.1-3.7-.1-5.6-.1-4.5 0-8.9-.1-13.4-.1-.1-13.7-.1-27.4-.1-41.1v-44.4c-.1-3.2-.1-6.5-.1-9.8v-8c.3-4.3 5.2-2.9 8.6-2.9"/><path fill="#4b3b40" d="M803.313 1212.75c4 3.4 6.8 7 7.7 12.2.1 2.5.2 5 .2 7.4v12.1c.1 4.5.1 8.9.1 13.3 0 4.6 0 9.1.1 13.7v15.6c.2 17.9.2 17.9-5.8 24.4-6.7 6.3-14.3 5.9-23 5.9h-3.3c-7.8 0-13.9-.6-20.1-5.6-4.4-5.6-5.7-10.6-5.6-17.6v-2.2c-.1-2.5-.1-5 0-7.4-.1-1.7-.1-3.5-.1-5.2v-10.8c.1-4.6 0-9.2 0-13.7v-15.8c-.1-16.4-.1-16.4 4.5-23.1 10.5-10 32.8-9.8 45.3-3.2M215 1210h26v106h-26v-42h-5v3.7c0 4.6 0 9.2.1 13.8v17.1c0 2.2 0 4.3-.1 6.4l-1 1h-25v-95c5.6-3 11.2-5.9 17-9l1-1h8v41h5z"/><path fill="#4c3e40" d="M538.317 1209.886h6.3c.6 0 .6 0 3.4.1h12c.8 2.7 1.5 5.5 2.3 8.2.1.4.1.4.6 2.3 2 6.8 3.5 13.6 5.1 20.5.3-10.2.6-20.4 1-31h21v106h-23c-3.4-10.1-3.4-10.1-4.6-15.3-.3-1-.5-2-.7-3-.2-.7-.2-.7-.9-3.7-.9-4-1.9-7.9-2.8-12-.3 11.2-.7 22.5-1 34-1.7 0-1.7 0-10.5.1h-8.5c-2-.1-2-.1-3-1.1-.1-1.3-.1-2.7-.1-4 0-.9 0-1.8-.1-2.7 0-1 .1-1.9.1-2.9s0-2.1-.1-3.1c0-3.4 0-6.7.1-10.1-.1-2.3-.1-4.7-.1-7 0-4.9 0-9.8.1-14.6 0-6.3 0-12.6-.1-18.9v-14.4c.1-2.3 0-4.6 0-7 0-3.2 0-6.4.1-9.6 0-.5 0-.5-.1-3 .1-.8.1-1.7.1-2.6v-2.3c.2-2.8.7-2.8 3.4-2.9"/><path fill="#4b3c40" d="M480 1210c4.5 0 9.1 0 13.6-.1H507c1.7 0 3.3 0 5 .1 2.2 2.2 1.9 7 2.3 10.1.1 1 .3 1.9.4 2.9.4 3.2.8 6.4 1.2 9.5.3 2.2.6 4.5.9 6.7l1.8 13.8c.8 6 1.6 11.9 2.4 17.8.6 4.6 1.2 9.1 1.8 13.7.2 2.2.5 4.4.8 6.6.4 3 .8 6.1 1.2 9.1.1.9.3 1.9.4 2.8.1.8.2 1.7.3 2.5s.2 1.5.3 2.2c.2 2.8.2 5.5.2 8.3h-25c-.2-2.1-.2-2.1-1-13h-11c-.3 4.3-.7 8.6-1 13h-22c.6-11.9 1.8-23.6 3.4-35.5.3-1.8.5-3.6.8-5.4l1.5-11.4c.6-4.8 1.3-9.7 1.9-14.5.5-3.7 1-7.5 1.5-11.2.2-1.8.4-3.6.7-5.4.3-2.5.6-5 1-7.4.1-.8.2-1.5.3-2.2.6-4.5 1.6-8.7 2.9-13"/><path fill="#4c3c40" d="M253 1210h45v22h-19v20h19c0 3.5 0 7 .1 10.4v8.6c-.1 2-.1 2-1.1 3-1.3.1-2.7.1-4 .1h-5.1c-1.4 0-1.4 0-8.9-.1v20h20v22h-46z"/><path fill="#4b3b40" d="M691 1210h52v22h-13v84h-26v-84h-13z"/><path fill="#4c3c40" d="M121 1211h31c1.3 2.6 2.6 5.3 4 8 2.5 3 4.1 3.9 8 4.5 3 .2 6 .4 9 .5v8h-13v84h-26v-84h-13z"/><path fill="#9eb9b3" d="M737 1347h211v54H737zm2 2v50h206v-50z"/><path fill="#4c3e43" d="M649 1365c2.8 3 3.8 5 4.6 8.9-.9 4.5-3.3 7.1-6.6 10.1-6.1 3.6-13.2 3.5-19.9 1.7-4.5-1.5-7.3-3.6-10.1-7.5-1.3-4.2-.8-6.2 1-10.2 8.7-9.1 20.6-9 31-3"/><path fill="#c6cfab" d="M879 1358h4v3c.3-.7.7-1.3 1-2 1 .3 2 .7 3 1 2.3 4.9 2.3 9.6 2.3 14.9 0 .8 0 1.6.1 2.4 0 5.3-.9 9-3.4 13.7-2 1-2 1-8 1 .3-11.2.7-22.4 1-34"/><path fill="#d9d4c2" d="M774 1358c1.6.3 3.3.7 5 1 2.2 5.4 2.3 10.2 2.3 15.9 0 .9 0 1.8.1 2.7 0 5.6-.8 9.4-3.4 14.4h-4c-3-5.8-3.5-10.5-3.4-17v-2.6c0-5.6.9-9.5 3.4-14.4"/><path fill="#be9898" d="M290 1374h11v26h-10c-.3-8.6-.7-17.2-1-26"/><path fill="#df734b" d="M588.688 1368.75c1.4.1 2.9.1 4.3.2.3 1 .7 2 1 3 .3-.9.7-1.9 1-3 2.9-.1 2.9-.1 6 0 .7.7 1.3 1.4 2 2-.3 2.1-.6 4.1-1 6 .3 1 .7 2 1 3-1-.3-2-.6-3-1-.3-.6-.6-1.3-1-2-.3.5-.3.5-2 3-2.6.3-2.6.3-5.6.2h-3.1c-.7-.1-1.5-.1-2.3-.2v-8h-2c-.6 2-1.3 4-2 6h-3c-3-5.7-3-5.7-3-8 3 1 3 1 5 3 .3-.6.6-1.3.9-2 2.6-2.4 3.4-2.2 6.8-2.2"/><path fill="#634845" d="M817 1358h4v15c1.3.7 2.6 1.3 4 2 2.5 3.7 2.6 6.7 2 11-2.1 4.6-2.1 4.6-5 6h-6c.3-.7.7-1.3 1-2 .1-2.4.1-4.8.1-7.2v-8.9c0-1.6 0-3.1-.1-4.6z"/><path fill="#e3dbc8" d="M264 1374h7c1 1 1 1 1.1 4.6-.1 1.1-.1 2.2-.1 3.4h-2v9h2c.1 6.2.1 6.2 0 8-1 1-1 1-4 1.1-3-.1-3-.1-4-1.1-.1-1.9-.1-3.7-.1-5.6v-7c0-1.2 0-2.3.1-3.6z"/><path fill="#b89f98" d="M251 1374h8c0 4.1 0 8.3.1 12.4v10.2c-.1 2.4-.1 2.4-1.1 3.4h-6c-.3-8.6-.7-17.2-1-26"/><path fill="#c0bdb0" d="M190 1374h7c0 4.1 0 8.3.1 12.4v10.2c-.1 2.4-.1 2.4-1.1 3.4-2.5.1-2.5.1-5 0-1-1-1-1-1.1-3.4v-10.2c0-1.2 0-2.3.1-3.6z"/><path fill="#b39392" d="M122 1374h8c1 1 1 1 1.1 4.1-.1.9-.1 1.9-.1 2.9h-2v7h-1c-.3 3.3-.7 6.6-1 10h2c.3-2 .7-4 1-6h1v7l-1 1h-7c-.3-8.6-.7-17.2-1-26"/><path fill="#aa767c" d="M317 1374c5 1 5 1 6.3 2.8.8 2.5.7 4.1.3 6.6-.5 3.5-.6 6.2.4 9.6h2c-.3 2.3-.7 4.6-1 7-1-.3-2-.7-3-1-.3-.7-.7-1.3-1-2-.3 1-.7 2-1 3h-3z"/><path fill="#d6d2c2" d="M787 1497c.3.7.7 1.3 1 2 1-.3 2-.7 3-1l2 2 1-1c2.7-1.3 4.1-.6 7 0 .7-.3 1.3-.7 2-1 1 .3 2 .7 3 1 1-.3 2-.7 3-1 .7.3 1.3.7 2 1 1-.3 2-.7 3-1 .7 1.7 1.3 3.3 2 5-1 1-1 1-3.8 1.1-1.1-.1-2.1-.1-3.2-.1h-4c-.7-.2-1.5-.4-2.2-.6-3.1-.4-5.7-.1-8.7.3-8.5 1.1-8.5 1.1-12.1-.7v-3h-2v3h-2v-4c6.8-1.1 6.8-1.1 9 0z"/><path fill="#dddbcd" d="M434.938 1513.938c1.4 0 2.7 0 4.1.1h2c.7.1 1.5.3 2.3.5 2.7.5 4.1.3 6.7-.5h14c-.4 1.6-.7 3.3-1 5-6.2.9-11.9.9-18 .5-.9 0-1.8-.1-2.7-.1-2.1-.2-4.2-.3-6.3-.4-.4.6-.7 1.3-1 2-.4-.7-.7-1.4-1-2-1-.4-2-.7-3-1-.4-1-.7-2-1-3 1-1 1-1 4.9-1.1"/><path fill="#cfd0c2" d="M805 1482c1 .4 2.1.7 3.1 1.1 4.2 1 6 .6 9.9-1.1v6h-10c-2.8.3-5.6.7-8.4 1.1-2.6-.1-2.6-.1-4.4-1.6l-1.2-1.5c-.3.7-.7 1.3-1 2-5.4 1.3-5.4 1.3-8 0 .3-1.7.7-3.3 1-5h9.6c1 0 1.9.1 3 .1h3c2.4-.1 2.4-.1 3.4-1.1"/><path fill="#624946" d="M863 1358h4v15c1.3.7 2.6 1.3 4 2 1 1 1 1 1.1 4.2v3.9c0 1.3-.1 2.5-.1 3.9v3c.7.3 1.3.7 2 1h-3c-3-5-2.6-10.3-3-16-.3 5.3-.7 10.6-1 16-1.3-.3-2.6-.7-4-1z"/><path fill="#b96457" d="M389 1375h6c1.3 2.6 1.1 4.4 1.1 7.2v6.4c0 1.1 0 2.2-.1 3.3v8.1l-3-3-3 3c-1-1-1-1-1.1-3.3v-9.8c0-1.1 0-2.2.1-3.4z"/><path fill="#b38d8e" d="M351 1374c1.3.3 2.6.7 4 1 1.7 8.1 3 16 0 24-1 .7-2 1.3-3 2-3.5-4.6-3.4-8.5-3.3-14.1v-2.4c0-7.2 0-7.2 2.3-10.5"/><path fill="#e67046" d="M394 1181c1.9 1.1 1.9 1.1 3 3 .6 5.9.6 5.9-1.1 8.9-2.9 1.6-4.7 1.6-7.9 1.1-2.4-2.2-2.4-2.2-4-5 .1-2.9.6-4.4 2.2-6.8 2.7-1.8 4.6-1.6 7.8-1.2"/><path fill="#a68786" d="M170 1374h5c2.1 3.4 2.3 6 2 10-.3 1-.7 2-1 3 .3.7.7 1.3 1 2 .1 1.9.1 3.8.1 5.6 0 1-.1 2-.1 3.1v2.3c-.7-.3-1.3-.7-2-1-.4-2.8-.5-5.7-.7-8.5-.1-.8-.2-1.7-.3-2.5-.7-.3-1.3-.7-2-1v13h-2z"/><path fill="#6c5955" d="M905 1358h3c1.3 5 2.6 9.9 4 15v-15h3c-.3 10.9-.7 21.8-1 33-2.5-2.5-2.8-4.3-3.7-7.7-.3-1.2-.6-2.3-1-3.5l-.9-3.6c-.2-.6-.2-.6-1-3.6-2.6-9.7-2.6-9.7-2.4-14.6m-149 0h3c1.3 5 2.6 9.9 4 15v-15h3c-.3 10.9-.7 21.8-1 33-2.5-2.5-2.8-4.3-3.7-7.7-.3-1.2-.6-2.3-1-3.5l-.9-3.6c-.2-.6-.2-.6-1-3.6-2.6-9.7-2.6-9.7-2.4-14.6"/><path fill="#a57c82" d="M166 1375v6l-2-2v-3h-2c.3 2.6.7 5.3 1 8h2v5c-.3.2-.3.2-2 1-.4 1.8-.4 1.8-.6 4.1-.1 1.3-.3 2.6-.4 3.9h2c.3-2 .7-4 1-6h1v7l-1 1h-6v-25c2.7-1.3 4.2-.7 7 0"/><path fill="#e66943" d="M574 1181c1.3.3 2.6.7 4 1 .3 1.3.7 2.6 1 4 .8-.8 1.5-1.7 2.3-2.5 2.7-2.5 2.7-2.5 5.7-2.5v13h-3c-.2-.8-.2-.8-1-5l-3 3c-.7-1-1.3-2-2-3-.3 1.7-.7 3.3-1 5h-3z"/><path fill="#d9d3c3" d="M757 1497c2.2.9 2.2.9 4 2 .3-.7.7-1.3 1-2 1.3.1 2.5.2 3.8.4.4 0 .4 0 2.2.2 2 .4 2 .4 5 2.4v-2c1 .3 2 .7 3 1-.3.2-.3.2-2 1v4h-17v-4c-.8.7-1.5 1.4-2.3 2.1-.9.6-1.8 1.2-2.7 1.9-1-.3-2-.7-3-1h2v-3c-1 .3-2 .7-3 1v-2c1-.3 2-.7 3-1 .7.3 1.3.7 2 1 .6-.4 1.2-.7 1.9-1.1.3-.1.3-.1 2.1-.9"/><path fill="#a9757c" d="M147 1374h5c1.9 2.1 1.9 2.1 3 5-1.2 6.2-1.2 6.2-3 8-.1 2.2-.1 4.4-.1 6.6 0 1.2.1 2.4.1 3.6v2.8h-4c-.3-8.6-.7-17.2-1-26"/><path fill="#d7d2c2" d="M522 1497v2c1-.3 2-.7 3-1 1 .3 2 .7 3 1 2.2-.4 4-1 6-2 .3 1.7.7 3.3 1 5 .3-1 .7-2 1-3 1.7-.4 3.3-.7 5-1 1 1 1 1 1.1 3.6-.1.8-.1 1.6-.1 2.4-.3-1.3-.7-2.6-1-4h-2v4c-3.5.1-6.9.1-10.4.2-.5 0-.5 0-3 .1h-5.4c-.8-.1-1.5-.2-2.2-.3-.7-1-1.3-2-2-3 3.8-4 3.8-4 6-4"/><path fill="#cfcdbe" d="M179 1497h1c.1.8.2 1.6.4 2.4.2.9.4 1.7.6 2.6.7.3 1.3.7 2 1v-6c1.5.1 2.9.3 4.4.4.4.1.4.1 2.4.3 2.2.3 2.2.3 4.2 1.3 1-.3 2-.7 3-1 2.1.2 2.1.2 4 1 .3 1 .7 2 1 3 .3-1 .7-2 1-3 1.9-.8 1.9-.8 4-1l2 2c-.4 2.1-.4 2.1-1 4-1.3 0-2.5 0-3.8.1H202c-2-.1-2-.1-5-1.1v-3h-2v4h-6v-4h-2c-.3 1.3-.7 2.6-1 4h-6c-1-1-1-1-1.1-4.1.1-.9.1-1.9.1-2.9"/><path fill="#9b7b79" d="M223 1374h3c.3 2.3.7 4.6 1 7h2c-.3-2-.7-4-1-6h2c.1 4.2 0 7.9-1 12h-3v12h2c.3-1.7.7-3.3 1-5h1v5l-1 1h-6z"/><path fill="#b2868b" d="M424 1374h6v26h-5c-.3-8.6-.7-17.2-1-26"/><path fill="#d5d2c2" d="M499 1512c.3.7.7 1.3 1 2h4v5c-.3-1.3-.7-2.6-1-4h-2v4c-3.3.8-5.8 1.4-9 0-.3-1-.7-2-1-3-.3.5-.3.5-2 3-2.4.3-2.4.3-5.1.2-.9 0-1.8-.1-2.8-.1-.7 0-1.4-.1-2.1-.1-.3-1.3-.7-2.6-1-4 4.4-1.4 8.7-1 13.2-.8 3.3-.2 4.7-2.2 7.8-2.2"/><path fill="#b0858b" d="M296 1374h5v26h-5z"/><path fill="#644e4a" d="M835 1358h4c4.3 7.5 4.2 18.6 2.3 26.9-.7 2.1-1.5 4.1-2.3 6.1h-1v-32c-1-.3-2-.7-3-1"/><path fill="#e66d45" d="M666 1181h3c.3 2.3.7 4.6 1 7h2c.3-1.3.7-2.6 1-4l3 3c.7-2 1.3-4 2-6h3l-.9 4.8c-.1.9-.3 1.8-.5 2.7-.6 2.5-.6 2.5-2.6 5.5-.6-.2-1.2-.3-1.8-.5-2.2-.5-2.2-.5-6.2-.5-.5-1.2-1-2.5-1.5-3.8-.3-.6-.6-1.3-.8-2.1-.7-2.1-.7-2.1-.7-6.1"/><path fill="#cacec2" d="m465 1538 3 3c.3-1 .7-2 1-3h2c.3 1 .7 2 1 3 .3-1 .7-2 1-3h2v2c1-.7 2-1.3 3-2 2.7.4 2.7.4 5 1-.3.2-.3.2-2 1-.7-.3-1.3-.7-2-1v2c1.6.3 3.3.7 5 1 .7-1.3 1.3-2.6 2-4 .7.3 1.3.7 2 1-1 2-1 2-2 3h3c.3 1 .7 2 1 3h-2v-2h-3v2h-9v-2c-.6.4-1.2.7-1.8 1.1-2.6 1.1-3.6.9-6.2-.1l-1-1-2 2z"/><path fill="#d3d1c2" d="M256 1481c1 .7 2 1.3 3 2v2h2v-2h11c.3 1.7.7 3.3 1 5l-3-3c-.3 1-.7 2-1 3h-6c-.3-.7-.7-1.3-1-2-.3.7-.7 1.3-1 2h-14c.3-1.7.7-3.3 1-5l1.8.6c2.4.4 3.8.2 6.2-.6z"/><path fill="#634845" d="M879 1358h4c-.3 10.9-.7 21.8-1 33h-3z"/><path fill="#ece2ce" d="M835 1359h3v33h-3z"/><path fill="#4c3c40" d="M895 1358h3v33h-3z"/><path fill="#d3ccbb" d="M844 1497h6c.3.7.7 1.3 1 2 .7-.3 1.3-.7 2-1 1 .3 2 .7 3 1 1-.3 2-.7 3-1 .7 1.3 1.3 2.6 2 4-.3.2-.3.2-2 1v-3h-2c-.3 1-.7 2-1 3-5.7 1.2-11.2 1.1-17 1v-5c1-.3 2-.7 3-1l1 1c.3-.7.7-1.3 1-2"/><path fill="#9c5654" d="M379 1375h1c.3 7.3.7 14.5 1 22 .3-3 .7-5.9 1-9 1.3.3 2.6.7 4 1-.3 3.6-.7 7.3-1 11h-5c-4-7.2-4.1-14.8-2-22.8.3-.7.7-1.4 1-2.2"/><path fill="#d9d4c4" d="M716 1497h2v2h3l2-2c4.1 0 7.1.8 11 2v5c-2.8 0-5.6 0-8.4.1h-2.5c-2 0-4.1 0-6.1-.1-1-1-1-1-1.1-4.1.1-.9.1-1.9.1-2.9"/><path fill="#d0c5b2" d="M327 1374h4c.5 3 1.1 6.1 1.6 9.1.1.9.3 1.7.4 2.6.8 4.7 1.2 8.6 0 13.3h-1c-.3-2-.7-4-1-6-.3 2.3-.7 4.6-1 7h-2c-.3-8.6-.7-17.2-1-26"/><path fill="#8d4c54" d="M361 1374h6c1 1 1 1 1.1 4.1-.1.9-.1 1.9-.1 2.9-2-3-2-3-3-5-.1 8.6-.1 8.6 1 12h-1c-.3 4-.7 7.9-1 12h-3z"/><path fill="#604d48" d="M834 1359h1v32c-5-6.6-4.4-13.9-4-22 1.2-8.2 1.2-8.2 3-10"/><path fill="#e66f45" d="M624 1181c.7 1 1.3 2 2 3-2.9.8-4.9 1-8 1 .3 1.7.7 3.3 1 5 1.3.3 2.6.7 4 1v-2h-2v-2h6c-.3 2.4-.3 2.4-1 5-3.2 2.2-4.2 2.6-8 2-2.4-2.2-2.4-2.2-4-5 .1-2.9.6-4.4 2.2-6.8 2.7-1.8 4.7-1.6 7.8-1.2"/><path fill="#d8d4c4" d="M319 1497c1.6.7 3.3 1.3 5 2v5c-.3-1.3-.7-2.6-1-4h-2v4h-16c-.2-.8-.2-.8-1-5 1-.3 2-.7 3-1 .7.3 1.3.7 2 1 1.1-.2 2.3-.3 3.4-.5 3.6-.5 3.6-.5 6.6.5z"/><path fill="#cccfc2" d="M774 1481c1.3.3 2.6.7 4 1v6c-.3-1.3-.7-2.6-1-4h-2c-.3 1.3-.7 2.6-1 4h-6c-.3-1-.7-2-1-3-.3.5-.3.5-2 3l-1-1c-1.8.4-1.8.4-4 1-1.3.3-2.7.7-4 1-.2-.8-.2-.8-1-5h4c.5-.1.5-.1 2.8-.5 3.8-.6 7.3-.6 11.2-.5.3-.7.7-1.3 1-2"/><path fill="#8d4c54" d="M240 1374h7c-.2.6-.3 1.1-.5 1.7-.5 2.5-.7 4.9-.8 7.5-.1 1-.1 2-.1 3-.1 1-.1 2-.2 3 0 .6 0 .6-.1 3.2-.1 2.5-.2 5.1-.3 7.6h-3c-.3-7.6-.7-15.2-1-23l-2 2c.3-1.7.7-3.3 1-5"/><path fill="#d1d4c5" d="M821 1374c4 1 4 1 6 4 .4 5.4.4 8.6-3 13-2.7 1.4-5 1.1-8 1v-1h5z"/><path fill="#564545" d="M793 1358h3c4.8 27.4 4.8 27.4 1 33-.6-3.9-1.1-7.8-1.7-11.7-.3-2-.6-3.9-.9-5.9-.2-1.3-.3-2.5-.5-3.8-.1-.6-.1-.6-.5-3.5-.4-2.7-.5-5.3-.4-8.1"/><path fill="#d5d3c4" d="M409 1514h18c-.3 1.7-.7 3.3-1 5-.5.1-.5.1-3.2.4-3 .5-5.9 1-8.8 1.6-.3-.7-.7-1.3-1-2h-5c.3-1.7.7-3.3 1-5"/><path fill="#bcc4b7" d="M493 1550c7 0 7 0 8.9.6 2.1.4 2.1.4 4.1-.1s2-.5 3.9 0c2.6.6 4.5.1 7.1-.5-.3 2-.7 4-1 6h-6c-.3-.7-.7-1.3-1-2-2 .7-4 1.3-6 2-.7-1-1.3-2-2-3-.3.7-.7 1.3-1 2h-5c-.7-1.7-1.3-3.3-2-5"/><path fill="#d0cfc1" d="M340 1483h5v2h2v-2h14c.3.7.7 1.3 1 2q-1.35 3-3 6h-1c-.3-2-.7-4-1-6-.3.5-.3.5-2 3-1.9.9-1.9.9-4 1-1.8-1.4-1.8-1.4-3-3-.3.7-.7 1.3-1 2-5.4 1.3-5.4 1.3-8 0 .3-1.7.7-3.3 1-5"/><path fill="#b56c61" d="M264 1374h7v5c-.3-1-.7-2-1-3h-3v23h-3z"/><path fill="#574343" d="M852 1359h1c1.3 10.6 2.6 21.1 4 32h-4c-3.2-27.6-3.2-27.6-1-32"/><path fill="#544344" d="M787 1359h3c2 10.9 3.7 20.9 2 32-2.1-3.1-2.4-4.5-2.9-8.1l-.3-3c-.2-1.1-.3-2.1-.4-3.2-.2-1-.3-2.1-.4-3.1-.6-4.9-1.2-9.7-1-14.6"/><path fill="#554243" d="M884 1359c1 .3 2 .7 3 1 2.3 4.9 2.3 9.6 2.3 14.9 0 .8 0 1.6.1 2.4 0 5.3-1 9-3.4 13.7-.7-.3-1.3-.7-2-1 .1-.3.1-.3.5-1.7.6-2.6.6-4.9.6-7.6v-15.2c-.1-2.3-.4-4.3-1.1-6.5"/><path fill="#c9cabb" d="M546.09 1549.672c.3.1.3.1 1.9.3.7 1 1.3 2 2 3 .3-1 .7-2 1-3 1.3.4 2.7.7 4 1v3h2v2h-17c-.2-.8-.2-.8-1-5 1.9-1.9 4.6-1.2 7.1-1.3"/><path fill="#d6d4c6" d="M702 1512h2v2c.7.3 1.3.7 2 1h-2v4h-17c.3-1.7.7-3.3 1-5l1.8.6c2.4.4 3.8.1 6.2-.6h6z"/><path fill="#d1d0c1" d="M734 1483c11 0 11 0 12.9.6 2.4.5 3.8.1 6.1-.6-.3.2-.3.2-2 1v3c1-.3 2-.7 3-1v2h-14v2h-2v-2c-1.3-.3-2.6-.7-4-1z"/><path fill="#504143" d="M923 1358c1.5 3 1.1 5.7 1.1 9v8.6c0 1.5 0 3-.1 4.5v10.9c-2.7-2.5-3.9-4.3-4.2-8.1v-7.7c-.1-.8-.1-1.7-.1-2.6 0-5.7.7-9.6 3.3-14.6"/><path fill="#504343" d="M777 1358c3.2 2.8 3.9 5 4.2 9.2v7.7c.1.9.1 1.7.1 2.7 0 5.2-.4 8.8-3.3 13.4-1.5-3-1.1-5.7-1.1-9v-8.6c0-1.5 0-3 .1-4.5z"/><path fill="#c3c5b5" d="M796 1358h7c-1 7.9-2 15.8-3 24h-1c-.5-3.2-1-6.5-1.5-9.8-.1-.9-.3-1.8-.4-2.7-.2-.9-.3-1.8-.4-2.7-.2-.9-.3-1.7-.4-2.5-.3-2.3-.3-2.3-.3-6.3"/><path fill="#4f3f42" d="M774 1358c1.5 2.9 1 5.5.9 8.8 0 .6-.1 1.3-.1 2-.1 2.1-.2 4.2-.2 6.3-.1 1.5-.1 2.9-.2 4.3-.1 3.6-.3 7.1-.4 10.6-2-1-2-1-2.6-2.8-.7-4-.6-8-.6-12-.1-.5-.1-.5-.1-2.7 0-5.6.7-9.5 3.3-14.5"/><path fill="#cfd0c1" d="M198 1481c1.1.3 2.1.7 3.2 1 3.8 1 3.8 1 7.8 1v5h-13v-4h-2c-.3 1.3-.7 2.6-1 4v-4h-2c-.2.7-.2.7-1 4v-5h7c.3-.7.7-1.3 1-2"/><path fill="#976c6d" d="M436.5 1373.875c3.5.1 3.5.1 4.5 1.1v5c-.7-.3-1.3-.6-2-1v-3h-2v24c-.7-.3-1.3-.6-2-1-.3-6.2-.7-12.5-1-19-.3.2-.3.2-2 1v-6c1-1 1-1 4.5-1.1"/><path fill="#638e7b" d="M193 1351c6 0 6 0 8 1v1.9c0 .8-.1 1.6-.1 2.5v2.4c.1 2.2.1 2.2 1.1 4.2-3 0-3 0-5.2-2-.6-.7-1.2-1.3-1.8-2v4h-2z"/><path fill="#cacab7" d="M785 1358h8c.5 2.9 1 5.8 1.5 8.8.1.8.3 1.6.4 2.4.2.8.3 1.6.4 2.5.2.7.3 1.4.4 2.2.3 2.1.3 2.1.3 6.1-1 .3-2 .7-3 1-.5-2.5-1-5.1-1.5-7.6-.1-.7-.3-1.5-.4-2.2-.8-4.1-1.3-8-1.1-12.2-1.3.3-2.6.7-4 1-.3-.7-.7-1.3-1-2"/><path fill="#d4d3c5" d="M163 1483h15v6c-3.6 1.1-4.8 1.1-8.3-.4-.9-.6-1.8-1.1-2.7-1.6-.7 1.3-1.3 2.6-2 4h-1c-.3-2.6-.7-5.3-1-8"/><path fill="#628e7a" d="M350 1351h6c2 2 2 2 2.1 4.6 0 .8-.1 1.6-.1 2.4h-2c.7 1.7 1.3 3.3 2 5-3-1-3.9-1.8-6-4v4h-2z"/><path fill="#618e7a" d="M283 1351h6l2 2c-.3 2.3-.6 4.7-1 7 .3 1 .7 2 1 3-1.3-.7-2.6-1.3-4-2v-2h-2v4h-2z"/><path fill="#cbcfc2" d="M434.938 1513.938c1.4 0 2.7 0 4.1.1h2c2 .3 4 .6 6 1v3c1 .3 1.9.6 3 1h-14c-.4.6-.7 1.3-1 2-.4-.7-.7-1.4-1-2-1-.4-2-.7-3-1-.4-1-.7-2-1-3 1-1 1-1 4.9-1.1"/><path fill="#d8d4c6" d="M805 1482c1 .4 2.1.7 3.1 1.1 4.2 1 6 .6 9.9-1.1v6c-5.8 0-11.3-.1-17-1v-2c1-.3 2-.7 3-1 .3-.7.7-1.3 1-2"/><path fill="#8c4e64" d="M514 1374h8v5c-.3-1-.7-2-1-3h-2v24h-2v-24h-2c-.3 1-.7 2-1 3z"/><path fill="#477e69" d="M378 1351c4 2 4 2 5.2 4.6.3.8.5 1.6.8 2.4h2v-7h2v12c-3.8-1.9-4.8-2.7-7-6-.3 2-.7 4-1 6h-2zm-82 0c4 2 4 2 5.2 4.6.3.8.5 1.6.8 2.4h2v-7h2v12c-3.8-1.9-4.8-2.7-7-6-.3 2-.7 4-1 6h-2z"/><path fill="#d2d3c7" d="M240 1481c1.3 1 2.6 2 4 3-2 3-2.8 3.7-6 5h-3v-2c-2 .3-4 .7-6 1-.3-1-.7-2-1-3 .3-.7.7-1.3 1-2 .7.2 1.4.4 2.2.6 3.3.5 4.9-.1 7.8-1.6z"/><path fill="#a57980" d="M393 1375h2c1.3 2.6 1.1 4.4 1.1 7.2v6.4c0 1.1 0 2.2-.1 3.3v8.1c-3-2.7-3-2.7-3.3-5.3 0-.8.1-1.6.1-2.4s.1-1.6.1-2.4c0-.3 0-.3.1-1.9-.7-.3-1.3-.7-2-1v-3h2z"/><path fill="#cdccbc" d="M386 1497c.3 2.3.7 4.6 1 7-2.5.1-4.6.1-7-.6-2.6-.5-4.5 0-7 .6-.3-1.3-.7-2.6-1-4h-2c-.3 1-.7 2-1 3v-4c6.5-1.1 6.5-1.1 9.1-.4 3.2.7 4.9-1.6 7.9-1.6"/><path fill="#d7d4c5" d="M645 1481h2c.3.7.7 1.3 1 2 2.1.6 2.1.6 4 1v4h-17c1.6-1.7 3.3-3.3 5-5h4c.3-.7.7-1.3 1-2"/><path fill="#c0c3b6" d="M849 1373h1v8c1 .3 2 .7 3 1 .3 6.1.3 6.1 0 8-3 2-3 2-7 2 1-6.3 2-12.5 3-19"/><path fill="#d1d1c3" d="M588 1482c1.1.2 2.1.3 3.2.5 3.8.5 3.8.5 7.8.5h5c-.3 1.7-.7 3.3-1 5h-15z"/><path fill="#d0cdbc" d="M422 1483h17c.3 1.7.7 3.3 1 5h-7c-.3-1-.7-2-1-3-.3.5-.3.5-2 3-2.6.2-2.6.2-5 0v-4h-2c-.3 1.3-.7 2.6-1 4z"/><path fill="#618e7b" d="M470 1351c2.3.3 4.6.7 7 1 .3 1.7.7 3.3 1 5-3 2-3 2-6 2v4h-2z"/><path fill="#64907d" d="M149 1351c2.3.3 4.6.7 7 1 .3 1.7.7 3.3 1 5-3 2-3 2-6 2v4h-2z"/><path fill="#d4d2c4" d="M610 1514h17c.3 1.7.7 3.3 1 5h-4c-.6 0-.6 0-3.6.2-1.1-.1-2.3-.1-3.4-.2-.7-1-1.3-2-2-3-.3.5-.3.5-2 3v-2h-2c-.3-1-.7-2-1-3"/><path fill="#5c8b78" d="M246 1351h2c1.7 4 3.3 7.9 5 12-1.5-.3-1.5-.3-9-2v2h-2c.5-1.6 1-3.3 1.4-4.9.3-.9.6-1.8.8-2.7.8-2.4.8-2.4 1.8-4.4"/><path fill="#5c8c79" d="M367 1351h2c1.6 4 3.3 7.9 5 12-1.5-.3-1.5-.3-9-2v2h-2c.5-1.6 1-3.3 1.4-4.9.3-.9.6-1.8.8-2.7.8-2.4.8-2.4 1.8-4.4"/><path fill="#477e69" d="M509 1351c4 1 4 1 5.8 3.6l1.2 2.4c.3-2 .7-4 1-6h2v12c-3.8-1.3-4.1-2.7-6-6-.7-.3-1.3-.7-2-1v7c-.7-.3-1.3-.7-2-1z"/><path fill="#d5d8ce" d="M264 1512c1.7.3 3.3.6 5 1 .5.1.5.1 2.8.6.7.1 1.5.3 2.2.4v5c-1.6 0-3.3 0-4.9.1h-2.8c-2.3-.1-2.3-.1-3.3-1.1-.1-2.5-.1-2.5 0-5z"/><path fill="#477e69" d="M629 1368h8c.3 8.2.3 8.2-2 12-2.6.8-2.6.8-5 1 1.4-3 3-5.4 5-8-2-.7-4-1.3-6-2zm-185-17c3.8 1.9 4.8 2.7 7 6 .3-2 .7-4 1-6h1v12h-2c-1.4-2-2.7-4-4-6-.3 2-.7 4-1 6h-2z"/><path fill="#cfcbbb" d="M694 1481h7v2c3.1 1 4.9 1 8 0 .3 1.7.7 3.3 1 5h-7c-.3-1-.7-2-1-3-.3.5-.3.5-2 3-.2-.8-.2-.8-1-5-.3 1.7-.7 3.3-1 5h-2v-6c-.7-.3-1.3-.7-2-1"/><path fill="#ced1c5" d="M595 1541v4c-.6 0-.6 0-3.8-.1-2.9 0-5.4.2-8.2 1.1v-6c4.5-1.4 7.6-.5 12 1"/><path fill="#d3d3c6" d="M309 1512c1.6.3 3.3.7 5 1v3c.3-.7.7-1.3 1-2 1.3.3 2.6.7 4 1v4c-3.8 1.1-3.8 1.1-6 0h-5c0-4 0-4 1-7"/><path fill="#d4d1c2" d="M590 1500c1-.7 2-1.3 3-2 .7.3 1.3.7 2 1v6c-1.3.3-2.6.7-4 1-.3-.7-.7-1.3-1-2-1.7-.4-3.3-.7-5-1-.7-.3-1.3-.7-2-1v-3c3.5-1.2 3.7-1.2 7 1"/><path fill="#cac9b9" d="M695 1497c1.3.7 2.6 1.3 4 2v5c-.3-1.3-.7-2.6-1-4h-2c-.3 1.3-.7 2.6-1 4-.7-.2-1.4-.4-2.2-.6-3-.4-4.9-.1-7.8.6h-5c1-2 1-2 4-3v-2h2c.3 1 .7 2 1 3 .7-1 1.3-2 2-3 2.1-.7 2.1-.7 4-1 .3.7.7 1.3 1 2h-3v2h4z"/><path fill="#d5cfbe" d="M891 1497h4v7c-.7-1.3-1.3-2.6-2-4-.3.5-.3.5-2 3h-2v-3h-2v6h-2v-2c-1.6-.3-3.3-.7-5-1 .3-1.3.7-2.6 1-4 .3 1 .7 2 1 3 .3-1 .7-2 1-3 2-.4 4-.7 6-1l1 1c.3-.7.7-1.3 1-2"/><path fill="#e9ceb4" d="M689 1370h6c.7 3.4 1 6.5 1 10-1-.3-2-.7-3-1-.3-.7-.7-1.3-1-2l-3 3z"/><path fill="#e8cdb4" d="M596 1370h6c.7 3.4 1 6.5 1 10-1-.3-2-.7-3-1-.3-.7-.7-1.3-1-2l-3 3z"/><path fill="#477e69" d="M392 1351h2c.3 3.3.7 6.6 1 10 1.3-.3 2.6-.7 4-1 .3-3 .7-5.9 1-9h2c.1 1.6.1 3.2.1 4.9 0 .9.1 1.8.1 2.7-.2 2.4-.2 2.4-2.2 4.4-3.6-.2-3.6-.2-7-1-1.2-2.4-1.1-3.9-1.1-6.6 0-.8.1-1.7.1-2.5zm103 0h2c.3 3.3.7 6.6 1 10h4c.3-3.3.7-6.6 1-10h2c.1 1.4.1 2.9.2 4.3 0 .8.1 1.6.1 2.4-.3 2.3-.3 2.3-1.7 4.1-1.6 1.2-1.6 1.2-4.2 1.6-.8-.1-1.6-.3-2.4-.4-2.1-3.2-2.2-4-2.1-7.7v-2.4c.1-.7.1-1.3.1-1.9m-160 0h2c.3 3.3.7 6.6 1 10 1.3-.3 2.6-.7 4-1 .3-3 .7-5.9 1-9h2c.1 1.6.1 3.2.1 4.9 0 .9.1 1.8.1 2.7-.2 2.4-.2 2.4-2.2 4.4-3.6-.2-3.6-.2-7-1-1.2-2.4-1.1-3.9-1.1-6.6 0-.8.1-1.7.1-2.5z"/><path fill="#d5d2c1" d="M671 1512c.3.7.7 1.3 1 2h9c-.3 1.7-.7 3.3-1 5-6.6 1.1-6.6 1.1-10 0v-6z"/><path fill="#477e69" d="M268 1351h2c.3 3.3.7 6.6 1 10h4c.3-3.3.7-6.6 1-10h2c.1 1.4.1 2.9.2 4.3 0 .8.1 1.6.1 2.4-.3 2.3-.3 2.3-1.6 4.1-1.7 1.2-1.7 1.2-4.8 1-1-.3-1.9-.5-2.9-.8-1.2-2.4-1.1-3.9-1.1-6.6 0-.8.1-1.7.1-2.5zm-133 0h2c.3 3 .7 5.9 1 9 1.3.3 2.6.7 4 1 .3-3.3.7-6.6 1-10h2c.1 1.4.1 2.9.2 4.3 0 .8.1 1.6.1 2.4-.3 2.3-.3 2.3-1.7 4.1-1.6 1.2-1.6 1.2-4.2 1.6-.8-.1-1.6-.3-2.4-.4-2.1-3.2-2.2-4-2.1-7.7v-2.4c.1-.7.1-1.3.1-1.9"/><path fill="#d6d0bf" d="M408 1498c1 .3 2 .7 3 1 1-.3 2-.7 3-1 .7.3 1.3.7 2 1 1-.3 2-.7 3-1 .3.7.7 1.3 1 2h-3c-.3 1.3-.7 2.6-1 4h-10v-5c.7-.3 1.3-.7 2-1"/><path fill="#8e4e53" d="M256 1375h3v24h-3z"/><path fill="#d2d2c3" d="M412 1481c.3.2.3.2 1.7 1 2.6 1.1 4.5 1.2 7.3 1v7h-5v-2h-4z"/><path fill="#8d4755" d="M135 1375h2c3 8.1 5.2 16.3 5 25-.7-.3-1.3-.7-2-1-.7-2.1-.7-2.1-1.3-4.8-.2-1-.4-2-.7-3-.1-.5-.1-.5-.6-3.1-.3-1.1-.5-2.1-.7-3.2-1.7-7.6-1.7-7.6-1.7-9.9"/><path fill="#477e69" d="M524 1351h7v2h-5v3h4v2h-4v3h5v2h-7zm-66 0h7v2h-5v3h4v2h-4v3h5v2h-7zm-277 0h7v2h-5v3h4v2h-4v3h5v2h-7z"/><path fill="#8e4a54" d="M444 1375h2c3.1 8 3.3 15.4 3 24-.7.3-1.3.7-2 1 0-.9-.1-1.8-.1-2.7-.5-7.6-1.3-14.9-2.9-22.3"/><path fill="#8e4d54" d="M190 1375h2c1 8.5.9 16.5 0 25-.7-.3-1.3-.7-2-1zm-20 0h2c1 8.5.9 16.5 0 25h-2z"/><path fill="#d8d3c4" d="M732 1514h6v4h2v-4h5c-.3 1.7-.7 3.3-1 5h-12c-.3-1-.7-2-1-3 .3-.7.7-1.3 1-2"/><path fill="#d4d2c4" d="M574 1497c.3.7.7 1.3 1 2 1-.3 2-.7 3-1 2.2.4 2.2.4 4 1 .3 2 .7 4 1 6-.3.2-.3.2-2 1-.3-1-.7-2-1-3-1.6.3-3.3.7-5 1v-2h-2v2h-2v-3h2c.3-1.3.7-2.6 1-4"/><path fill="#d3d1c4" d="M871 1484v4h-10v-5c3.9-1.3 6.1-.2 10 1"/><path fill="#caccbd" d="M659 1483h5v2h2v-2h6v5c-3.9-.9-3.9-.9-5-2-.7 1.3-1.3 2.6-2 4l-2-2c-2.1-.6-2.1-.6-4-1z"/><path fill="#d2d0c0" d="M677 1483h11c.3 1.3.7 2.6 1 4h2c-.3.7-.7 1.3-1 2-1-.3-2-.7-3-1-.3-1-.7-2-1-3-.3.5-.3.5-2 3-.3-1-.7-2-1-3-.3.5-.3.5-2 3-2.6.2-2.6.2-5 0 .3-1.7.7-3.3 1-5"/><path fill="#8f4f53" d="M214 1375h1v24c-3.5-5.3-3.5-12.5-2.6-18.6.4-1.8 1-3.6 1.6-5.4"/><path fill="#477e69" d="M627 1368v12c-1.3.3-2.6.7-4 1v-9c-.7-.3-1.3-.7-2-1 4.9-3 4.9-3 6-3"/><path fill="#ced2c7" d="M568 1538c.3.7.7 1.3 1 2h9v5c-.9 0-1.9 0-2.9-.1-3.1.1-3.1.1-5.1 1.1-.7-.3-1.3-.7-2-1z"/><path fill="#cfcfc0" d="M285 1512h1v7h-11v-5c7.8-.1 7.8-.1 10 1z"/><path fill="#ced2c8" d="M356 1512h1v7c-.7-.2-1.4-.4-2.2-.6-2.9-.4-4.9-.1-7.8.6-.3-1.3-.7-2.6-1-4 3.5-.7 6.5-1 10-1z"/><path fill="#dfd6c4" d="M787 1497c1.7 1.6 3.4 3.3 5 5v2c-7.8.1-7.8.1-10-1v-3h-2v3h-2v-4c6.8-1.1 6.8-1.1 9 0z"/><path fill="#dcd6c5" d="M844 1497h4v6c.7.3 1.3.7 2 1h-11v-5c1-.3 2-.7 3-1l1 1c.3-.7.7-1.3 1-2"/><path fill="#e8d0b7" d="M680 1370h3c3.1 5.4 3.1 5.4 2.7 8.4-.2.5-.5 1-.7 1.6l-2.4-.6c-2.6-.4-2.6-.4-4.6.6.5-3.5.9-6.7 2-10"/><path fill="#d6d1c2" d="M240 1498c1 .3 2 .7 3 1h5v5c-4.1 1.2-6.2.8-10-1v-4c.7-.3 1.3-.7 2-1"/><path fill="#d8d5c6" d="M935 1481c1.3.3 2.6.7 4 1v6h-8c-.3.7-.7 1.3-1 2-1.3-2.7-.7-4.2 0-7h4c.3-.7.7-1.3 1-2"/><path fill="#934c55" d="M466 1376h1c1 7.6 2 15.2 3 23h-3c-2.5-15.7-2.5-15.7-1-23"/><path fill="#914a55" d="M413 1375h3c.3 2.4.7 4.7 1 7.1.1.7.2 1.4.3 2 .5 4 1 7.9.7 11.9l-2 2c-1-7.6-2-15.2-3-23"/><path fill="#8f4855" d="M202 1375c2 1 2 1 3.1 3.9 1.8 6.5 3.4 12.3 2.9 19.1-2.7-2.7-3.2-5.7-4.1-9.2-.1-.4-.1-.4-.6-2-1-4-1.5-7.7-1.3-11.8"/><path fill="#d4cebe" d="M209 1374c-.3 5.3-.7 10.6-1 16-2.7-2.7-2.8-4.9-3.6-8.6-.2-.6-.2-.6-.8-3.6-.2-.9-.4-1.9-.6-2.8 2-1 2-1 6-1"/><path fill="#d9d2c0" d="M567 1512h2v7h-7v-3l-3 3c-.7-1.7-1.3-3.3-2-5h9c.3-.7.7-1.3 1-2"/><path fill="#d0d2c8" d="M897 1481c.3.7.7 1.3 1 2h8c.3 1.7.7 3.3 1 5h-10z"/><path fill="#d9d5c5" d="M564.563 1482.938c1.1 0 2.3 0 3.4.1-.3 3.1-.6 4.6-2.8 6.8-.7.4-1.4.8-2.2 1.2-1-.4-1.9-.7-3-1v-6c1-1 1-1 4.6-1.1"/><path fill="#914a55" d="M404 1376c2.8 2.8 2.7 5.9 3.1 9.8l.3 2.1c.5 4 .7 8 .6 12.1h-2c-1.3-8-2.3-15.8-2-24"/><path fill="#9ca9a4" d="M361 1374h6c1 1 1 1 1.1 4.1-.1.9-.1 1.9-.1 2.9-2-3-2-3-3-5-.1 8.6-.1 8.6 1 12h-1c-.3 4-.7 7.9-1 12h-1v-25c-.7-.3-1.3-.7-2-1"/><path fill="#c8cabc" d="M535 1484v4c-1.9-.4-1.9-.4-4-1-.3-.7-.7-1.3-1-2-.3.5-.3.5-2 3v-2l-2 2c-2.1-.4-2.1-.4-4-1 .3-1.3.7-2.6 1-4 4.5-1.4 7.6-.5 12 1"/><path fill="#924756" d="M329 1375h2c.5 2.9 1.1 5.7 1.6 8.6.1.8.3 1.6.4 2.5.8 4.6 1.1 8.3 0 12.9h-1l-1.5-8.1c-.1-.7-.3-1.5-.4-2.2-.9-4.7-1.3-9-1.1-13.7"/><path fill="#cecfc2" d="M632 1512c.9.3 1.8.6 2.8.9 2.4.8 4.7 1.5 7.2 2.1v4c-.7-.2-1.4-.4-2.2-.6-2.9-.4-4.9-.1-7.8.6-1.1-4.8-1.1-4.8 0-7"/><path fill="#d0d1c4" d="M580 1512c.3.7.7 1.3 1 2 2.1.6 2.1.6 4 1v4c-1.5.2-1.5.2-9 1v-3c.7.3 1.3.7 2 1v-3c-.7-.3-1.3-.7-2-1h3c.3-.7.7-1.3 1-2"/><path fill="#dad8cc" d="M481.066 1513.902h2.5c.8 0 1.6.1 2.5.1h1.9v5h-9c-.3-1.3-.6-2.6-1-4 1-1 1-1 3.1-1.1"/><path fill="#d4d2c3" d="M290 1499h10v6c-1.9.6-1.9.6-4 1l-2-2v-4h-2v3h-2z"/><path fill="#d1d4c8" d="m326 1483 1.8.6c2.2.4 2.2.4 4.2-.2 2-.4 2-.4 4.2 1 .6.6 1.2 1.1 1.8 1.6h-3v2c-.9-.2-1.9-.4-2.9-.6-.5-.1-.5-.1-3.1-.4l-2 2c-.7-.3-1.3-.7-2-1 .3-1.7.7-3.3 1-5"/><path fill="#477e69" d="M408 1351c1.6.3 3.3.7 5 1-1.3.3-2.6.7-4 1 1.3 2.5 2.5 2.9 5 4v5c-1 1-1 1-3.6 1.1-.8-.1-1.6-.1-2.4-.1v-3c.7.2.7.2 4 1v-3c-.8-.3-.8-.3-5-2 .3-1.7.7-3.3 1-5"/><path fill="#d4cfbf" d="M558 1538h1v6c1-.3 2-.7 3-1 .3-1 .7-2 1-3h4v5c-3.7 1-6.3 1-10 0v-6z"/><path fill="#e3ddcf" d="M727 1497c2.3.7 4.6 1.3 7 2v5h-8v-6z"/><path fill="#d4d0c1" d="M847 1483c.7.2 1.4.4 2.2.6 2.9.4 4.9.1 7.8-.6v7c-2.4-.6-4.7-1.2-7-2-.3-1-.7-2-1-3-.3.5-.3.5-2 3z"/><path fill="#8d3d57" d="M354 1375c3.9 5.8 3.3 12.5 2.1 19.1-.4 1.7-.7 3.3-1.1 4.9h-1z"/><path fill="#cfcaba" d="M443 1374h9c-.7 4-1.3 7.9-2 12-.7-.3-1.3-.7-2-1-.6-2.3-.6-2.3-1.1-5.1-.2-.9-.4-1.8-.5-2.7-.2-.8-.3-1.5-.4-2.2-1 .3-2 .7-3 1z"/><path fill="#477e69" d="M232 1351c1.7.3 3.3.7 5 1-1.3.3-2.6.7-4 1 1.6 1.7 2.9 2.9 5 4v5c-1 1-1 1-3.6 1.1-.8-.1-1.6-.1-2.4-.1v-3c.7.2.7.2 4 1v-3c-.8-.3-.8-.3-5-2 .3-1.7.7-3.3 1-5"/><path fill="#c0c7bb" d="M567.875 1549.938c.5 0 .5 0 3.1.1h3c-.3 1.6-.6 3.3-1 5h-3c-1.6.3-3.3.6-5 1-.4-1.7-.7-3.4-1-5 1-1 1-1 3.9-1.1"/><path fill="#d7d1c2" d="m542 1538 2 2c2.2.2 2.2.2 4.6.1h2.5c.6-.1 1.3-.1 1.9-.1.3 1.7.7 3.3 1 5l-3-3c-.3.5-.3.5-2 3-3.6.2-3.6.2-7 0z"/><path fill="#a58584" d="M321 1387c1.5 1.3 1.5 1.3 3 3v3h2c-.3 2.3-.7 4.6-1 7-1-.3-2-.7-3-1-1.3-2.5-1.1-4.3-1.1-7.1 0-.9.1-1.8.1-2.8z"/><path fill="#cfc7b5" d="M403 1378h1c.3 5 .7 9.9 1 15h-2c-.3 2-.7 4-1 6 .7.3 1.3.7 2 1h-3c-.3-7.5.8-14.6 2-22"/><path fill="#934c55" d="M504 1376c8.1 15.9 8.1 15.9 6 23h-1c-.1-.6-.2-1.1-.3-1.7-.8-3.9-1.7-7.3-3.3-10.9-1.5-3.7-1.6-6.4-1.4-10.4"/><path fill="#56534d" d="M926 1376h3v15h-3z"/><path fill="#564544" d="M823 1374c3.9 3.5 3.9 3.5 4.4 7.9-.1 3.7-1.2 6.1-3.4 9.1-.7-.3-1.3-.7-2-1 .3-.7.7-1.3 1-2 .1-2.4.1-4.8.1-7.1 0-1.3-.1-2.6-.1-3.9z"/><path fill="#9da29c" d="M240 1374h7c-.2.6-.3 1.1-.5 1.7-.5 2.5-.7 4.9-.8 7.5-.1 1-.1 2-.1 3-.1 1-.1 2-.2 3 0 .6 0 .6-.1 3.2-.1 2.5-.2 5.1-.3 7.6h-1v-25c-1.7 1.3-3.3 2.6-5 4 .3-1.7.7-3.3 1-5"/><path fill="#477e69" d="M641 1373h5c1 1 1 1 1.1 3.6-.1.8-.1 1.6-.1 2.4-2.4 1.4-3.5 2.1-6.2 1.6l-1.8-.6v-3h3c.3-1 .7-2 1-3-.7-.3-1.3-.7-2-1"/><path fill="#cac9ba" d="M249 1498c1.3.3 2.6.7 4 1v4h2v-4h7v5c-.3-1.3-.7-2.6-1-4h-2v3c-1.5.2-3 .4-4.4.6-.9.1-1.7.2-2.5.3-.7 0-1.4.1-2.1.1-1-1-1-1-1.1-3.6.1-.8.1-1.6.1-2.4"/><path fill="#b29088" d="M382 1388c1.3.3 2.6.7 4 1-.3 3.6-.7 7.3-1 11h-5c.7-4 1.3-7.9 2-12"/><path fill="#cfcabb" d="M134 1374h9c-.7 3.3-1.3 6.6-2 10h-2c-.7-3-1.3-5.9-2-9-1 .3-2 .7-3 1z"/><path fill="#e8d7bf" d="M700 1369c1.3.7 2.6 1.3 4 2l-2 2c1 .7 2 1.3 3 2-.3 1.3-.7 2.6-1 4-3.8 1.1-3.8 1.1-6 0v-2c1.3.3 2.6.7 4 1v-3c-1.3-.3-2.6-.7-4-1 .9-3.9.9-3.9 2-5"/><path fill="#ead8be" d="M568 1370h6c-.3.5-.3.5-2 3 .3.7.7 1.3 1 2h-3v2c1.3.3 2.6.7 4 1-.3.7-.7 1.3-1 2h-5z"/><path fill="#cfcebf" d="m787 1513 2 2c-.7 1.3-1.3 2.6-2 4h-5c-.3-.7-.7-1.3-1-2-.7 1.3-1.3 2.6-2 4-.7-.3-1.3-.7-2-1 1.1-2.9 1.1-2.9 3-6 3.6-1 3.6-1 7-1"/><path fill="#cecfc2" d="M709 1514h8v5h-9c.3-1.7.7-3.3 1-5"/><path fill="#cbcdbf" d="M657 1512c.3.7.7 1.3 1 2h8v6c-1-.2-1-.2-6-1-.3-1-.7-2-1-3-.7 1-1.3 2-2 3z"/><path fill="#cfd1c5" d="M750.848 1513.902c2.1 0 4.1.1 6.2.1.3 1.6.6 3.3 1 5h-9c-.4-1.3-.7-2.6-1-4 1-1 1-1 2.8-1.1"/><path fill="#cecbbc" d="M659 1498c1 .3 2 .7 3 1-.3 1.7-.7 3.3-1 5-2 .3-4 .7-6 1v-5h-2c-.3 1-.7 2-1 3v-4c.5 0 .5 0 2.9.1 3.1-.1 3.1-.1 4.1-1.1"/><path fill="#cdcec1" d="M583 1481h1v7h-7c-.3-1-.7-2-1-3-.7 1-1.3 2-2 3v-5c.7.2 1.5.4 2.2.6 2.7.4 4.2.3 6.8-.6z"/><path fill="#d3d4c6" d="M483.063 1482.938c.5 0 .5 0 2.9.1v4h2c.4-1 .7-2 1-3v4c-1.4.1-1.4.1-9 1-.3-1.7-.7-3.4-1-5 1-1 1-1 4.1-1.1"/><path fill="#d3c7b5" d="M306 1380h1c1.1 4.4 1.1 8.5 1 13h-2c.3 2.3.7 4.6 1 7h-3c1-13.6 1-13.6 2-20"/><path fill="#ecddc8" d="M669 1370h6c-.4 2.4-.4 2.4-1 5-.3.2-.3.2-2 1 1 .3 2 .7 3 1v2h-6zm-82 0h6c-.4 2.4-.4 2.4-1 5-.3.2-.3.2-2 1 1 .3 2 .7 3 1v2h-6z"/><path fill="#d1cebe" d="M222 1499v5c-.3-1.3-.7-2.6-1-4h-2v3c-2 .3-4 .7-6 1-.2-.8-.2-.8-1-5 3.3-1.6 6.4-.5 10 0"/><path fill="#cacaba" d="M724 1481h1v7l-2-2c-.3.7-.7 1.3-1 2h-5c-.3-.7-.7-1.3-1-2l-2 2v-6c.3.2.3.2 1.8 1.1 2.6 1.1 3.5.8 6.2-.1h2z"/><path fill="#d6d4c6" d="M510 1481h1v7c-2.3.7-4.6 1.3-7 2v-7c.4-.1.4-.1 2.4-.4 2.6-.6 2.6-.6 3.6-1.6"/><path fill="#904b55" d="M474 1377c3.9 3.9 6.6 10 7.3 15.5 0 2.2 0 2.2-.3 5.5-1.7-3.3-3.2-6.6-4.6-9.9-.2-.5-.2-.5-1.4-3.1-1-2.9-1.2-5-1-8"/><path fill="#cacaba" d="M433 1497c.9.3 1.9.7 2.8 1 3.2 1 3.2 1 6.2 1 .3 1.3.7 2.6 1 4-3 .9-3.9 1-7 0v-3h-2c-.2.7-.2.7-1 4z"/><path fill="#d7d9d0" d="M833 1497c1.6.3 3.3.7 5 1v6h-5c-.7-1.3-1.3-2.6-2-4 .7-1 1.3-2 2-3"/><path fill="#8e4955" d="M485 1376c.7 1.3 1.3 2.7 2 4 .4.9.9 1.7 1.3 2.6s.9 1.8 1.3 2.8c.5.9.9 1.8 1.4 2.7 1.1 3.2 1.2 5.6 1 8.9-2.5-2.5-3.3-4.9-4.6-8.2-.5-1.2-.9-2.3-1.4-3.4-1-3.4-1.2-5.9-1-9.4"/><path fill="#904855" d="M525 1376c1.7 3.3 3.2 6.6 4.6 9.9.5 1.1.9 2.1 1.4 3.1 1 2.9 1.2 5 1 8-3.8-1.9-4.5-6.9-6-10.7-1.1-3.7-1.5-6.4-1-10.3"/><path fill="#477e69" d="M255 1351h9v2h-3v10h-2c-.3-3-.7-5.9-1-9-1-.3-2-.7-3-1z"/><path fill="#e46d47" d="M567 1181h3v13h-3zm-114 0h3v13h-3z"/><path fill="#c7ccbe" d="M759 1512h1v5c.7.2.7.2 4 1v-3c-.7-.3-1.3-.7-2-1h7c-.7 2-1.3 4-2 6-5.8.1-5.8.1-8-1z"/><path fill="#c8cdc2" d="M371 1514c.7.2 1.5.4 2.2.6 2.7.4 4.2.3 6.8-.6.3 1.7.7 3.3 1 5h-10c.3-.7.7-1.3 1-2 .7.3 1.3.7 2 1-.3-.7-.7-1.3-1-2h-2z"/><path fill="#c4c9bd" d="M473.375 1512.875c.5.4 1.1.7 1.6 1.1-.6 1.3-1.3 2.7-2 4-.3-.6-.6-1.3-1-2-.3.5-.3.5-2 3-2.6.2-2.6.2-5 0v-5c5.4-2.2 5.4-2.2 8.4-1.1"/><path fill="#d2ccbb" d="M482 1497c.9.4 1.9.7 2.9 1.1 3.1.9 3.1.9 5.1-.1.7.3 1.3.7 2 1-.3 1.7-.7 3.3-1 5h-5v-4c-1.3 1-2.6 2-4 3z"/><path fill="#d3d2c5" d="M458 1481c.7.3 1.3.7 2 1-.3 2-.7 4-1 6h-7c-.3-1-.7-2-1-3 .3-.7.7-1.3 1-2 1.7-.4 3.3-.7 5-1z"/><path fill="#d6c6b3" d="M464 1381c2.1 3.2 2.2 4 2.1 7.7v2.4c-.1.7-.1 1.3-.1 1.9h-2v7h-2c.5-6.4 1-12.7 2-19"/><path fill="#96aaa2" d="M905 1363c2.3 3.5 2.2 4.5 2 8.5-.1 1.1-.1 2.2-.2 3.3 0 1.1-.1 2.2-.2 3.4 0 1.1-.1 2.2-.1 3.4-.2 2.8-.3 5.6-.5 8.4h2v2h-5c.3-.7.7-1.3 1-2 .2-2 .2-4.1.3-6.1.1-1.2.1-2.4.1-3.7.1-1.2.1-2.5.2-3.8 0-1.3 0-2.6.1-3.9.1-3.2.2-6.3.3-9.5m-149 0c2.3 3.5 2.2 4.5 2 8.5-.1 1.1-.1 2.2-.2 3.3 0 1.1-.1 2.2-.2 3.4 0 1.1-.1 2.2-.1 3.4-.2 2.8-.3 5.6-.5 8.4h2v2h-5c.3-.7.7-1.3 1-2 .2-2 .2-4.1.3-6.1.1-1.2.1-2.4.1-3.7.1-1.2.1-2.5.2-3.8 0-1.3 0-2.6.1-3.9.1-3.2.2-6.3.3-9.5"/><path fill="#d1d1c3" d="M297 1513c2.3.3 4.6.7 7 1 .3 1.3.7 2.6 1 4-3 2-3 2-5.7 1.6-.8-.2-1.5-.4-2.3-.6z"/><path fill="#c5c8bb" d="M132 1481h4c-.3.7-.7 1.3-1 2-.7-.3-1.3-.7-2-1v2c1.3.3 2.6.7 4 1 .7-1 1.3-2 2-3 1 .3 2 .7 3 1 .3 1.7.7 3.3 1 5-5.3.5-7.8-.8-12-4 .3-1 .7-2 1-3"/><path fill="#e0d8c5" d="M226 1387h3c.9 4.7 1.2 7.7-1 12h-2z"/><path fill="#b6a59c" d="M269 1382h1v9h2v8c-1.3.3-2.6.7-4 1 .3-.7.7-1.3 1-2 .1-3.1.1-3.1 0-6l-1-1c-.2-6.5-.2-6.5 1-9"/><path fill="#e1d6c2" d="M364 1375c3.5 3.5 3.5 3.5 4 7-.1 1.8-.2 3.5-.4 5.2-.1.9-.2 1.8-.3 2.8-.1.3-.1.3-.3 2h-2v-7h-1z"/><path fill="#e2d7c3" d="M129 1381c.7.3 1.3.7 2 1 .2 5.7.3 10.6-2 16h-2v-11h1c.3-2 .7-4 1-6"/><path fill="#eadcc6" d="M584 1369c1 3 1 3 .2 4.8-1.1 1.7-2.1 3.5-3.2 5.2-3.1-2.5-3.9-5.2-5-9 3 1 3 1 5 3 1-1.3 2-2.6 3-4"/></svg>