<svg xmlns="http://www.w3.org/2000/svg" width="1067" height="1600" viewBox="0 0 1067 1600"><title>grand-tour-vtracer — background</title><path fill="#f1e4cf" d="M0 0h1067v1600H0z"/><path fill="#fdfcfc" d="M0 0h1067v1600H0zm841.2 179.5c-.6.4-1.1.8-1.6 1.2-1.6 1.3-1.6 1.3-3.2 3-6.4 6.4-13.2 6.2-21.7 6.2h-46q-16.5.15-33 0c-12.5 0-25 .1-37.5.1H621v3c67 .3 134 .7 203 1-3.6 3-7.3 5.9-11 9-4.2 4.1-4.2 4.1-5.9 5.9-1.8 1.8-3.6 3.4-5.5 5-5.6 4.9-10.8 10.1-16 15.4-1.1 1-2.2 2.1-3.2 3.2-2.3 2.2-4.5 4.5-6.8 6.7-2.8 2.9-5.7 5.8-8.6 8.7-2.2 2.2-4.4 4.4-6.7 6.6-1 1.1-2.1 2.2-3.2 3.2-1.4 1.5-2.9 3-4.4 4.5-.8.8-1.7 1.6-2.5 2.5-2.2 2.3-2.2 2.3-3.3 4.4-2.5 2.5-4.5 2.4-7.9 2.4H226.7c-6.4.1-11.9 1.7-16.5 6.3-.4.6-.8 1.2-1.1 1.8-.4.5-.8 1.1-1.2 1.7-2.8 5.2-2.9 11.4-1.3 17 2.3 5 5.5 8.2 10.4 10.7 3.9 1.3 8 1.1 12.1 1.1h2.5c2.8.1 5.6.1 8.4.1h40.6c10.3.1 20.7.1 31 .1h32.6c.3 0 .3 0 2 .1h10.3c24.3 0 48.6.1 72.9.1 23.6 0 47.2.1 70.8.1h2.2c7.3 0 14.6.1 21.9.1 14.8 0 29.7 0 44.6.1h2.1c45.6 0 91.3.1 137 .2-4.9 6.7-4.9 6.7-8.8 7.9H674c-4-.1-7.9-.1-11.9 0-6.8 0-13.7 0-20.6-.1h-78.1c-15.7 0-31.3-.1-47-.1H403.5c-3.6-.1-7.2-.1-10.8-.1H387c-16.1.1-29 4.8-40.7 16-11.9 12.5-14.8 25.4-14.6 42.1.5 13.4 7.3 25.3 17 34.5 7.9 6.3 16.6 10 26.3 12.8l-3.3 1.8c-1.5.9-3 1.7-4.5 2.6l-2.1 1.2c-3.5 2-6.6 3.9-9.4 6.9-7 7.2-12.8 8.6-22.8 8.8-3.1 0-6.2-.1-9.3-.1h-25.2c-6.4-.1-12.8-.1-19.2-.1h-32.3c-11-.1-22.1-.1-33.1-.1h-32.3c-1.3 0-2.6-.1-3.9-.1h-37.1c-2.2-.1-4.4-.1-6.6-.1h-11.7c-6 0-6 0-8.2 2.2.6 4.6.6 4.6 2 6 2.8.1 5.6.2 8.4.2h18c5.9.1 11.7.1 17.5.1 6.1 0 12.2.1 18.3.1 11.5 0 23 .1 34.5.1 13.1.1 26.2.1 39.4.2l80.9.3-4.8 4.8c-.4.4-.4.4-2.6 2.7-2.1 2-4.2 4-6.5 5.8-5.3 4.6-9.9 9.8-14.6 15-1.4 1.6-2.9 3.2-4.4 4.8-9.7 10.7-17.3 22.8-25.1 34.9-.4.7-.9 1.4-1.3 2.1-1.1 1.6-2.1 3.2-3.1 4.8-.7 1-1.3 1.9-1.9 2.9-1.4 2.7-2.2 4.8-3.1 7.6-1.7 5-3.3 9.4-7.6 12.6-8.1 2.5-16.8 2.4-25.3 2.7-21.5.8-47 12.2-63.1 26.4-1.6.9-1.6.9-3.5.8-2.6-1.1-4.5-2.6-6.7-4.3C132.8 557.8 103.6 553 71 553v909h927V319H868c1.3-3 2.6-5.9 4-9-53.1-.3-106.3-.7-161-1 15-16 15-16 21.9-18 2.4 0 4.8 0 7.2.1h4c3.7-.1 7.3 0 10.9.1h11.7c6.7 0 13.4.1 20.1.2 9.5.1 19.1.1 28.7.2 14.1 0 28.3.1 42.4.2 19.7.2 39.4.2 59.2.2h20.2c13.2-.1 26.5-.1 39.8 0H997v-20c-35.3-.3-70.6-.7-107-1 3.3-8.2 6.6-16.5 10-25 2-5.5 3.9-11 5.7-16.6.8-2.3 1.5-4.5 2.3-6.8 7-21.2 7-21.2 7-29.6h82v-3h-81c.3-.7.7-1.3 1-2 1.6-10.9 2.6-22.5-2.9-32.4-3.2-3.9-6-6.2-11.1-6.8-23.2-.8-44.5 17.2-61.8 30.7"/><path fill="#f2e6d1" d="M71 81h927v229H710c7.1-8.2 7.1-8.2 9.7-11.2.5-.7 1.1-1.3 1.7-2 .5-.6 1.1-1.2 1.6-1.8.4-.5.8-1 1.3-1.6 2.4-2 4.1-1.8 7.2-1.8h7.2c1.4 0 2.7-.1 4.1-.1h11c4 0 7.9 0 11.8-.1 7.7 0 15.3 0 23-.1h21.1c1.7-.1 3.5-.1 5.3-.1 60.3-.3 120.7-.3 181-.2.3-6.3.7-12.5 1-19H889c3.6-9.6 7.3-19.1 11-29 3.7-10.4 3.7-10.4 5.3-15.4.8-2.5 1.7-5 2.6-7.5 2.9-9.1 4.9-17.7 7.1-27.1h82v-3h-81c.3-3.6.7-7.3 1-11 .5-9.3.4-18.6-6-26-5.1-3.6-10-3.7-16-3-20.4 4.2-37.8 18-53.8 30.5-.6.4-1.1.8-1.6 1.2-1.6 1.3-1.6 1.3-3.2 3-6.4 6.5-13.2 6.2-21.7 6.2-2-.1-3.9-.1-5.8-.1h-6.2c-5.5 0-11.1 0-16.6-.1h-17.4c-11-.1-22-.1-33-.2-12.5-.1-25-.1-37.5-.1-25.7-.1-51.5-.2-77.2-.4v3h204c-4 4-8.1 8-12.3 11.9-.6.6-1.3 1.1-1.9 1.8-3.1 2.8-6.2 5.6-9.3 8.3-5.5 4.8-10.5 9.9-15.6 15-1.1 1.1-2.2 2.1-3.2 3.2l-6.6 6.6-8.4 8.4c-2.2 2.1-4.4 4.3-6.5 6.5-1.1 1-2.1 2.1-3.1 3.1-1.5 1.4-2.9 2.9-4.4 4.3-.8.9-1.6 1.7-2.5 2.5-2.2 2.4-2.2 2.4-3.8 5-2.8 2.8-4.6 3-8.6 3.1-.8-.1-1.6-.1-2.5-.1h-2.7c-3 .1-6 0-9 0H497.1c-17.5 0-35 0-52.4-.1h-58.2c-7.5 0-15 .1-22.4.1-16.1 0-32.2 0-48.3-.1h-89.1c-5.6 0-10.1 1.3-14.7 4.5-4.8 6.1-5.8 11.4-5 19 1.4 4.6 3.2 7.4 7 10.4 5.1 2.7 9.5 2.7 15.1 2.7h2.5c2.8.1 5.6.1 8.4.1h40.7c10.4.1 20.7.1 31.1.1h32.6c.7 0 1.4 0 2.1.1h10.3c24.3 0 48.7.1 73 .1 23.6 0 47.3.1 70.9.1h2.2c7.3 0 14.7.1 22 .1 14.9 0 29.8 0 44.7.1h2.1c45.7 0 91.5.1 137.3.2-4.8 7.4-4.8 7.4-7 9-2.4.4-2.4.4-5.4.4H612c-16.1.1-32.3.1-48.4.1h-49.9c-16.1 0-32.2 0-48.3.1H387c-16 .1-29 4.8-40.7 15.9-11.2 12.2-14.2 25.4-13.7 41.5.8 12.7 7 24.7 16.3 33.4 8.2 6.4 17.1 10 27.1 12.6-2 2.1-3.9 3.7-6.4 5.2-.7.4-1.3.8-2 1.2-1.4.8-2.7 1.6-4.1 2.4-3.2 1.9-6 3.7-8.6 6.4-6.7 7-12.4 7.8-21.8 8-3.2 0-6.3-.1-9.5-.1h-6.8c-6.1.1-12.2.1-18.4 0h-97.1c-28.4 0-56.9 0-85.3-.1-.4 1.7-.7 3.3-1 5 2.1 2.1 6.5 1.2 9.4 1.2h18c5.9.1 11.7.1 17.5.1 6.1 0 12.2.1 18.3.1 11.5 0 23 .1 34.5.1 13.1.1 26.2.1 39.4.2l80.9.3c.3.7.7 1.3 1 2-.4.4-.9.7-1.3 1.1-18.3 15.9-18.3 15.9-25 23.9-2.8 3.3-5.9 6.6-9 9.8-13.6 15.5-25 34.3-34.7 52.4-.3.7-.7 1.3-1 1.9-1 1.9-1 1.9-1.6 3.9-.9 2.3-1.5 3.4-3.4 5-4.1 1.1-8.2 1.3-12.5 1.5-3.5.2-7 .5-10.5.8-.4 0-.4 0-2.1.1-21.9 1.9-46.8 12.1-63.3 26.7-1.6.9-1.6.9-3.5.8-2.6-1.1-4.5-2.6-6.7-4.3-26.6-19.8-55.8-24.1-88.4-25.6z"/><path fill="#f0e4cf" d="M777.956 879.707c1.1 0 2.1-.1 3.2-.1l5.7-.3c3.9-.2 6.2-.1 9.2 2.4 3 3.5 5.6 7.3 7.5 11.6 2.1 4.1 4.4 7.5 7.2 11.2 3.2 4.3 3.2 4.3 3.2 6.5 1 .3 2 .7 3 1 .4 1.3.7 2.7 1 4 1 .3 2 .7 3 1 .7 1.3 1.4 2.7 2 4 1.7 1.7 3.4 3.3 5 5 1.2 1.3 2.4 2.7 3.5 4 3.6 4.1 7.4 7.9 11.4 11.7 2.1 2.3 2.1 2.3 2.1 4.3.3.1.3.1 1.7.6 3.1 1.9 5.4 4.3 7.9 7 4.8 4.9 9.8 9.3 15.3 13.6 2.1 1.8 2.1 1.8 4.1 4.8h-2.7c-22.1.1-44.2.1-66.3.2-10.7.1-21.4.1-32.1.1-9.3.1-18.6.1-28 .1-4.9.1-9.8.1-14.8.1h-13.9c-1.7.1-3.4.1-5.1.1h-10.9c-3.2.4-3.2.4-5.1 1.7-1.1 1.7-1.1 1.7-.7 4.9.2.9.4 1.8.6 2.8 3.6 1.2 6.9 1.1 10.6 1.1h2.4c2.6 0 5.2 0 7.9-.1h14.6c7.5 0 14.9-.1 22.4-.1h54.7c10.1-.1 20.2-.1 30.2-.1h16c5-.1 10-.1 15.1 0 1.8 0 3.6 0 5.5-.1 12.5-.2 20.2 2.1 30 10 2.6 2 5.3 3.7 8.1 5.4 1.5.9 3 1.9 4.5 2.9v1h-505c4-5.3 7.9-10.3 12.2-15.3 6.3-7.1 6.3-7.1 8.8-10.7 5.3.5 10.1 1.8 15.1 3.3 10.4 3.1 20.7 5.6 31.3 7.5l3.3.6c16.9 2.9 33.7 4 50.9 3.9h2.9c15.4-.1 30.4-.7 45.5-3.3 1.2-.2 2.3-.4 3.5-.6 40.2-7.2 87.2-21.4 119.4-47.8 2.1-1.6 2.1-1.6 5.1-1.6.4-1 .7-2 1-3h3v-2c.5-.2.5-.2 3-1 .4-.7.7-1.3 1-2 .5-.2.5-.2 3-1 .7-1 1.4-2 2-3 .5-.2.5-.2 3-1 1.4-1.3 2.7-2.7 4-4 1.1-1 2.2-1.9 3.3-2.8.6-.5 1.2-1 1.8-1.6.7-.5 1.3-1.1 1.9-1.6 9.6-8.2 18.5-16.9 26-27h-61c5-7 5-7 7.9-7.9h3.2c.6 0 .6 0 3.7-.1 1.3.1 2.6.1 3.9.1h4.1c3.7-.1 7.3-.1 10.9-.1 3.6.1 7.2 0 10.8 0h12.7c6.2 0 12.5 0 18.8-.3"/><path fill="#f1e5d0" d="M732.207 291.64h12.8c4.1 0 8.3 0 12.4.1h37.4c9.3.1 18.6.1 27.9.1 19.1 0 38.2.1 57.3.2-2 6-2 6-8 18h-162c7.1-8.3 7.1-8.3 9.7-11.3.5-.6 1.1-1.3 1.7-1.9.5-.6 1-1.2 1.6-1.8.4-.6.8-1.1 1.2-1.6 2.6-2.1 4.7-1.8 8-1.8"/><path fill="#f2e6d1" d="M625 1072c22.7-.2 45.4-.4 68.1-.5 10.5 0 21.1-.1 31.6-.2 9.2-.1 18.4-.1 27.6-.1 4.8-.1 9.7-.1 14.6-.2h13.7c1.7 0 3.3 0 5-.1 12.7-.2 12.7-.2 17 3.1 4.4 5.6 4.4 5.6 4.4 8H625c.7-2 1.3-4 2-6-.9-2.4-.9-2.4-2-4"/><path fill="#ebdfca" d="m716 672 67.6-.3c10.5 0 20.9-.1 31.4-.2 9.1 0 18.2-.1 27.3-.1h14.5c4.6-.1 9.1-.1 13.7-.1h5c8.4-.1 15.2-.2 22.1 5.2 1.4 1.5 1.4 1.5 1.4 3.5H716z"/><path fill="#f2e3cd" d="M716 690h171c-6.7 6.7-6.7 6.7-12.1 7.4h-5.7c-2.2 0-4.4 0-6.6-.1h-31.4c-8.6 0-17.1-.1-25.7-.1h-29.3c-20.1-.1-40.1-.1-60.2-.2z"/><path fill="#f2e4cd" d="M872 310c2.2-.4 2.2-.4 5-.4h3.2c.6 0 .6 0 3.6.1h24.4c6.7 0 13.4.1 20.1.1h22.8c15.6.1 31.3.1 46.9.2v9H868c2-6 2-6 4-9"/><path fill="#f0e3ce" d="M798.317 452.886h6.3c.6 0 .6 0 3.4.1h12c-1.4 2.9-2.9 5.4-4.9 8-.3.3-.3.3-1.7 2.3-.6.8-1.2 1.6-1.9 2.4-10.1 13.6-18.9 27.8-27.5 42.3-3.2-3.1-6.1-6.2-8.8-9.8-.6-.8-1.2-1.6-1.9-2.4-.4-.6-.9-1.2-1.3-1.8 3.7-8 8.2-15.5 12.8-23 1.2-2.1 2.5-4.2 3.7-6.2.4-.7.9-1.4 1.3-2.1.8-1.4 1.6-2.7 2.4-4 3.3-5.7 3.3-5.7 6.1-5.8"/><path fill="#e9dfcb" d="M387.887 672.707h2.8c1 .1 2 .1 3 .1h3c2.4.1 4.9.1 7.3.2v12h-45v-2h-4v2c-3-.6-6-1.2-9-2v2c-1.2-.2-2.4-.4-3.7-.6-3.4-.4-5.9-.1-9.3.6-1.3-.3-2.7-.7-4-1-.6.2-1.3.3-1.9.5-2.1.5-2.1.5-4.5 0-2.9-.6-4.8-.2-7.6.5h-4c-.8 0-1.6 0-2.5.1-2.5-.1-2.5-.1-4.5-.7-2.5-.5-4.5 0-7 .6v-2c-.7.3-1.5.7-2.2 1-2.8 1-2.8 1-6.8 1v-2c-.7.3-1.5.7-2.2 1-2.8 1-2.8 1-6.8 1v-2h-4v2c-3-.6-6-1.2-9-2v2h-30v-2c1.5-.5 3-1 4.5-1.4.8-.3 1.7-.6 2.5-.9 7.7-1.9 15.3-1.9 23.1-1.9h13.2c3.4-.1 6.8-.1 10.2-.1 11.5-.1 23-.1 34.5-.2 6.4 0 12.8 0 19.1-.1h10.1c3.8-.1 7.5-.1 11.3-.1h9.1c3.4-.4 5.6-1.4 7.9-3.9 2.1-2 3.5-1.8 6.4-1.7"/><path fill="#f1e5d0" d="M504.336 600.414c.7.1 1.3.1 2 .2 1.2.1 2.4.3 3.7.4v9h2v-9h1v9h2v-9h3v9h2v-9c8.2-.5 8.2-.5 11.8 1.7 2.2 2.3 2.2 2.3 3.5 4.4 1.7 1.9 1.7 1.9 4 2.4.9.1 1.8.1 2.8.1s1.9.1 2.9.1h3.2c1 .1 2 .1 3.1.1 2.5.1 5.1.1 7.7.2v1h-22v2h-93c5-5 10.2-5.2 17-5.2h2.6c1.9 0 3.8 0 5.6-.1 2.9 0 5.8 0 8.8.1 2.8 0 5.6-.1 8.4-.1.9 0 1.8.1 2.7.1 4.5-.1 7-.5 10.3-3.8 2.6-3 2.6-3 4.9-3.6"/><path fill="#ece1cd" d="M492 620c3.2-.1 6 0 9.1.6 2.8.4 4.3.3 6.9-.6.2.3.2.3 1 2 .6-.3 1.2-.7 1.8-1 2.2-1 2.2-1 6.2-1 .2.3.2.3 1 2h2c.3-.7.7-1.3 1-2 4.8.9 4.8.9 7 2 1-.7 2-1.3 3-2 2.3-.1 4.7-.1 7 0v2h21v4c-.6 0-1.3.1-1.9.1-2.9.1-5.7.2-8.5.3-.5.1-.5.1-3 .2-1 0-1.9 0-2.9.1-.9 0-1.8.1-2.7.1-2 .2-2 .2-3 1.2-2.8.1-5.6.1-8.4.1h-33.4c-5.4 0-10.8 0-16.3-.1H447c.3-1 .7-2 1-3 8.7-3 18-2.2 27.1-2.1h4.9c4 0 8 .1 12 .1z"/><path fill="#f0e3cd" d="M493.102 745.87h10.7c16.1 0 32.1.2 48.2 1.1-.7 1.7-1.3 3.3-2 5h-2c-.3.7-.7 1.4-1 2-.2-.5-.2-.5-1-3-1.2.2-2.5.4-3.8.6-3.1.4-5.2.3-8.2-.6-.8.2-1.7.4-2.5.5-2.7.6-3.9.2-6.5-.5-.8.2-1.7.4-2.5.5-2.7.6-3.9.2-6.5-.5-2.8.5-2.8.5-5 1v-2h-4v2c-1.2-.2-2.4-.3-3.7-.5-3.4-.5-6-.2-9.3.5-1.3-.3-2.7-.6-4-1-.8.2-1.7.4-2.5.5-2.7.6-3.9.2-6.5-.5-.8.2-1.7.4-2.5.5-2.7.6-3.9.2-6.5-.5-.8.2-1.7.4-2.5.5-2.7.6-3.9.2-6.5-.5-2.8.5-2.8.5-5 1v-2h-4v2c-1.3-.2-2.6-.3-3.9-.5-2.3-.3-2.3-.3-4.1-.5-.3.4-.7.7-1 1-2.7.1-5.4.1-8.1.1h-2.3c-1.8 0-3.7-.1-5.6-.1v-3c6.4-2.2 12.6-2.4 19.3-2.6.7 0 .7 0 3.8-.1 13.6-.4 27.3-.4 41-.4"/><path fill="#ede2cd" d="M637 813v12h-23v-2c-.5.4-1 .7-1.5 1.1-3.1 1.1-5.4.6-8.5.1-2.5-.3-4.6.3-7 .8-1.3-.3-2.7-.7-4-1-.8.2-1.6.3-2.5.5-2.7.5-3.9.2-6.5-.5-.6.2-1.3.3-1.9.5-2.1.5-2.1.5-4.5 0-2.9-.6-4.8-.1-7.6.5-1-.3-2-.7-3-1-.3.2-.3.2-2 1-1.8.1-3.6.1-5.4.1h-6.7c-1.2 0-2.3 0-3.5-.1H541c4.4-4.9 10.3-5.8 16.6-6.3 4.3-.1 8.6 0 12.9 0h4.7c4.2 0 8.3.1 12.4.1 4.2 0 8.4 0 12.6.1 8.3 0 16.6 0 24.8.1v-2c1.6-.7 3.2-1.3 4.9-2 .9-.4 1.8-.7 2.7-1.1 2.4-.9 2.4-.9 4.4-.9"/><path fill="#f1e5d0" d="M504 726h1v9h4v-9h1v9h4v-9h1v9h4v-9h1v9h4v-9h1v9h8c-.3 1.6-.7 3.3-1 5h-82c.3-1 .7-2 1-3 6.2-2.2 12.1-2.3 18.6-2.2h3c3.1 0 6.3 0 9.4.1h6.4c5.2 0 10.4.1 15.6.1z"/><path fill="#efe3cf" d="M261 1002c3 1.7 5.4 3.8 7 7 .5 4.5.6 8-1.8 11.9-3.1 2.9-4.9 3.9-9.1 4.5-4-.5-6-1.8-9.1-4.4-2.2-3.2-3-5.1-3-9 1.3-4 3.1-6 6-9 3.2-1.6 6.5-1.6 10-1"/><path fill="#f2e5d0" d="M476.29 757.805h4.7c4 0 8.1 0 12.1.1h12.5c8.1 0 16.3.1 24.4.1.2.8.2.8 1 5h-84c7.3-7.3 19.7-5.3 29.3-5.2"/><path fill="#e4dfcc" d="M780 1231h5v65h-5c-1.4-2.7-1.1-4.9-1.1-7.9v-53.6c.1-2.5.1-2.5 1.1-3.5"/><path fill="#ede1cc" d="M628 1232h5v62c-.8.2-.8.2-5 1z"/><path fill="#efe4cf" d="M692 423h41c-.3 2.3-.7 4.6-1 7-4.2.1-8.5.3-12.8.3-1.4.1-2.8.1-4.3.2-8.2.2-14.7.2-21.5-5.1L692 424z"/><path fill="#f2e5cf" d="M816.326 422.886h6.8c2.5 0 4.9 0 7.4.1h17.5c-1.9 3.4-2.9 4.9-6 7-5.7.9-11.2.7-16.9.5-1.6-.1-3.1-.1-4.7-.1-3.8-.1-7.6-.2-11.4-.4 3.4-7 3.4-7 7.3-7.1"/><path fill="#f1e2cb" d="M806.776 438.886h7.6c1.4 0 2.8 0 4.2.1h14.4c-1.5 2.9-2.4 4.2-5 6-4.6.8-9.1.6-13.8.4-.6 0-.6 0-3.8-.1-3.1-.1-6.3-.2-9.4-.3 2.3-6 2.3-6 5.8-6.1"/><path fill="#e3dcc7" d="M506 649c8.6 1.8 16.9 4.2 25.3 6.6 1.7.5 3.4 1 5.2 1.5 2.5.7 4.9 1.4 7.4 2.2.8.2 1.6.4 2.3.6 3.2 1 5.5 1.8 7.8 4.1 1 2 1 2 1 4-9.5-2.2-18.5-5.6-27.6-9.1-2.6-1-5.1-1.9-7.7-2.9-1.6-.6-3.3-1.2-4.9-1.8-.8-.3-1.5-.6-2.3-.9-5.4-2.1-5.4-2.1-6.5-4.3"/><path fill="#e2dbc8" d="M494 1244h1c1 12.2 2 24.4 3 37h-7c.5-12.4 1.4-24.7 3-37"/><path fill="#ede1cc" d="M917 1232h5v25h-5z"/><path fill="#eee1cd" d="M426 1232c.8.2.8.2 5 1v24h-5z"/><path fill="#e6dfcb" d="M783 864c4 3.5 5.8 7.3 8 12h-16c2.7-4 5.3-8 8-12"/><path fill="#e4ddca" d="M555 574c-.4 2.3-.4 2.3-2 5-2 1-4.1 1.6-6.3 2.2-4.1 1.2-8 2.7-12 4.1-2.8.7-4.1.7-6.7-.3 1.4-2.9 3.3-3 6.3-4.2.5-.2.5-.2 3.2-1.2 1.1-.4 2.3-.8 3.4-1.2.6-.2.6-.2 3.4-1.3 8.4-3.1 8.4-3.1 10.7-3.1"/><path fill="#f2e5cf" d="M580 542h34c.2.7.2.7 1 4-11.7-.5-23.3-1.5-35-3z"/><path fill="#e9dfc9" d="M716 439h14c-.7 2-1.3 4-2 6-3 .4-5.1.5-7.7-1.1-1.5-1.2-2.9-2.6-4.3-3.9z"/><path fill="#ddd9c5" d="M577 837c.4.4.8.8 1.2 1.1 4.4 3.9 8.8 7 13.8 9.9-1.8.6-1.8.6-4 1-4.8-2.6-7.8-5.7-11-10z"/></svg>