<svg xmlns="http://www.w3.org/2000/svg" width="1067" height="1600" viewBox="0 0 1067 1600"><title>grand-tour-vtracer — micro</title><path fill="#477e69" d="M716 698h22v6h-22z"/><path fill="#4a3b40" d="M997 423v23c-3-.3-5.9-.7-9-1 .7-4.8 1.9-9.2 3.4-13.8.3-.7.5-1.4.7-2.1.6-1.7 1.2-3.4 1.9-5.1 2-1 2-1 3-1"/><path fill="#e56c45" d="M400 1181c4.3 1.1 4.7 1.5 7 5 .3-1.7.7-3.3 1-5h3v13c-4.3-1.1-4.7-1.5-7-5-.3 1.7-.7 3.3-1 5h-3z"/><path fill="#833656" d="M644 778c3.5.2 3.5.2 7 1 2 3 2 3 1.8 5.6-.8 2.4-.8 2.4-2.8 4.4-2.9.4-2.9.4-6 0-1.9-1.7-1.9-1.7-3-4 .2-3.4.6-4.6 3-7"/><path fill="#e76b43" d="M460 1181c4 1 4 1 6 4 .3-1.3.7-2.6 1-4h3v13h-3c-1.7-2.5-1.7-2.5-3-5-.7 1.7-1.3 3.3-2 5h-2z"/><path fill="#477e69" d="M697 972c2 .7 4 1.3 6 2 .6 2.8.6 2.8 1 6-2 3-2 3-3.9 3.8-2.8.3-3.9-.1-6.1-1.8-1-2.9-1-2.9-1-6 1.9-2.4 1.9-2.4 4-4"/><path fill="#906150" d="M634 626h15c-1.3 2.3-2.6 4.6-4 7-2.3-.2-2.3-.2-14-1z"/><path fill="#e7784e" d="M490 1181c3 1 3 1 4.2 3 .3.8.6 1.6 1 2.4.3.8.7 1.6 1 2.4.8 2.2.8 2.2.8 5.2h-3v-2c-3 .7-5.9 1.3-9 2 .5-1.6.9-3.2 1.4-4.8.2-.9.5-1.8.7-2.7.9-2.5.9-2.5 2.9-5.5"/><path fill="#e67045" d="M362 1181h3c.8 1.8 1.7 3.6 2.5 5.4.5 1 .9 2 1.4 3 1.1 2.6 1.1 2.6 1.1 4.6-1.5-.3-1.5-.3-9-2v2h-3c.7-4.6 2.3-8.7 4-13"/><path fill="#c73a42" d="M702 540h21c-.3 1.3-.7 2.6-1 4h-22c.7-1.3 1.3-2.6 2-4"/><path fill="#e76640" d="M375 248c1.9 1.7 1.9 1.7 3 4-.7 2.4-1.2 4.2-3 6-2.9.2-2.9.2-6 0-2-3-2-3-1.8-6.1.2-.5.2-.5.8-2.9 2.6-1.3 4.1-1.3 7-1"/><path fill="#e6754c" d="M687 1181h3c1.6 4.3 3.3 8.6 5 13-2.2-.3-4.5-.6-6.7-.9-2.3-.1-2.3-.1-5.3.9l.9-4.2c.1-.8.3-1.6.5-2.4.6-2.4 1.4-4.3 2.6-6.4"/><path fill="#e7764c" d="M657 1181h3c1.6 4.3 3.3 8.6 5 13-2.2-.3-4.5-.6-6.7-.9-2.3-.1-2.3-.1-5.3.9l.9-4.2c.1-.8.3-1.6.5-2.4.6-2.4 1.4-4.3 2.6-6.4"/><path fill="#e67347" d="M542 1181h8v3h-5v2h4v3h-4v2h5v3h-7c-1-1-1-1-1.1-3.7v-3.4c0-1.1.1-2.2.1-3.3z"/><path fill="#873857" d="M622.375 1071.688c2.6.3 2.6.3 4.6 2 1 2.3 1 2.3.3 5-1.3 2.3-1.3 2.3-2.3 3.3-2.4.3-2.4.3-5 0-1.9-1.7-1.9-1.7-3-4 1.6-5.8 1.6-5.8 5.4-6.3"/><path fill="#e26f49" d="M630 1181h8v3h-5v2h4v3h-4v2h5v3h-8z"/><path fill="#e46d46" d="M591 1181h8v3h-5v2h4v3h-4v2h5v3h-8z"/><path fill="#e57046" d="M429 1181h8v3h-5v2h4c-.3 1-.7 2-1 3h-3v2h5v3h-8z"/><path fill="#673d4a" d="M130 738c2.9 1.3 5 2.5 7 5v3h2l2.1 3.9c.3.7.7 1.4 1.1 2.2.2.3.2.3.8 1.9-.3.7-.7 1.3-1 2-1.8-.1-1.8-.1-4-1-3-5-3-5-3-8h-2c-3-5.6-3-5.6-3-9"/><path fill="#e66d44" d="M425 1182c-1 2-1 2-4.1 3.1-.4.2-.4.2-2.9.9.3 1.3.7 2.6 1 4h5c.3 1 .7 2 1 3-6.3 1.4-6.3 1.4-9.5-.5-1.5-2.5-1.5-2.5-1.4-6.1 1.7-6.5 5.2-5.5 10.9-4.4"/><path fill="#efa14e" d="M734 453h14c-1 3-2 5.9-3 9-3.6-1.8-6.8-3.6-10-6-.3-1-.7-2-1-3"/><path fill="#9bbd5d" d="M890 672h17v2c-1.8 1.5-1.8 1.5-4 3.1-.7.6-1.5 1.1-2.2 1.7L899 680c-.6-.6-1.1-1.2-1.7-1.8-2.3-2.2-4.8-4.2-7.3-6.2"/><path fill="#e37049" d="M531 1181h8v3h-5v2h4c-.3 1-.7 2-1 3h-3v5h-3z"/><path fill="#e48c53" d="M553 746h2v11h-10c.7-.3 1.3-.7 2-1 .6-2.1.6-2.1 1-4h2c.3-.6.6-1.2.9-1.9.7-1.3 1.4-2.7 2.1-4.1"/><path fill="#e57247" d="M695 1181c4 0 4 0 5.8 1.5l1.2 1.5c.3-1 .7-2 1-3h3c-1.9 4.9-1.9 4.9-3 6-.4 2.3-.7 4.7-1 7h-3c-.1-1.2-.2-2.4-.3-3.7-.5-3.7-1.5-6.2-3.7-9.3"/><path fill="#9ab55a" d="M858 922c2.5-.3 2.5-.3 5 0 2 2 2 2 2.1 4.6 0 .8-.1 1.6-.1 2.4-2.3.3-4.6.7-7 1-1.1-2.3-1.1-2.3-2-5 .7-1 1.3-2 2-3"/><path fill="#477e69" d="M841 457c1.6.3 3.3.7 5 1 .7 2.3.7 2.3 1 5-1.2 1.9-1.2 1.9-3 3-2.1-.1-2.1-.1-4-1-1.2-2.1-1.2-2.1-2-4 1-1.3 2-2.6 3-4"/><path fill="#e36e48" d="M642 1181h9v3h-3v10h-3v-10h-3z"/><path fill="#e36d47" d="M554 1181h9v3h-3v10h-3v-10h-3z"/><path fill="#e56e46" d="M512 1181h3v10h6c-.3 1-.7 2-1 3h-8z"/><path fill="#553e43" d="M447 1002c1 .2 1 .2 6 1v6c-1 1-1 1-3.4 1.2-2.6-.2-2.6-.2-4.6-2.2v-4h2z"/><path fill="#485a53" d="M995 1024c1 .3 2 .7 3 1v17h-2c-.3-1.9-.7-3.8-1-5.7-.2-1-.4-2.1-.6-3.2-.4-2.8-.6-5.3-.4-8.1z"/><path fill="#873957" d="M116 445c2.6.4 2.6.4 5 1 .6 2.4.6 2.4 1 5l-2 2c-2.6-.4-2.6-.4-5-1-.6-2.4-.6-2.4-1-5z"/><path fill="#7d3654" d="M139 615c2.9.6 3.9.9 6 3-.6.6-1.2 1.1-1.8 1.7-2.2 2.3-4.2 4.7-6.2 7.3v-3h-2c1.1-3.4 2-6 4-9"/><path fill="#507a65" d="M260.5 430.875c2.5.1 2.5.1 3.5 1.1.1 2.5.1 2.5 0 5-1 1-1 1-3.4 1.2-2.6-.2-2.6-.2-4.6-2.2.7-4.9.7-4.9 4.5-5.1"/><path fill="#197752" d="M991 1002h6v8h-5c-1.4-2.7-1.1-5-1-8"/><path fill="#e76a43" d="M390 1181c3.3.4 4.6.6 7 3 .2 3.5.2 3.5 0 7l-2 2c-1-.3-2-.7-3-1 .3-2.3.7-4.6 1-7-1.3-1-2.6-2-4-3z"/><path fill="#c94345" d="M372 249c.8.2.8.2 5 1 .7 1.8.7 1.8 1 4-1.2 2.2-1.2 2.2-3 4h-3z"/><path fill="#574243" d="M699 973c1.3.3 2.6.7 4 1 .6 2.8.6 2.8 1 6-.3.5-.3.5-2 3h-3z"/><path fill="#583f44" d="M134 624h3c.2 2.2.2 2.2 0 5-1.9 2.1-1.9 2.1-4 4-.3.5-.3.5-2 3h-2c.6-4.8 2.6-8 5-12"/><path fill="#f2e2ca" d="M389 1184c1.7.3 3.3.6 5 1v5c-2.4.6-2.4.6-5 1l-2-2c.5-3.5.5-3.5 2-5"/><path fill="#e87846" d="M524 1181h3v13c-1-.3-2-.7-3-1z"/><path fill="#e78156" d="M362 1181h3c.7 2 1.3 4 2 6h-2v2h-5c.9-5.8.9-5.8 2-8"/></svg>