<svg xmlns="http://www.w3.org/2000/svg" width="1067" height="1600" viewBox="0 0 1067 1600"><title>grand-tour-vtracer — fleet</title><path fill="#4a3b40" d="M996 780h1c.9 30 1.1 60 1 90h-73.6c-16 .1-32 .1-48.1 0H850q-11.7.15-23.4 0h-12.3c-3.8.1-7.6 0-11.4 0h-4.2c-10.4.2-10.4.2-13.6-2.7-1.3-2.1-2.2-4-3.1-6.3-.5-1-1.1-2-1.6-3s-.9-1.9-1.4-2.9-1-2-1.6-3.1c-.5-1-1-2.1-1.5-3.2-1.1-2.1-2.1-4.2-3.2-6.3-.4-1-.9-1.9-1.3-2.9-1.4-2.6-1.4-2.6-3-5-1.4-2.6-1.4-2.6-2.4-9.6h32c.2.7.2.7 1 4h3.8c4.6.1 9.3.1 13.9.2 2 0 4 .1 6 .1 20.2.1 20.2.1 29 3.8 12 4.8 26.6 2.2 38.3-2.1.7-.3 1.3-.7 2-1 11-1.2 22.1-1.3 33.2-1.4.6 0 .6 0 3.8-.1.5 0 .5 0 3.3-.1.9-.1 1.8-.3 2.7-.4.7-1 1.3-2 2-3-1.1 0-2.1 0-3.2-.1-4 0-7.9-.1-11.9-.2-1.7-.1-3.4-.1-5.1-.1-2.4-.1-4.9-.1-7.3-.2h-2.3c-7-.2-11.7-1.6-17-6.1-4.3-3.6-8.7-6.8-13.4-9.9-.6-.4-1.2-.9-1.8-1.4v-2c2.5-1.2 4.9-2.3 7.4-3.5.7-.3 1.4-.7 2.1-1 5.3-2.5 5.3-2.5 7.5-2.5v-2c-12-3.1-22.9-5-35.3-3.3-4.4.5-7-.2-10.7-2.7v-1h150z"/><path fill="#197752" d="M559.938 828.813c.6 0 .6 0 3.5.1 5 .4 8.3.7 11.8 4.6 1.9 2.9 1.9 2.9 3.4 5.9 2.4 4.6 6.5 7.7 11.4 9.6 1.9.3 3.9.6 6 1v-18c5 1 5 1 6.3 2.6.3.7.6 1.3 1 2 3.1 5.5 7.1 10.1 13.2 12.3 2.1.4 4.3.8 6.5 1.1v-17c4.6 1.6 9.2 3.3 14 5 .3-2.3.6-4.6 1-7h102c-.5.8-.5.8-3 5-3.1.6-3.1.6-6.9.5h-2.2c-1.5-.1-3-.1-4.5-.1-2.4-.1-4.8-.1-7.2-.1-6.9-.1-13.7-.1-20.5-.3-4.2-.1-8.4-.1-12.6-.1-1.6 0-3.2-.1-4.8-.1-2.2-.1-4.4-.1-6.7-.1h-3.8c-3.8 1.3-3.8 1.3-12.8 12.3 23.7.3 47.5.6 72 1-1.8 3.5-3.5 6-6 9-4 4.9-4 4.9-5.3 7.1-1.7 1.9-1.7 1.9-4.6 2.4-1.1 0-2.3 0-3.4-.1h-12.6c-3.8-.1-7.7-.1-11.5-.1-3.9-.1-7.8-.1-11.7-.1-7.6-.1-15.3-.1-22.9-.2v2q-6.15-1.2-12-3c-2 2-1.4 5.8-1.6 8.6 0 .3 0 .3-.1 2.1s-.2 3.5-.3 5.3c-1.5-.3-2.9-.6-4.3-.9-.4-.1-.4-.1-2.4-.5-2.3-.6-4.2-1.5-6.3-2.6-.4.2-.4.2-2 1.5-22.2 17.3-47 28.9-73.7 37.2-1 .3-1.9.5-2.8.8-2.9.9-5.7 1.7-8.5 2.5-.9.3-1.9.6-2.8.9-11.2 3.1-22.6 2.4-34.1 2.3-2.1 0-4.3-.1-6.4-.1-5.3 0-10.5 0-15.7-.1.4-.5.8-1.1 1.2-1.6 2.6-3.6 5.3-7.1 7.9-10.7 6.4-8.7 12.9-17.4 19.5-25.9 5-6.3 9.8-12.7 14.6-19.1 5.4-7.2 10.8-14.4 16.3-21.6.6-.8 1.3-1.6 1.9-2.4s1.2-1.6 1.9-2.4c1.7-2.3 1.7-2.3 3-4.7 4.4-7.3 9.7-6.6 17.6-5.8"/><path fill="#d2c3af" d="M419 630v42h185c0 3 0 3-1.6 5.6-3.2 3.2-4.9 3-9.3 3H579c-4.5 0-9-.1-13.5-.1h-14.2c-9 0-17.9-.1-26.9-.1-10.1-.1-20.3-.1-30.5-.1L431 680v5h-25c4-3 4-3 6-4-2.3-.3-4.6-.7-7-1v9c62 .3 124.1.7 188 1-2 5-2 5-4 7-2.9.3-2.9.3-6.7.3h-14c-4.6.1-9.1.1-13.6.1-4.8 0-9.5 0-14.2.1-9 0-17.9.1-26.9.1-10.2 0-20.4.1-30.6.1l-63 .3c-.3 14.2-.7 28.4-1 43-13.8-5.7-13.8-5.7-19.9-8.6-.6-.4-1.3-.7-2-1-2.3-1.1-4.5-2.2-6.7-3.2-2.4-1.1-4.8-2.3-7.1-3.4-1.7-.8-3.3-1.5-4.9-2.3-5.7-2.7-11.4-5.4-17-8-.8-.4-1.6-.8-2.4-1.1-3-1.4-5.9-2.8-8.9-4.2-7.1-3.3-14.1-6.7-21.1-10.2v-1h53c-2.4-4.7-2.4-4.7-6-6-2.4-.3-2.4-.3-5-.3h-29.6c-10-.1-20-.1-30-.1-7.7-.1-15.5-.1-23.2-.1-3.4 0-6.7-.1-10-.1-35 0-35 0-43.2-5.4.3-1 .7-2 1-3 2-.9 2-.9 4.6-1.6.8-.3 1.6-.5 2.5-.8 7.6-1.6 15.1-1.8 22.9-1.8h13.3c3.4-.1 6.8-.1 10.2-.1 11.5-.1 23-.1 34.5-.2 6.4 0 12.8 0 19.1-.1h10.1c3.8 0 7.5-.1 11.3-.1h9.1c2.7-.3 4.2-.8 6.4-2.3.7-1.3 1.3-2.6 2-4h-53c3.6-2.7 7.1-4.6 11.2-6.5.7-.4 1.4-.7 2.2-1 2.3-1.1 4.6-2.2 7-3.3 1.6-.8 3.2-1.5 4.8-2.3 4.2-1.9 8.3-3.9 12.4-5.8 2.3-1 4.5-2.1 6.8-3.1 10.3-4.9 10.3-4.9 15.5-7.3s10.4-4.9 15.6-7.3c.8-.4 1.6-.8 2.5-1.2l4.2-2.1c2.8-1.3 4.6-2.1 7.8-2.1"/><path fill="#4a3b40" d="M997 342v57c-8.3.6-16.2 1.1-24.5 1.1h-39.9c-6.5 0-13 0-19.5-.1H875c2.4-3.1 4.6-5.7 7.8-8 .7-.5 1.4-1 2.2-1.6.7-.5 1.5-1 2.2-1.6.8-.5 1.5-1 2.2-1.5C897 381.8 905 377 913 372c-23.4-.3-46.9-.7-71-1 1.4-4.3 2.7-7.5 4.8-11.4.6-1 1.1-1.9 1.6-2.9.6-1 1.2-2 1.7-3.1.6-1 1.2-2 1.7-3.1l4.2-7.5c15-.1 30-.3 45-.4 6.9-.1 13.9-.1 20.8-.2 6.8 0 13.5-.1 20.3-.1 2.5-.1 5.1-.1 7.6-.1 3.6 0 7.2-.1 10.9-.1h3c11.2-.1 22.3-.1 33.4-.1"/><path fill="#873657" d="M193 1071h159c-2 2.6-4 5.3-6 8-.7 1-1.3 1.9-2 2.9-3.1 4.2-5.3 6.7-10.5 7.9-4.1.1-8 .1-12.1-.2-13.7-.7-13.7-.7-18 2.1-2 2-3.7 4.1-5.4 6.3-1.2 1.2-2.5 2.3-3.8 3.4-3.2 2.7-6.4 5.6-9.5 8.5-46.8 42.5-46.8 42.5-70 43.2-4.1-.3-6.5-1-10.1-3.2-6-6.7-6.2-13.6-6-22.3.8-13.2 4.6-26.1 8.4-38.6h-22c2-6 2-6 8-18"/><path fill="#863857" d="M615 512v14h95c-2.6 4.6-5.3 9.2-8 14h21c-2.2 6.7-2.2 6.7-4.4 10-.2.4-.2.4-1.4 2.2l-1.5 2.4-3.3 5.1c-.3.4-.3.4-1.7 2.6-2.7 4.3-5.4 8.6-8 12.9-7.1 11.4-14.4 22.6-21.7 33.8h65c-.3 2.3-.7 4.6-1 7h-69c.7-2 1.3-4 2-6h-17c0-4.5.7-5.6 3-9.3.7-1.1 1.4-2.1 2-3.2.4-.5.7-1.1 1.1-1.7 1.8-2.9 3.7-5.8 5.5-8.7.2-.3.2-.3 1.1-1.8 4.1-6.5 7.9-13.1 11.8-19.7 4.1-6.9 8.3-13.7 12.5-20.6h-83v14c-6.1-1.2-11.7-2.9-17.5-5.2-22.1-8.5-40.9-12.3-64.5-11.7-8.6.1-16.7-1.4-24-6.1.3-1 .7-2 1-3 2.7-1.1 2.7-1.1 6.1-2.1 1.1-.4 2.3-.7 3.4-1 6-1.5 11.5-2 17.7-1.7 24.8.7 45.5-5.1 68.5-13.9l2.4-.9c.7-.3 1.4-.6 2.1-.8 1.8-.6 1.8-.6 4.8-.6"/><path fill="#197752" d="M644.136 696.392h5.8c2.3 0 4.6 0 6.8.1h4.8c4.3 0 8.5.1 12.7.1 3.4 0 6.8.1 10.1.1 17.9 0 35.8.3 53.7 1.3.1 1.2.2 2.4.3 3.7 1.4 14.8 3 29.5 4.7 44.3h-135c1.6-4 2.9-6.6 5.3-9.9.6-1 1.3-1.9 2-2.9l2.1-3c1.5-2.1 2.9-4.1 4.4-6.2.3-.5.3-.5 2.1-3.1 3.3-4.6 6.4-9.3 9.6-13.9 1.1-1.7 2.3-3.3 3.5-5 .5-.9 1.1-1.7 1.7-2.7 2.3-2.3 2.3-2.3 5.4-2.9"/><path fill="#dbceba" d="M497 712h41c-.6 5.5-1.1 10.1-2.4 15.3-.3 1.1-.5 2.2-.8 3.4-.3 1.1-.6 2.2-.9 3.4-.2 1.1-.5 2.3-.8 3.5L531 746h22l-3 6h-2c-.3 1.3-.7 2.6-1 4h-2v2h-14c.5 1.7 1 3.4 1.6 5.2 1.2 4 1.9 6.8.4 10.8-1.8 2.9-3.9 5.5-6 8.2-1.1 1.4-2.2 2.8-3.3 4.3-.5.6-1 1.2-1.5 1.9-1.2 1.6-1.2 1.6-2.2 3.6h-23c-1.6-3.1-3.3-6.1-4.9-9.3-.6-1-1.1-1.9-1.6-2.9l-1.2-2.4c-.4-.7-.8-1.5-1.3-2.3-1-2.1-1-2.1-2-5.1h-2.1c-3.2-.1-6.4-.2-9.7-.3-1 0-2.1-.1-3.3-.1-8.9-.3-18.8-.6-25.9-6.6 2.6-1.3 5.3-2.6 8-4-1.4-.2-2.7-.4-4.1-.6-1.8-.2-3.7-.5-5.5-.7-.9-.1-1.8-.2-2.7-.4-5.4-.7-9.8-1.9-14.7-4.3.3-1 .7-2 1-3 8.5-3.9 17.8-4.2 27-5-1.5-.7-1.5-.7-9-4 5.6-5.6 13.2-6.2 21-6.3 2.4 0 4.8.1 7.2.1.6 0 .6 0 3.7.1 3.1 0 6.1 0 9.1.1.7-2 1.3-4 2-6 1.5-2.8 1.5-2.8 9-17"/><path fill="#f7ab50" d="M135.093 906.88h61.4c9.1.1 18.2.1 27.3.1h56.2c-1.2 3.2-2.5 6.1-4.2 9.1-.4.7-.8 1.5-1.2 2.2-.5.8-.9 1.6-1.3 2.3-.9 1.6-1.7 3.1-2.6 4.6-.2.3-.2.3-1.2 2.2-1.6 2.8-3.1 5.6-4.7 8.4-.2.5-.2.5-1.6 3-.4.7-.8 1.5-1.2 2.2-17 0-33.9-.1-50.9-.2-7.8-.1-15.7-.1-23.6-.1-6.9 0-13.7-.1-20.6-.1-3.6-.1-7.3-.1-10.9-.1h-15.8c-7.8-.1-13-.7-19-5.9-4-4.7-4.6-8.1-4.5-14.1.6-4.9 3.3-7.6 6.9-10.8 3.9-2.7 6.9-2.8 11.5-2.8"/><path fill="#477d68" d="M654 453c9.2 0 18.5 0 27.7-.1h30c21.8-.1 21.8-.1 25.6 3 .6.7 1.1 1.4 1.7 2.1 1.3 1 2.6 2 4 3-.6 4.1-2 7.3-3.8 11-.6 1.1-1.2 2.3-1.8 3.5s-1.2 2.5-1.8 3.7c-.7 1.3-1.3 2.5-2 3.8-4.9 9.8-10.1 19.5-15.6 29-1.1 1.9-2.1 3.7-3.2 5.6L710 526c-7.6.3-15.3.5-22.9.7-2.6 0-5.2.1-7.8.2-22.7.9-22.7.9-28.3-3.4-2.9-2.9-4.9-6.1-7-9.5-1.8-1.9-1.8-1.9-3.5-3.3-5.3-4.6-5.3-4.6-7.5-6.7v-1c11.7-.2 11.7-.2 71-1 1-5 1-5-.1-6.8-.6-.6-1.2-1.1-1.8-1.7l-1.9-1.9c-.7-.6-1.3-1.2-2-1.8l-2-2c-4.5-4.3-6.5-5.9-12.8-6-1.2 0-2.4 0-3.6-.1h-3.9c-1.3 0-2.6-.1-4-.1-3.4 0-6.9-.1-10.4-.1-3.5-.1-7.1-.1-10.6-.2L630 481c1.9-4 4.5-7 7.6-10.2.5-.6 1-1.1 1.6-1.7 3.9-4.2 8-8.4 12.2-12.4 1.6-1.7 1.6-1.7 2.6-3.7"/><path fill="#f7ab50" d="M777.956 879.707c1.1 0 2.1-.1 3.2-.1l5.7-.3c3.9-.2 6.2-.1 9.2 2.4 3 3.5 5.6 7.3 7.5 11.6 2.1 4.1 4.4 7.5 7.2 11.2 3.2 4.3 3.2 4.3 3.2 6.5.5.2.5.2 3 1 .4 1.3.7 2.7 1 4 .5.2.5.2 3 1 .7 1.3 1.4 2.7 2 4 1.7 1.7 3.4 3.3 5 5 4.2 4.6 8.1 9.3 12 14h-134c.4-.7.7-1.3 1-2h3c.4-1 .7-2 1-3h3v-2c.5-.2.5-.2 3-1 .4-.7.7-1.3 1-2 .5-.2.5-.2 3-1 .7-1 1.4-2 2-3 .5-.2.5-.2 3-1 1.4-1.3 2.7-2.7 4-4 1.1-1 2.2-1.9 3.3-2.8.3-.3.3-.3 1.8-1.6.7-.5 1.3-1.1 1.9-1.6 9.6-8.2 18.5-16.9 26-27h-61c5-7 5-7 7.9-7.9h3.2c1.2 0 2.4 0 3.7-.1 1.3.1 2.6.1 3.9.1h4.1c3.7-.1 7.3-.1 10.9-.1 3.6.1 7.2 0 10.8 0h12.7c6.2 0 12.5 0 18.8-.3"/><path fill="#d4ccb7" d="M555 574c-1.4 4.2-3.5 7.2-6.2 10.7-3.6 4.7-6.9 9.4-10 14.4-2.4 2.5-4.4 2.6-7.8 2.9 2.2 3.7 4.3 6.5 8.6 7.7 2.9.2 5.8.3 8.8.2 1 .1 2 .1 3.1.1h7.5v3h-21v3h21v3h-20v3h20v4h-21v2h21v4h-2c-3.1 0-6.1.1-9.2.1h-3.2c-7.7.2-7.7.2-10.3 2.2-1.4 1.6-1.4 1.6-3.3 4.7-1 .7-2 1.3-3 2 .6 0 1.1-.1 1.7-.1 3.6.1 6.3.2 9.1 2.7 1.9 2.4 3.5 4.9 5.2 7.4.9 1.2 1.7 2.4 2.6 3.6 7.2 9.8 7.2 9.8 8.4 13.4-8.5-2.1-16.6-5-24.8-8.1-1.2-.5-2.5-1-3.8-1.5-3.4-1.2-6.7-2.5-10-3.8-3.5-1.3-6.9-2.6-10.3-3.9-6.7-2.6-13.4-5.1-20.1-7.7v-1c4.9-.3 9.9-.7 15-1-5.6-5.6-5.6-5.6-11.3-5.6-.6 0-.6 0-3.6-.1h-3.9c-2.6 0-5.3-.1-7.9-.1-.6 0-.6 0-3.8-.1-9.5-.3-18.8-1.1-27.5-5.1 1-3 1-3 2.7-3.9.7-.2 1.3-.5 2.1-.7.6-.3 1.3-.5 2-.8 5.1-1.4 9.9-1.7 15.1-1.7h9.4c1.6 0 3.2 0 4.9.1H491v-4h-2.7c-3.4.1-6.8.1-10.3.2h-4.3c-22.3.4-22.3.4-30.7-5.2v-2c1.7-.7 3.3-1.3 5-1.9.5-.2.5-.2 2.8-1.1 6.3-1.9 12.6-2.1 19.1-2.2h4.3c2.3-.1 4.6-.1 6.8-.1 2.3 0 4.5-.1 6.7-.1 1.3 0 2.6-.1 3.9-.1 3.4-.5 3.4-.5 7.4-4.5-2.3-.2-2.3-.2-14-1 1.3-2.6 2.3-2.7 5-3.7.4-.1.4-.1 2.6-.9.9-.3 1.9-.7 2.8-1 1-.4 2-.7 3-1.1 3.1-1.2 6.2-2.3 9.4-3.4 3-1.1 6-2.2 9.1-3.4 2-.7 4-1.4 6.1-2.2 7.9-2.9 15.7-5.8 23.6-8.9.8-.3 1.6-.6 2.5-1 .3-.1.3-.1 2.1-.8 1.8-.6 1.8-.6 3.8-.6"/><path fill="#f7a046" d="M71 553c34.5-.7 65.3 6.3 93 28 1.3 1 2.7 2 4 3-.6.5-1.3 1-1.9 1.5-10.4 8.2-17.7 16.7-25.1 27.5-2.6-1.3-5.3-2.6-8-4v-2h-3v-2h-3c-.3-.7-.7-1.3-1-2-2.4-1.2-4.7-2.3-7.2-3.4-.7-.3-1.4-.6-2.2-.9-15.1-6.4-29-7.8-45.6-8.7z"/><path fill="#f6973e" d="M139 758c3.6 2.7 6.1 5.3 8.6 9 4.7 6.8 10.5 12.3 16.4 18l3 3c-16.8 11.5-33.3 20.8-53 26-1.2.3-2.4.6-3.6 1-13 2.9-26.1 2.2-39.4 2v-36c3.3-.2 6.6-.5 10-.8 9.7-.8 18.7-2.4 28-5.2.9-.3 1.9-.5 2.9-.8 3.9-1.2 6.3-2.3 9.1-5.2 2.7-.7 2.7-.7 5-1v-2c3-2 3-2 6-2v-2c2.3-1.3 4.6-2.6 7-4"/><path fill="#f7ab50" d="M867 319h131v16c-2.5.7-5 1.3-7.5 2-3.5 1-3.5 1-5.8 2-7.2 2.9-13.3 3.6-21 3.5h-3.5c-3.9 0-7.7-.1-11.5-.1h-8c-6.3 0-12.6-.1-18.9-.1-7.2-.1-14.4-.1-21.6-.1-14.7 0-29.5-.1-44.2-.2 1.5-3.1 2.9-6.2 4.4-9.2l1.2-2.7c.4-.8.8-1.7 1.2-2.6.4-.7.8-1.5 1.1-2.3 1-2.1 2.1-4.1 3.1-6.2"/><path fill="#dccfbb" d="M419 630v42c-4.6.3-9.2.7-14 1-.3 4-.7 7.9-1 12h-45v-2h-4v2c-3-.6-6-1.2-9-2v2c-.6-.1-.6-.1-3.7-.6-3.4-.4-6-.1-9.3.6-1.3-.3-2.7-.7-4-1-.3.1-.3.1-1.9.5-2.1.5-2.1.5-4.5 0-2.9-.6-4.8-.2-7.6.5h-4c-.8 0-1.6 0-2.5.1-2.5-.1-2.5-.1-4.5-.7-2.6-.5-4.5 0-7 .6v-2c-.4.2-.4.2-2.2 1-2.8 1-2.8 1-6.8 1v-2c-.4.2-.4.2-2.2 1-2.8 1-2.8 1-6.8 1v-2h-4v2c-3-.6-6-1.2-9-2v2h-30v-2c1.5-.5 3-1 4.5-1.4.8-.3 1.7-.6 2.5-.8 7.6-2 15.2-2 23-2h13.3c3.4-.1 6.8-.1 10.2-.1 11.5-.1 23-.1 34.5-.2 6.4 0 12.8 0 19.1-.1h10.1c3.8 0 7.5-.1 11.3-.1h9.1c2.7-.3 4.2-.8 6.4-2.3.7-1.3 1.3-2.6 2-4h-53c3.6-2.7 7.1-4.6 11.2-6.5.7-.4 1.4-.7 2.2-1 2.3-1.1 4.6-2.2 7-3.3 1.6-.8 3.2-1.5 4.8-2.3 4.2-1.9 8.3-3.9 12.4-5.8 2.3-1 4.5-2.1 6.8-3.1 10.3-4.9 10.3-4.9 15.5-7.3s10.4-4.9 15.6-7.3c.8-.4 1.6-.8 2.5-1.2l4.2-2.1c2.8-1.3 4.6-2.1 7.8-2.1"/><path fill="#873657" d="M807.254 834.688c2.4 0 4.9.1 7.3.3 1.3.1 2.6.1 3.9.1 12.8.6 25.2 2.8 37.5 5.9v2l3.9.3c5.4.6 10.1 2.3 15.1 4.4.9.4 1.8.7 2.7 1.1 6.1 2.6 11.8 5.5 17.3 9.2 1.4.9 2.8 1.7 4.2 2.6l4.5 2.7c.3.2.3.2 2.2 1.4l5.1 3.3v1l-48.3.3c-7.5 0-15 0-22.4.1-6.6 0-13.1.1-19.6.1h-10.4c-3.8.1-7.7.1-11.5.1h-9.4c-2.4-.6-2.4-.6-4.2-3.1-.4-.8-.8-1.7-1.2-2.5.4-.5.4-.5 2-3.1.9-1.4 1.7-2.7 2.6-4.1.4-.7.8-1.4 1.3-2 .4-.7.8-1.4 1.3-2.1.4-.7.9-1.5 1.4-2.2 1.4-2.5 1.4-2.5 2.9-5.7 2.9-6.1 4.7-9.5 11.8-10.1"/><path fill="#197752" d="M742 632c-.1.6-.1 1.2-.2 1.8-.2 2.7-.5 5.5-.8 8.2-.1.9-.1 1.9-.2 2.8-.7 6.5-1.2 12.9-1.6 19.4-.2 2.8-.2 2.8-1.2 7.8h-80c2.3-3.6 4.6-7.3 7-11 1-2.4 2-4.9 2.8-7.4 12.7-31.5 45.7-24.3 74.2-21.6"/><path fill="#477e69" d="M856 343h114c-2.2 2.2-3.9 2.9-6.8 4.1-1 .5-2 .9-3 1.3-.6.3-.6.3-3.3 1.4-14 6-28.2 12.7-40.9 21.2-3.2.2-3.2.2-7.1.2h-14.3c-4.4 0-8.8 0-13.1-.1h-13.3c-8.8 0-17.5-.1-26.2-.1 3.3-9.9 9-18.8 14-28"/><path fill="#d8cdb8" d="M427 750c1 .3 2 .7 3 1 2.5.1 5 .1 7.5.1h2.1c3 0 5.4-.1 8.4-1.1 3.2.9 3.2.9 6 2v-2h4v2c.7-.4 1.3-.7 2-1.1 2.9-.9 4.1-.9 7.1-.5 3.5.5 4.7.5 7.9-.4 1.7.3 3.3.7 5 1 1.3-.3 2.7-.7 4-1 .6.2 1.3.3 1.9.5 2.1.5 2.1.5 4.5 0 2.9-.6 4.8-.1 7.6.5 1-.3 2-.7 3-1 3.2.9 3.2.9 6 2v-2h4v2c.7-.4 1.3-.7 2-1.1 2.9-.9 4.1-.9 7.1-.5 3.4.5 4.7.5 7.9-.4.6.2 1.3.3 1.9.5 2.1.5 2.1.5 4.6 0 2.7-.5 3.9-.1 6.5.5 1.7-.3 3.3-.6 5-1 1 1 1 1 1.1 3.6-.1.8-.1 1.6-.1 2.4h-2v2h-14c.5 1.7 1 3.4 1.6 5.2 1.2 4 1.9 6.8.4 10.8-1.8 2.9-3.9 5.5-6 8.2-1.1 1.4-2.2 2.8-3.3 4.3-.5.6-1 1.2-1.5 1.9-1.2 1.6-1.2 1.6-2.2 3.6h-23c-1.6-3.1-3.3-6.1-4.9-9.3-.3-.5-.3-.5-1.6-2.9l-1.2-2.4c-.4-.7-.8-1.5-1.3-2.3-1-2.1-1-2.1-2-5.1h-2.1c-3.2-.1-6.4-.2-9.7-.3-1 0-2.1-.1-3.3-.1-8.9-.3-18.8-.6-25.9-6.6 2.6-1.3 5.3-2.6 8-4-1.4-.2-2.7-.4-4.1-.6-1.8-.2-3.7-.5-5.5-.7-.9-.1-1.8-.2-2.7-.4-5.4-.7-9.8-1.9-14.7-4.3.3-1 .7-2 1-3"/><path fill="#d2c4ae" d="M596 799v19c4-1 4-1 5.2-2.6.4-.7.7-1.3 1.1-2 4.3-7.2 8.7-11.6 16.8-14.1 1.9-.3 1.9-.3 3.9.7v18c1.9-.8 3.9-1.6 5.9-2.5 5.9-2.5 5.9-2.5 8.1-2.5.2 16.7.2 16.7-1 25-4-1.3-7.9-2.6-12-4-.3 5.3-.7 10.6-1 16-7.8.1-11.3-2.2-16.8-7.6-1.9-2.1-3.3-3.9-4.6-6.4-.5-1-1-2-1.6-3-1.3-.3-2.6-.7-4-1v18c-7.2 0-10.6-1.7-15.7-6.7-3.2-3.5-5.3-7-7.3-11.3-1.1 0-2.2-.1-3.4-.1-10.6-.6-19.9-1.4-29.6-5.9v-2c11-5.1 22-6.4 34-6 .2-.8.3-1.6.5-2.4 2.5-6 6.4-10.9 12.2-14.1 6.2-2.5 6.2-2.5 9.3-2.5"/><path fill="#9db9ad" d="M997 272h1v38H872c7-16 7-16 9-19 2-.4 2-.4 4.6-.4h2.9c1.1 0 2.2 0 3.3.1h22.3c6.1 0 12.2.1 18.3.1h20.8c14.3.1 28.5.1 42.8.2.3-6.3.7-12.5 1-19"/><path fill="#9eb9b3" d="M363.562 1070.432h3.6c3.2 0 6.4 0 9.7.1h10.1c6.4 0 12.8.1 19.2.1 7.3.1 14.6.1 21.9.1l44.9.3c-.1.3-.1.3-.6 2.1-.1.5-.1.5-.8 2.9-.3.9-.5 1.8-.8 2.8-.9 3.7-1.3 7.4-1.8 11.2-43.5-.4-87.1-.7-132-1 4.5-6.7 4.5-6.7 7.5-9.6 2.1-2 3.5-3.4 4.9-6 4.2-3.9 8.7-3.1 14.2-3"/><path fill="#197752" d="M632.105 421.938h15.7c4.5.1 9 0 13.5 0h15.4c11.7-.1 17.9 1.6 27.3 9.1 1.3.7 2.6 1.4 4 2v2h3v2c.3 0 .3 0 1.8.3 2.5.8 3.9 1.9 5.9 3.7.7.5 1.3 1 1.9 1.6l1.4 1.4v1h-124c1.7-3.4 3.3-5.9 5.7-8.8.6-.8 1.3-1.6 1.9-2.4.4-.5.4-.5 2.4-2.8.4-.7.8-1.4 1.2-2 5.5-8.4 13.9-7.2 22.9-7.1"/><path fill="#d1c3ae" d="M615 512v26h-14v2h14v19c-6.3-1.4-11.7-2.9-17.5-5.2-22.1-8.5-40.9-12.3-64.5-11.7-8.6.1-16.7-1.4-24-6.1.3-1 .7-2 1-3 2.7-1.1 2.7-1.1 6.1-2.1 1.1-.4 2.3-.7 3.4-1 6-1.5 11.5-2 17.7-1.7 24.8.7 45.5-5.1 68.5-13.9l2.4-.9c.7-.3 1.4-.6 2.1-.8 1.8-.6 1.8-.6 4.8-.6"/><path fill="#477e69" d="M889 272h108v20c-38.3-.3-76.6-.7-116-1 3-9 3-9 8-19"/><path fill="#4a3b40" d="M753 789h69c-.8 4.6-1.5 7.5-3.3 11.6-.2.5-.2.5-1.3 3.1-.5 1-1 2.1-1.5 3.2-.2.5-.2.5-1.4 3.2-1.2 2.6-2.3 5.3-3.5 7.9h20c.3.8.3.8 2 5-23 1.3-46 1.1-69 1-1.6-4.5-3.1-9-4.7-13.5-.5-1.5-1.1-3.1-1.6-4.6-.8-2.2-1.5-4.4-2.3-6.6-.2-.7-.5-1.4-.7-2.1-1-2.9-1.7-5.1-1.7-8.2"/><path fill="#9eb9b3" d="M218.585 479.638h2.9c3.1.1 6.2.1 9.3.2 2.2 0 4.4 0 6.5.1q8.55 0 17.1.3c5.8.1 11.6.1 17.4.2l34.2.6c-.9 1.2-1.9 2.5-2.8 3.8-.6.7-1.1 1.4-1.7 2.2-2.3 3-4.9 5.8-7.6 8.7-1.9 2.3-1.9 2.3-3.5 5.4-2.4 2.9-2.4 2.9-5.9 3.6-1.4 0-2.9 0-4.3-.1h-2.4c-2.6 0-5.1-.1-7.7-.1-1.8-.1-3.6-.1-5.4-.1-3.8 0-7.6-.1-11.3-.2-4.8-.1-9.7-.2-14.5-.2-3.7 0-7.4-.1-11.1-.2h-5.4c-2.5-.1-5-.1-7.4-.2h-2.3c-4.8-.2-7.3-1.2-10.7-4.6-2-4.2-2.3-7.9-1-12.4 4.9-6.6 9.9-7.2 17.6-7"/><path fill="#4a3b40" d="M427.84 905.535c2.6.1 2.6.1 5.1.5.9.1 1.8.2 2.7.2 2.1.2 4.2.5 6.4.8-3.8 5.1-7.6 9.9-12 14.5-1 1.1-2.1 2.2-3.2 3.4-.5.5-1 1-1.5 1.6-1.7 1.8-3.3 3.7-4.9 5.5-3.4 3.9-6.9 7.7-10.4 11.5-3.2 3.6-6.4 7.2-9.5 10.8-3.2 3.4-3.2 3.4-5.5 4.7-10.6-2.3-20.7-10.6-29.7-16.3-1-.7-2-1.3-3-1.9s-1.9-1.2-2.9-1.8c-.8-.6-1.6-1.1-2.5-1.6-1.9-1.4-1.9-1.4-2.9-3.4-1-.4-2-.7-3-1-.4-.7-.7-1.4-1-2-1-.4-2-.7-3-1-.4-.7-.7-1.4-1-2-2.1-1.2-2.1-1.2-4-2v-2h2.3c7.5.1 14.9 0 22.3 0 3.8-.1 7.6-.1 11.5 0 26.9.3 26.9.3 33.9-5.5 2.6-2.5 4.9-5.3 7.1-8.2 2.6-3.3 4.4-4.4 8.7-4.8"/><path fill="#f6963e" d="M728.813 406.688c5 5.3 4.2 8.5 4.2 16.3h29c-.8 4-1.7 6.8-3.3 10.4-.3.5-.3.5-1.5 3.1-.2.5-.2.5-1.5 3.2-.4 1-.9 2.1-1.4 3.1q-4.5 9.75-9.3 19.2c-5.9-2.9-10.4-6.4-15-11-2.5-2-5-4.1-7.6-6.1-2-1.5-3.9-3.2-5.8-4.8-2.6-2.1-2.6-2.1-5.6-3.1v-2h-3v-2c-.5-.1-1.1-.2-1.6-.2-3.3-1.1-5.7-2.8-8.5-4.7-1-.7-2.1-1.4-3.1-2.1-2.2-1.5-4-3-5.8-5 .9-.5 1.8-1 2.8-1.5q4.95-2.85 9.6-6c18.8-12 18.8-12 27.4-6.8"/><path fill="#477a66" d="M720.818 794.833c3.9.2 7.7.3 11.6.3 7.5.2 15 .5 22.6.9 1.1 2.9 2.2 5.9 3.4 8.9.3.8.6 1.7.9 2.5.3.9.6 1.7 1 2.5.1.4.1.4.8 2.3 1.2 3.9 2 7.8 2.9 11.8h-127v-1c17.8-.2 17.8-.2 108-1 .6-1.4 1.3-2.7 2-4h-69c.6-1.7 1.3-3.3 2-5l1.2-4.2c6.6-18 23.5-14.8 39.6-14"/><path fill="#e95c3a" d="M646 400h125c-1.1 6.8-1.1 6.8-2.6 10.3l-.9 2.1c-.3.8-.7 1.6-1.1 2.5-1.1 2.7-2.2 5.3-3.4 8.1h-30c-.3-2-.3-2-2-12-2.2-3.2-2.2-3.2-5-5-10.2-1.8-20.8 5.7-29 11-.8.7-1.7 1.5-2.5 2.2-2.5 1.8-2.5 1.8-4.9 2.3-3.6-.7-6.3-2.4-9.4-4.3-10.9-6.5-22.6-11.3-34.2-16.2z"/><path fill="#906250" d="M615 526h95c-1.2 2-1.2 2-7 12-1.3 2.3-2.6 4.6-4 7h-84v-5h-14v-2h14z"/><path fill="#906150" d="M71 647h53c-.7 4.3-1.3 8.6-2 13l-3 21H71z"/><path fill="#dc8058" d="M830.996 398.865c2 0 3.9.1 5.9.2h3.1l9.9.3c2.2.1 4.5.1 6.7.1 5.5.2 10.9.3 16.4.5-2.8 2.9-5.7 5.7-8.6 8.4-7.6 7.1-15.2 14.3-22.6 21.7l-2.1 2.1-2 2-1.9 1.9c-1.8 1.9-1.8 1.9-3.1 4-1.5 2.1-2.6 3.5-4.7 4.9-4.7.9-9.2.7-13.9.5-1.2-.1-2.5-.1-3.8-.1-3.1-.1-6.2-.2-9.3-.4 2.2-5.7 5-11.1 8.1-16.4.3-.6.3-.6 1.9-3.1.6-1.1 1.2-2.1 1.8-3.2.6-1 1.2-2.1 1.8-3.1 1.8-3.1 3.6-6.1 5.4-9.2.2-.4.2-.4 1.2-2.5 2.4-5 4-8 9.8-8.6"/><path fill="#873657" d="M890 983h96c4 15 4 15 4 19-9.2.3-18.4.5-27.7.6-4.3 0-8.5.1-12.8.2-35 1-35 1-46.5-9-.5-.5-1-1-1.5-1.4-2.3-2.2-4.9-3.8-7.6-5.5-1.3-1-2.6-1.9-3.9-2.9z"/><path fill="#efe3ce" d="M777.95 879.698c1.1 0 2.1-.1 3.2-.1 1.9-.1 3.8-.2 5.7-.4 3.9-.1 6.2 0 9.3 2.6 3.6 4.3 6.2 8.9 8.7 13.9 1.1 2.3 2.5 4.2 4 6.3 2.2 3 2.2 3 2.2 5h-64c3.7-4.4 7.5-8.8 11.3-13.1 1.7-1.9 3.2-3.9 4.7-5.9h-61c5-7 5-7 7.8-7.9h14.9c3.7-.1 7.3-.1 10.9 0 3.6 0 7.2-.1 10.8-.1h12.7c6.3 0 12.5 0 18.8-.3"/><path fill="#d5ccb8" d="M555 574c-1.4 4.2-3.5 7.2-6.2 10.7-3.6 4.7-6.9 9.4-10 14.4-2.4 2.5-4.4 2.6-7.8 2.9 2.2 3.7 4.3 6.5 8.6 7.7 2.9.2 5.8.3 8.8.2 1 .1 2 .1 3.1.1h7.5v1h-22v2h-93c6.5-6.5 17.1-6.1 25.9-6.2h4.3c2.3-.1 4.6-.1 6.8-.1 2.3 0 4.5-.1 6.7-.1 1.3 0 2.6-.1 3.9-.1 3.4-.5 3.4-.5 7.4-4.5-2.3-.2-2.3-.2-14-1 1.3-2.6 2.3-2.7 5-3.7.4-.1.4-.1 2.6-.9.9-.3 1.9-.7 2.8-1 1-.4 2-.7 3-1.1 3.1-1.2 6.2-2.3 9.4-3.4 3-1.1 6-2.2 9.1-3.4 2-.7 4-1.4 6.1-2.2 7.9-2.9 15.7-5.8 23.6-8.9.8-.3 1.6-.6 2.5-1 .3-.1.3-.1 2.1-.8 1.8-.6 1.8-.6 3.8-.6"/><path fill="#1a7752" d="M901.438 687.563c1 0 2 0 3 .1 7.2.1 7.2.1 9.6 1.3 2.4.2 4.8.2 7.3.2.7.1 1.5.1 2.2.1 2.5 0 5 0 7.5.1h5.2c4.5.1 9.1.1 13.6.2 4.6 0 9.3.1 13.9.1l27.3.3c.8 2.8 1.6 5.5 2.4 8.2.2.8.4 1.6.7 2.3 3.2 10.8 4.1 20.3 4 31.7v4c-.1 3.3-.1 6.6-.1 9.8h-1c0-.7.1-1.5.1-2.3 1.3-21 1.3-21-2.5-26.7-3.8-3.3-8.3-4.8-13.1-6.2q-3.9-1.2-7.8-2.7c-17.9-6.6-35.9-9.1-55-9.4h-3.7c-3.9-.1-7.8-.2-11.7-.2-2.6-.1-5.3-.1-7.9-.2-6.5-.1-13-.2-19.4-.3 1.6-1.3 3.3-2.6 5-4 .6-.5 1.3-1.1 2-1.7 6.1-4.5 10.9-5.1 18.4-4.7"/><path fill="#4a3b40" d="M246 1020c4 2 4 2 5.7 3 3.1 1.3 5.9 1.3 9.3 1.4.6 0 1.3.1 2 .1 2.1 0 4.2.1 6.2.1 1.5.1 2.9.1 4.3.1l10.5.3c.3.6.5 1.3.8 1.9.3.8.7 1.7 1.1 2.5.3.8.7 1.6 1 2.5 1.1 2.1 1.1 2.1 3.3 3.7 7.8 1.1 14.8-1.1 21.8-4.6.6-.5 1.2-1 1.9-1.5 8.8-7.1 20.6-5.1 31.2-4.9 2.1.1 4.3.1 6.4.1l15.5.3c-.9 1.2-1.7 2.4-2.6 3.6l-1.5 2.1c-.6.7-1.3 1.5-1.9 2.3-.4.5-.8 1-1.2 1.6-2.1 2.5-3.8 4.1-7 4.9-2.7.3-5.3.3-7.9.2-1 .1-2 .1-3.1.1-3.3 0-6.6 0-9.9-.1h-21.5c-6.2-.1-12.3-.1-18.5-.1h-21.2c-3.2 0-6.4 0-9.6-.1-.9.1-1.9.1-2.8.1-5.7-.1-8.9-.8-13.3-4.6-2.8-4.4-2-8.1-1-13zm494-475c-3.8 7.2-7.9 14.2-12.4 21.1-.6.9-1.2 1.9-1.8 2.8-1.2 2-2.5 4-3.8 6l-6.3 9.9c-8.1 12.6-8.1 12.6-10.1 15.7-1.6 2.5-1.6 2.5-2.6 4.5-.9 1.7-.9 1.7-3 4-3.3.7-6.4.6-9.8.4-.8-.1-1.7-.1-2.6-.1l-6.6-.3c1.4-3.8 3.2-7 5.5-10.4.3-.6.3-.6 2.1-3.2.3-.6.7-1.1 1.1-1.7 1.9-2.9 3.8-5.8 5.8-8.7.3-.6.7-1.2 1.1-1.8 3.6-5.5 7-11 10.5-16.6.5-.8 1-1.7 1.6-2.6 2.3-3.6 4.4-7.1 6.2-11 5.6-10.9 14.2-9.2 25.1-8"/><path fill="#d8cdba" d="M596 799v19c4-1 4-1 5.2-2.6.4-.7.7-1.3 1.1-2 4.3-7.2 8.7-11.6 16.8-14.1 1.9-.3 1.9-.3 3.9.7v18c1.9-.8 3.9-1.6 5.9-2.5 5.9-2.5 5.9-2.5 8.1-2.5v12h-23v-2c-.5.4-1 .7-1.5 1.1-3.1 1.1-5.4.6-8.5.1-2.5-.3-4.6.3-7 .8-1.3-.3-2.7-.7-4-1-.8.2-1.6.3-2.5.5-2.7.5-3.9.2-6.5-.5-.3.1-.3.1-1.9.5-2.1.5-2.1.5-4.5 0-2.9-.6-4.8-.1-7.6.5-1-.3-2-.7-3-1-.7.3-1.3.7-2 1-1.8.1-3.6.1-5.4.1h-6.7c-1.2 0-2.3 0-3.5-.1H541c5.5-5.8 14.3-6.6 22-7 3.7-.1 7.3-.1 11 0 .2-.8.3-1.6.5-2.4 2.5-6 6.4-10.9 12.2-14.1 6.2-2.5 6.2-2.5 9.3-2.5"/><path fill="#477d68" d="M349 893c3.7 1.3 7 3.1 10.5 5.1 13.4 7.6 27.8 12.3 42.3 17.1 3.2 1.1 6.3 2.2 9.2 3.8-2.2 2.8-3.5 3.9-7 4.6-1.2 0-2.4 0-3.6.1-.3 0-.3 0-1.9.1-2.2 0-4.3.1-6.5.1-1.5.1-3 .1-4.5.2-3.1.1-6.2.1-9.3.2-4 .1-8 .2-12 .4-3.1.1-6.2.2-9.3.2-1.4.1-2.9.1-4.4.2-2.1 0-4.1.1-6.2.1-.6 0-.6 0-3.5.1-1-.1-1.9-.2-2.8-.3-2-3-2-3-1.8-5.8.8-3.2 1.8-5.9 3-8.9.5-1 .9-2 1.4-3.1 2.1-4.8 4.2-9.5 6.4-14.2M71 590c20.7-.5 37.5 3.2 56 13v2h3v2h3c.2.3.2.3 1 2 2.1 1.1 2.1 1.1 4 2v2H71z"/><path fill="#f5953e" d="M812.97 907.38c1 1.6 1 1.6 1 3.6 1 .4 2 .7 3 1 .4 1.4.7 2.7 1 4 1 .4 2 .7 3 1 .7 1.4 1.4 2.7 2 4 1.7 1.7 3.3 3.4 5 5 1.3 1.3 2.5 2.7 3.7 4 .5.7 1.1 1.3 1.7 2 1.8 2.2 3.2 4.6 4.6 7-4.7.2-9.4.3-14.1.4-1.6 0-3.2.1-4.8.1-13.3.5-13.3.5-17.6-1.9-1.8-1.7-3.1-3.5-4.5-5.6-.7-.9-1.5-1.7-2.3-2.6-.6-.9-1.3-1.7-2-2.6-2.4-3-4.9-6.1-7.5-9.1-.4-.5-.9-1.1-1.4-1.6-1.3-1.6-2.6-3.1-3.9-4.6-1.9-2.5-1.9-2.5-1.9-4.5 4.7-.2 9.3-.4 14-.6 1.5 0 3.1-.1 4.7-.2 2.3-.1 4.5-.2 6.8-.3.7 0 1.4 0 2.2-.1 4.8-.1 4.8-.1 7.3 1.6"/><path fill="#894255" d="M260 1024h132c-1.9 4.7-3.8 7.2-7.1 10.7-.9.9-1.8 1.9-2.8 2.9l-1.5 1.5c-1.6 1.9-1.6 1.9-3.3 4.5-4.6 7-4.6 7-9.5 8.2-3.6.2-7.1.1-10.8-.2-.6 0-.6 0-3.8-.1-3.1-.1-6.1-.3-9.2-.5 5.8-6.8 11.7-13.6 17.7-20.3.8-.9 1.6-1.7 2.5-2.7.3-.3.3-.3 1.8-2-6-.2-12-.3-18-.4-2.1-.1-4.1-.1-6.1-.2-14-.5-22.4.6-33.9 8.6-6.2 2.7-11.4 3.7-18 2-4.5-3.1-4.4-5.2-6-11h-24z"/><path fill="#ede1cd" d="M615 512v23h-46v-2h-4v2h-5v-2c-.5.4-1 .7-1.5 1.1-3.1 1.1-5.4.6-8.5.1-2.5-.3-4.6.3-7 .8-1.3-.3-2.7-.7-4-1-1.7.3-3.3.7-5 1-1-.3-2-.7-3-1l-1 1c-1.3.1-2.7.1-4 .1h-5.1c-.8 0-1.7 0-2.6-.1H512v-3c1.7-.5 3.4-1 5.1-1.4.9-.3 1.8-.6 2.8-.8 5.9-1.5 11.3-1.9 17.3-1.6 24.8.7 45.5-5.1 68.5-13.9l2.4-.9c.7-.3 1.4-.6 2.1-.8 1.8-.6 1.8-.6 4.8-.6"/><path fill="#9eb9b3" d="M909.131 247.886h36c5.8.1 11.6.1 17.5.1h34.4v10h-102c1-3 1.9-5.9 3-9 3.4-1.7 7.3-1.1 11.1-1.1"/><path fill="#f2e5d0" d="M332 940c32.3-1.8 32.3-1.8 43 7l2 2c-8.9 9.4-23.2 19.7-36.4 20.6-4.2-.7-5.8-1.5-8.6-4.6-3.2-6.5-2.4-13.4-1-20.3l.6-2.7c.1-.6.3-1.3.4-2"/><path fill="#477e68" d="M560 616h94c-1.6 3.3-3.3 6.6-5 10h-89v-4h-21v-3h21z"/><path fill="#f5953f" d="M139 758c3.7 2.7 6.2 5.4 8.7 9.1 3.7 5.2 7.8 9.6 12.4 14l1.9 1.9v1H71v-3c.6 0 1.2-.1 1.8-.1 12.4-.9 24.2-2.3 36.2-5.9.9-.3 1.9-.5 2.9-.8 3.9-1.2 6.3-2.3 9.1-5.2 2.7-.7 2.7-.7 5-1v-2c3-2 3-2 6-2v-2c2.3-1.3 4.6-2.6 7-4"/><path fill="#1a7752" d="M980 661c1.2 2.8 2.3 5.6 3.5 8.4.3.8.7 1.6 1 2.4.3.7.6 1.5 1 2.3.1.3.1.3.9 2.1.6 1.8.6 1.8.6 3.8-14.4.2-14.4.2-87 1 2.4-4.9 2.4-4.9 5-7h2v-2c.9 0 1.9-.1 2.8-.1 21.8-1 42.5-2.3 63.2-9.9 3-1 3-1 7-1"/><path fill="#f7ab50" d="M71 784c11.9-.1 23.9-.2 35.8-.2 5.5 0 11.1-.1 16.6-.1 5.3 0 10.7-.1 16-.1h6.1c2.9-.1 5.7-.1 8.6-.1h2.6c5.7 0 5.7 0 8.9 2.5.4.7.9 1.3 1.4 2-1.5 1-2.9 2-4.4 2.9-.8.6-1.6 1.1-2.4 1.7-4.2 2.7-7.4 2.5-12.2 2.4h-2.5c-2.8 0-5.5-.1-8.3-.1-1.9 0-3.8-.1-5.7-.1-5-.1-10-.1-15-.2-5.2-.1-10.3-.1-15.4-.2-10-.1-20.1-.3-30.1-.4z"/><path fill="#197752" d="M743.522 543.865c1 .1 2.1.1 3.1.2.6 0 .6 0 3.4.1 1.2.1 2.4.1 3.6.2.6 0 .6 0 3.6.2 2.9.1 5.8.3 8.8.4-.2.6-.4 1.1-.6 1.7-.9 2.5-1.8 5.1-2.7 7.6-.3.8-.6 1.7-.9 2.6-2.3 6.7-4.6 13.4-6.8 20.1-10.9-.3-21.8-.6-33-1 1-4 2.3-6.5 4.5-10 .4-.5.7-1.1 1.1-1.7.7-1.2 1.4-2.4 2.2-3.6 1.1-1.8 2.2-3.6 3.4-5.4 6.9-11.2 6.9-11.2 10.3-11.4"/><path fill="#f5ab51" d="M258 430h107c-1.6 1.3-3.3 2.6-5 4-.6.5-1.1 1-1.7 1.5-4.8 3.9-8.7 4.2-14.8 4.1h-18.2c-4.5 0-8.9 0-13.3-.1h-36.4c-2.9 0-5.8-.1-8.8-.1h-2.6c-2.4 0-2.4 0-6.2-.4-2-3-2-3-1.7-5.1.7-1.9.7-1.9 1.7-3.9"/><path fill="#477d68" d="M71 761h63c-.7.3-1.3.7-2 1v2c-2 .7-4 1.3-6 2v2c-1.1.3-2.3.5-3.4.8L119 770c-.3 1-.7 2-1 3-1.7.9-1.7.9-4 1.5-.8.3-1.6.5-2.5.8-.9.2-1.8.5-2.7.8-.9.2-1.8.5-2.7.8-11.8 3.3-22.9 4.4-35.1 4.1z"/><path fill="#906150" d="M781 369c-1.1 6.8-2.9 13.1-5.1 19.6-.2.8-.5 1.6-.8 2.4-2 5.9-2 5.9-3.1 7-1.6.1-3.1.1-4.7.1h-20.4c-2.4 0-4.8 0-7.2-.1H722c2.8-2.3 5.5-4.5 8.6-6.3l2.1-1.2c.7-.4 1.4-.8 2.1-1.3.8-.4 1.5-.8 2.3-1.3 10.4-6 21.1-11.2 32.1-15.9.8-.3 1.5-.6 2.2-.9 3.5-1.4 5.8-2.1 9.6-2.1"/><path fill="#c7b098" d="M427 750c1 .3 2 .7 3 1 2.5.1 5 .1 7.5.1h2.1c3 0 5.4-.1 8.4-1.1 3.2.9 3.2.9 6 2v-2h4v2c.7-.4 1.3-.7 2-1.1 2.9-.9 4.1-.9 7.1-.5 3.5.5 4.7.5 7.9-.4 1.7.3 3.3.7 5 1 1.3-.3 2.7-.7 4-1 .6.2 1.3.3 1.9.5 2.1.5 2.1.5 4.5 0 2.9-.6 4.8-.1 7.6.5 1-.3 2-.7 3-1 3.2.9 3.2.9 6 2v-2h4v2c.7-.4 1.3-.7 2-1.1 2.9-.9 4.1-.9 7.1-.5 3.4.5 4.7.5 7.9-.4.6.2 1.3.3 1.9.5 2.1.5 2.1.5 4.6 0 2.7-.5 3.9-.1 6.5.5 1.7-.3 3.3-.6 5-1 1 1 1 1 1.1 3.6-.1.8-.1 1.6-.1 2.4h-2v2c-10.6.8-21.1 1.2-31.7 1.2h-24.4c-49.3.2-49.3.2-62.9-6.2.3-1 .7-2 1-3"/><path fill="#9cbe5f" d="M537 609h123c-1.3 2.3-2.6 4.6-4 7h-96c-.3 1-.7 2-1 3v-3h-21v-3h21v-3h-22z"/><path fill="#cec3ae" d="M537 611h22v2h-21v3h21v3h-20c-.3 1-.7 2-1 3v-2c-4.1.5-7.5.9-11 3l-2-2c-2.1-.6-2.1-.6-4-1-.3 1-.7 2-1 3-1-.3-2-.7-3-1v-2c-.7.3-1.5.7-2.2 1-2.8 1-2.8 1-6.8 1v-2c-.5.4-1.1.7-1.6 1.1-3.2 1.2-5.1.6-8.4-.1-2-.3-4-.7-6-1-.3 1-.7 2-1 3v-4h-2.7c-3.4.1-6.8.1-10.3.2h-4.3c-22.3.4-22.3.4-30.7-5.2.3-.7.7-1.3 1-2 30.7.3 61.4.7 93 1z"/><path fill="#f7ab50" d="M71 553c24.2-.6 47.2 1.9 69 13v1c-22.8.3-45.5.7-69 1z"/><path fill="#477d68" d="M692 423c3 1.7 3 1.7 6.1 3.9 6.4 4.5 6.4 4.5 9.9 6.1v2h3v2c.3.1.3.1 1.8.3 2.6.8 3.9 1.9 6 3.7.6.5 1.2 1.1 1.8 1.6.2.3.2.3 1.4 1.4v1h-58c5.4-6.3 10.8-11.6 17-17 .6-.6 1.2-1.2 1.9-1.8 3.1-2.8 4.8-3.8 9.1-3.2"/><path fill="#477e69" d="M678.702 615.88h16.8c4.1 0 8.1 0 12.1.1h36.4c-.3 3.3-.7 6.6-1 10h-73c5.5-10 5.5-10 8.7-10.1"/><path fill="#c83c42" d="M416 969c5.3 2 10.6 4 16 6 0 5.8-6 10.9-9.6 15.2-1.4 1.8-1.4 1.8-3.3 4.9-2.2 3.4-3.6 5-7.1 6.9-7.9 1.2-16 .6-24 0 3.5-4.9 7.2-9.4 11.3-13.8 4.5-4.9 8.8-9.8 12.9-15 1.8-2.2 1.8-2.2 3.8-4.2"/><path fill="#f4aa51" d="M816.326 422.886h6.8c2.5 0 4.9 0 7.4.1h17.5c-3.8 4.5-7.7 8.7-11.9 12.8-2.1 2.2-2.1 2.2-3.2 4-1.5 2.2-2.7 3.7-4.9 5.2-4.7.9-9.2.7-13.9.5-.6-.1-.6-.1-3.8-.1-3.1-.1-6.2-.2-9.3-.4 8.6-21.9 8.6-21.9 15.3-22.1"/><path fill="#477e69" d="M71 738h58c5 9 5 9 5 11H71z"/><path fill="#f5953f" d="M89 590h70c-2 2.3-4 4.6-6 7-2.2 2.8-4.3 5.6-6.5 8.5-2 2.6-4 5.2-6.5 7.5-2.3-1.3-4.6-2.6-7-4v-2h-3v-2h-3c-.2-.3-.2-.3-1-2-2.4-1.2-4.7-2.3-7.2-3.4-.7-.3-1.4-.6-2.2-.9-8.9-3.8-17.9-6.5-27.6-7.7z"/><path fill="#477e69" d="M71 647h53c-2 11-2 11-3 12-1.6.1-3.1.1-4.7.1H95.9c-2.4 0-4.8 0-7.2-.1H71z"/><path fill="#9eb9b3" d="M783 864c3.7 3.3 5.8 6.7 8 11v2c-27.7-.3-55.4-.7-84-1-.7-1.3-1.3-2.6-2-4l-2-2c7.2-1.2 14.3-1.2 21.5-1.2h6.9c6.4-.1 12.9-.1 19.3-.1 4 0 8-.1 11.9-.1h4.5c2.2 0 4.3 0 6.4-.1h3.6c2.9-.5 2.9-.5 4.8-2.5.4-.7.7-1.3 1.1-2"/><path fill="#c73a42" d="M845.317 318.886h6.3c.6 0 .6 0 3.4.1h12c-3.1 8.1-6.8 15.4-11 23h-23c1.9-5.6 3.6-10.7 6.1-16 .5-1.1 1-2.2 1.6-3.4 1.8-3.6 1.8-3.6 4.6-3.7"/><path fill="#d9cdb8" d="M448 738c1 .3 2 .7 3 1 2.6.1 5.2.2 7.8.2h2.4c2.6.1 5.2.1 7.8.1 1.8 0 3.6.1 5.4.1 4.8 0 9.6.1 14.4.1 4.8.1 9.7.1 14.6.2l28.6.3c-.3 2-.7 4-1 6h22c-.3.7-.7 1.3-1 2-.3 0-.3 0-1.7-.1-13.9-.7-27.8-1-41.7-1h-20.9c-5.2 0-10.3 0-15.5.1H442v-1c2-.2 2-.2 12-1-1.5-.7-1.5-.7-9-4z"/><path fill="#dc8058" d="M728.813 406.688c3.6 3.9 4.3 6.8 4.2 12v4.3c-6 .1-11.9.1-17.8.1-2.1 0-4.1 0-6.1.1h-14c-.4 0-.4 0-2.3.1-1.8-.3-1.8-.3-3.8-2.3.9-.5 1.8-1 2.8-1.5q4.95-2.85 9.6-6c18.8-12 18.8-12 27.4-6.8"/><path fill="#477e69" d="M71 693h48c.2 1.8.2 1.8 1 11H71zm0-23h48v11H71z"/><path fill="#f1a952" d="M692 423h41c-.6 5.2-1.3 9.9-2.5 14.9-.3 1.2-.5 2.3-.8 3.4-.7 2.7-.7 2.7-1.7 3.7-2.6.5-2.6.5-6 0-2.2-1.6-4.2-3.4-6.2-5.4-1.8-1.6-1.8-1.6-4.8-2.6v-2h-3v-2c-.5-.1-1.1-.2-1.6-.2-3.3-1.1-5.8-2.9-8.6-4.8-1.1-.7-2.2-1.4-3.3-2.2-.8-.6-1.7-1.2-2.5-1.8z"/><path fill="#873658" d="M821 577c14.5-.5 29.2 1.2 43 6-3 2.5-6 4-9.6 5.4-1.1.4-2.2.9-3.3 1.3-.6.2-.6.2-3.4 1.4-.6.2-.6.2-3.4 1.3-5.4 2.2-10.7 4-16.3 5.6-2.3-6.9-4.6-13.9-7-21"/><path fill="#9cbf5c" d="M559 622c.3 1.3.7 2.6 1 4h74l-3 6h-72v-4h-21v-2h21zm101.322 49.88h14.4c3.4 0 6.8 0 10.2.1h31.1v8h-63c4.5-8 4.5-8 7.3-8.1"/><path fill="#f7ab50" d="M71 806c20.5.3 40.9.7 62 1-17.4 11.6-42.1 10.4-62 10z"/><path fill="#9bb95b" d="M676.134 625.546h2.2c2.4 0 4.8 0 7.1.1h5c4.4 0 8.7 0 13.1.1 4.4 0 8.9 0 13.3.1 8.7 0 17.4.1 26.2.2-.4 1.9-.7 3.9-1 6l-21.8.3c-3.4.1-6.7.2-10.1.2-14.7.3-29.4.5-44.1.5 0-3 0-3 1-5.2 2.9-2.8 5.2-2.3 9.1-2.3"/><path fill="#9dba97" d="M418 698h1v36h-1v-18h-36v-15h36z"/><path fill="#4a3b40" d="M660 609c2-.3 2-.3 4.4-.3h2.5c.9.1 1.8.1 2.7.1.5 0 .5 0 2.7.1 2.3 0 4.5 0 6.7.1-1.8 4.5-3.6 8.8-6 13-.5.9-.9 1.8-1.4 2.7-2 3.3-3.4 5.2-6.6 7.3-6.3 1.2-12.7.6-19 0 3-7.6 5.8-14.5 12-20 .7-1 1.3-2 2-3"/><path fill="#9eb9b3" d="M721.27 880.316h4.2c3.7.1 7.4.1 11.1.2s7.5.1 11.3.1c7.4.1 14.7.2 22.1.4-1.7 3-3.3 5.6-6 8-.1-.2-.1-.2-1-1-1.9-.1-3.8-.1-5.7-.1h-33.6c-7.2 0-14.5.1-21.7.1 4.2-9 10.3-7.9 19.3-7.7"/><path fill="#c33a43" d="M808 837c16.5-.4 32-.5 48 4v2h6c-.3 1-.7 2-1 3-15.8 3.6-30.4 6.1-45.1-2-3-2.1-5.4-4.3-7.9-7"/><path fill="#477e69" d="M743.522 543.865c1 .1 2.1.1 3.1.2.6 0 .6 0 3.4.1 1.2.1 2.4.1 3.6.2.6 0 .6 0 3.6.2 2.9.1 5.8.3 8.8.4-1.1 3.3-2.3 6.5-3.4 9.7-.3.9-.6 1.8-1 2.8l-.9 2.7c-.1.4-.1.4-.9 2.4-.9 2.5-1.8 5-2.8 7.4h-2c-.9-1.6-1.7-3.2-2.5-4.8-.5-.9-1-1.8-1.4-2.8-1.1-2.4-1.1-2.4-1.1-4.4h-18c8-13.9 8-13.9 11.5-14.1"/><path fill="#99ad59" d="M746 609c-.3 2.3-.7 4.6-1 7h-69c1-3.1 1.4-4.1 4-6 2.8-.4 2.8-.4 6.2-.4 1.3-.1 2.5-.1 3.8-.1h4.2c1.4 0 2.9 0 4.3-.1 3.8 0 7.5 0 11.3-.1 3.8 0 7.6 0 11.4-.1 18.3-.2 18.3-.2 24.8-.2"/><path fill="#c73a42" d="M486 1088h63v6h-63zm421.598-585.39h3.3c3.4 0 6.8.1 10.2.1 2.3.1 4.6.1 6.9.1 5.7 0 11.3.1 17 .2-1.4 3.4-2.8 5.2-6 7-2.6.4-2.6.4-5.6.3h-10.8c-3.3 0-6.6-.1-9.8-.1-3.4 0-6.7 0-10.1-.1-6.6 0-13.1 0-19.7-.1 7.8-6.1 14.8-7.6 24.6-7.4"/><path fill="#a2bab3" d="M174 1067c.3 1.3.7 2.6 1 4h18c-2.6 6.3-5.3 12.5-8 19h-31v-1l1.8-.3c6-1.1 10.5-2.8 14.8-7.4 1.8-2.9 2.1-5.3 2.6-8.5.1-.6.1-.6.5-3.3 0-.4 0-.4.3-2.5"/><path fill="#477e69" d="M539 453h52c-.7.3-1.3.7-2 1-.7 1.3-1.3 2.7-2 4-1.1 1.6-2.3 3.2-3.5 4.7l-1.8 2.4C580 467 580 467 578 468c-1.7-.5-1.7-.5-3.8-1.5-.4-.1-.4-.1-2.4-1-.8-.4-1.6-.7-2.5-1.1-9.8-4.3-19.8-8.5-30.3-10.4z"/><path fill="#8f5e50" d="M862 844c8.1 1.2 15.8 4.1 23 8 .2.5.2.5 1 3-12.8 1.6-25.4 1.7-38.1-.3-.8-.1-1.5-.2-2.3-.4-5.4-.9-10.5-2.4-15.6-4.3v-1c.6-.1 1.2-.1 1.9-.2 2.8-.2 5.7-.4 8.5-.7 1-.1 2-.1 3-.2 16.1-1.4 16.1-1.4 18.6-3.9"/><path fill="#c73a42" d="M487 1100h61c-.7 2-1.3 4-2 6h-56zm5.246-24.12h13.9c3.3 0 6.6 0 9.9.1h30c.6 2 1.3 4 2 6h-60c1.1-5.9 1.1-5.9 4.2-6.1"/><path fill="#467d68" d="M715.684 728.886h7.4c1.3 0 2.6 0 4 .1h13.9c.3 3.6.7 7.3 1 11h-31c1.1-10.9 1.1-10.9 4.7-11.1"/><path fill="#c83c42" d="M356.84 1038.432c.5 0 .5 0 3.2.1h3.6c1.2.1 2.4.1 3.6.2h3.7c3 .1 6 .2 9.1.3-1 1.4-1.9 2.8-2.9 4.2q-1.65 2.55-3 5.1c-2 2.3-3 2.7-6.1 3.1-3.6.2-7.2.1-10.9-.1h-3.8l-9.3-.3c.3-.5.7-.9 1.1-1.4.6-.6 1.1-1.2 1.6-1.8s1-1.2 1.6-1.8c1.7-2 1.7-2 3.5-4.7 2.2-2.3 2.2-2.3 5-2.9"/><path fill="#873658" d="M284 1025h38c-3 3-6 4.7-9.8 6.6q-.75.45-1.8.9c-7.1 3.5-12.7 5.3-20.4 3.5-4.5-3.1-4.4-5.2-6-11"/><path fill="#477e69" d="M684 632h58c-1 8-1 8-2 9-2.1.1-4.1.1-6.2.1h-7.9c-1.3 0-2.7 0-4-.1H712c-.3-2.6-.7-5.3-1-8h-27z"/><path fill="#e8dfca" d="M351 708c9.7 2.7 19 6.4 28.4 10.2 1.7.7 3.4 1.3 5.1 2 4.1 1.7 8.2 3.3 12.3 4.9 2 .8 4 1.6 5.9 2.4 5.4 2.1 10.9 4.3 16.3 6.5v7c-10-4-19.8-8.6-29.6-13.2-1.6-.8-3.2-1.6-4.8-2.3-2.3-1.2-4.7-2.3-7.1-3.4-4.3-2.1-8.7-4.1-13-6.1-.9-.5-1.8-.9-2.8-1.3-1.5-.7-3.1-1.5-4.7-2.2-4.9-2.3-4.9-2.3-6-4.5"/><path fill="#f2a750" d="M337 922c1 .3 2 .7 3 1v2c.5.1.5.1 2.9.8 1 .4 2.1.8 3.1 1.2.3 1 .7 2 1 3 2.1.7 2.1.7 4 1v2c1.3.3 2.6.7 4 1v2c.4.1.4.1 2.4.9 2.6 1.1 2.6 1.1 3.6 3.1h-29c3.4-13.5 3.4-13.5 5-18"/><path fill="#8f6050" d="M560 609h100c-1.3 2.3-2.6 4.6-4 7h-96v-1h82c.3-1.3.7-2.6 1-4-13.7-.2-13.7-.2-83-1z"/><path fill="#e85a3a" d="M724 445h28c-.9 4.5-2 7.3-4.1 11.3-.5 1.1-1.1 2.1-1.6 3.3-.4.8-.9 1.6-1.3 2.4-5.9-2.9-10.4-6.3-15-11-1.1-.9-2.2-1.8-3.3-2.8-.9-.7-1.8-1.4-2.7-2.2z"/><path fill="#c83d43" d="M646 400h39c-2 2.3-4 4.6-6 7-.8 1-1.6 2-2.5 3-2.5 2-2.5 2-5.1 1.9-4.3-1.1-8-2.9-12-4.8-1.4-.8-2.9-1.5-4.4-2.2-.3-.2-.3-.2-2.1-1-2.3-1.1-4.6-2-6.9-2.9z"/><path fill="#c73a42" d="M494 1112h47c-4 5-4 5-6 6-4.8.3-9.5.3-14.3.4h-4.8c-2.3.1-4.6.1-6.8.1-.8 0-1.5.1-2.2.1-5.8 0-8.6-2-12.9-5.6zm21.348-48.35c1.6 0 3.2 0 4.8-.1 2.3 0 4.6-.1 6.9-.1h2.1c4 0 6.4.6 9.3 3 2.6 2.6 2.6 2.6 2.6 3.6h-46c6-7.6 11.3-6.3 20.3-6.4"/><path fill="#e85b3a" d="M800 444c4.6.2 4.6.2 28 1-6.8 8-6.8 8-9.5 8.2-.5 0-.5 0-3.3.1-.6 0-.6 0-3.5.1-1.3.1-2.5.1-3.8.2-.6 0-.6 0-3.7.1s-6.1.2-9.2.3c1.4-3.7 2.9-6.5 5-10"/><path fill="#c73a42" d="M962.954 444.092c1.1 0 2.1.1 3.2.1 1.2.1 2.3.1 3.5.1.6 0 .6 0 3.7.2.6 0 .6 0 3.6.1 3.1.1 6 .2 9 .4-.9 2.6-1.9 5.3-3 8h-28c5-8 5-8 8-8.9"/><path fill="#c33a43" d="M816 805c9 2.1 17.4 5.4 26 9-6.3 3.8-13.9 3.1-20.9 3.1-.9 0-1.8 0-2.7-.1H812c.7-4.6 1.8-7.9 4-12"/><path fill="#c73a42" d="M938.689 473.319c1.4 0 2.8 0 4.2.1h2.3c2.4.1 4.7.1 7.1.2 1.6 0 3.3.1 4.9.1l11.8.3c-1 2-2 3.9-3 6h-36c5-6 5-6 8.7-6.7"/><path fill="#e8dfcb" d="M419 630v6c-.9.3-1.8.7-2.7 1l-9.9 3.9c-1.4.5-2.8 1-4.3 1.6-2 .8-4.1 1.6-6.1 2.4-.7.2-1.4.5-2.1.8-5.2 2-10.4 4.2-15.6 6.5-2.3.8-2.3.8-5.3-.2 2.5-2.9 5.3-4.3 8.7-5.9.6-.3.6-.3 3.5-1.7 1.2-.6 2.5-1.1 3.7-1.7 1.1-.6 2.3-1.1 3.5-1.7 3.5-1.7 7.1-3.3 10.6-5 1.2-.6 2.5-1.2 3.7-1.8 1.1-.5 2.3-1.1 3.5-1.6 1-.5 2.1-1 3.2-1.5 2.6-1.1 2.6-1.1 5.6-1.1"/><path fill="#f7ab50" d="M733 423h29c-1 5-1 5-2 7h-28c.3-2.3.7-4.6 1-7"/><path fill="#873658" d="M901 824h37c-3 5-3 5-4.9 5.6-.3 0-.3 0-2.1.1h-5c-.5 0-.5 0-2.7.1h-8.5c-1.9 0-3.8.1-5.7.1-4.7.1-9.4.1-14.1.1 1.4-1.5 1.4-1.5 3-3h2c.3-1 .7-2 1-3"/><path fill="#f4a74f" d="M139 758c4.3 3 7.4 6.5 10 11v2h-26c3-5 3-5 6-7h3v-2c2.3-1.3 4.6-2.6 7-4"/><path fill="#477e69" d="M715 664h24c-.3 2.6-.7 5.3-1 8h-22c-.3-2.6-.7-5.3-1-8"/><path fill="#dbcfbc" d="M431 673v12h-25c4.2-3.1 8.4-5.4 13.1-7.7l2.4-1.2 2.4-1.2c.7-.4 1.4-.8 2.2-1.1 1.9-.8 1.9-.8 4.9-.8"/><path fill="#9dba9c" d="M506 764h20v9h-20z"/><path fill="#e6ab5a" d="M258 430h107c-3.1 2-3.6 2.2-7.1 2.2h-2.5c-.4 0-.4 0-2.7-.1h-2.9c-3.2 0-6.4-.1-9.5-.1-2.2 0-4.4-.1-6.6-.1-5.8-.1-11.6-.1-17.3-.2-5.9-.1-11.8-.2-17.7-.2-11.6-.2-23.1-.3-34.7-.5 0 1 0 1.9.1 2.9-.1 3.1-.1 3.1-1.1 4.1-2.4.2-2.4.2-5 0l-2-2c.4-2.3 1-4 2-6"/><path fill="#477e69" d="M362 939h26c-2.4 4.9-5.2 7.5-10 10-5.9-.4-11.5-5.4-16-9z"/><path fill="#f6a74d" d="M730 439h25c-.7 2-1.3 4-2 6h-25c.7-2 1.3-4 2-6"/><path fill="#e7a858" d="M711 935c1 .3 2 .7 3 1l-2 2c42.2.3 84.5.7 128 1v1H706c.3-.7.7-1.3 1-2h3c.3-1 .7-2 1-3"/><path fill="#dc8058" d="M778 336c2.4 1.9 2.4 1.9 4 4v2h-27c5.6-5.6 15.4-8.6 23-6"/><path fill="#dcceba" d="M615 524v5h-43v-1c5.6-.6 11.3-1.1 16.9-1.7 1.9-.2 3.9-.4 5.8-.6 2.7-.3 5.5-.5 8.3-.8.8-.1 1.7-.2 2.6-.3.8-.1 1.6-.2 2.4-.2.7-.1 1.4-.2 2.1-.2 1.6-.2 3.3-.2 4.9-.2"/><path fill="#f2a64f" d="M127 603h20c-1.8 3.6-3.8 6.7-6 10-2.6-1.3-5.3-2.6-8-4v-2h-3v-2h-3z"/></svg>