<svg xmlns="http://www.w3.org/2000/svg" viewBox="0 0 1067 1600"><path fill="#493b40" d="m830.5 190 3 1h79l2.5-1-.5 3h-86l-2.5-.5zm-63 82h91l.5 2.5-2 5 .5 2.5h26l.5 1.5-3 7.5-153-.5 7.5-8.5h21zm-39 39 117.5.5-4.5 8.5h-120l-.5-1.5zm-29 31 83 1 1-1h48l22 2 1.5-.5-13 27.5h-23.5l-.5 1.5-13 26.5h-30.5l-1-1-1 1h-87l-35.5-.5 23-27-15-1 23.5-27.5h17zm78.5 27q-31 11-56 29h50l9-26q1-5-3-3m196.5-27 4 1 1-1H997l-.5 57h-2l-12 1-1-1h-103l-3 1 4-5q41.2-32.8 95-53m22 81 .5 22.5-1.5-.5q-8.6 2.2-7.5-2.5l6-18.5zm-154 7h125l.5 1.5-5.5 7.5h-127l-.5-1.5zm-394 15h53l36.5 7.5-125.5.5v-1zm149 0 65.5.5-65.5.5zm231 0 130.5.5-6.5 7.5-130.5-.5 3-1.5zm156 8 11 2 1-2 .5 3-14-.5zm-6.5 13h18.5l.5.5V652q-23.3 14-56.5 19l-13 1H738q3.4-73.9 28.5-127h39l2.5 1 4 10 2.5 1h20l25-4 34 14q27.5-17 47.5-41.5l11-15.5h38.5l.5-3.5 3-23 2-5v-2l-1.5-1.5-1-1H975zM822 577l5 18 3 2q19-5 34-13-17-8-42-7m121 26 7 11 4 1 6-11zM760.5 480l11.5 13.5-6 10.5h-18.5l-.5-1.5zm22.5 29 4 2.5 9 14-21 .5zm-61.5 36h16l1 1 1.5-.5-40.5 63.5h-18l-.5-1.5zm-463 9q25.2.8 43 9 30.5 13 50.5 36.5 17.6 19.4 26 48L328 671l.5 2h53l-3 4-5 2H297q-3.2-35.5-25.5-53-13.8-12.4-33.5-18l8-27.5 4-7v-2l4-10.5 2-.5-.5-1.5 1.5-.5-.5-1.5 1.5-.5zm402 55 17 2 1-2 .5 1.5-14 21 1.5 1.5 17.5.5-26.5 38.5-18.5-.5 25-38-1.5-1.5H646l8.5-16 2.5-1.5zm-521 6 9.5 7.5 5 8.5 2 1.5v2q-10.6 12.9-16 31-3.5 12.5-2 30 4 26.5 19 42l-2 .5v3l-2 1.5-1 2.5-2 1.5-10.5 9.5-1-2 2 1q5-2.5 0-5l-5.5-1.5-5-10 1.5-.5 4 5 .5-1.5q-14.5-24.5-15-63l2-3v-7l5-22 7-16-2 1-2.5 4.5-1.5-.5 5.5-11.5 2.5.5.5 2.5 5.5-8.5zm490 40-.5 1.5-5.5 8.5.5-1.5zm-510 19 .5 6.5h-1zm783 6h85l.5 1.5 3.5-.5 4 1 1-2 .5 9.5h-1l-.5-1.5-5 2h-76zM298 691h74.5q6.6.9 9.5 5.5l-.5 1.5h-53l1 2 48.5 22q-11.7 42-42.5 66-26.4 24.1-72 29l-4-1-2.5 1-1-2.5.5-1.5-1.5-.5.5-1.5q-2.6.8-1.5-2.5l-3-4q2.5-1.5-1-3l-1-2q2.5-1.5-1-3l-1-2q2.5-1.5-1-3l-8-26 .5-2.5q26.5-7.5 41.5-26.5 15.4-17 18-45.5m323.5 7 18.5.5-32 47.5-20-.5zm116.5 0h102.5l1 5h25l8-5h57q40.3 3.2 65.5 21.5V870h-55.5l-1-1h-27l-1-1h-2l-34-20-38-11h-2l-27-2-8.5 1-16.5 28-17.5-34.5v-2l-1-2 32-1-34-.5-11-35h68.5l.5 1.5-11 27.5h17.5l1 1 1.5-.5 1 2-1 2.5q-19.6-2.2-33 2.5l1 3.5 5.5 1h37l16 6h18l1-1h2l14-5h2l39-1 2.5-1q-1.5-3.7 1.5-3v-1l-41-1-21.5-16.5.5-1.5 1.5.5 1.5-1.5 13.5-6.5-1.5-2.5-9-3h-2l-5-1-1.5.5-1.5-1.5-7 1-2.5-1-.5 2h-2l-7 1-5-3-1.5-.5 3.5-.5h2l10 1 11-1h123l.5-.5V779h-16.5l-1-1h-228l-1.5-1.5-4-18.5h196.5l3.5-2.5 6-9.5H743.5l-.5-2.5-3-15zm-143.5 9-1.5 2.5-2.5 3.5 1.5-2.5zm-7 10-1.5 2.5-2.5 3.5 1.5-2.5zm-14 20-2.5 3.5-3.5 5.5-12.5-.5 13-.5zm-16 21 .5 1.5-4.5 5.5 1.5-2.5zm23 0 17.5.5-43.5 60.5q-9.3.7-14.5 5.5l1.5 2.5 5.5 2.5-71 93 250 2-19.5 14.5-244 1-1.5 1.5-12.5 15.5h-20l-.5-1.5q78.6-94.9 150.5-196.5zm-34 16-1.5 2.5-2.5 3.5 1.5-2.5zm-26 35-2.5 3.5-3.5 4.5 2.5-3.5z" opacity=".996"/><path fill="#493b40" d="m637.5 823 107.5.5-107.5.5zm-.5 7 103 .5-102 .5-.5 4zm309.5 47h50l.5 3h-49.5l-.5-1.5zM934 887h63v35h-45.5l-1-1h-90l-3.5 2.5-1 3 3.5 4.5h97l1-1H997v72h-7v-3.5l-4-15.5h-95.5l-2.5-1-1.5-2-2.5-1-1.5-2-2.5-1-1.5-2-1-2h104l.5-1.5-17-29.5-2.5-1h-121l-2.5-1-10-11.5.5-1.5-5.5-4.5-5-6 .5-1.5-4.5-3.5.5-1.5-2.5-1.5 119-1-23-16 26-1zm-490.5 18-6.5 7.5-38.5 43.5h-9l-11.5-6 1.5-2 8.5-7.5-.5-1.5h-26L342 924.5l64.5-1.5 16-16h19zm256 68 3.5 1.5 1 5-2.5 3.5-2.5-.5 1-8zm-250 29 3.5 1q1.5 5.4-1.5 7l-5.5-2.5 1.5-4.5zm-203 18 7 5H284l4.5 10 9 2q15.2-3.3 25-12h44v1l-1.5 1.5-10.5 11.5h-103l-6.5-4.5-2-9zm747.5 5 3 .5v11l-2-1zm-780 47 109 .5-17.5 16.5h-97l.5-1.5zm132.5 138h26q8.4 2.2 12.5 8.5 4.9 12.1 3 31l-1.5 1.5H363v-19.5l-1.5-.5-4-1-1.5 1.5v63l5.5 1.5 1.5-1.5V1277l-3-.5V1257h28v42.5q-1.3 9.2-7.5 13.5-10.7 6.2-30 4-11.8-.7-16.5-8.5l-3-9v-73l6.5-12.5zm423 0h26l10.5 5.5 5 12v72q-1.3 9.2-7.5 13.5-10.7 6.2-30 4-11.8-.7-16.5-8.5l-3-9v-73l6.5-12.5zm11.5 20-2 2v63l6 1 1-1v-64zm-660-19 31 .5q-2.5 1.5 1 3l6.5 8.5q4.9 3.3 13.5 2v7h-12.5l-1.5 1.5v82.5h-25v-83.5l-.5-.5H121zm81.5 0h2l4.5.5v40l5.5.5.5-2.5V1211h26v104.5l-.5.5h-24l-1.5-1.5v-39l-.5-2.5-5.5 1.5v41.5h-25v-94.5l1.5-.5 11.5-5 1.5-2 3.5-1zm50.5 0h45v21h-18.5l-1.5 1.5v17l1.5 1.5H297v21h-17.5l-1.5 1.5v19.5h20v22h-45zm147 0h41.5q7.7 1.8 11.5 7.5l3 7v31l-5.5 8.5-4.5 2.5 8 5 2 4v39.5h-25v-37.5l-6-.5v38h-25zm25 21v25l2 1 4-1v-24zm54-21h32.5l.5 1.5 14 103.5h-25v-9.5l-1-3.5h-12v11.5l-1.5 1.5H466zm16 31-2 5q1 19-3 34 2 3 8 1zm41-31h23.5l.5 1.5 8.5 33.5.5-35h20.5l.5.5V1316h-22.5l-.5-1.5-10.5-39.5-.5 41h-19.5l-.5-.5zm67 0h38.5q9.3 1.8 13.5 8.5l4 11v66q-1.5 9.5-7.5 14.5l-13 5H603zm25 20v64h5l1-1v-60q-1-4-6-3m63-20h52v21h-12.5l-.5.5v83.5h-24.5l-1.5-1.5v-80l-.5-2.5H691zm132 0h24.5l.5.5v83l6 1.5v-84.5l.5-.5H879v90.5q-2.1 8.4-8.5 12.5-10.4 5.1-28 3-11.8-.7-16.5-8.5l-3-9zm69 0h41.5l10.5 6.5 4 11v26q-1.4 8.1-7.5 11.5l-3.5 1.5 9 6 2 5v37.5h-25v-36.5l-6-1.5v38h-25zm25 21v26h4l2-2v-22zm-160 127q3-1.2 2 2.5l5 17v9h-1zm30 0h3v7.5l3 15-1.5 7.5zm6.5 0q4.6-1.3 2.5 4.5l3 21-1.5 4.5zm24.5 0 2 .5v31l-2 .5zm5.5 0q4.2 2.8 2.5 11.5-5.5 2.5-1 5l2 9-2 5.5-2-.5 1-1v-13q-3.5-1.5-1-3l1-11zm11 0 .5 3.5-1 1v22l1 4-2-1-1-24zm4 0 2.5 5.5 1 13q.2 8.2-3.5 12.5l-.5-1.5 1-1v-26zm25.5 0 2 .5v31.5l-2-.5zm5.5 0q4.2 2.8 2.5 11.5l-3 2 1-11zm10.5 0 2 .5v31.5l-2-.5zm5.5 0q5.3 7.8 3.5 22.5l-3.5 8.5.5-1.5v-27zm9.5 0 3 .5v31.5l-3-.5zm11 0q3-1.2 2 2.5l5 17v9h-1zm-132.5 1 .5 29.5h-1q-3.8-8.7-2-23zm5 0q4.3 7.8 2.5 21.5l-2.5 8.5zm74 0 3.5 31q-3 1.3-2-2.5l-3-25zm70 0 .5 29.5h-1q-3.7-8.3-2-22zm-289 1 6 2 2-1 4 2 6.5 5.5 1 6-5.5 7.5-4 2q-1.5-2.5-3 1l-6-1-5 1-7.5-3.5-1.5-1.5-3.5-4.5 1-4-1-2 4.5-5.5 4-2q1.5 2.5 3-1l2 1zm-6.5 7-4 2-1 2 1 1v8l4-1zm2 0v3l7 2-6 7q-1 3 4 1l3-6v-7zm10 0 1 6v-2q5 1 7-1v-3zm3 5v1q3-1 1 4-2-4-5 1 2 4 4 1l2 1 2-1 1-5zm227.5 2 1.5 1.5 1 1v13l-2-1q1.1-11.2-.5-14.5m57 2 2.5.5v11l-2-1z" opacity=".996"/><path fill="#d2463f" d="M900.5 149q9.9.6 13.5 7.5 5.3 9.8 3 27l-1 6.5-2.5-1-1 1h-82l1-2 42-30q11-7 27-9m-76 45 3 1h85l2.5-1q-9.8 42.3-26 78h-26.5l-1-1-1.5.5q7.1-16.4 6-41-1.6-8.9-8.5-12.5l-13-1q-17.8 5.7-31 16L768 270l-.5 2-2-1-1 1h-19l13.5-14.5 32.5-33.5zm-453 54 5.5 3.5-1 5.5-5.5 1q-3.7-1.2-2.5-7.5zm-127 44 480.5.5-15.5 17.5-1-1-476.5-.5 8-6zm138 27 5.5.5-2 1 3.5.5 5-1q19.7 5.3 30.5 19.5l1.5 2.5q2.6-.8 1.5 2.5 9.4 11.6 9 33l-2 4q2.5 1.5-1 3l1 2-3 5q-5.5 13.5-16.5 21.5-12.8 12.2-40 10-22.5-4.5-33.5-20.5l-3-5 .5-1.5-2.5-1.5-4-14 1-1v-16l-1-4 5.5-12.5 1.5-.5v-2l13.5-15.5q10-8 27-9l3 1v-1zm-2.5 18-16 6q-12 8-15 26 0 16 8 25t23 12q17 1 26-7 11-8 13-25 0-17-9-25-9-13-30-12m321.5-18h15l1 1 2-1v1l-1.5 1.5-16.5 18.5-1.5 1.5-1.5-.5-16 1 2.5-3.5zm142 0h2l22.5.5-12.5 22.5-1-1h-19l-2.5 1 8-17.5V321q2.8 1 2.5-2m-74 17q8-1 10.5 3.5l-.5 1.5h-21v-1zm2.5 1-8 2v1h14zm-439.5 27 .5 14.5h-1zm315 36 33 1 1-1h91l1 1h31l1-1h20l2 1 1-1h41q2 4 4 0l4 1 1-1h103l13 1 2.5-1-.5 23-2-1-1 1h-144l-2.5-.5 9.5-10.5 11.5-9.5-42-.5-10.5 19-3.5 2.5-11 21.5h25.5l.5 1.5-6.5 6.5H795l-22 39-2-.5 1-1-5.5-5.5q-2.6.8-1.5-2.5l-5-4 2-.5 29-55-55.5-1-2 1v-2q-3.2.4-1.5-7.5l-4.5-6.5-8-1q-17 5-28 16l-13.5-7.5-.5-1.5h-2l-26-11zm-527 45 222.5.5-3.5 4.5-5 3h-214l1.5-2.5z" opacity=".996"/><path fill="#d2463f" d="M725 445q8.6 2.6 23.5 1l3.5-1-3.5 8-11-1-4 1-8.5-6zm235.5 0h22l1 1 2-1-.5 1.5-2.5 6.5h-24l-1-1-2 1 3.5-4.5zm-8 11 26.5.5-26.5.5zm-105 9 129.5.5-129.5.5zm90 9h28l1 1 2-1v1q-2.6-.8-1.5 2.5l-1.5 2.5h-32l-1-1-2 1 3-4zm-39 29h44l1 1 1.5-.5-3.5 3.5-5 3h-48q-3-1.5 0-3zm-8 20q5.3-1.2 6.5 1.5l-1.5-.5-6 1zm-181 4h19l1.5 1.5-.5 2.5h-19l-1-1-2 1 .5-1.5zm25 0h13l1 1 2-1-.5 1.5-1.5 2.5q-11.5 2.5-15.5-2.5zm-194 6q4.5 2 1 4l-3.5-1.5zm26 0 2.5 1.5-1.5 3.5-2.5-1.5zm137 7h17l1 1 1.5-.5-1.5 3.5h-19l-1-1-1.5.5 1.5-2.5zm-464 14 17.5.5-13 28q2.5 1.5-1 3l-1 2-1 5-1 2 1 1-3 7-1 2v2l-6 27-3 23-1 44q1.3 34.7 10 62v2l1 2v2l1 2-1 1 3 7 1 2-1 1 4 8 11 27.5-21-.5 2-1-2.5-.5-6 1v-2l-5 1q-46.1-11.4-72.5-42.5l-8-12.5-4-2.5 13-11q-1.1-3.3 1.5-2.5l1.5-4 2-1.5q9.1-13.4 14-31 3-13 2-30-1.2-15.3-6-27l-9-18.5h-2l-2-5.5-4-2.5q.8-5.5-4.5-7l-6.5-4.5q2.5 1.8 5-3l13.5-17.5 8.5-6.5.5-1.5 1.5.5 2.5-3.5q18.1-15.4 45-22l1.5.5q-.8-2.6 2.5-1.5l1.5.5q-.9-3 3.5-1.5l5-1 2 1v-2l9 1v-1zm-124 43 6.5 3.5-1.5-.5zm394 21 2.5 1.5q1.3 3.8-2.5 2.5l-1.5-2.5zm207 63q2.8 1.3 1.5 6.5l-2 1zm177 1 1.5.5-7.5 6.5-.5-1.5zm-626 1 2.5 1.5q1.3 3.8-2.5 2.5l-1.5-2.5zm25.5 0 4 1.5-1.5 2.5-3.5-1.5zm27 0q3.7-1.5 3 1.5l-.5 2.5q-4.6 1.2-2.5-4m27.5 0 2.5 1.5q1.2 4.6-4 2.5zM555 747l8.5 1 2-1v1l-1.5 1.5-4.5 7.5-2-1-2.5 1-.5-2-5 1v-1q4.4 1.5 3.5-1.5zm32.5 0 1 1h19l1-1h134l1 1h204l2-1-1 2-3 3-4 5-1-1h-195l-1 1h-146l-1-1h-15l-2 1v-1l1.5-1.5zm-132 3 2.5 1.5q1.2 4.6-4 2.5zm26 0q3.3-1.1 2.5 1.5 2.7 1.8-1.5 3.5l-2.5-3.5zm27 0 2.5 1.5q1.2 4.6-4 2.5zm26 0q3.3-1.1 2.5 1.5 2.8 1.8-1.5 3.5l-2.5-3.5zm-1 26 2.5 11.5q-2.2 5.8-12.5 3.5v-1h9l.5-1.5 2-4zm-449 4 5.5.5-5.5.5zm740.5 2 18 7.5-18.5.5-.5-2.5zm-7.5 23 24.5 9.5-11.5 2.5-1-1h-15l-2 1v-1l1.5-1.5q-2.5-1.5 1-3zm-241 18 2.5 1-1.5 3q-3.7 1.3-2.5-2.5zm26 0 2.5 1.5-1.5 3.5-2.5-1.5zm206 14 4 1 4-1 12 1h2l6 1h2l3 1h2l3 1h2l2 1h2l2 1 4.5.5.5 1.5 2-1-1 2q-13.2 4.3-32 3l-17.5-9-.5-2q-1.8 2.5-2-1m-114 33q9-1.5 11.5 3.5l1 8-2 3.5q-2.2 3-9.5 2l-4.5-3.5-1-9zm-398 11 7.5 10.5q-46.1 74.9-82.5 159.5l-18.5-.5 61-116zm28 31 11.5 9-1.5 2-10-9-19.5 39.5q-9.3 20.2-15 44l-2.5 3.5.5-1.5q13.2-48.8 36.5-87.5m-176 6q3.3 1.8 1.5 8.5h-1zm268 51q6.3 5 15.5 6v2.5l-20.5 24.5-23.5-.5 26-30.5q2.8 1 2.5-2m286 3h173l14.5 11.5-187.5.5 1.5-2.5 1-5zm-348 67 2 1 1-1h22l-5.5 6.5-4.5 5.5-25.5-.5zm203 23 4 2h231l1-1H997l-.5 9-1-1h-193l-2.5 1-.5-2-1 1h-172l-1 1h-2q-4.7-.7-5.5 2.5l-1 3 3.5 4.5 4 1h181l1 1 1-2 1 1h187l1.5-.5q.9 7.1-.5 7.5H567q-1.4-18.1-9.5-28m-54 2h29l8.5 5.5-1.5.5h-41l-1-1-2 1 2-3zm-11 12h51l1 1 1.5-.5 2 5-2.5.5h-55l-1-1-1.5.5 2.5-4.5zm-6 12h60l1 1 1.5-.5v2l-1 2 .5 1.5h-60l-1-1-1.5.5v-2l1-2zm-301.5 1h19.5l1 1 1.5-.5-8 32v19q2.1 7.9 8.5 11.5l11 1q18.6-4.4 31-15l56.5-47 .5-2h2l26.5.5-64.5 66.5-46 40-20 14H202l-.5 2-1.5-.5-3 3h-2l-.5 1.5-1.5-.5-.5 1.5-1.5-.5-.5 1.5-1.5-.5-.5 1.5-1.5-.5-1.5 1.5-10 4h-4l-8-1-1.5.5-.5-1.5-1.5.5-.5-1.5q-2.2 3.2-4.5-2.5l.5-1.5-1.5-1.5-2-4-1-3v-2l1-21 7-29q11.4-35.8 26-67.5m302.5 11 2 1 1-1h55l2.5.5-1 4.5-3.5 1h-51l-3.5-2.5q1.1-3.3-1.5-2.5zm7 12 2 1 1-1h42l1.5.5-8.5 5.5h-29q-7.8-1.7-9-6m-104 69 6.5 4.5q1 6.5-3.5 7.5l-3 1-4.5-2.5-1-6 2.5-3.5zm-.5 2q-4 1-3 7l4 2 3-1 1-2-1-5zm30.5-2 3.5 1.5-7 3 1.5 5.5q6.9-2 5.5 2l-3.5 1-5.5-3.5q-1.5-7 2.5-8.5zm200 0 4.5 2.5q-6.3-.8-8 3l1 4.5q7.3 2.3 6-2-3 1-2-2 5.6-2.2 4 3.5-1.2 3.8-7.5 2.5l-2.5-1-1-6.5 2.5-3.5zm-258.5 1q3.8-1.5 3 1.5l4 9.5q-1.7-2.7-7.5-2l-2.5 1.5zm2 3-2 2q-1 4 3 2zm37-3q3.7-1.5 3 1.5l3.5 4.5 1.5-.5-1-5.5 2 .5v10.5l-3-1.5-3.5-4.5-1.5.5 1 5.5-2-.5zm28 0 7 .5-5 2q-.8 3.4 4 1.5v2l-3.5-1-.5 4q6.2-2 5 2h-7zm24 0 2 .5v10.5l-2-.5zm7 0 4 1.5 2 4.5h2q-2.3-7.3 2-6v10.5l-3 .5-3.5-6q-3-.4-1.5 6h-2zm30.5 0 2.5 1.5 3 9.5q-3.1.8-2.5-2H488q1 3-2 2zm-.5 2-1 5h4l-1-2q1-4-2-3m23-2 2 .5v8.5q6.3-2 5 2h-7zm12 0 2 .5v10.5l-2-.5zm7 0 6 .5-4 .5v3q4.1-1.3 3 2h-3q2 6.3-2 5zm11 0 7 .5-5 .5v3q5.2-1.7 4 2-5.6-1.9-4 3 6.3-2 5 2h-7zm11.5 0 8.5.5-3 2q2 9.5-2 8.5 2.3-7.7-1.5-10zm12.5 0 2 .5v10.5l-2-.5zm7 0 4 1.5 2.5 5.5 4-7 2.5.5v10.5h-2q1.5-6.4-1.5-6l-3 4-3-6-1.5 8-2-.5zm17 0 7 .5-5 2 .5 3.5.5-2q4.1-1.3 3 2l-4 1.5q-.8 3.8 5 1.5v2h-7zm40 0 7 .5-6 2q-.9 3 3.5 1.5l1 2-4.5 1.5q-.9 3.4 4.5 1.5l1 2H631zm11.5 0 7.5.5-3 2q2 9.5-2 8.5v-9.5l-2.5-.5zm14.5 0 3 1.5 4 9-1.5.5q-1-3-6-2l-3 2 .5-1.5zm2 2-2 3q-1 4 3 2zm7.5-2 2.5 1.5 1.5 6.5 3-5 1.5 2.5-2 1 4 .5 1-7 3 .5-4.5 10.5-2.5-1.5-.5-1.5-2 3-2.5-1.5zm20.5 0 3 1.5 4 9-1.5.5q-1-3-6-2l-3 2 .5-1.5zm2 2-2 3q-1 4 3 2zm7.5-2q3.3-1.1 2.5 1.5l3 1.5 1.5-3 1.5.5q-4.5 2.8-3 10.5-4 1.4-2-5.5zm-574 151 824.5.5-824.5.5zm440 16 2 5h149l.5.5v39.5H564.5l-1.5 1.5-.5 2.5-10.5-25.5zm71.5 11-2 1h-2l-2 1h-2l-5 2-3 6q-4 1-1 3l-1 2v2l2 4 7 3q1 3 3 1l2 1h2l3 1 2-1 3 1 7-3 1-1 4-3 1-4 1-3-3-6-9-5h-2zm-66 9-1 3 1 8q8 3 6-3h-4l3-1q2-4-2-3v-1q4 1 3-1zm9 0-2 2 6 9 4-8v-3l-3 1-1 4-2-4zm10 0v11h6q2-4-3-3v-1q4 1 2-3h-3l4-1q2-6-6-3m10 0q-4 2-2 10l3 1 1-3 4 3-1-3 1-5q-1-4-6-3m7 0 3 7q-2 5 2 4l3-11-3 2zm56 0-2 2 5 9 2-7q4-2 1-4l-3 1v2l-1-2zm9 0v11h6q2-4-3-3v-1q4 1 2-3h-3l4-1q2-6-6-3m13 0-5 9 2 2 5-2q1 4 3 1zm8 0-2 2q-2 7 2 9l2-3 4 3-1-3 1-5q-1-4-6-3m10 0-2 5 3 1 1 2q-5-2-4 2l5 1 2-4-3-3v-1q3 1 2-1z" opacity=".996"/><path fill="#f5a64c" d="m373.5 248 3.5 2.5-2.5-1.5zm342 53 1.5 1.5-6.5 6.5zm-486 8 479.5.5-479.5.5zm165 9 5 1h299l2.5.5-19.5 22.5h-255l-1.5-1.5-7.5-8.5q-9.9-9.6-27-12l-4 1v-1zm476 0 1 1H998l-.5 16-2-1-14 6q-1.5-2.5-3 1l-3 1h-119l1.5-2.5 10.5-20.5zm-493 1 6.5 1.5-2.5.5zm-26 11 1 2-1-1-8.5 8.5.5 1.5-1.5-1.5zm424 6 6.5 4.5-.5 1.5h-26l1-2 5-2v1l-3.5 1.5 22 .5-2.5-4z" opacity=".996"/><path fill="#f5a64c" d="m771.5 337 6.5 2.5-14.5.5v-1zm-432 7v3l-1.5.5.5 1.5-.5-2.5zm-7 17 1.5 2.5v16l-1.5 2.5-.5-2.5 1-1v-14zm17 7 .5 6.5h-1zm-11 26v2l1.5.5-.5 2.5-2.5-3.5zm488 6 1.5.5-2 1 42 1-20 18 .5 1.5 1.5-.5-3.5 1.5h-33l-1 1 2-3 2.5-1.5 9-17zm44 0 2.5.5-4 3zm127 0 .5 22.5h-1zm-654 2q-.1 4.5 7 9l2.5.5-1.5 1.5-8.5-8.5zm80 1 1.5 1.5-7.5 7.5q-3-1.5 0-3 2.2 3.3 4.5-2.5-2.8-1.7 1.5-3.5m296 3q8.3-1.3 10.5 3.5 3.3 3.9 2 11.5l2 .5-.5 1.5 2-1h24l2.5 1.5-2 4-5 10q2.5 1.5-1 3l-1 4.5q-8.6 2.6-23.5 1l-.5-2.5 1-4.5h-14.5l-11.5-8.5 28-.5 1-7h-41.5l-2.5-1.5 1.5-.5 1 1 4-4zm-47 6 4 2 1.5-.5.5 1.5 1.5-.5-2.5.5zm-291 11 5.5.5-5.5.5zm-119 7 101.5.5-11.5 8.5h-90l1.5-2.5q.6-5.5-1.5-6.5m547 0 31.5.5-8.5 8.5h-28l-1 1 1.5-2.5zm-72 22 10.5 1-4 7.5.5 1.5-10.5-8.5zm108 5h152l.5 9h-20.5l-1-1h-129l-2 1 1.5-2.5 1-2zm43 67h2l6 1h2l1.5 1.5 3 1.5 2 4.5-1 4v2l-1 4.5-4.5 2q-1.7 2.8-7 2l-4-2-3.5-1-3-6.5 1-3v-2l1-4.5 3.5-2zm-348 8 2 3q-2.2-3.8-4.5-.5zm-2 4 3 1 1.5-.5-3.5 1.5zM71 553q23.9-1.6 42.5 3 21.1 5.6 37.5 15v2h3v2h3v2h3l1.5 2 3.5 2q-1.2 3 2.5 2l2.5.5h-2l-.5 1.5-1.5-.5-3.5 4.5-10.5 8.5-11.5 15.5q-15.2-14.8-39-21h-2q-12.1-3.6-28.5-2zm174.5 0 11.5.5-11.5.5zm-11 1 6.5 1.5-2.5.5zm-7 1 4.5 1.5-1.5.5zm282 62 3.5 2.5-.5 1.5-2-3-3 2zm207 63 182.5.5-3 .5-2.5 4 1-3-7.5 5.5-.5 2.5h-170l1.5-2.5q.8-6.2-1.5-7.5m-447 3 1.5 3.5-3.5 1.5-2-3 4.5 2zm33 0 3.5 1.5-1.5 3.5-3.5-1.5zm47 0 1.5 3.5-3.5 1.5v-1q3.8 1.3 2.5-2.5zm5.5 0q4.8-1.9 4 1.5 2.8 1.7-1.5 3.5l-3.5-1.5zm-35.5 1 .5 3 3.5-1-1 2-3.5-1.5zm-27 2 3 1 1.5-.5-3.5 1.5zM553 746q3.7-1.4 2 4.5l-2 4.5-4 .5 4.5.5 1.5-.5q.5 3-6.5 1.5h-2l-1.5-.5.5-1.5-3.5-1.5 1.5-3.5 3.5 1.5.5 2.5.5-2 2-1.5 1-2.5q3 1 2-2m-97.5 3 2.5 1.5-1.5-.5-2 1zm53 0 2.5 1.5-1.5-.5-2 1zm-18 1 3.5 1.5-1.5 3.5-3.5-1.5zm-37 2 .5 2q4.8 1.9 4-1.5h1l-1.5 2.5-4.5-1.5zm53 0 .5 2q4.8 1.9 4-1.5h1l-1.5 2.5-4.5-1.5zm-367 6 3.5 2q6.8 13.5 18.5 23l5 4 1.5-.5-13 8.5q1.3 3-2.5 2l-2.5 1q1.3 3-2.5 2-13.4 9.6-32 14h-2q-17.6 5.6-42.5 3v-36h18.5q10.3-.2 16-5l2 1q18.1-7.4 32-19m394 15 1.5 5.5h-1l-.5-2.5-.5 3.5 2 7-2 3 3-2 .5-3.5.5 3.5-3 4.5h-13.5l-.5-1.5zm-9.5 17v1h9zm-289.5 25 2.5.5-5.5 1.5v-1zm5 2 17.5.5-17.5.5zm337 5 1 2-2.5.5q-1.2 3.8 2.5 2.5l1.5-.5q.9 3-3.5 1.5l-1.5-3.5zm28 1 1.5 3.5-2 1 1-3zm7 0q3.3-1.1 2.5 1.5l1 2-4.5 1.5-1.5-2.5zm-470 83 1 1h135l2.5.5-18.5 33.5-1-1-126.5-.5q8.8.3 12-5 5.2-4.3 4-15l-3-5-4.5-5.5-4.5-1.5zm609 0 1 1h24l1-1h30l4 1 1.5-.5q11.1 18.4 26.5 32.5l1.5.5-132.5.5 1-2q21.1-13.4 38-31zM323 911l12 9.5-6.5-5.5-4-3-1.5 2.5 3.5 1.5 9.5 7 .5-2 24.5 18.5-29 .5-2 6.5 1 3-1 3q-.5 10 4.5 14.5l3 2h2l10-2 28-17 17.5 9.5-8 9.5-16 14.5-1.5 1.5-14.5 13.5-1.5 1.5-2 2h-64l-.5-2.5.5-1.5 1 2 8.5-26.5h-1l-.5 1.5-.5-1.5 1.5-2.5 1 2 5.5-14.5h-1l-.5 1.5-.5-1.5 1.5-2.5 1 2 1.5-4.5h-1l-.5 1.5-.5-1.5 2.5-4.5 1 2 2.5-6.5h-1l-.5 1.5-.5-1.5 3.5-6.5 1 2 4.5-10.5h-1l-.5 1.5-.5-1.5zm201.5 131h473l.5.5v47h-1l-.5-7.5-1 1h-187l-1.5-.5-.5 1.5-1-1-179.5-.5 181-1-7.5-9.5-173.5-.5 172.5-.5 1-1 .5 2 2.5-1h193l1.5.5q1-8-.5-8.5h-203l-1 1h-231l-4.5-2.5-7.5-8.5-19-10h-2q-5 1-4-1m-352 18h306l.5 2q-3.1-.7-2.5 2h-302zm220 121 4.5 3.5-3.5-2.5zm7.5 0 3 .5-2 .5v10.5l1.5.5v1l-2.5-.5zm8.5 0 2.5.5v12.5l-4-1.5 1.5.5 1.5-.5V1182zm21 0q9.4-3 7.5 3-5.8-2.2-5 1.5h-1l1.5-2.5 3.5-.5-6.5-.5zm24 0 2.5.5v12.5l-3-.5 2-.5v-10.5l-1.5-.5zm7 0 3.5 1.5-2 4.5 3 1.5h-2l-1.5 5.5-1.5-.5 2-.5-1-10 2-.5zm6.5 0 3 .5-2 .5 1 8.5h-1q1.1-3.3-1.5-2.5l.5-1.5zm23.5 0 2.5 1.5-1.5-.5-2 1zm21.5 0 3 .5-2 .5v11h7l-1-2.5 2 1-1.5 2.5H512zm12 0 3 .5-2 .5v10.5l1.5.5v1l-2.5-1.5zm7 0h8v3l-5-.5 4-1-6-.5v10.5l1.5.5v1l-2.5-.5zm11 0q6.9-2 9 1.5l-5.5 1.5v-1l4.5-.5-7-.5v11h7l.5-2 .5 1.5q-1.5 3-7.5 1.5l-1.5-1.5zm12.5 0 8.5.5-8.5.5zm13 0 2.5.5v12.5l-3-.5 2-.5v-10.5l-1.5-.5zm7 0q4.4-1.5 3.5 1.5l-2 4h1l1.5-2.5-.5 1.5 1 3h-2q2.5 6.9-2.5 5.5v-1q2.8.6 1.5-5.5l-1-4.5 2-.5zm10 0 2.5.5-4 2 .5 1.5q-3.5-2 1-4m7 0q9.4-3 7.5 3-7.1-2.4-5 4 3.8 1.5 3-1.5h1v2.5q-4.8-1.9-4 1.5h-1l1-2-1-4 5-2-6.5-.5zm30 0 4.5 2.5-3.5 1.5v-1l2.5-.5zm8.5 0 8 .5-7 .5v11h6.5v1H630zm12.5 0h8.5v3h-3v9.5l-2.5.5v-1q3.5.3 1.5-8.5l-.5-1.5h2l1.5-.5-7.5-.5zm24 0q3.3-1.1 2.5 1.5l-1.5-.5-1.5.5 1 2h-1l-1-2zm28.5 0 4 .5-3 1 1.5 2.5zm8.5 0q3.3-1.1 2.5 1.5l-2 1 .5-1.5-2 1zm-314 2 2.5.5-4.5 2.5zm165 0 3 1 1.5-.5-1 9.5 2 .5-3 .5v-9.5l-2.5-.5z" opacity=".996"/><path fill="#f5a64c" d="m585.5 1183 .5 3.5-1 6.5 2 .5-3 .5-.5-6-1.5.5-.5-2.5-1 3-1.5-2.5 2.5-1.5 3.5 2zm48 0 4.5.5-5 .5-.5 2-.5-1.5zm-270 2 1 2-1.5-.5-1.5 3.5.5-1.5zm41 1 1 3 1-3 2.5 1.5-3 2 .5 1.5-4.5-3.5zm31 0 .5 3q-4.8-1.9-4 1.5h-1l.5-3.5 3.5 1zm98 0 .5 2q3.8 1.5 3-1.5h1l-1.5 2.5-3.5-1.5zm11 1 4 1 1.5-.5-4.5 1.5zm88 0 4.5 1.5-4 .5-.5 2-.5-1.5zm67 0 .5 6 2 .5-3 .5z" opacity=".996"/><path fill="#f5a64c" d="m365.5 1189 2 4 2-1 .5 2-9-2q1.1 3.3-3 2l.5-3 1 2q1.4-3.1 6.5-2.5zm31 1-3 4-2.5-.5zm40 1 .5 3-8-.5 7-.5zm51.5 0 6 .5-9 2.5.5-2 2.5 1zm110.5 0 .5 3-8-.5 7-.5zm58 0q6.2-.7 8.5 2.5l-2.5.5q-1-3-6-2l-3 2v-1zm15 0q3 1.5 0 3l-2.5-1.5 1.5.5 1.5-.5z" opacity=".996"/><path fill="#f5a64c" d="M675.5 1191v2l2-1-1 2-2.5-1.5zm11 0q6.2-.7 8.5 2.5l-2.5.5q-1-3-6-2l-3 2v-1zm-69 1 5.5 1.5-4.5.5zm-496 141 1 1h824l1.5-.5-1.5 1.5h-824zm466 36 5.5.5-5.5.5zm9 0 4.5.5-5 .5-.5 4-.5-3.5zm14 0 1.5.5-4.5 2.5v-1zm59 0 5.5.5-5.5.5zm20 0 4.5.5-5 .5-.5 9-.5-8.5zm-298 6 .5 8.5h-1zm-127 1 .5 21.5h-1zm2 0 .5 8.5h-1zm123 0 .5 21.5h-1zm198 3 5.5.5-5.5.5zm82 0 5.5.5-5.5.5zm-290 3 .5 9.5h-1zm-113 5 .5 10.5h-1zm125 1 .5 10.5h-1zm173 6 146.5.5-146.5.5z" opacity=".996"/><path fill="#f6eee3" d="M0 0h1067v1600H0zm896 149q-17 4-28 12l-39 29H621l-1 3 3 1 201 1q-30 24-56 53H371l-3 1-1 3 1 5 2 1 387 1-12 13-3-1H234l-1 1h-13l-6 3q-8 5-9 16l4 12q4 5 12 7l488 1-3 4-5 4H400l-1-1-21 1-9 2-17 9q-15 11-20 32-3 29 11 43 11 14 32 19l-9 6H259l-1 1q-4 0-2 7l3 1 92 1-6 5H117q-4 1-3 7l2 1h217l-1 2-26 26h-86l-1-1q-9-2-12 2l-5 2v3q-4 1-1 3l-1 4v2l5 5 1 2 4 1 2-1 2 1h2l3-1h66l2 1q-18 22-29 49-59 0-90 30-4 1-3-2l-3-2-2-2h-3v-2h-3v-2h-3v-2q-16-9-37-15-19-5-43-3v37l-1 1 1 2v186l-1 1 1 1v36q25 3 43-3h2q18-4 32-14 3 1 2-2l3-1q3 1 2-2l11-7q20 16 48 25 18 6 43 5 15 34 39 62l-15 26-1 1H143l-1-1-13 1-8 4-4 8q-2 9 2 14t12 7h130l-58 110 1 2 1-1h166l22-26h572l29 11 1 6H511q-21 4-31 18H173q-5-7-13-9-12-1-16 4-7 4-8 14l3 12q5 7 16 9l5-1 3 1 1-1h18l2 1q-15 34-27 72l-6 28v20h-31v23h14v83h25l1 1v-83l1-1h12v-7l9-4 1 1v92l2 1h24l1 1v-43l5 1v41h26v-106h-26v41h-5v-41h-4q40-28 74-62l57-59 2 1 1-1h128l1 2q-1 10 2 17l7 13q10 15 32 19h487l1-1V319H872l-1-1-3 1 3-7 2-2h125v-37l-1-2-1 1H890l4-12 2-2h101v-10h-96l-2 1q11-25 16-55h82l1-1-1-4-1 1h-80l2-11q1-15-4-23-4-9-18-7M723 1156l-2 3 3 1h273l1-1v-3zm-361 25-4 13q4 1 3-2l9 2-5-11q1-4-3-2m27 0-5 6 1 4q1 4 9 3 5-1 3-9-1-5-8-4m11 0v13h3l1-6 3 5 4 1v-12l-3-1v6l-3-3zm19 0-2 1-3 4 1 6 4 2 6-1-1-3-4 1-3-4 8-4zm10 0v13h8q2-5-5-3-1-4 4-2 2-5-4-3-1-4 5-2v-3zm24 0v13h3v-12zm7 0v13h2l2-6 3 5q-1 2 3 1v-12l-3-1v6l-3-4zm31 0-6 13 5-2h4q-1 3 3 2l-4-11zm21 0v13h8l1-2-2-1h-4v-9zm12 0v12l3 1v-12zm7 0v13q5 2 3-5l4-1q1-4-4-2-1-4 5-2v-3zm11 0v12l2 1q5 1 7-1 0-4-6-2-1-3 4-2 3-1 0-3-5 1-4-2l6-1q-2-4-9-2m12 0q-1 5 3 4v9h3v-10h3v-3zm13 0v13h3v-12zm7 0v13h3l1-6 3 4 1-2 2-1q-2 7 3 5v-12l-2-1-3 4-3 1-1-2q1-5-4-3m17 0v13h8q2-5-5-3-1-4 4-2 2-5-4-3-1-4 5-2v-3zm28 0-5 6q0 5 5 7l6-1 2-3q1-5-4-3h-2q-1 3 2 2 1 3-3 2l-2-6 3-1 2 1 3-1q-1-4-7-3m11 0v13h8v-4l-5 1q-1-4 4-2 2-5-4-3-1-4 5-2v-3zm12 0q-1 5 3 4v9h3v-10h3v-3zm15 0-4 13 4-2q5-1 6 2h2l-5-10q1-5-3-3m10 0-2 2 4 10 3 1 2-3v2l3 1 4-10q1-5-3-3l-2 7-2-3-2 1q1 3-2 2l-1-4q1-4-2-3m20 0-4 13 4-2q5-1 6 2h2l-5-10q1-5-3-3m8 0 4 6v7h3q-2-9 4-11 1-3-2-2l-2 3-3-1q1-4-4-2m-346 28-9 3q-9 5-10 18v67l4 13q4 6 13 7h26l9-4 6-10v-45l1-1-30-1 1 22 2-1v18l-1 1-2-1h-2v-64l5 1v19h26v-25l-3-8q-10-13-36-9m423 0-9 3q-9 5-10 19v66l4 13q4 5 13 7h26l9-4 6-10v-78l-2-6q-4-7-11-9zm-519 1v106h45l1 1v-23h-20v-20h19v-21l-1-2h-18v-18h20v-21l-1-2zm147 0v106h25l1 1v-38l5 1v36h25l1 1v-39l-2-4-8-6 3-2q6-3 7-11v-27l-4-10q-4-7-13-8zm79 0-14 104 1 3 1-1h21l1-6v-7h11l1 13h26l-14-100v-6zm56 0v107l2-1h19l1 1 1-38 8 35 1 2h23l1-1v-103l-1-2h-21v34l-8-32-1-2zm67 0 1 107 1-1h38l11-5q6-7 7-19v-57l-4-15q-5-8-16-10zm90 0-2 2v21h14v83h26v-82l1-1h13v-21l-1-2zm132 0-2 2v84l4 14q4 5 13 7h26l7-3q7-4 8-14v-90l-27 1 1 1v82q-2 4-3 1h-2v-85zm67 0v107l2-1h24v-37l5 1v36h27v-35l-3-8-8-5 4-2 6-9v-31l-2-6q-5-8-14-10zm-769 123 1 2h824l1-1zm615 14v54h211v-54zm-174 1-11 24v4l10 23h1l1-4h150v-42H563zm-433 2-3 11-2-1q-4-1-2 4l7-1 2-11zm6 0-2 2 1 10 4 2 5-1q3-3 2-11l-2-2q-4 2-2 10h-4v-8zm14 0-2 2 1 10 1 2q4 1 2-4l5-1 1-5q-2-4-8-4m13 0-2 2v11l3 1 1-1v-11zm6 0-2 2 2 2 2 1v9l4-1-1-7q-1-3 3-2l1-2q-2-4-9-2m13 0-2 2v11q2 3 9 1 2-6-4-4v-1q5 2 3-4h-4l5-1q2-7-7-4m12 0-2 2v11l3 1 2-4 1 3 4 1-2-4 3-4-1-2q-2-5-8-4m24 0-4 8 1 1-2 5q4 1 3-1l3-7-1-1 2-3zm16 0-2 1-2 5 5 2q1 4-1 3-2-4-4 0l2 3 6-1 1-2-1-5-4-1 1-2 2 1 1-2zm13 0-6 14q4 1 3-1l5-2 1 3 4-1-5-11zm9 0-2 2 2 2 2 1v9h3v-2q-2-9 3-8l1-2q-2-4-9-2m13 0-2 2 1 10 4 2 5-1q3-3 2-11l-2-2q-4 2-2 10h-4v-8zm13 0v14h3q-2-5 2-4l1 3q-1 3 4 1l-2-4 2-3-1-4q-2-4-9-3m15 0-2 2v11l3 1 2-6 3 5q-1 3 3 1v-13l-1-1-2 6-4-4q1-3-2-2m24 0v2l-4 8 1 1-1 3 2-1 4-8q2-6-2-5m14 0q-3 11 4 14l5-1q4-3 2-11l-2-2q-4 2-2 10l-4-1v-9zm16 0-2 2v11l2 1 2-1-1-2 2-1 1 3 4 1-2-4q3-2 2-7-2-4-8-3m17 0-6 14 4-1q-1-4 4-2l1 3 4-1-5-11zm11 0-2 2v11l3 1 2-6 3 5q-1 3 3 1v-13l-1-1-2 6-4-4q1-3-2-2m14 0-2 2 1 9 4 3 5-1q4-3 2-11l-2-2q-4 2-2 10l-4-1v-8zm17 0-2 1-2 5 5 2q1 4-1 3-2-4-4 0l2 3 6-1 1-2-1-5-4-1 1-2 2 1 1-2zm21 0q-5 2-2 4l-4 9q-1 3 3 1l2-8 2-4zm12 0v14h3v-2l1-5 3 6 4 1v-13l-3-1v6l-4-4q1-4-4-2m16 0-2 2v11q2 3 9 1 2-6-4-4v-1q5 2 3-4h-4l5-1q2-7-7-4m12 0-2 2v11l3 1 1-3 4-2 2-3-1-3zm12 0-2 2 2 2 2 1v9l4-1-1-7q-1-3 3-2l1-2q-2-4-9-2m13 0-2 2 1 10 4 2 5-1q3-3 2-11l-2-2q-4 2-2 10h-4v-8zm14 0-2 2v11l4 1 1-7 5 7h2v-12l-2-2-1 3q1 4-2 3l-2-4zm15 0-2 2v11q1 3 8 1l1-4h-6l5-1q2-6-4-4v-1q6 2 5-2-1-3-7-2m-401 24v25l-1 1h8v-8l-2 6-3 1v-11l2-1 1 3v-3l1-2-1-2h-1q1 3-2 2v-9l2-1 3 6v-5q-2-3-7-2m12 0-2 2 2 3q0 11 4 18-1 5 3 3l-3-11 1-6h-1l-2-3q2-7-2-6m12 0v25l-1 1h4l-1-1v-24zm4 0v3l-1 9h3l1-3-1-8zm7 0v25l-1 1h8v-8l-2 6-3 1v-11l2-1 1 3 1-5-2-1-2 1v-9l2-1 3 6v-5q-2-3-7-2m12 0-1 3v23h3l1-13 1 13h3l-1-11-2-2 2-3-1-7-2-2 1 4-1 7h-1l1-11zm11 0v26h3v-25zm8 0v26h7v-8l-1 3v2l-3 2 1-12v2q4 1 2-6l-2 2h-1l1-10q3 1 2 6h1q3-11-7-7m11 0 5 24 2 1v-9q-4-5-4-14zm6 0 1 4 1-2q1-3-2-2m17 0-1 3v23h7v-8l-3 7-1-11h2l1-2-3-1 1-10q3 1 2 6h1q3-10-6-7m15 0 1 7v-3l2-1v23h3l1-24 1 3 1-3q-2-4-9-2m12 0v26h8v-26l-3 1v24h-2v-23l1-1zm13 0v26h7l1-3-1-4-1 4-3 2 1-13v3l2 1v-8l-2 3h-1v-9l2-1 2 6 1-3v-2q-2-4-8-2m28 0v25l-1 1h3v-24l1-1zm5 0v2l-1 10 1 13-2 1h5l-1-1v-24zm20 0v25l-1 1h4l-1-1v-11l2-1 3-4-1-8zm12 0-1 11 2-1 2 12q-2 4 2 3l-1-1 1-3-3-17q1-5-2-4m6 0v25l-1 1h4v-25zm17 0q-4 3-4 10l2 15 4 1 3-8q1-10-2-16l-2-1 1 2v21q-1 3-3 0v-21l1-1zm10 0-1 3v23h3l1-13v2l2-1-1-5-1 2h-1l1-10 3 6v-5q-1-3-6-2m27 0v26h3l1-13 1 2v11h3l-1-13h-2l2-3-1-7-2-2 1 3-1 8h-1l1-11zm24 0 4 25 1-1 1-9v-3l-1 2-2-7q3-9-3-7m13 0v25l-1 1h4l-1-1v-24zm8 0-2 2 1 5v-2l1-2h1v23h3l1-24 2 4v-4q-2-3-7-2m11 0-2 2 3 8v16h3q2-13-2-20 2-7-2-6m5 0 1 4 1-2q1-3-2-2m46 0v26h3v-23l1-1zm19 0-2 2 1 4h1q-1-5 2-4v23l-1 1h4l-1-1 1-23 1 5h1q3-11-7-7m-300 1-3 7q-1 10 2 17l2 1zm2 0 1 6h1q2-7-2-6m65 0-1 5v15l1 1q-2 4 2 3l1 1-1-2v-22zm4 0v5h1q2-6-1-5m23 0-2 2 2 19-1 4h4zm69 0-1 6v13l1 1q-2 5 2 4v-23zm4 0 1 6h1q2-7-2-6m23 0-2 7 3 17v1h3l-3-23zm62 0-2 2-1 8 1 2 1-2 1 9q-3 8 3 6zm9 0-2 2v6l6 13-1 3 3-2q-1-10-6-16zm2 0 2 6h1q2-8-3-6m12 0 2 6v-5zm16 0-3 3q1 10 6 16v5l2-1q0-13-6-18l1-2zm3 0 1 5v-1q3-2-1-4m18 0-3 3q1 10 6 16v5l2-1v-6l-5-12zm-41 1-2 3 6 14v6l2-1v-7l-5-11zm-165 11 1 12 2 1v-2l1-4-2-4q1-4-2-3m61 1v11h2l1-10zm93 4-1 7h3zm11 0-2 4v2l3 1zm19 1-2 3q-1 4 3 2zm21 0-2 3q-1 4 3 2zm-402 89-2 5 2 1zm103 0-1 6h1zm14 0-1 5 2-1zm34 0-1 6h1zm27 0-1 6h1zm67 0-1 6h1zm95 0-1 6h1zm65 0-1 6h1zm55 0-1 6h1zm5 0v5zm31 0-1 6h1zm155 0-1 6h1zm98 0-1 6h1zm10 0-1 6h1zm15 0-1 6h1zm-720 2-2 4 2 1zm103 0-2 4h2zm224 0-1 5 2-1zm391 0-2 4h2zm-716 13-1 6h1zm57 0-2 5 2 1zm197 0v6l1-3zm262 0-1 6h1zm183 0-1 6h1zm-511 2-1 6h1zm-24 13 1 7 1-6zm-23 1-1 6h1zm36 0-2 6h2zm29 0-1 6h1zm88 0v5zm22 0-1 6h1zm43 0-1 6h1zm48 0-1 6h1zm46 0-1 6h1zm25 0-1 6h1zm130 0-1 6h1zm-279 25 1 7v-6h3zm60 1-1 6h2l-1-4h3zm20 0-1 6h1zm-90 2-1 3 2-1q3 1 2-1h-1zm68 0-2 4h2zm-38 8-1 6h1zm8 1v5h1zm-39 1-3 3 2 1h2q2 1 1-2h-1zm5 0-1 3h3l2 1q2 1 1-2l1-2-2 1-3-1v2zm8 0 1 4 2-1h2v-3l-1 2h-1l-2-2v2zm10 0-2 6h2zm1 0q-2 7 2 6 2-7-2-6m4 0v2l-1 2h2q2-5-1-4m32 0v4l3 1-3 1h4l1-6-4 3 1-2zm6 0q-2 5 2 4l-1-1 1-2zm7 0 1 4q2 1 1-2h-1z" opacity=".996"/><path fill="#f6eee3" d="M726.5 292h153l.5 1.5-7 15.5-2.5 1h-160l6.5-7.5zm-298 108h217q24.6 9.4 45.5 22.5l-294.5.5v-1q18.8-4.2 28.5-17.5zm265 23h39l.5 1.5-1 5.5h-29.5zm120 0 34.5.5-6.5 6.5h-32l.5-1.5zm-96 16h12l.5 1.5-2.5 4.5h-4zm87 0 27.5.5-4.5 5.5h-26l-.5-1.5zm-8 14 23.5.5-20.5 27.5h-17l-1-1-1.5.5zm-15 50 2 1 2-1-.5 1.5-1.5 2.5zm-168 9 1.5.5v22l-2.5.5h-12l-.5 2.5-1 2 2.5 1.5 13.5-1-.5 19-48-17-41-1-16.5-5.5q5.5-6 16.5-6.5l42-1zM532 532l-1 1q-3-1-2 4v2h-2v1h7l-4-1 4-1h2q3-1 0-3l-2-2zm9 0-4 7 3-1 4 1zm7 1-2 2-1 1v1l1 2 5-1h2l-1-3q1-4-4-2m8 0-2 5 2-1 4 1 1-3zm9 0-1 2-2 3 3-1 4 1h2l-2-5zm-24 6-5 1v1h30l3-1v-1l-4 1-5-1-9 1h-2zm73 8-1 9h1z" opacity=".996"/><path fill="#f6eee3" d="m613.5 536 1.5 2-14-.5zm-59 38-.5 1.5-17 24.5-9-1 7 10 2.5 1H559l-1.5 2-1-1h-17q-3.2.8-2.5 5.5l2 4 .5 2.5 1-1H559q1.5 3.7-1.5 3l-1-1h-16l-2.5 5 2.5-1H559l-.5 4h-23l-7 8-2-1-.5 3.5 1.5-.5h9l.5 1.5 18 24-1.5-.5-66.5-24.5 15.5-.5 1.5.5q1.3-3.7-2.5-2.5l-6-6h-34q-11.2-.8-18.5-5.5 6.5-5 17.5-5.5l31.5-.5-1-2 .5-3.5-2 1h-32l-14.5-4.5q5.2-4.8 14.5-5.5h37l6.5-6.5-.5-2.5-12 1v-1zM500 616l-2 4 3 3 4-2-1-2v-3l-2 1zm18 0v2l-3 1 2 1v3h4l3-4zm8 0v2l-1 3 4 2 3-4h-1zm-16 1q-5 2-2 4-1 3 3 2l3-5h-1zm-1 12-2 2q-2 6 2 8l7-1 3 1 4-1q3 0 1-7l-1-2zm28 1v1h20zm-74 2v1h31zm33 11 1 2 5-1zm32 0v1h7z" opacity=".996"/><path fill="#f6eee3" d="M539.5 616h19l.5 3-20-.5 2-1zm-122 14q3-.4 1.5 6l-2 .5 2 19-1 3q2.5 1.5-1 3l.5 1.5 1.5-.5-2 1.5v2.5h2l-1 5.5-13.5-1-.5 25.5-1 3.5h-17.5l-1 1q-1.1-6.4-6-9l-5-2h-125l-13.5-4 1.5-3 20-4h40l1 1h75q6.6-.9 9.5-5.5l1-2-53-1zM338 669l-1 2h45l-43-1zm69 1v1h10zm-147 12-1 1-4 2q-2 5 2 4v-2l4 1 1-4zm25 0-2 3 2 3 4-1-1 2h2v-4q-3 1-2-2zm27 0-2 2 2 4 4-1-1 2h2v-4q-3 1-2-2zm9 0-2 5 4 1 1-5zm10 0-2 1-2 3v2l1 1 5-2-1 2h2l-1-6zm-65 1q1 3-2 2-2 5 2 4v-2l4 1 1-3zm9 0q1 3-2 2-2 5 2 4l-1-1h2l4-1-1 2h2v-4q-3 1-2-2zm19 0-2 4 4 1q4-2 1-3 1-4-3-2m9 0-3 4q-1 3 2 2l-1-1h2l3-1v2q3 1 1-3zm34 0q1 3-2 2-2 5 2 4v-2l4 1 1-3zm9 0q1 3-2 2-2 5 2 4v-2l4 1 1-3zm9 0-2 4q-1 3 2 2v-2l3 1q4-2 1-3 1-4-4-2m48 3-1 11h1zm109.5-56 .5 6.5h-1zm3 0 .5 6.5h-1zm2 0 .5 6.5h-1zm3 0 .5 6.5h-1zm197 42 122 1 1-1h48l3.5 1v2l5.5 2 1.5 3H716.5l-.5-6.5z" opacity=".996"/><path fill="#f6eee3" d="M428.5 673q3.8-1.2 2.5 2.5v2l-.5 1.5-1-2-.5 2.5 1 5.5h-19.5l-1-1-2 1 1-2zm-14.5 9-1 2h15zm302 8 170 .5-9.5 6.5H716zm-310.5 8h12l.5 3-2-.5.5-1.5h-11zm-73 1 50.5.5-2 .5v15.5l1.5 1.5h33l2.5-1v16.5l-1 1 2 .5v6h-2.5l-79-37z" opacity=".996"/><path fill="#f6eee3" d="m382.5 704 35.5.5-35.5.5zm0 4 35.5.5-35.5.5zm0 4 35.5.5-35.5.5zm114.5 0h40.5l.5 1.5-7.5 30.5-1-2-.5 2.5 1.5 2.5 1-1H553l-2 3.5-1 2.5-2 1.5q-3 6.5-15.5 3.5l-2.5-1q3 6.7 3 17.5L520 792h-22.5l-.5-1.5-10-21.5-2.5-1h-25l-13.5-4.5 2.5-2.5 13.5-3.5q-3-1.2-2-5.5l-2-1.5-2.5-1.5-1.5 3q-3.3-1.3-2 3.5h1l.5-1.5 4 1 1.5-.5-.5 2.5h-16l-15.5-4 1.5-3q11.1-4.9 28-4l2 1 4.5-1.5-5.5-2.5v1l1.5.5-1.5.5-11.5-4.5 10.5-4.5 29-1 1.5-1.5zm5 1v1h33zm-55 36-2 2-2 1v3h3l4-1 1 2v-3zm53 0-2 2-2 1v3l2-1 4 1h2v-2zm9 0-2 2-2 1v3l2-1 4 1h2v-3l-2-1zm-45 1-3 3q-2 4 2 3v-2l4 2 1-1h2l-2-3zm9 0-2 2q-2 5 5 3l3-1zm9 0-3 6 3-1 4 1-1-4zm9 0-3 5 2-1v2l2-1 2 1-1-1h2v-2zm26 0-3 5 2-1 4 2 1-1h2l-2-3zm9 0-2 2q-2 5 5 3l3-1zm9 0-3 5 1 1 5-1 1 1-1-4zm9 0-3 4q-1 3 2 2v-2l3 1 1-3zm-39 13-1 1-2 1v8l3 1h20l1-1h1v-9l-2-1-2 1-2-1-3 1-2-1-3 1zm2 27v1h11z" opacity=".996"/><path fill="#f6eee3" d="m505.5 765 .5 7.5h-1zm5 0 .5 7.5h-1zm13 0 .5 7.5h-1zm68 35 4.5.5v17l-.5 1.5 5.5-1.5q2.8-8.7 9.5-13.5 4.3-4 11.5-4v16.5l-1 1 2.5 1.5 12.5-5-.5 11h-2q-5.9-1.7-4.5 2l7 .5-6.5.5-2.5.5 2.5 3.5q5 1 6-2l.5 7-14.5-5-.5 1.5 1 16.5q-11.8-.9-17-9.5-4.7-3.5-4-10.5l4-.5-4.5-1.5-2 1h-2l-1.5-.5 2-.5-1.5-5-3.5 1.5-2 3 2.5.5 1.5.5-.5 1.5 2 1 4-1v1H596v18.5l-3.5.5q-10.5-3.1-15.5-11.5l-3-7.5q-20 .9-33-5l1.5-3q12.9-5.6 32.5-4.5v-2l6.5-10.5zm3.5 2-1 15h1zm-27 20-4 6 4 1 2-1h2l-2-5zm9 0-3 3 2 3 5-1-2-1zm6 1-1 3 2 3 3-1h2l-1-3q1-4-5-2m20 0-2 3-3 1h3l4 1 1-3zm9 0-3 1-1 4 2-1v2l2-1 3 1-1-1h2l-2-3q1-3-2-2m-17 10-1 15h1zm187.5 34q2.7-1 5.5 3.5l3 5-15.5.5 1.5-2.5zM770 881h23.5l2.5 2.5 15 23.5-4.5-1h-30l-1 1h-26l-2.5-.5q14.8-10.5 23-25.5m-438 59h29.5l14.5 9.5-1.5 1.5q-13.2 13.3-35 18l-4-2-2.5-1.5q-3.4-4.6-3-13l1-3zm374.5 0h133l34.5 31.5-177.5.5-2.5 1-1 7.5 1 2.5 2.5 1h194l25.5 17.5-503.5.5 4.5-5.5 16.5-20.5q47.6 18.9 116 17 96.6-8.4 157-53m-452 62q9.8-.7 12.5 5.5l1 10-4.5 5.5-7 2-8.5-4.5q-3.6-2.9-2-11l4.5-5.5zm-80.5 62h301.5l.5 1.5-3.5 5.5h-297l-.5-3.5zm451.5 8h174l2.5 2.5 5 7-180.5.5.5-1.5 1-5-1-2.5zm-236 112 4.5 1.5-1.5 5.5q-4.7.8-5.5-2.5zm390.5 47 5 .5v63.5l-2.5 1-2.5-1zm-354 1 5 1.5v22l-1.5 1.5-3.5-.5zm202 0 5 .5v61l-3.5 1.5-1.5-1.5zm290.5 0 3.5.5v24.5l-5-1.5v-22zm-424 15 3.5 33.5-7 .5zm246 102h203l1.5 1.5v48l-.5.5H739v-48.5zm96.5 8-3 1-3 10q-2 13 2 22l5 2 4-8q2-15-2-24zm-81 1v32h-2q-1 4 5 2l-2-3v-17l1-4 5 23 2 1v-31l2-1q1-4-5-2-1 3 2 2v15l-4-15zm17 0-3 13q-1 12 3 20l5 1q4-5 4-14l-1-13-2-4v-3zm13 0 1 3 3 30 2 1 3-18 3 18 1-1 2-25 3-7-4-1 1 5-1 7v2l-1 3-2-7v-10zm31 0v32l-1 2 8-1 3-4q2-10-3-13l3-4q1-8-2-11zm36 0-2 2-2 12 3 4q2 6-2 5v-8l-2 14-2 4q-1 3 4 1l-1-2q-3-10 3-8l1 3q-3 10 5 7l-2-5zm10 0v32l-1 1q-1 2 6 1l-1-1 1-17 1 2v12l3 4 3-1v-8l-1 5q1-10-4-13l3-5q1-8-2-11zm16 0v33l-1 1h7l4-6v-21l-3-5q0-4-7-2m15 0 1 1v31l-1 2h6l-2-2v-31h2zm11 0v32h-2q-1 4 5 2l-2-3v-14l1-1-1-2 1-4 6 24h1v-31l2-1q1-4-5-2-1 3 2 2v15l-5-15q1-3-3-2m17 0-3 13q-1 12 3 20l5 1 1-3 1 2 1-14-4-1v14l-1 1-2-5v-21l1-1q-2-6 2-5l1 9h2v-9zm-726-5 3 1.5-1.5 2.5q-3.4.8-1.5-4m90.5 0 1.5 2.5q-1.5 3-3 0zm67 0 2.5 1-1.5 2-2.5-.5z" opacity=".996"/><path fill="#f6eee3" d="m775 1359 2 .5v9l1 12-1 10.5q-3.3 1.3-2-3.5l-1-1v-23zm15 0q5.3-1.8 3 5.5l1 6-1.5 5.5zm31.5 0 1.5 1.5v11l-2 1zm15 0 1.5.5v30q-1.5 3-3 0v-29zm31 0 1.5 1.5v11l-2 1zm16 0 1.5 1.5v29.5l-2-.5zm-299 10 .5 2.5-4.5 7.5-4.5-9 3 1.5 1.5 3.5zm116 0 3.5 1.5-2.5.5-1.5.5 4 2.5 1 2.5-1 2.5-3.5 1-2.5-1 1.5-2 2.5 1q1.7-4.1-2.5-3l-1.5-3.5zm-132.5 1 6 .5-5 3 1.5.5 2.5.5-3 .5q-1.2 3 2.5 2 3 1.5 0 3l-3-1-1.5.5zm19 0q7.3-2.3 6 2l-3.5-1-.5 2q4.1-1.3 3 2l-3 1.5 4 .5q1.3 4.3-6 2zm9 0q5.4-1.5 7 1.5l-2 5 2 3.5-3-1.5-1.5-2.5-2 4zm8.5 0h2.5l1.5 2 3-2-.5 1.5-2.5 8.5zm54.5 0 3 1.5.5 1.5 2-3 1.5 1.5-3.5 8.5zm10 0q7.3-2.3 6 2l-3.5-1-.5 2q4.1-1.3 3 2l-3 1.5 4 .5q1.3 4.3-6 2zm12.5 0 1.5 1.5 3 8-2.5-1.5-5 2-.5-3.5zm7.5 0q6.4-1.5 6 1.5l1 3q-4 2 0 4l-1.5 1.5-3-4-2 4zm132.5 4 1.5 1.5v14.5l-2-.5zm-502 1q3.5 2 1.5 9.5l-2 1z" opacity=".996"/><path fill="#a4b180" d="m996.5 189 1.5 3.5-1.5 1.5h-81v-1h81l.5-2.5zm-374 4 202.5.5-202.5.5zm-247 55 391.5.5-9.5 9.5h-382l1.5-2.5 1-3zm525 0h96l.5.5v9.5l-102-.5 3-8.5zm-667 23h508l2.5 1.5-17 19.5H244.5l-.5-4.5-5-10.5-9-4.5zm763 0 1.5 1.5V310l-127-.5 2-.5 8.5-18h114l1 1 .5-19.5zm-621 152-1 2-2 1 1-2zm320 2 3.5 2.5-1.5-.5zm-437 5 3.5.5-5.5 2.5-.5-2zm-2 6 5.5 2.5-3.5.5-2.5-1zm55 39L300 487.5 287.5 504l-3-1h-66l-3 1h-2l-2-1-2 1-3.5-1-1.5-2-4.5-5.5v-2l1-4q-2.5-1.5 1-3V484l4.5-2q3.2-3.8 12-2l1 1h84q4 1 8-6m470 5 1 1h15l3.5-.5-14 22.5-4.5 1-3.5-1.5-7-9 7-12.5zm-500 32-1.5 2.5-3.5 5.5.5-1.5zm250 20 2.5 1.5-1.5.5-3.5.5 1.5-1.5zm16 1q5.4-1.9 4.5 1.5l1 3-2.5.5-4.5 1q1-3-2-2 1 3-2 2l1.5-2 2.5-1zm-280 1-.5 1.5-1.5 2.5.5-1.5zm346 0 1 2-13.5 1.5 14 .5-.5 2h-12l-2 1-1.5-2.5 1-3.5zm-79.5 1 5 2q1 3-2 2l-.5-2q-1.7 4.8-10 3v-1l2.5-.5.5-2.5 1 3 3.5-.5zm20 0 2 1.5-.5 2.5z" opacity=".996"/><path fill="#a4b180" d="m563.5 535 2 4 4.5-1.5.5-2.5.5 2.5-5.5 3.5h-30v-1l5-1 8 1h2l9-1 5 1-1-2-2 1 .5-1.5zm-43 3 1.5.5-4.5 1.5v-1zm7 3 6.5.5-6.5.5zm46 2v2l1.5.5-1.5.5-2.5-1.5zm40 4 .5 8.5-2 1zm-65 34q3.5 2-1 4l-2.5-.5zm-4 5 2.5.5-4 1zm-2 3 2.5.5-4.5 5.5-2.5-.5 4-2-1-2zm-5 7 2.5.5-3.5 4.5-6.5.5 3.5 4.5-5.5-7 9 1-.5-2-1.5.5zm-51 3 13 1 1.5-.5v2l-6.5 6.5-32.5-.5 32.5-.5 5.5-5.5-15-1zm51 10 106.5 1.5-2 4.5h-81.5l-.5 3.5h-1l-.5-2.5h-19v1l1.5.5-2 1 .5 1.5q-2.6.8-1.5-2.5l-1-4 2.5-2.5h17l2.5 1-.5-2h-21zm207 0 .5 3.5-1 2.5h-65.5l-.5-1.5 2-3.5h63.5zm-298 4v2l2-1-1 2-3.5-1.5zm53 3 2 1 2-1q3 1.5 0 3l-3-1-2.5 1.5zm18 0 6 2 3-2 2 1 1.5-.5-4.5 2.5q-1.7-2.7-3.5 1.5l-1.5 2.5H517v-3l-2-1.5zm-27 1 1.5.5-.5 2.5-1-1-31.5-.5 30.5-.5zm12.5 3 2 .5-4.5 2.5-1-2 3.5 1zm56.5 2 .5 4 74 .5-3.5 5.5h-71l-1-4h-18l-2.5 1 2.5-5h16l2.5 1zm111 4h71l.5 3.5-1 2.5h-73.5l-.5-1.5zm-224 2q3 1.5 0 3l-3.5-1.5 1.5-.5 2 1zm62 1h14l1.5 1.5q1.8 7.9-1.5 7.5l-4 1-3-1-7 1q-3.2-1.7-1.5-8.5zm4.5 1-1 7h1zm3 0-1 7h1zm2 0-1 7h1zm3 0-1 7h1z" opacity=".996"/><path fill="#a4b180" d="m536.5 630 20.5.5-20.5.5zm-2 1q3 1.5 0 3l-2.5-.5zm-72 1 31.5.5-31.5.5zm34 1q5.3 3.5 5 7 3.8-1.2 2.5 2.5l-8.5-7.5-28.5-.5 28.5-.5zm35 2 2.5.5-5 4zm-114 1 1.5.5v18h-1v-17z" opacity=".996"/><path fill="#a4b180" d="m527.5 638 .5 2.5-1 2 8 1-7.5.5-1.5-4.5zm-31.5 5 6 .5-5.5 1.5zm41.5 0 4.5 5.5-4-1 1-2-3-1zm5 10 4.5 2.5 2 3-4-1 1-2q-2.5 1.7-3.5-2.5m-124 15 .5 4h184.5l1.5 1.5-5.5 6.5h-168l-.5 4.5h-1l-1-7 2-4.5-15 6.5.5 1.5-2-1v3l13.5.5-15 .5 1-2.5q-2.1-3.5-9-1.5l-.5 6-.5-14.5 1.5.5h12zm-81 1 1 1 43.5.5-45 .5z" opacity=".996"/><path fill="#a4b180" d="m406.5 670 10.5.5-10.5.5zm252 2 58.5.5-1 7.5-63-.5zm80 0 101.5.5-101.5.5zm151 0 3 1 14.5-1-1.5 2-6.5 5.5-1.5-2.5H895v-2l-5.5-2zm-592 7 75.5.5-75.5.5zm33 3 2.5 1 1 6-5.5-1-1.5.5 1-2-1-2zm-55.5 1h4q-1 3 2 2v4l-5.5-1-2.5 1v-4q3 1 2-2m-20 2q3-1 2 2h3.5l2.5.5-1.5 1.5-4-1-2.5 1zm33 0q3.7-1.2 2 4l-3-1.5zm9.5 0 .5 2.5-.5 1.5-.5-1.5zm17.5 0q3.7-1.2 2 4l-5.5-1-2.5 1 1.5-3 4.5 1z" opacity=".996"/><path fill="#a4b180" d="m335 685 2 1.5-.5 2.5q-3.4.8-1.5-4m-51.5 1 1 2-1.5-.5-.5 1.5-.5-1.5zm58 0 1.5 2.5h-1l-.5-1.5-1.5.5zm61 0 1 11 1-8 1 1H593l-4.5 7h-168l-1.5 1.5v35l-1.5.5.5-1.5v-16l-1.5-.5v2l-1-1h-33l-1.5-1.5v-15l1.5-.5v-1l-50.5.5.5 1.5-3.5-2.5 53-.5-1-2.5h3l-1 2 1.5 3.5 1-1H403zm3.5 12v1h11l-1 2h2v-3zm-23 6v1h35zm0 4v1h35zm0 4v1h35zm-139.5-25 2.5.5-4.5 1.5v-1z" opacity=".996"/><path fill="#a4b180" d="m374.5 689 1.5.5-2.5 1.5h-119v-1h119zm3 1 2.5 1.5-2 1 .5-1.5-3 1v-1zm269 0h69l1 7h159v1q-119.1 1.1-233.5-1zm-145 23 33.5.5-33.5.5zm34 3 1.5 4.5h-1zm-2 9 1.5 4.5h-1zm-1 4 1.5 4.5h-1zm-86 10v2l3 1 1.5-.5-2.5 1.5-3.5-2.5zm83 3 1.5 4.5h-1zm-72 1 5.5 2.5-5.5 1.5 1-3-4 1v-1zm-11 6 4.5 3.5-.5 3.5-1-2-1.5.5 1-3-2.5-1.5-1.5.5zm53 0 4.5 3.5-1.5 3.5-.5-2.5-1.5-3.5-2 1z" opacity=".996"/><path fill="#a4b180" d="m463.5 750 4.5 1.5 2 3h2q-2 3.2-4 0l-1.5 1.5-3-1-2.5 1.5.5 1.5-4 1-12.5-1.5 14-.5.5-5 1 4zm53 0 4.5 1.5 2 3h2q-2 3.2-4 0l-1.5 1.5-3-1-2.5-.5zm-73.5 2 2 1.5.5 1.5-2.5-.5zm33 0 5 2q1 3-2 2l-.5-2q-1.7 3.8-3.5.5zm18.5 0 .5 2.5-2.5 1.5v-1q2.9.7 2-3m1.5 0 2 1.5-.5 2.5zm33 0 5 2.5-1.5 2.5 12.5.5-15 .5-2-3.5zm-92.5 2 2.5.5-5.5 1.5v-1zm68 9 8 1 3-1 2 1 3-1 2 1 2-1 2.5 1v8.5l-1.5.5-1 1h-20l-2.5-1v-8.5l1.5-.5zm1.5 2-1 8h1zm5 0-1 8h1zm13 0-1 8h1zm-72.5-1v2l4-1v1l-4 1-2.5-1.5zm81 1 .5 2.5-1.5 2.5-.5-1.5zm-47 2 2.5 1.5-1 2h2l-1.5 2.5-1.5-3.5.5-1.5-2 1h-23v-1h23zm21 23 11.5.5-11.5.5zm115 9 1.5 1.5v17l1 1-1.5.5-.5-2.5v-16zm-5 1 4.5 1.5-2.5.5zm-24 1 2.5 1.5-.5 14.5-.5-15zm43 12 1.5.5v13l-1 3 1 8.5-2-.5 1-7-2 1 1 3h-1q1.4-4.6-4.5-2.5l-2.5-3.5 2-3.5 5.5-1 1.5.5zm-5.5 14v1h6zm-55.5-11 2.5.5q-2.7 5.3-13.5 2.5v-1l11.5-.5zm26 1-1 2-4.5-.5zm-343 1 4.5 8.5-2-1zm310 4-1.5 2.5 2 4-3.5 1.5-1.5-.5 2-1-1-3zm15.5 1q5.8-2.2 5 1.5l1 3-2.5.5-3 1-1.5-3.5zm-13 2q3-1.2 2 2.5l-.5 2.5-2.5-.5 1-3zm-27.5 1 3 1 1.5-.5-2.5 1.5zm56 0 2.5.5.5 2.5 5-2-2 3q-4.8-1.7-3.5 2.5l-1.5-.5q-3.7-1.2-2.5 2.5h-1l-1.5-4.5-1.5-.5 2.5-.5 1.5-.5-.5-1.5 3 2zm-42 4 5.5.5-5.5.5zm18 0 1 2h-2l-6.5-.5zm47 2 1.5 1.5v16h-1q.9-12.3-.5-17.5m-27 1 .5 14.5-2 1zm35 0v2l1.5.5-1.5.5-2.5-1.5zm-364 1 2.5 3.5-2-1zm4 7 2.5 3.5-2-1zm5 8 2.5 3.5-2-1zm509 15 3.5 4.5q-5-4.7-10 4l-2 3 16 1-16.5.5-1-1H707l-2.5-5-1.5-.5 8.5-1.5h68l3.5-3.5zm214 6 .5 5.5h-1zm-226 10h22l1.5 1.5-1.5-.5h-22zm-64.5 1h62.5l.5 1.5-15.5 16.5 9.5-10.5-.5-1.5-1 1h-60l4.5-5.5zm290.5 0 .5 5.5h-1zm-138 41q4.8-.7 5.5 2.5 1.9 5.4-1.5 4.5l-4 1q-3.2-.7-2.5-5.5zm-364 68 5.5.5-5.5.5zm72 0 5.5.5-5.5.5zm-63 1 7.5.5-7.5.5zm52 0 6.5.5-6.5.5zm-38 1 31.5.5-31.5.5zm-258 10 186.5.5-2 5 2.5 2.5h543l6 1 1.5-.5-.5 14.5-1-1h-32l-1 1h-571l-1-1-129.5-.5 5-4 1-10-5.5-6.5zm734 34 1.5 5.5h-1zm-843 15 8.5.5-8.5.5zm-3 1 1.5.5-4.5 2.5 1-2zm13 0q7.2 1.8 10.5 7.5l1 2-2-1-4.5-5.5zm-18 3-2.5 3.5-2.5 4.5-.5-1.5zm31 12 .5 4 18 .5-8.5 18.5-3-1h-18l-1 1-1-2q7.2-1.8 10.5-7.5 3.1-4.9 2.5-13.5m178 4 120.5.5q-4.6 6.9-4.5 18.5l-1-1h-128l-2.5-.5zm-215 3 1.5 4.5h-1zm10 13 4.5 1.5-2.5.5zm411.5 30h276.5l23 22H997l.5-22 .5 21.5-1.5 1.5h-470v-1q20.8-3.2 30.5-17.5zm165.5 42 272.5.5-272.5.5zm-604 51 .5 22 13 .5-14 .5zm728 0 .5 83.5h-1zm-550 1 .5 22-20-.5 19-.5zm292 0 .5 103.5h-1zm100 0 .5 21 13 .5-14 .5zm53 0 .5 22-14-.5 13-.5zm79 0 .5 84.5h-1zm-287 1 .5 104.5h-1zm-352 10 .5 92.5h-1zm147 7 .5 67.5h-1zm423 1 .5 66.5h-1zm-593 2 12.5.5-12.5.5zm196 0 .5 61.5h-1zm423 0 .5 61.5h-1zm-146 2 .5 57.5h-1zm26 0 .5 57.5h-1zm-380 17 17.5.5-17.5.5zm83 26 .5 17.5-2 1zm560 3 .5 35.5h-1zm26 0 .5 35.5h-1zM737 1347h210.5l.5.5v53.5H737.5l-.5-.5zm4 2-2 2v48h206v-48l-1-2zm-611.5 1 2.5 1.5-1.5-.5q-3.2-.4-1.5 7.5h-1q-1.7-6.7 1.5-8.5m6 0 2.5 1.5v8.5h3.5v1l-4.5-1.5q2-9.5-2-8.5-1.8 8.2 2 11.5l-2-1-1-10zm8 0 2.5 1.5-.5 7.5-.5-8q-3.7-1.1-2 7.5h-1q-1.7-6.7 1.5-8.5m6 0 3.5.5-4.5 1.5zm13 0 2.5 1.5v11l-1.5 1.5-2.5-1.5v-11zm-.5 1v12h2v-11zm6.5-1q7.5-2 9.5 1.5l-1.5 2.5q-3.3-1.1-2.5 1.5l1 7-4 1.5v-9.5l-2.5-.5-1.5-2.5zm-.5 1q-1 3 3 2 3 2 1 10h2l-1-8 4-2v-2zm13.5-1q9.8-3.2 7.5 4l-5 .5 4 .5q2.2 5.6-3.5 4v1q6.8-2 4.5 4-6.9 2-9-1.5v-11zm-.5 1v12h7q1-4-5-2-2-5 4-3 1-4-4-2-2-5 5-3 1-4-7-2m12.5-1 4.5.5-5 .5v11.5l2 .5q-1.9-4.8 1.5-4l2.5 4 3 .5-2.5.5-3-4-2 4-2.5-1.5v-11zm24 0 2.5 1.5-2 3 1 1-3 7q.7 3-3 1.5l2-5.5-1-1zm16 0 4.5 1.5-1.5 2.5-1.5-.5 2-1zm13 0 2.5 1.5 1 3h-1l-1-3.5-2 1.5h-1zm9 0q7.5-2 9.5 1.5l-1.5 2.5-2.5-.5 3-.5-.5-2H255q-1.2 3 2.5 2 3.8 2.3 1.5 10l2.5-1-1 2H258v-9.5l-2.5-.5-1.5-2.5zm13 0 2.5 1.5-.5 7.5-.5-8q-4-1-2 8.5l1 2.5 5.5 1 2.5-1 .5-2 .5 1.5-6.5 2.5-3.5-2.5-1-10z" opacity=".996"/><path fill="#a4b180" d="m276.5 1350 2.5 1.5-.5 7.5-.5-8q-3.7-1.1-2 7.5h-1q-1.7-6.7 1.5-8.5m5.5 0 6 .5-5 .5v11.5l1.5.5v1l-2.5-.5zm14.5 0q3.3-1.1 2.5 1.5l3.5 4.5 2-6 1.5.5-2 .5q1.8 7.9-2 7l-4.5-7-1.5.5v11.5q3.5 1.1 2-6.5l3 2h-2l-1.5 5.5-2.5-1.5v-11zm24.5 0q3.7-1.3 2 4.5l-4 8-2 1.5 1-3.5-1-1 4-8zm14.5 0 2.5.5v8l4 1.5q-2.2-7.7 1.5-10l2.5 1.5-.5 8.5-.5-9q-4-1-2 8.5l-5 1.5-1-10zm15 0 4.5.5-5 .5v11.5l2 .5.5-2 .5 1.5-2.5 1.5-1.5-1.5v-11zm17 0 2.5 1.5 2 5h-1l-2-5.5-2 1.5h-1zm11 0q3.3-1.1 2.5 1.5l3.5 4.5 2-6 1.5.5-2 .5q1.8 7.9-2 7l-4.5-7-1.5.5v11.5q3.5 1.1 2-6.5l3 2h-2l-1.5 5.5-2.5-1.5v-11zm14 0q4.7-1.1 2.5 7.5h-1q1.5-7-1.5-6.5l-1.5.5zm8 0 2.5 1.5-.5 8.5-.5-9q-4-1-2 8.5l-5 1.5.5-2 3.5 1q-2.2-7.7 1.5-10m9 0 4.5 1.5-1.5 2.5-1.5-.5 2-1zm21 0 1.5 1.5-2 4-2 8.5q-3.8 1.5-3-1.5l4-9q-2.7-1.7 1.5-3.5m12.5 0q4.8-1.9 4 1.5l.5 1.5-3.5-2v11.5l1.5.5 1.5-.5-4 1.5z" opacity=".996"/><path fill="#a4b180" d="m451 1350 3 .5v13.5l-4-1.5-4-6 3 2 2 4.5 2-.5v-11h-1q1.3 5.3-1.5 6.5l-2.5-3.5 3 1zm7.5 0q9.8-3.2 7.5 4l-5 .5 4 .5q2.2 5.6-3.5 4v1q6.8-2 4.5 4-6.9 2-9-1.5v-11zm-.5 1v12h7q1-4-5-2-2-5 4-3 1-4-4-2-2-5 5-3 1-4-7-2m12.5-1 3.5.5-4 .5v11.5l2 .5q-1.9-4.8 1.5-4l-.5 1.5-1.5 3.5-2.5-1.5v-11zm12 0q7.5-2 9.5 1.5l-1.5 2.5q-3.3-1.1-2.5 1.5l1 7-4 1.5v-9.5l-2.5-.5-1.5-2.5zm-.5 1q-1 3 3 2 3 2 1 10h2l-1-8 4-2v-2zm13.5-1 2.5 1.5-.5 7.5-.5-8q-4-1-2 8.5l2 3-2-1-1-10zm8 0 2.5 1.5-.5 7.5-.5-8q-3.7-1.1-2 7.5h-1q-1.7-6.7 1.5-8.5m6 0 3.5 1.5-1.5-.5-2.5.5 1 10-.5 1.5h1.5q-1.8-7.3 1.5-7l3.5 4.5-3-2-.5-1.5-.5 7-4-1.5v-11zm8 0 2.5 1.5v12l-2.5.5-1-2 2.5 1v-11.5l-1.5-.5-1.5.5zm7 0q6-1.5 7.5 1.5 1.4 5-5.5 2.5v-1q5.9 1.7 4.5-2h-7v12q7.9 1.8 7-2l-5-.5 6-.5-1.5 4q-6 1.5-7.5-1.5v-11zm-370 1 3.5 2.5-1 5.5-5 1q2.1 5.2-2.5 4l-1-2 2.5 1q-2.1-5.2 2.5-4l3.5-2.5-1.5-4.5zm77 0-.5 1.5 1.5 4.5 1.5.5-1.5.5q-3.2-.7-2.5-5.5zm125 0 2.5 1.5-.5 4.5zm51 0-.5 1.5 1.5 4.5 1.5.5-1.5.5q-3.2-.7-2.5-5.5z" opacity=".996"/><path fill="#a4b180" d="M153.5 1353q3.4-.8 1.5 4l-2-.5 1-2zm48 0 1.5 2.5-2.5 3.5.5-1.5zm32 0 .5 2 4 1.5-1.5.5-3.5-2.5zm54 0q3.4-.8 1.5 4l-2-.5 1-2zm187 0 1.5 2.5-2 1 1-2zm92 0 144.5.5-144.5.5zm-275 1 .5 2.5-2 3 2 4.5q-4.8 1.9-4-1.5l-.5-1.5 3 2-.5-1.5-1-3zm75.5 1 3 1.5q1.2 4.6-4 2.5zm159.5 0q6.8-2 4.5 4l-5-.5 4-.5q1.3-3.3-3.5-2zm-281 2 2 1 1.5-.5q.8 3.4-4 1.5zm591 0 .5 1.5q-1.5 3-3 0h2z" opacity=".996"/><path fill="#a4b180" d="m251.5 1358 2.5 4.5-4 1.5-1-2.5 2.5 1.5 1.5-.5zm105 0 2.5 6-4-1.5 1.5.5 1.5-1.5zm16 0 2.5 4.5-4 1.5-1-2.5 2.5 1.5 1.5-.5zm490 0 1.5 1.5v30l-.5 1.5 4.5.5-6 .5 1-2.5v-30zm62 0 4.5 1v8.5l-2 .5 1-8zm-693 1 1 2-1.5-.5 1.5 2.5 3.5.5-4.5.5-1.5-3.5zm176 0 1 2-1.5-.5 1.5 2.5 3.5.5-4.5.5-1.5-3.5zm-263 1 .5 1.5-6.5 2.5v-1l5.5-1zm157 0 4.5 3.5-3 .5zm82 0 4.5 3.5-3 .5zm121 0 .5 1.5-6.5 2.5v-1l5.5-1zm273 0 .5 8.5h-1zm40 0 .5 29.5-.5 1.5 4-1 .5 2q-6.4 1.5-6-1.5l1-1zm65 0 .5 29.5 2 2-6.5.5v-1l4.5-.5-1-1zm-517 1 .5 1.5-4 1.5.5-2 2.5 1zm435 0 1.5 3.5-2.5 17.5-1.5-6.5 2-4v-2l1-7zm-677 1 4 1 2-1v1l-6.5 1zm214 0 4.5 1.5-3.5.5zm57 0 4.5 1.5-3.5.5zm370 0 .5 16.5h-1l-1-3zm149 0 .5 16.5h-1l-1-3zm-157 1 1.5 4.5-1 4v2l-.5 14.5zm113 0 .5 6.5h-1zm16 0 .5 22.5h-1zm20 0 1.5 4.5-1 4 1 2-1.5 14.5zm-55 3 1.5 8.5h-1l-.5-1.5-.5 8 3 1.5-.5 1.5-.5-2-2.5-1-.5 8.5 1 2.5-4-.5 3-1-2-3 3-15v-2zm-80 4 .5 9.5h-1zm149 0 .5 8.5h-1zm-126 1 1.5 2.5-1.5 5.5-1.5-2.5zm32 0q-3 2.5 0 5l-3.5-1.5.5-2.5q1.5 2.5 3-1m-44 1 .5 5.5h-1zm-657 2q5.3-1.2 6.5 1.5l-.5 5.5-1.5-3.5 1-2.5q-6.4 1.5-5.5-1m11 0q3.8-1.2 2.5 2.5h-1l-1.5-1.5-1.5.5zm5 0q3.3-1.1 2.5 1.5l-2 1 .5-1.5zm19 0 5.5.5-2.5.5q-4 .7-3-1m11 0 3.5.5-1 11.5 2 .5-2 .5-.5 13-.5-12.5v-12l-1.5-.5-1.5.5zm20 0 6.5.5-2 1 .5 1.5-2.5-1.5.5 9.5.5-2q4.3-1.3 2 6l-2-1.5h-1l.5 11.5 1.5-.5-3 1.5 1-14.5-1-10.5zm10.5 0 3 1.5h-2l-.5 4.5zm5.5 0q3.3-1.1 2.5 1.5l-1.5 2.5-.5-1.5.5-1.5zm17 0 6.5.5-2.5 1.5-1.5-.5q-1.7 8.2 1.5 11.5l1-2 .5 1.5-3 1 .5 11.5 1.5-.5-3 1.5v-24.5l-1.5-.5-1.5.5zm16 0q6.8-1.7 8.5 1.5l-1.5 3.5.5-1.5q1-3.7-2-2.5l-.5 25-.5-25-2.5 1zm25 0q6-1.5 7.5 1.5l-1.5-.5q-7 1.5-6-1m71 0 2.5.5v25h-1v-24l-1.5-.5zm26 0q5.3-1.2 6.5 1.5l-.5 5.5-1.5-3.5 1-2.5-3 .5v9l1 2-1.5 13.5-.5-25-2.5 1zm72 0q6-1.5 7.5 1.5l-.5 4.5-.5-2.5-.5-2.5-1.5 1.5-.5 23.5-.5-23.5.5-1.5-3 1zm11 0q3.8-1.2 2.5 2.5h-1l-1.5-1.5-1.5.5zm32 0-.5 1.5-.5 3.5-1.5-2.5zm19.5 0 4 1.5-1.5-.5-1.5.5v24h-1zm18.5 0 7.5.5-2 1 .5 1.5-3-2h-2q-2.6-.8-1.5 2.5h-1zm-36.5 1 3 .5-2 1 2 4h-1zm-293.5 1 .5 23.5h-1zm67 0 .5 23.5h-1zm5 0 .5 8.5h-1zm235 0 .5 4.5h-1l-1-2zm-58 1-1 4-.5-2.5zm390 0 .5 10.5h-1zm-540 1 .5 15.5h-1zm589 0 1 10 1-5 .5 7.5-2 1 .5-1.5-1.5-.5zm-95 3 .5 7.5h-1zm-508 1 .5 7.5-2-1 1-3h-2zm-106 1 1.5 4.5-1.5 2.5-.5-1.5 1-4zm185 0 .5 7.5h-1z" opacity=".996"/><path fill="#a4b180" d="m365.5 1383 1.5 4.5-2 1 1-4zm28 1 .5 2.5-.5 1.5-2.5-.5 3-2zm-86 1-.5 1.5-.5 3.5-.5-3.5zm-170 1 1.5 5.5h-1zm309 0 .5 13.5h-1zm-190 1 .5 10.5h-1zm518 0 .5 2.5-.5 1.5 4-1-1 2-4.5-1.5zm82 0 1.5 5-5-.5 4-1zm-682 1 .5 7.5h-1zm583 1 1.5 3q-5.8 2.3-5-1.5l1.5.5 2.5-.5zm149 0 1.5 3q-5.8 2.3-5-1.5l1.5.5 2.5-.5zm-583 1 1.5 3.5-1 4 .5 1.5-2 1 .5-1.5zm571 0 3 1 2.5.5-6 .5zm-764 2 .5 7.5h-1l-1-4zm35 0 .5 7.5h-1l-1-4zm104 5-2 3-1.5-.5zm-146 85 .5 6-2-1.5-.5-1.5 1.5.5zm103 0 .5 5.5h-1zm14 0 3.5 5.5-4-1zm34 0 .5 5.5h-1zm27 0 .5 5.5h-1zm67 0 .5 5.5h-1zm95 0 .5 5.5h-1zm65 0 .5 5.5h-1zm55 0 .5 5.5h-1zm5 0 .5 2.5-.5 2.5zm31 0 .5 5.5h-1zm155 0 .5 5.5h-1zm98 0 .5 5.5h-1zm10 0 .5 5.5h-1zm15 0 .5 5.5h-1zm25 0 .5 4.5-2 1zm-776 1 1.5.5-2 1 .5 1.5q-3-1.5 0-3m13 0 2.5 1.5-1.5-.5-2 1zm10 0 2.5 1.5-.5 3.5-.5-4zm11 0 2.5 1.5-.5 1.5-.5-2-2 .5-.5 2.5-.5-2.5zm12 0 1.5 4.5h-1zm9 0 1.5.5-2 1 3 2-.5 1.5-.5-2-3-1.5zm5 0 1.5.5-2 1 .5 1.5q-3-1.5 0-3m7 0 1.5.5-2 .5 1 3.5-2-1zm7 0 1.5 4.5h-1zm10 0 2.5 1.5-1.5-.5-2 1zm34 0 2.5 1.5-.5 3.5-.5-4zm14 0 2.5 1.5q1.5 4.4-1.5 3.5v-4zm37 0 1.5.5-2 .5 1 3.5-2-1zm7 0 1.5 4.5h-1zm4 0 1.5.5-2 .5 1 3.5-2-1zm66 0 2.5 1.5-1.5 1.5v-2l-1.5 1.5h-1zm5 0 2.5 1.5-.5 3.5-.5-4zm11 0 2.5 1.5-.5 3.5-.5-4zm35 0 1.5 4.5h-1zm10 0 2.5 1.5-1.5-.5-2 1zm15 0 1.5 4.5h-1zm12 0 1.5.5-2 .5 1 3.5-2-1zm14 0 2.5 1.5-.5 1.5-.5-2-2 .5-.5 2.5-.5-2.5zm19 0 2.5 1.5-.5 3.5-.5-4zm29 0 1.5.5-2 .5-.5 3-.5-2.5zm19 0-.5 1.5 1 3-2-1zm9 0 2.5 1.5-.5 3.5-.5-4zm22 0 2.5 1.5-1.5-.5-2 1zm17 0 2.5 1.5-1.5-.5-2 1zm15 0 1.5 4.5h-1zm12 0 1.5.5-2 1 .5 1.5q-3-1.5 0-3m5 0 2.5 1.5-1.5-.5-2 1zm28 0 1.5.5-2 1 .5 1.5q-3-1.5 0-3m38 0 2.5 1.5-1.5 1.5v-2zm28 0 1.5.5-2 1 .5 1.5q-3-1.5 0-3m21 0 2.5 1.5-1.5 1.5v-2q-2.6-.8-1.5 2.5h-1zm5 0 1.5.5-2 .5-.5 3-.5-2.5zm48 0 2.5 1.5-1.5 1.5v-2l-1.5 1.5h-1zm13 0 1.5.5-2 1 .5 1.5q-3-1.5 0-3m20 0 1.5 4.5h-1zm34 0 2.5 1.5-.5 3.5-1.5-2.5.5-1.5z" opacity=".996"/><path fill="#a4b180" d="m885.5 1483 1.5.5-2 1 .5 1.5q-3-1.5 0-3m8 0 2.5 1.5q1.5 4.4-1.5 3.5v-4zm11 0 2.5 1.5-.5 2.5-.5-3-2.5 1zm-727 1 .5 4.5-2 1 1-3zm327 0 1.5 3.5-2 1zm-325 13 .5 5.5h-1zm53 0 3 4 1-4 .5 6-2-1.5zm201 0 1.5 2.5-1.5 3.5zm262 0 .5 5.5h-1zm183 0 .5 5.5-2.5 1.5-1-2 2.5 1zm-626 2 1.5 4.5-2-1zm115 0 .5 5.5h-1zm368 0 1.5 4.5-2-1zm-587 1 1.5 2.5-2.5 1.5v-1l1.5-1.5zm117 12 1.5.5-3 2 1 4-2-1q-.7-4.7 2.5-5.5m78 0 2.5.5-1.5 6.5zm-23 1 .5 5.5h-1zm36 0 .5 6-2-.5zm29 0 .5 5.5h-1zm88 0 .5 2.5-.5 2.5zm22 0 .5 5.5h-1zm43 0 .5 5.5h-1zm48 0 .5 5.5h-1zm46 0 .5 5.5h-1zm25 0 .5 5.5h-1zm130 0 .5 5.5h-1zm-516 1 2.5 1.5-.5 3.5-.5-4z" opacity=".996"/><path fill="#a4b180" d="m276.5 1514 1.5.5-2 1 .5 1.5q-3-1.5 0-3m5 0 1.5.5-2 1 .5 1.5q-3-1.5 0-3m53 0 1.5 4.5h-1zm14 0 2.5 1.5-1.5-.5-2 1zm11 0 2.5 1.5-.5 3.5-.5-4zm19 0 2.5 1.5-1.5 3.5.5-1.5q1.1-3.3-1.5-2.5zm53 0 1.5.5-2 1 3 2-.5 1.5-.5-2-3-1.5zm7 0 1.5 3.5-2 1 1-3zm4 0 2.5 1.5-.5 3.5-.5-4zm5 0 1.5.5-2 .5 1 3.5-2-1zm19 0 2.5 1.5-.5 3.5-.5-4zm19 0 2.5 1.5-1.5-.5-2 1zm17 0 1.5 4.5h-1zm21 0 2.5 1.5-1.5 3.5.5-1.5q1.1-3.3-1.5-2.5zm11 0 2.5 1.5-1.5 1.5v-2l-1.5 1.5h-1zm18 0 1.5 4.5h-1zm24 0 2.5 1.5-.5 3.5-.5-4zm7 0 1.5 3.5-2 1 1-3zm14 0 1.5.5-2 1 .5 1.5q-3-1.5 0-3m28 0 2.5 1.5-.5 1.5-.5-2q-3-1.2-2 2.5h-1zm14 0 2.5 1.5-.5 2.5-.5-3-2.5 1zm6 0 1.5 4.5h-1zm29 0 2.5 1.5-.5 3.5-.5-4zm31 0 1.5 4.5h-1zm9 0 1.5.5-2 1 .5 1.5q-3-1.5 0-3m8 0 2.5 1.5-1.5-.5-2 1zm11 0 2.5 1.5-1.5-.5-2 1zm29 0 2.5 1.5-.5 3.5-.5-4zm11 0 1.5.5-2 1 .5 1.5q-3-1.5 0-3m24 0 1.5 4.5h-1zm3 0 1.5 4.5h-1zm-490 1 3.5 2.5-2 1-.5-2.5zm86 0 .5 1.5-1.5 2.5-1.5-2.5h2zm69 23 2.5 3.5-1.5-.5q-3.1.7-1-3m14 0 3.5 1.5-1.5-.5q-3.7-1-2.5 2l2 .5-1.5.5-1.5-2.5zm7 0 1.5 2.5h-2l-1.5 3.5.5-1.5zm22.5 0 5 1.5q1.1 3.3-1.5 2.5l.5-1.5q.7-3-3-1.5l-.5 6zm-12.5 1 .5 4.5-2 1zm72 0 3.5 1.5-3 .5 1 3.5-2 .5zm20 0 .5 5.5h-1zm-89 1 2.5 1.5q.8 2.6-2.5 1.5v2l-1.5-3.5zm20 0 2.5.5-3 .5 1 3.5-2-1zm26 0 2.5 1.5-1.5-.5-2 1zm20 0 1.5 5-2-.5zm27 0 2.5 1.5-1.5 3.5.5-1.5q1.1-3.3-1.5-2.5zm-117 1 1.5 3.5h-1q.9-3-3.5-1.5v-1zm62 0 3.5 2.5-2 1 .5-1.5zm-9 8 .5 5.5h-1zm8 1 1.5 4.5h-1zm5 0 1.5 4.5h-1l-1.5-2.5-1.5-.5zm5 0 1 3 1.5 2h-2l-2-3.5zm6 0 1.5 4.5-2-1 1-2zm14 0 2.5 3.5-2 1 1-2q-1.5-3-3 0l1 2-2 .5q-1.9-4.8 1.5-4zm-72 1 1 2 2.5-1.5.5 1.5 2.5-1.5-1 3.5-2.5-1-2.5 1zm8 0 1 2 .5-2 2.5 1 2-1-.5 1.5q1.1 3.3-1.5 2.5l-2-1-2.5-.5zm8 0 1 2 .5-2 2 1.5h1l.5-1.5.5 2.5-2.5.5-2 1zm10 0 .5 6-2-.5z" opacity=".996"/><path fill="#a4b180" d="M525.5 1551q3.4-.8 1.5 4l-2-.5 1-2zm32.5 0 2 .5-1 2.5 4-3-1.5 6-3.5-.5 3-1-3-.5zm12.5 0 1 2 2.5-1.5-1 3.5-3-1.5z" opacity=".996"/><path fill="#1a7552" d="m615.5 423 71.5.5-23.5 21.5H598zm-205 30h128l41 14 12-14 62.5.5-24 27 58.5.5 17.5 16.5-1 4.5-2.5 1H635l2.5 5 15.5 14.5q-1.1 3.3 1.5 2.5v1H616v-14.5q-1.7-3.2-3.5.5l-47 16h-39l-18.5 6 1.5 3q21.6 9.4 56 6l48.5 16 .5 2q4.3-1.7 1.5-3.5v-12l.5-.5h52l4.5 2.5 12 20-25.5 40.5-15 1-2-1-1 1H536l-6-7.5q8 1 10-4l16-24-1.5.5-71.5 26.5 2.5.5 14.5.5-3 1.5-2.5 4h-37l-15.5 5 1.5 3 6.5 2 .5 2 4-1q14.9 4.2 35.5 2l-.5 2h-27q-13 .5-20.5 6.5l.5 2.5h2l15 4h35l6.5 5.5-14.5.5-1.5-.5.5 3.5h2l68.5 25-19.5-29-7 1v-1l4.5-3.5 2.5-3.5 94 1 12.5-1-25.5 39-12-1-1 1H420v-40.5l1-1-2-.5q1.3-3-2.5-2v2l-38 18q-12.6-39.4-41-63-25.3-22.7-65.5-30.5 14-22.5 32.5-40.5l9.5-8.5V503h-8.5l-.5-2.5 19.5-19.5h22q27.6-18.4 64-28M488 602v1h8zm-22 3v1h28zm73 2v1h18zm193-49h16.5l2.5 2.5 5 12-1.5 4.5-1-1H722zm-22.5 75q3.4-.9 1.5 4.5l1 3.5h26.5l2.5-1-2 24h-21.5l-1.5 1.5-.5 6.5h-57l1.5-2.5 23.5-35.5h25zm267 28q3.3-1.1 2.5 1.5l8 17-83.5.5-2.5-.5 7-5.5.5-2h19q28.8-1.2 49-11m-61 29h74l1.5 1.5v2l2 5v2l3 10v2l1 6-2.5-1.5q-27.3-17.7-71-19zm-495 8 2 1h167l10-1-.5 1.5-31 45.5-36 1 5-26.5 3-8-41.5-.5-1-1-11.5 24-29.5 1q-8.6.9-12.5 6.5l11 4q-19.4-1.2-30 5.5l1.5 2q10.3 6.7 28.5 5.5l-11 5 13.5 5.5 28.5 1 11.5 24 1-1h23l7 1 3-1-1.5 2.5q-41.9 58.1-88.5 111.5h-19l-11 11h-4l-34-12-24-13-12.5 26.5.5 1.5-8.5-7.5-1.5-2.5h-2L307 892.5l-10-13 10-19q-21.6-18.9-35-44.5 53.9-9.8 82-46.5 16.4-19.3 24-46.5l41.5 19 .5-2.5-1-40zm.5 19-1 17h1zm219.5-19 2 1h70l3-1 .5 2.5.5 3.5H739v14.5l2 11-1.5-.5h-25l-2.5 2.5-1 8.5h30.5l.5 2.5 1 3.5H608.5l-.5-1.5z" opacity=".996"/><path fill="#1a7552" d="m532 758 15.5 1 9.5-1-18.5 27-2.5-7.5q2.5-1.5-1-3l1-3-2-.5zm3 1v1h8zm63.5-1h146l.5 1.5 2 5-42.5.5-2.5 2.5-1 4 46.5.5 1.5 1.5-.5 3.5h-50l-1 1h-53l-3.5 3.5q-1 6.5 3.5 7.5l4 1 1-1h42l1 1H753l2 5.5-63.5.5-2.5 1-11 20.5 68 .5-1.5 5-107.5-.5 1-4-1-5.5-13 4 1-16.5-6.5-1.5q-9.3 3.2-14.5 10.5l-4 8.5-3-.5v-17l-.5-2.5q-11.3 2.2-17.5 9.5l-6.5 10.5-17 1 .5-1.5zM566 816v1h6zm-18.5 13q9.9 4.1 25 3l1.5 1.5 7.5 11.5q5 6 16 6l-.5-1.5v-17l3-.5q2.8 9.5 10.5 15l12 5 .5-2 2-.5-2-15 1.5-.5 12.5 4 1-7 102 .5-3.5 4.5h-72l-3.5 3.5-6 8 1.5 1.5H726v2.5L715 866l-2.5 1h-62l-4 2q-2.8-3.7-10-3l-1.5 1.5V881h-5.5l-8-3q-31.7 25.8-76 39l-24 6h-45l3.5-4.5zM991 1002h6v8l-2.5-1-2.5 1z" opacity=".996"/><path fill="#834552" d="m913.5 189-1 2-79.5-.5 79.5-.5zm-84 3 1 1 84.5.5-2.5 1.5h-85l-2.5-1.5zm15 25q16.1-2.6 19.5 7.5 3.9 7.6 2 21l-5 25 1.5 1.5H889l-4 10-28-.5 1-3 1-6.5h-90.5l-.5-2 45.5-37q13.2-10.3 31-16" opacity=".996"/><path fill="#834552" d="m765.5 271 1.5 1.5-10.5 9.5h-21l-2.5 2.5-5 6 152 1-153 .5 17.5-20h20zm-545 1q13.7-1.5 18.5 5 5.3 4.5 5 15.5-1.5 10-8.5 14.5-4.4 4-14 3l-10.5-5q-6.5-4.9-5-18.5l6.5-10.5zM709 310h161.5l.5 2.5-3 6.5h-22.5l-1 1-1.5-.5-2 1.5v3.5l-8 17.5 2.5-1h19l1 1 118.5.5-117.5.5-1 1-3-1-69-1-1 1h-30l-1-1H700l1.5-2 16.5-19.5-1.5-1.5-14.5-.5zm20 1-8 8 1 1h120l4-8zm43 24-15 5-1 2h26v-1q-2-6-10-6" opacity=".996"/><path fill="#834552" d="m996.5 334 1.5 1.5V400q-5.2 2.2-15.5 1l-1-1h-103l-3 1-1-1h-69l-1 1h-31l-1-1h-91l-1 1h-28l-8-1-34-12-29-6q-30.6-4.9-68-3-48.3 3.2-84 19l.5-1.5 4-7v-4l2-3-1-2q3-2 2-8l-1-7h1l.5 5.5h219l3.5-2.5-1.5 2.5 14.5.5-23 27 35.5.5h87l1-1 1 1H805l13-28 96 .5q-21.4 12.1-39 28l2.5.5 1-1h103l2 1 12-2 1.5.5v-56l-.5-.5h-19l-1.5-.5zm-617 3 9.5.5-9.5.5zm16 2 5.5 2.5-1.5.5zm290 2h13l.5 2h-17.5l-3 3 1-3h-250l-1 1-.5-2h256.5zm-256 4 3.5 6.5h-1zm-19 5 3.5 4.5-2-1z" opacity=".996"/><path fill="#834552" d="M777.5 369q4.8-1.7 3.5 2.5l-9.5 26.5-49.5-.5q24.6-17.4 55.5-28.5m-411 31 4.5 2.5-1.5.5zm35 0-1 2-3 1v-1zm-22 5 9.5.5-9.5.5zm615 17 1.5 2q-3.3-1.3-2 3.5l-6 17.5 8.5 1 1-23 .5 34-45.5-1-1 1h-110l-2.5 2.5-1 2 3.5 4.5 3-1 1 1H978l-3 8h18.5l2.5 1-1 2.5 1 3-2 3-3 26.5h-38.5l-.5 1.5q-16.4 22.6-37.5 40.5l-17 13-6 2q-14.8-10.7-37-14-16.3 5.7-40 4l-2.5-1-4-10-2.5-1h-63l-1-1-3 2-1-1h-16L681 609l63 .5-64 .5-2 5h65.5l.5-1.5h1l-.5 2.5H676l2-4.5-1.5-1.5h-15l-1-1-5 7-95.5-.5 82-.5 2-4.5-84-1 99.5-.5 1.5-1.5 37-62.5-27.5-1-1 1H616l-1-10.5 1-2v-2l-1-4.5h94.5l1.5-1.5 32-62-2.5-3.5 4.5 3 17-39h28.5l.5 2.5-29 52.5-2 .5 5 4q-1.1 3.3 1.5 2.5 7.3 4 5 8l-11-13-13.5 24 18 .5-13 21 43.5.5-.5-1.5-11-17q17.3-33.2 41.5-59.5l-.5 1.5-1.5 1.5-1 2h130l3.5-3.5 3-4-130.5-.5v2l-1.5-1.5 6-6 15.5-16.5h145zM843 430v2l-1-1-7 7 1 1h127l5-7v-2zm118 15-2 4-3 4 2-1 1 1h24l2-6 1-2-2 1-1-1zm24 8-2 3h14v-3l-1 2zm-47 21-4 2-3 4 2-1 1 1h32l1-4-1-2zm-39 29-10 4q-3 2 0 3h48l5-3 3-3h-1l-1-1zm-8 20-3 1q-6 2-7 10l1 8 7 5 11-1q4-2 5-8 1-9-3-12-3-4-11-3m-181 4-2 3v1l2-1 1 1h19v-2l-1-2zm25 0-2 2q4 4 16 2l1-2 1-2-2 1-1-1zm-31 13-2 1-2 3 2-1 1 1h19l1-3h-1l-1-1zm-587.5-95q4.8-.7 5.5 2.5.8 4.8-2.5 5.5-4.7.8-5.5-2.5-.7-4.7 2.5-5.5m228 0 103.5.5q-20.6 1.4-36.5 7.5h-76l2-3 4.5-2.5 1.5-1.5z" opacity=".996"/><path fill="#834552" d="m502.5 445 160 1 1-1h60l13.5 11.5-3.5-2.5-8-1h-187q-15.4-6.1-36-7zm495 21 .5 250.5h-1l-6-27.5 4.5-1 1 2 .5-9.5h-1l-.5 1.5-4-1-3.5.5-9-21 18-8.5zm-440 67q3.3-1.1 2.5 1.5l1 2-3.5 1.5-1.5-3.5zm-300 20 .5 1.5-.5 2.5-1.5.5.5 1.5-1.5.5.5 1.5q-2.6-.8-1.5 2.5l-5 9q2.5 1.5-1 3l-2 7.5-2-.5zm564 24q25.1-.6 42.5 6.5L828.5 598l-1.5-3.5zm-577 7 .5 1.5-3 9.5-2-.5 2-3 1-5zM71 590q33-1.9 52 11.5l-52 .5zm168.5 9 .5 2.5-1 3.5-2-.5 2-3zm-115 3 3.5 2.5-1.5-.5zm818 1 17.5.5-6 11.5-4-1zm-705 3 .5 2q24 6.8 39 23.5 17.4 16.8 20 47.5h-44.5l-18.5 5 1.5 2q6.1 4.4 16 5H298q-4.8 38-29.5 57-12.7 10.3-30.5 15.5l-.5 2.5-1.5-2.5 1-2q-12-37.5-10-89l3-33zm-101 4 13.5 11.5q-1.1 3.3 1.5 2.5l2.5 5q3-1 2 2l-2-1.5-9.5-11.5-3.5 2.5-13 26-5 22v7l-2 3q.7 43.8 19 70l-2-1-6.5-9.5-1.5.5 6.5 11.5q6-1 7 3l6.5-8 2 1.5-13 10.5-1.5 2q-2 5-4 2h-62l-.5-.5V749h62.5l.5-1.5-5.5-9.5h-57l-.5-.5V727h53.5l1.5-1.5-.5-1.5-1.5.5 1-3.5-2-1.5 1-2h-2l-.5-2.5h-49l-1.5.5v-11l.5-.5H120l.5 2 .5-3.5q-3-1-2-6l1-3.5H71.5l-.5-.5V681h48.5l.5-6.5-1-4.5H71.5l-.5-.5V659h49.5l2.5-1-1-4 2-1.5-1-2h2l-1-3.5H71.5l-.5-.5V636h56.5l1.5-1.5.5-1.5.5 1.5-.5 1.5 2.5-1.5 5-10h-3l-.5 1.5-1-1H71v-11.5l.5-.5h66zm390 8q5.7-1.6 3.5 4l-5-1.5zm108 8 14.5.5-3 5.5h16.5l1 1 6-7-1.5 2.5-1 3.5 17 .5-17.5.5-2.5.5-25 38 19 1-5 7 63 .5v9.5l-.5.5h-69l-6 8h-19l-2.5 2.5-31 45 363 .5-7.5 11-2 1h-361l-4.5 3.5Q504.8 862.6 428 957l20 .5-14 18.5-17.5-7-.5 2-2 1.5-26.5 29.5-35.5-.5 35-33 10.5-12.5 2.5-1.5q74.1-79.2 137-168.5l2-1.5 19-26.5-13-.5 13.5-1.5 1.5.5 4-8q-2.1-3.4-9-2l12.5-.5 1.5-1.5 32-46-13-1 5-7.5H405.5l-1.5-1.5 1.5-3.5h25l1-5h168l5.5-8h13.5l1.5-1.5 24-36V632l-13-.5zM588 747l-6 9 17 1h146l1-1h195l1 1 4-5 3-3 1-2-2 1H744l-1-1H609l-1 1h-19z" opacity=".996"/><path fill="#834552" d="M156.5 632q2.6-.8 1.5 2.5 16.5 20.5 15 59-1 15-6 26L157 740q-3 1-2-2l2-.5q-20.7-19.3-19-61 4-27 19-43zm172 39 1 1 52.5.5-54 .5zm76.5 9 8 .5-8 3.5zm494.5 0 11.5 8.5-19.5.5q-1.5-2.5-3 1l-1.5-.5zM284 683l4 1.5-1.5 3.5-3.5-2.5zm54.5 0 3.5 1.5-2.5 3.5-2.5-1.5zM841 698l33 .5-7.5 4.5H841zm156.5 48 .5 11.5h-1zm-525 4 3.5 1.5-1.5 3.5-3.5-1.5zm53 0 3.5 1.5-1.5 3.5-3.5-1.5zM71 772l45 .5q-17.7 9.6-45 8.5zm169.5 5q2.6-.8 1.5 2.5l6 14v2l2 3v2l2 3q-2.5 1.5 1 3l1 4.5 2 .5-.5 1.5 1.5.5v2l1 2-2-1-13-29 1-1-3-7zm757 0 .5 12.5h-1zm-352 1h333l1 1H996v9.5l-.5.5h-121l-1.5 2.5 2.5.5 5 1h2l9.5 3.5-1.5 2.5-13.5 5-.5 2-1.5-.5 1.5 2.5 20 15 41.5 1.5-2 .5q1.5 3.7-1.5 3l-1 1h-27l-13 2h-2l-14 5h-18l-1-1h-2q-9.6-.4-15-5h-37l-5.5-1-1-4-32 .5 2 3-1.5 1.5h-130l.5-1.5-1-3 1.5-1.5h162l31.5-1 1-2.5-1.5-2.5h-19l-.5-2.5q7.7-11.5 11-26.5H645.5l-3.5-2.5 1-7.5zm179.5 4-1 6 1 2h18zm27 7q-4 2 1 4l7-1h2v-1q-2-4-10-2m11 0 2 2q6 1 8-1zm-45 16-5 9 1 2 17 1 11-2zm-224.5 18 3.5 1.5-1.5 3.5-3.5-1.5zm404 0 .5 6.5h-1zm-188 12 27.5 2q1.4 3.7-4.5 2l-3-2-12 1-4-1-2.5 1 1.5 2 16 9h16l16-3 1.5-1.5-1.5-.5-1.5.5-.5-1.5-5-1-2-1h-2l-2-1-2 1-3-2-2 1-2.5-1 .5-2 38 11 35 21h2l83 1 1.5-.5-1 6.5h-75.5l-1 1h-39l-1-1-1 1h-87l-8.5-12.5 17-28.5zm-15 45 202.5 1 1 6.5-1.5-.5h-62l-.5 1.5.5 1.5-25.5.5 23 16-119 1 3 2-1.5.5q-12.6-13.9-20-30m-490 10 18 19 5.5 4.5-3.5-2.5-1.5 1.5q-23.1 40.1-36 89.5h-33.5l-6.5 5.5-2 7 5 8-3.5-2.5-2.5 2.5-1 7 4.5 7.5 4 2H354l-10.5 12-121.5-.5q36.4-85.1 82.5-160.5m-175 17q11.5-1.3 15.5 4 5.4 4.9 4 17.5l-4.5 6.5-3 2-9 3q-8.4-1.1-12.5-6.5-4.3-4.2-3-14 1.8-7.2 7.5-10.5zm686 4 4.5 3.5-1.5.5zm45 10h88l1 1h47l1-1 .5 9.5-1.5-.5h-37l-1 1h-99l-2.5-2.5 2.5 1.5 5.5-1q1.3-5.5-2.5-7zm-36 1 5.5 4.5-1.5.5zm16 17 1 1h121l2.5 1q10.4 13.7 17 31l-105 .5 3 1.5 1.5 2 2.5 1 1.5 2 2.5 1-.5 2-42.5-36zm-463 10 3.5 2.5-1.5-.5zm7 4 5.5 3.5-1.5-.5zm315 19 4.5 2.5 1 5-3.5 4.5-2.5-.5 4-2 1-5-2.5-3.5z" opacity=".996"/><path fill="#834552" d="m699.5 974 .5 7.5h-1zm190 8 1 1H986l4 19h-72.5l-23-15zm-442 20 1.5.5-3 2 1.5 4.5 1.5.5-1.5.5q-3.2-.7-2.5-5.5zm-186 22h130l.5 1.5-11.5 13.5h-23l-2.5 1 10-14 2-.5-44.5-.5q-10.4 10.1-29 12l-6.5-3.5-3-8.5h-22.5zm703 0 30.5.5-1 5 1 6.5-29.5-10zm-451 18q31.6-.1 43.5 19.5 8.9 10.8 10 28.5h430.5l.5.5v25l-1 1v22.5H858.5l-23-22H559l-10.5 13q-12.1 11.9-38 10-20.8-4.2-31.5-18.5-12.1-12.4-10-39 4.2-18.3 16.5-28.5 10.3-9.7 28-12m-9.5 22-6 3-2 3 2-1 1 1h42l-8-6zm-11 12-2 1-2 4 2 1h57l-2-5h-1l-1-1zm-4 12-3 4 3 2h58l2-3-2-3zm2 12-2 4 4 2h51l3-1 1-4h-1l-1-1zm4 12q1 4 9 6h29l8-5-1-1h-42l-1 1zm-301.5-41 158.5.5-15.5 17.5h-28l-1 1-1.5-.5-1.5 1.5q-26.5 27-58 49-12.7 11.8-36 13l-9.5-7.5q-4.7-8.3-2-24l7-31-1.5-1.5H185zm20.5 1-5 16v1h97l17-16z" opacity=".996"/><path fill="#834552" d="M620.5 1072q5.5-1 6.5 2.5l1 3-3.5 4.5q-5.5 1-6.5-2.5l-1-3zm104.5 84h272.5l.5 3H725.5zm-373.5 53 16.5.5-16.5.5zm423 0 16.5.5-16.5.5zm-653 1 30.5.5-30.5.5zm81 0q6-1.5 7.5 1.5l-.5 39.5-.5-40-5.5 1zm14 0 24.5.5-24.5.5zm37 0 44.5.5-44.5.5zm147 0 37.5.5-37.5.5zm80 0h31l1.5 1.5-.5 1.5-.5-2h-31.5zm56 0 23.5.5-23.5.5-1 1zm33 0 20.5.5-20.5.5zm34 0 34.5.5-35 .5-.5 105-.5-104.5zm88 0 51.5.5-51.5.5zm132 0 24.5.5-24.5.5zm31 0h24l1.5 1.5-.5 85.5-.5-86h-24.5zm38 0 36.5.5-37 .5-.5 104-.5-103.5zm-729 13q6.8-1.3 9.5 1.5l-8.5.5zm293 7 .5 22.5h-1zm-94 2 .5 17.5h-1zm63 0 .5 25 3 .5-2.5.5-1.5-1.5zm360 0 .5 62.5h-1zm-626 1 .5 82.5h-1zm119 0 .5 17.5h-1zm644 0 .5 22.5h-1zm-625 19 .5 20.5-1.5 1.5H279l-.5 20-.5-19.5 1.5-1.5H297zm63 4 27.5.5-28 .5-.5 20-.5-19.5zm-150 17 4.5.5-5 .5-.5 41-.5-40.5zm346 3 .5 2.5-.5 37.5zm-131 3 .5 36.5h-1zm31 0 .5 34.5h-1zm35 2 6.5.5-6.5.5zm-193 14 .5 20.5h-1zm457.5 63 3 .5-2 .5-.5 4zm61 0 4 .5v16l-.5 16.5-.5-16.5v-15l-1.5-.5-1.5.5zm46.5 0 3.5.5v14l1.5 2.5-1.5-.5-.5 16.5-.5-16.5v-15l-2.5-.5zm15.5 0q4.8-1.9 4 1.5l-1.5-.5-1.5.5v31h-1zm26 0 3 .5-2 .5-.5 4zm-271.5 2 6 2 1.5-.5-2.5.5-5-1-3 2-1-2h2zm-8 2 2.5.5-3.5 1.5-3 1v-1zm213 0 .5 25.5h-1zm-4 4 .5 18.5h-1zm-218 5 1.5 4.5-2 1v-2l1-2zm-492.5 4 2 .5v24.5l-2-.5zm11 0 2 1.5 3 8v2l2 13-2-1zm13 0 2 .5v23l-2 1zm4.5 0q3.3 1.8 1.5 8.5l-1.5 2.5zm6.5 0 2 .5v24.5l-2-.5zm11 0 2 .5v24l-2-1zm4.5 0q3.3 1.7 2.5 7.5l-2.5 3.5.5-1.5zm7.5 0 2 .5v24l-2-1zm8 0 2 .5v24l-2-1zm12.5 0 5.5 16.5v6h-1l-5-17zm12 0 .5 23.5h-1l-2-14zm8.5 0 2 .5v24l-2-1zm19 0 2 .5v24l-2-1zm10 0 2 .5v23l-2 1zm5 0 2 .5v23l-2 1-1-14zm7.5 0 2.5.5-1 9 1 2-1 11-.5 2.5-.5-2.5v-21zm19 0 .5 1.5-1 1v18l1 3h-1q-3.4-6.1-2-17zm8.5 0 2 .5v24.5l-2-.5zm5 0 2 .5v24.5l-2-.5zm20 0 2 .5v24.5l-2-.5zm4.5 0 2.5 6.5-1 3.5q-3 1.3-2-2.5l1-3zm7.5 0q3.7-1.3 2 4.5 3 7 2 18h-1zm6 0 2 .5v24l-2-1zm26 0 2 .5v24l-2-1zm18.5 0 .5 6.5-1 10 1 7h-1q-3-6-2-16zm10 0 1.5.5v9l1 2-1.5 13.5-.5-2.5v-21zm4 0q4 1.5 2.5 8.5l-2 1zm20 0q4.7-1.1 2.5 7.5l2 13-2 1zm12.5 0 2 .5v24.5l-2-.5zm9 0 2 .5v24l-2-1zm9 0 2 1.5q4.6 7.9 3 22l-2 1q1.3-15.5-3-24.5m53 0 2 .5v23l-2 1zm20 0 2 .5v24.5l-2-.5zm-166.5 1 .5 21.5h-1l-1-19zm4 0 1.5 2.5v17l-1.5 3.5zm50 0 3.5 24q-3.7 1.3-2-4.5-3.1-8.7-1.5-19.5m62 0 2.5 23.5-2-1-2-19zm38 0 6.5 20q-3.3 1.3-2-3.5l-5-10zm21 0 6.5 16.5v4h-1l-6-14zm344 0 .5 10.5h-1zm-561 1 2.5 22.5-2-1-2-20zm166 0 6.5 14.5v6h-1l-6-17zm11 0q6 7 6.5 19.5h-1l-6-15zm133 2 3.5 2-1.5 2zm146 0 .5 11.5h-1l-1-2zm149 0 .5 11.5h-1l-1-2zm-739 8q2.6-.8 1.5 2.5l1 10-2-1zm147 0 1.5 1.5 1 11-2-1zm73 0q3.4 3.6 1.5 12.5h-1zm-11 1 .5 10q-4 1-2-8.5zm544 0 1.5 2.5h-1l-.5-1.5-2 3-1.5-.5 2-.5zm-731 7 .5 3.5-2.5 1.5.5-1.5zm33 0 .5 3.5-2.5 1.5.5-1.5zm41 0 .5 3.5-2 1z" opacity=".996"/><path fill="#457d68" d="m623.5 190 205.5.5-3.5 2.5H624zm293 0h80l.5 3h-81.5l-.5-1.5zM889 272h107.5l.5.5v19l-1.5-.5h-114l-1 1 .5-1.5zm-511.5 66q23.9-1.9 32.5 11.5 8.2 8.3 8 25-2.6 16.4-13.5 24.5-8.6 8-27 6-13.6-2.9-20.5-12.5-8.1-7.9-7-25 2.5-17 14.5-24.5zm51.5 5 251 .5-23.5 27.5h-219l-.5-5.5q-2.1-13.8-8-22.5m427.5 0 113.5.5q-29.9 11.1-54.5 27.5H842zm-343 36q78.6-3.1 130.5 20.5l-215.5.5 3-4q36-13.4 82-17m-137 44 1 1h13l1-1h223l-3.5 4.5-13 17.5-252-.5zm311 0h4l30.5 21.5-57.5.5 9-10zm-429 8 4.5 1.5 1 2-2.5 3.5q-4.7.8-5.5-2.5zm75.5 22 76 .5q-36.4 9.1-63.5 27.5h-22L305 500.5v2.5h8.5l.5 2.5-11 10q-17.8 17.7-31.5 39.5l-13.5-1q23.6-52.1 63.5-89l12.5-10zm205.5 0 51.5.5-11.5 13.5-36-13h-4zm115 0h71l8 1 9.5 8.5-33 63.5h-54.5l-2.5-1v-2.5L638.5 508l-3.5-2.5.5-2.5h67l2.5-1 1-4.5-17.5-16.5-58.5-.5zm187 4q4.8-.7 5.5 2.5.8 5.8-3.5 6.5l-4.5-2.5-1-2zm-70 37 4.5 3.5 8 11-9 17.5-23-.5zm-159 16 3.5 1.5-.5 14.5-.5-14zm-81 23 2.5 1-1.5 4-3.5-2.5zm1 9 32.5.5-32.5.5-2 1v-1zm138 2 27.5 1-12.5 22-14-21-2.5-.5zm71 0 1 1 23.5.5-9 24.5-2-1.5-6.5-10.5-16.5-.5zm-126 1 1.5 13.5-3 2zm106 30 1 1H754l-8 33h-42.5l-.5-2.5-1-2zM71 602h52.5l15.5 11.5-1.5-.5h-66l-.5-.5zm416.5 0 8.5.5-8.5.5zm-22 3 28.5.5-28.5.5zm73 2 18.5.5-18.5.5zm108 1 13.5.5-13.5.5zm-86.5 8 94 .5-5 9.5h-88.5l-1-4h-20l-.5-1.5 1.5-1.5H560zm116.5 0h67l.5 4.5-1 5.5-73-.5zm-176 2 3.5 1.5-1 2.5-4-1.5zm-36 1h26l.5 4-29-.5 28-.5-.5-2h-25zM71 625h61.5l.5 1.5-5.5 9.5h-56l-.5-.5zm345.5 3h2.5l1.5 2-.5 1.5-.5 40.5-.5-42zm120 4h107l.5 1.5-1.5-.5-82 1-1-1h-23l-1 3q-3.5-2 1-4m147.5 0h57.5l.5 3.5-1 4.5-2.5 1H712l-1-8-2.5 1H684zm-224.5 2 7.5.5-8.5 1.5zm36 1 4 5-2.5-.5q2.8-1.7-1.5-3.5l-1.5.5zm38 1-1 4-2.5-.5zm-48 4 16.5 1.5-16 .5.5 2 1.5-.5q-1.5 3-3 0zm43 0 7 1 1.5-.5 2 3-2.5-1.5h-8zM71 647h52.5l.5 2.5-3.5 9.5h-49l-.5-.5zm908.5 14 4.5 10.5-2-1zm-264 3h23l.5 2.5-1 5.5h-21.5l-.5-6.5zM71 670h47.5l.5.5V681H71.5l-.5-.5zm913.5 3 2.5 5.5-2-1zm-79 1q-5.8 4-2 8l4.5 3.5-3.5-2.5-4.5-2zm-647 9 3.5 2.5-5 1.5zm54 0 2.5 1.5q1.3 4.2-3.5 2.5-3.5-2 1-4m598 4 12.5 10.5-46.5.5v-1l14-9 1 1h19zM71 693h47.5q1.4.4.5 7.5l1 3.5H71.5l-.5-.5zm349.5 4h167l2.5 1.5-167.5.5-2-1-1.5.5zm221 0 73.5.5-2.5 1.5h-70zm75 1h21l.5 6h-21.5l-.5-3.5zm-219 12 1 1 41.5.5-42.5.5-1 1 .5-1.5zm-425 5h49l.5 2.5 3 9.5H71.5l-.5-.5v-10zm348 2 .5 16.5-1 6-.5 2.5-.5-7.5zm577 0 .5 28.5h-1zm-283 12h25l1.5 1.5 1 9.5h-30.5l-.5-4.5zm-250 5 21.5.5-21.5.5zM71 738h57.5l1.5 1.5 4 9.5H71.5l-.5-.5zm375.5 12 2.5 1.5-1.5 3.5-2.5-1.5zm53 0 2.5 1.5-1.5 3.5-2.5-1.5zm-59 7 4.5.5-5.5 1.5zm557 1 .5 18.5h-1zm-463 1 8.5.5-8.5.5zM71 761l63 .5-17.5 10.5H71zm633.5 4h42l.5 3.5 1 3.5-47-.5zm-239 4 20.5.5-20.5.5-1 1zm233 8 51.5.5-51.5.5zm-6 12 60.5.5-60.5.5zm305 1 .5 32.5h-1zm-501 1 1 1 35.5.5-10.5 1.5-1-1h-23l-1.5.5zm195 5h63l.5 1.5 9 26.5h-18.5l-.5-1.5 1-4.5-68-.5 11-20.5zm-69 3 2.5 1.5-1 1v15l.5 1.5-1.5-.5v-17zm-26 2 .5 16.5h-1zm-17 4 2.5.5-3 2zm25 2 2.5.5-3 2zm-335 9q3.3-1.1 2.5 1.5l10 15 25 28v2L296.5 880q-23.8-27.5-38.5-63zm296 0 6.5.5-6.5.5zm2 7 2.5 1.5-1.5 3.5-2.5-1.5zm172.5 7h26.5l.5 1.5 17 32-4.5 5.5-78 1-5-1-5.5 3.5-2 8 5.5 6.5 5 1 2-1 1 1h60l1.5-.5-17.5 19.5-20 17h-80l-1-1-123.5-.5q28.2-5.3 51.5-15.5 26.8-11.7 48-29h3q3.2 4.1 10.5 3v-13.5l1.5-1.5 11 3 3-2h62l2.5-1 11-14.5V849h-69.5l-1-1-1.5.5 10.5-12.5h72l2.5-2.5zm257.5 0 .5 38.5h-1zm-437 1 6.5.5-8.5 1.5v-1zm36 4 .5 13.5h-1zm27 0 1.5 14.5-2 .5-.5 2-3.5-1.5 4-.5zm-15 9 2 3-2.5-.5zm-16 6 5.5.5-6.5 1.5z" opacity=".996"/><path fill="#457d68" d="m708 876 82.5 1h89l1-1 1 1h37l3-1h76l.5 5-226.5-1-1 1H707zm239 1v2l1 1h49v-3zm50.5 11 .5 32.5h-1zm-648 5q26.3 17.2 61.5 25.5l-4.5 4.5-65 1-3.5-2.5-.5-1.5-2.5-.5q2 1.7 4-2zm-23 18 2.5 1.5 3 4zm671 20 .5 78.5q-1.2 2.8-6.5 1.5l-1-1-538.5-.5 1-6.5-2-.5 540-.5 1 8 2.5-1 2.5 1zm-635 8h25l.5 1.5-11.5 8.5-13-8z" opacity=".996"/><path fill="#457d68" d="m613.5 939 92.5.5q-39.1 27.9-91.5 42.5-43.2 12.8-102 10-44.1-3.7-78.5-16l28.5-36h150zm-223 17 6.5.5q-1.7 4.2-3.5 1.5zm307 16 1.5.5v11l-1.5-.5-3.5-1.5-1-5 2.5-3.5zm298 52 2.5 1.5v16l-2 .5-1-5.5h2v-11l-1.5-.5zm-845 28q16.1-2.1 20.5 7.5 4.7 4.8 3 16-1.8 7.2-7.5 10.5-4.2 4.3-14 3-9.6-1.9-13.5-9.5-2.9-4.6-2-13l7.5-11.5zM129 1351q3.8-1.1 2 7.5l-1 3.5-5.5 1-1-2q5.4 1.9 4.5-1.5zm6 0q4-1 2 8.5l5 1.5 1-10q4-1 2 8.5l-1 2.5-6.5 1q-4.4-3.3-2.5-12m14 0q5.7-1 8 2.5l-1.5 4.5-4.5 1q1.7 5.2-2 4zm2 2q-2 6 4 4 2-6-4-4m11-2 2 .5v11.5l-2-.5zm6 0h8.5l.5 2-4 1.5 1 8-2 .5q2.3-7.7-1.5-10-3.7 1-2.5-2m13 0q7.9-1.7 7 2-6.7-2.2-5 3 5.2-1.7 4 2-5.6-1.9-4 3 6.3-2 5 2h-7zm12 0 8 1-1 8.5 1.5 2.5q-3.3 1.1-2.5-1.5l-4-2.5q1.7 5.2-2 4zm2 2q-2 6 4 4v-2q1-4-4-2m37.5-2 4.5 1.5-4 .5 1.5 3 3.5 1-1.5 6-5.5-1.5.5-1.5 4.5 1q1.5-3.8-1.5-3l-3.5-2.5zm13.5 0 2 1.5 5 10-1.5.5q-1.7-3.5-7.5-2 1 3-2 2zm0 4-1 3q-1 3 4 1l-1-2zm9-4h8.5l.5 2h-3v9.5l-2 .5q2.3-7.7-1.5-10-3.7 1-2.5-2m13 0q3.8-1.1 2 7.5l1 2.5q4.8 1.9 4-1.5l1-8.5q4-1 2 8.5l-1 2.5-5.5 1-2.5-1zm15 0q6.3-1.5 8 2.5l-2 6 2 3-1.5.5-2.5-4h-2q1.7 5.2-2 4zm2 2q-2 6 4 4 2-6-4-4m11-2 4 2.5 2 4.5h2q-1.7-7.9 2-7v11.5l-1.5.5-6-7-.5 7-2-.5zm39 0q3.8-1.1 2 7.5l1 2.5 5-1.5q-2-9.5 2-8.5 2.5 9.4-2.5 12l-6.5-1zm15 0q6.3-1.5 8 2.5v4.5l-2 1.5 2 3.5-3-1.5-1.5-2.5q-3.4-.8-1.5 4h-2zm2 2q-2 6 4 4 2-6-4-4m15-2 2 1.5 5 10-1.5.5q-1.7-3.5-7.5-2 1 3-2 2zm0 4-1 4q5 2 4-2zm11-4 4 2.5 2 4.5h2q-1.7-7.9 2-7v11.5l-1.5.5-6-7-.5 7-2-.5zm14 0q3.5-1.1 2 6.5l1 3.5 5-1.5q-2-9.5 2-8.5 2.5 9.4-2.5 12l-6.5-1zm16.5 0 4.5 1.5-4 .5 1.5 3 3.5 1.5-1.5 5.5-5.5-1.5.5-1.5 4.5 1q1.5-3.8-1.5-3l-3.5-2.5zm35.5 0 4 2.5 2.5 4.5 2-7 .5 12-2-1.5-4.5-5.5-.5 7-2-.5zm14 0q7.9-1.7 7 2-6.7-2.2-5 3 5.2-1.7 4 2-5.6-1.9-4 3 6.3-2 5 2h-7zm12 0q5.7-1 8 2.5l-1.5 4.5-4.5 1q1.7 5.2-2 4zm2 2q-2 5 3 4l1-2zm10-2h8.5l.5 2-4 1.5 1 8-2 .5q2.3-7.7-1.5-10-3.7 1-2.5-2m13 0q3.7-1.1 2 7.5l1 2.5q4.8 1.9 4-1.5l1-8.5q4-1 2 8.5l-1 2.5-6.5 1q-4.4-3.3-2.5-12m14.5 0 3.5 1.5 3.5 5.5.5-7 2 .5v11.5l-3-1.5-3.5-5.5H511q1.8 7.3-1.5 7l.5-1.5zm14.5 0q7.9-1.7 7 2-6.7-2.2-5 3 5.2-1.7 4 2-5.6-1.9-4 3 6.2-2 5 2h-7zm102.5 17 .5 11.5-4 1.5v-8.5l-1.5-.5 1-2zm2.5 0h8v6.5l-3.5 6.5q-4.4 1.5-3.5-1.5l6-7-7-2zm10 0h8v2.5q-1.6 3-7 1.5l-.5 2z" opacity=".996"/><path fill="#457d68" d="m641.5 1373 5.5 1.5-1.5 5.5-2 1-2-1q-1.7 2.8-3.5-1.5 2.5-4.5 5-1 1.5-4.4-1.5-3.5zm285 5 .5 10.5h-1z" opacity=".996"/></svg>